<?xml version="1.0" encoding="UTF-8"?>
<!DOCTYPE svg PUBLIC "-//W3C//DTD SVG 1.1//EN" "http://www.w3.org/Graphics/SVG/1.1/DTD/svg11.dtd">
<!-- Creator: CorelDRAW -->
<svg xmlns="http://www.w3.org/2000/svg" xml:space="preserve" width="2048px" height="2048px" style="shape-rendering:geometricPrecision; text-rendering:geometricPrecision; image-rendering:optimizeQuality; fill-rule:evenodd; clip-rule:evenodd"
viewBox="0 0 2048 2048"
 xmlns:xlink="http://www.w3.org/1999/xlink">
 <defs>
  <style type="text/css">
   <![CDATA[
    .fil8 {fill:none}
    .fil1 {fill:#7B838E}
    .fil0 {fill:#8E96A3}
    .fil7 {fill:#CB740A}
    .fil6 {fill:#FFA000}
    .fil2 {fill:#415065;fill-rule:nonzero}
    .fil5 {fill:#7CB342;fill-rule:nonzero}
    .fil3 {fill:#EF5350;fill-rule:nonzero}
    .fil4 {fill:#FFAB40;fill-rule:nonzero}
   ]]>
  </style>
 </defs>
 <g id="Layer_x0020_1">
  <metadata id="CorelCorpID_0Corel-Layer"/>
  <path class="fil0" d="M1792 542.669l0 772.659c0,15.8327 -12.835,28.6677 -28.6677,28.6677l-1318.67 0c-15.8327,0 -28.6677,-12.835 -28.6677,-28.6677l0 -772.659 1376 0z"/>
  <polygon class="fil1" points="1792,542.669 1792,599.998 416,599.998 416,542.669 "/>
  <path class="fil2" d="M444.668 255.999l1318.67 0c15.8327,0 28.6677,12.835 28.6677,28.6677l0 258 -1376 0 0 -258c0,-15.8327 12.835,-28.6677 28.6677,-28.6677z"/>
  <polygon class="fil3" points="1562.8,340.536 1562.8,455.202 1677.47,455.202 1677.47,340.536 "/>
  <polygon class="fil4" points="1161.19,455.202 1275.86,455.202 1275.86,340.536 1161.19,340.536 "/>
  <polygon class="fil5" points="1361.71,340.536 1361.71,455.202 1476.37,455.202 1476.37,340.536 "/>
  <path class="fil6" d="M830.103 818.42c6.85867,13.7599 13.8225,29.7981 20.7461,45.7477 15.6165,35.9717 31.0051,71.4142 42.854,76.4256 12.1004,5.11772 49.1611,-9.78898 86.1225,-24.6555 21.7536,-8.75079 56.9953,-30.3225 77.7981,-9.81851 14.1036,11.413 26.9988,22.9642 38.6303,34.5957 12.3484,12.3484 24.6083,26.1225 36.7122,41.2524l0.124016 -0.0992127c7.39016,9.23859 8.82875,21.3177 4.83189,31.6051 -4.63229,13.2921 -10.7457,28.4906 -16.8626,43.6985 -14.8665,36.9614 -29.7733,74.0221 -24.6555,86.1225 5.01142,11.8488 40.4551,27.2386 76.4268,42.8552 21.0992,9.15946 63.3863,20.0244 65.4036,48.0402 2.96929,25.8981 16.3949,126.773 -19.6559,141.776 -13.7599,6.85867 -29.7981,13.8225 -45.7477,20.7461 -35.9717,15.6177 -71.4142,31.0063 -76.4256,42.854 -5.11772,12.1004 9.78898,49.1599 24.6555,86.1201 6.30237,15.6685 12.6,31.3264 17.2784,44.8996l0.0188977 -0.00708662c4.09252,11.8831 0.783071,24.5244 -7.47875,32.9067 -20.0776,24.8103 -75.1973,92.8158 -107.374,80.2926 -13.2874,-4.63111 -28.4788,-10.7421 -43.6807,-16.8555 -36.9603,-14.8654 -74.0209,-29.7721 -86.1213,-24.6543 -11.8488,5.01142 -27.2374,40.454 -42.854,76.4256 -9.15946,21.0992 -20.0244,63.3863 -48.0402,65.4036 -34.7681,3.9874 -127.615,14.3776 -141.775,-19.6547 -6.85867,-13.7599 -13.8225,-29.7969 -20.7484,-45.75 -15.6154,-35.9705 -31.004,-71.413 -42.8528,-76.4245 -12.1004,-5.11772 -49.1599,9.78898 -86.1201,24.6555 -15.6685,6.30237 -31.3264,12.6 -44.8996,17.2784l0.00708662 0.0188977c-11.8831,4.09252 -24.5244,0.783071 -32.9067,-7.47875 -14.1036,-11.413 -27,-22.9654 -38.6327,-34.5969 -16.2543,-16.2543 -52.0229,-46.1233 -41.6646,-72.7654 4.63229,-13.2945 10.7457,-28.4906 16.8626,-43.6985 14.8654,-36.9579 29.7697,-74.015 24.6532,-86.1142 -5.01142,-11.8488 -40.4551,-27.2386 -76.4268,-42.8552 -21.0992,-9.15946 -63.3863,-20.0244 -65.4036,-48.0402 -1.01102,-8.81575 -1.81536,-18.1158 -2.39528,-27.913 -0.618898,-10.4776 -0.938977,-20.2725 -0.938977,-29.328 0,-9.05316 0.320079,-18.8445 0.938977,-29.3197 0.612993,-10.35 1.4752,-20.1449 2.56772,-29.4047l-0.0295276 -0.00354331c1.40551,-11.9055 9.17953,-21.5067 19.5118,-25.8059 13.7599,-6.85867 29.7969,-13.8225 45.75,-20.7484 35.9705,-15.6154 71.4142,-31.0051 76.4245,-42.8528 5.11772,-12.1016 -9.78898,-49.1599 -24.6555,-86.1201 -6.30237,-15.6685 -12.6012,-31.3276 -17.2784,-44.8996l-0.0188977 0.00708662c-4.09252,-11.8831 -0.783071,-24.5244 7.47875,-32.9067 11.413,-14.1036 22.9654,-27 34.5969,-38.6327 16.2543,-16.2543 46.1233,-52.0229 72.7654,-41.6646 13.2945,4.63229 28.4906,10.7457 43.6985,16.8626 36.9579,14.8654 74.015,29.7697 86.1142,24.6532 11.8488,-5.01142 27.2386,-40.4551 42.8552,-76.4268 17.9079,-41.2559 17.85,-58.5756 52.1658,-65.1296 31.1079,-5.93741 124.313,-12.665 137.65,19.3819z"/>
  <path class="fil6" d="M877.264 1160.52c-33.5008,-33.5008 -79.7859,-54.2221 -130.912,-54.2221 -51.1264,0 -97.4115,20.7213 -130.912,54.2221 -33.5008,33.5008 -54.2221,79.7859 -54.2221,130.912 0,51.1264 20.7213,97.4115 54.2221,130.912 33.5008,33.5008 79.7859,54.2221 130.912,54.2221 51.1264,0 97.4115,-20.7213 130.912,-54.2221 33.5008,-33.5008 54.2221,-79.7859 54.2221,-130.912 0,-51.1264 -20.7213,-97.4115 -54.2221,-130.912z"/>
  <path class="fil7" d="M746.352 1042.29c68.7922,0 131.076,27.887 176.163,72.9733 45.0863,45.0863 72.9733,107.371 72.9733,176.163 0,68.7922 -27.887,131.076 -72.9733,176.163 -45.0863,45.0863 -107.371,72.9733 -176.163,72.9733 -68.7922,0 -131.076,-27.887 -176.163,-72.9733 -45.0863,-45.0863 -72.9733,-107.371 -72.9733,-176.163 0,-68.7922 27.887,-131.076 72.9733,-176.163 45.0863,-45.0863 107.371,-72.9733 176.163,-72.9733z"/>
  <path class="fil6" d="M786.225 1251.56c-10.2012,-10.2012 -24.3012,-16.5118 -39.8729,-16.5118 -15.574,0 -29.6717,6.31063 -39.8729,16.5118 -10.2012,10.2012 -16.5118,24.3012 -16.5118,39.8729 0,15.574 6.31063,29.6717 16.5118,39.8729 10.2012,10.2012 24.2988,16.5118 39.8729,16.5118 15.5717,0 29.6717,-6.31063 39.8729,-16.5118 10.2012,-10.2012 16.5118,-24.2988 16.5118,-39.8729 0,-15.5717 -6.31063,-29.6717 -16.5118,-39.8729z"/>
  <path class="fil6" d="M746.352 1171.04c33.2374,0 63.3367,13.4764 85.1233,35.263 21.7866,21.7866 35.263,51.8859 35.263,85.1233 0,33.2398 -13.4764,63.3367 -35.263,85.1233 -21.7866,21.7866 -51.8859,35.263 -85.1233,35.263 -33.2398,0 -63.3367,-13.4764 -85.1233,-35.263 -21.7866,-21.7866 -35.263,-51.8835 -35.263,-85.1233 0,-33.2374 13.4764,-63.3367 35.263,-85.1233 21.7866,-21.7866 51.8835,-35.263 85.1233,-35.263z"/>
 </g>
 <rect class="fil8" width="2048" height="2048"/>
</svg>
