<?xml version="1.0" encoding="UTF-8"?>
<!DOCTYPE svg PUBLIC "-//W3C//DTD SVG 1.1//EN" "http://www.w3.org/Graphics/SVG/1.1/DTD/svg11.dtd">
<!-- Creator: CorelDRAW -->
<svg xmlns="http://www.w3.org/2000/svg" xml:space="preserve" width="2048px" height="2048px" style="shape-rendering:geometricPrecision; text-rendering:geometricPrecision; image-rendering:optimizeQuality; fill-rule:evenodd; clip-rule:evenodd"
viewBox="0 0 2048 2048"
 xmlns:xlink="http://www.w3.org/1999/xlink">
 <defs>
  <style type="text/css">
   <![CDATA[
    .fil13 {fill:none}
    .fil5 {fill:#4D2909}
    .fil4 {fill:#57300F}
    .fil3 {fill:#673B15}
    .fil1 {fill:#7B838E}
    .fil6 {fill:#7C4D24}
    .fil9 {fill:#824E21}
    .fil8 {fill:#945823}
    .fil0 {fill:#BDBDBD}
    .fil2 {fill:#415065;fill-rule:nonzero}
    .fil7 {fill:#424242;fill-rule:nonzero}
    .fil12 {fill:#7CB342;fill-rule:nonzero}
    .fil10 {fill:#EF5350;fill-rule:nonzero}
    .fil11 {fill:#FFAB40;fill-rule:nonzero}
   ]]>
  </style>
 </defs>
 <g id="Layer_x0020_1">
  <metadata id="CorelCorpID_0Corel-Layer"/>
  <path class="fil0" d="M1792 576.003l0 1184c0,17.6728 -14.328,32.0008 -32.0008,32.0008l-1472 0c-17.6728,0 -32.0008,-14.328 -32.0008,-32.0008l0 -1184 1536 0z"/>
  <polygon class="fil1" points="1792,576.003 1792,639.999 255.999,639.999 255.999,576.003 "/>
  <path class="fil2" d="M288 255.999l1472 0c17.6728,0 32.0008,14.328 32.0008,32.0008l0 288 -1536 0 0 -288c0,-17.6728 14.328,-32.0008 32.0008,-32.0008z"/>
  <g id="_294742696">
   <g>
    <path id="_294744688" class="fil3" d="M984.609 956.89c-4.40315,0.807875 -8.63032,-2.10945 -9.4382,-6.51142 -24.0461,-131.108 -150.28,-218.217 -281.39,-194.171 -4.40315,0.807875 -8.63032,-2.10827 -9.43702,-6.51142 -0.807875,-4.40197 2.10827,-8.63032 6.5126,-9.43702 139.909,-25.6618 274.603,67.2851 300.264,207.194 0.807875,4.40315 -2.10945,8.62914 -6.51142,9.43702z"/>
    <path id="_294744904" class="fil3" d="M1063.29 956.89c4.40197,0.807875 8.62914,-2.10945 9.43702,-6.51142 24.0461,-131.108 150.281,-218.217 281.39,-194.171 4.40315,0.807875 8.63032,-2.10827 9.43702,-6.51142 0.807875,-4.40197 -2.10827,-8.63032 -6.51142,-9.43702 -139.909,-25.6618 -274.604,67.2851 -300.265,207.194 -0.807875,4.40315 2.10945,8.62914 6.5126,9.43702z"/>
   </g>
   <path id="_294744424" class="fil4" d="M1071.53 966.738l1.80118 -6.20552c0.726379,-2.36103 0.42874,-4.7941 -0.640158,-6.81969 -2.44843,-4.19055 -12.8291,-10.5118 -16.0488,-10.9665 -3.84449,0.157087 -7.29804,2.79685 -8.31379,6.71457 -0.562205,2.15079 -1.07008,4.20237 -1.52008,6.14764l0.0413386 0.0165354 24.6095 11.074c0.0248032,0.011811 0.0484252,0.0248032 0.0708662,0.0389764z"/>
   <path id="_294744544" class="fil5" d="M903.236 1042.53c-10.9252,-5.96693 -19.8898,-8.97993 -29.8441,-17.1921 -3.42284,-2.82402 -6.32953,-5.84174 -8.49213,-8.94331l-12.7583 4.64764c-9.65079,4.26615 -27.6272,11.8559 -41.8359,17.1496 -7.72678,2.87835 -14.6622,5.01851 -19.4126,5.63741 -1.49291,0.383859 -3.10276,0.388583 -4.69252,-0.0637796 -4.74213,-1.35354 -8.60434,-4.54252 -11.2748,-8.60434 -10.7953,-0.320079 -26.7414,-3.47008 -35.3788,-6.92245 -5.42481,-2.17205 -12.1701,-2.91142 -17.8559,-1.39488 -4.79528,1.26142 -9.70631,-1.60276 -10.9677,-6.39804 -1.2626,-4.79528 1.60158,-9.70749 6.39686,-10.9689 9.67796,-2.56418 20.0138,-1.51772 29.2607,2.1626 7.32048,2.91378 22.0642,5.62678 31.024,5.62441 5.20512,-0.00236221 9.76654,3.05551 12.2079,7.55906l1.51299 1.64764c0.543308,-0.0578741 5.44252,-2.29606 12.9213,-5.08347 13.337,-4.9689 31.1138,-12.4913 40.8532,-16.7977 5.50158,-2.42835 18.9874,-7.51064 24.4937,-7.24371 4.70433,0.227953 8.20985,2.74016 9.33662,7.14804 0.420473,1.69488 3.26929,4.69843 6.05079,6.99331 7.71851,6.36615 16.7091,9.66615 25.702,14.5335 3.63544,1.9689 8.40591,4.51536 12.3354,7.23308l-19.2732 8.90198c-0.16063,0.0744095 -0.269292,0.214961 -0.309449,0.37441z"/>
   <path id="_294743752" class="fil5" d="M851.29 1196.59c-10.3394,1.35 -22.9158,2.58189 -32.1449,0.433465l0.00590552 -0.022441c-0.576378,-0.132284 -1.13504,-0.287008 -1.67835,-0.464174 -7.4941,11.0847 -11.8476,30.2481 -16.389,47.0941 -6.10276,22.6666 -16.1528,59.9953 -31.2508,67.3075 -4.72796,2.28898 -10.0677,2.19095 -14.9315,0.494882 -8.5819,4.20827 -20.0079,7.94292 -28.6158,9.63072l-3.74174 1.35473c-6.30591,2.78268 -14.7378,3.27166 -17.3516,5.9941 -3.43583,3.57284 -9.1193,3.68268 -12.691,0.246851 -3.57284,-3.43701 -3.68268,-9.1193 -0.246851,-12.6921 7.76575,-8.08938 16.6925,-7.19528 23.0469,-10.0016l7.53898 -2.54764c7.51182,-1.4752 17.5595,-4.78229 24.9886,-8.55827 6.90237,-3.5067 13.6949,0.15 14.1992,-0.0933072 8.57363,-4.14095 18.8315,-45.117 24.0898,-64.6902 5.71654,-21.3024 9.68505,-36.0898 20.3268,-48.6969 4.05237,-4.79764 10.8602,-5.4189 16.0016,-2.21457l0.77126 0.37441 0.00590552 -0.0236221c6.80079,1.58268 18.9662,0.172441 27.1512,-0.930709 -0.0472441,0.0874016 -0.0708662,0.187795 -0.0661418,0.292914l0.833859 17.3587c0.00708662,0.137008 0.0625985,0.259843 0.147638,0.35315z"/>
   <path id="_294744184" class="fil5" d="M859.184 1363.55c-15.0272,3.84685 -32.1343,8.31733 -44.0611,7.39134 -10.0878,27.5752 -17.4496,80.5926 -22.6169,114.358 -3.28819,21.4866 0.330709,51.7843 -12.2681,69.6567 -2.70473,3.8374 -6.89056,6.04252 -11.452,6.50552l-1.07835 0.251575 -0.0165354 -0.0484252c-9.49371,7.13268 -24.3355,13.3075 -34.8296,16.1445l-0.00590552 -0.022441 -3.58347 1.62047c-5.98819,3.18425 -14.4236,4.24016 -16.8732,7.20355 -3.16418,3.82441 -8.83111,4.35945 -12.6555,1.19528 -3.82559,-3.16536 -4.35945,-8.83111 -1.19528,-12.6555 7.1126,-8.60198 16.0902,-8.34095 22.2862,-11.6339l7.39371 -3.04961 -0.00708662 -0.0248032c8.77914,-2.37284 20.9469,-7.43268 28.8792,-13.2295l-0.0177165 -0.022441c2.53229,-1.91339 5.95867,-3.04488 9.06497,-3.4878 7.963,-13.089 5.76733,-42.7642 8.5689,-61.0749 5.37402,-35.1236 13.9937,-96.7583 25.6571,-123.216l-0.00944883 -0.00354331c2.50748,-5.66693 8.88898,-8.56064 14.6528,-6.62481l0.291733 0.0933072 0.00236221 -0.00826772 0.359055 0.0755906 0.00236221 -0.0236221c8.58662,1.05591 24.7063,-3.14173 38.5902,-6.68032 -0.0484252,0.114567 -0.0590552,0.246851 -0.0212599,0.375591l4.92166 16.8756 0.0212599 0.0590552z"/>
   <path id="_294743560" class="fil5" d="M1189.46 1344.02c14.1236,3.51614 33.2079,8.8878 42.0992,7.45985l0.386221 -0.0944883 -0.00354331 -0.0106299c5.8252,-1.95 12.1949,0.988583 14.6433,6.73465l0.0129921 -0.00472441c11.9728,28.1315 20.0315,86.7461 25.6181,123.115 2.81575,18.3331 0.616536,48 8.59135,61.076 3.08859,0.455906 6.46772,1.57914 9.02481,3.5315l0.0106299 -0.0153543c7.52245,5.66811 20.5358,10.9559 28.8969,13.2236l7.35119 3.08622 0.00708662 -0.0129921c6.20788,3.29882 15.1677,3.03307 22.2803,11.6339 3.16418,3.82441 2.62914,9.49135 -1.19528,12.6555 -3.82441,3.16418 -9.49135,2.62914 -12.6555,-1.19528 -2.44961,-2.96221 -10.8732,-4.01929 -16.8673,-7.20355l0.00708662 -0.0129921 -3.6378 -1.58504c-10.3913,-2.8252 -25.4351,-9.08623 -34.8532,-16.1173l-1.00512 -0.233858c-4.59922,-0.461811 -8.80394,-2.67166 -11.4898,-6.53623l0.0165354 -0.011811c-12.5398,-17.5559 -8.99292,-48.2658 -12.2717,-69.6107 -5.19922,-33.8469 -12.5079,-86.7237 -22.6229,-114.357 -11.9835,0.93189 -29.2299,-3.60473 -44.3374,-7.46812l0.0129921 -0.068504 2.28543 -17.4024c0.0318898,-0.242126 -0.0968505,-0.470079 -0.304725,-0.575197z"/>
   <path id="_294744088" class="fil5" d="M1197.19 1179.23c7.66182,1.03228 22.1847,2.71772 27.9095,0.918898l0.447638 -0.266929 -0.00826772 -0.011811c5.23583,-3.26103 12.0142,-2.63268 16.2106,2.46496 11.7059,14.2181 15.4642,31.1138 21.4618,53.3067 5.21693,19.3063 14.5217,55.8579 22.7457,59.8288l1.97599 -0.546851c3.81614,-1.2626 8.60552,-1.23543 12.215,0.654331l0.00826772 -0.0141732c7.8567,3.99567 17.2193,6.9378 25.1717,8.59371l7.36064 2.51221c6.31536,2.79095 15.287,1.91575 23.0717,10.0016 3.43583,3.57284 3.32599,9.25631 -0.246851,12.6921 -3.57166,3.43583 -9.25513,3.32599 -12.691,-0.246851 -2.61732,-2.7189 -11.0894,-3.21733 -17.3728,-5.99764l-3.90355 -1.37953c-8.90316,-1.8437 -19.6228,-5.27126 -28.461,-9.60237 -4.8626,1.69606 -10.2024,1.79291 -14.9339,-0.494882 -15.1288,-7.32756 -25.1882,-44.8087 -31.265,-67.4552 -4.35118,-16.1882 -8.87363,-35.889 -16.3677,-46.9489 -8.78387,2.85473 -23.211,1.43032 -33.5504,0.0885827 0.00590552,-0.0318898 0.00944883,-0.0649607 0.00944883,-0.0992127l0.264567 -17.7543c0.0011811,-0.0862205 -0.0177165,-0.168898 -0.0519685,-0.243307z"/>
   <path id="_294743680" class="fil5" d="M1129.34 1030.92c6.05197,-3.52559 12.2658,-6.90591 18.4146,-9.75119 5.68583,-2.61969 10.9831,-5.81457 15.0284,-9.1441 3.28937,-2.70709 5.48268,-5.01969 6.21851,-7.4563 1.88977,-6.26575 8.39056,-7.7126 14.2453,-6.10158 6.80906,1.87441 12.4772,3.60709 19.4339,6.67914 9.75709,4.29803 27.5894,11.8406 40.9276,16.8059 7.44686,2.77205 12.2917,5.00197 12.8197,5.04449 0.180709,-0.0519685 0.348425,-0.147638 0.499607,-0.276378l-0.0153543 -0.0165354c0.407481,-0.357874 0.764174,-0.829134 1.06654,-1.37244l-0.00944883 -0.00590552c2.32441,-4.49292 7.15394,-7.54961 12.3378,-7.50473 9.02009,0.0779528 23.7378,-2.88898 31.0571,-5.74252l-0.00472441 -0.011811c9.19135,-3.63425 19.7469,-4.53189 29.0941,-2.06221 4.79528,1.26142 7.65945,6.17245 6.39804,10.9689 -1.2626,4.79528 -6.17363,7.65945 -10.9689,6.39686 -5.62678,-1.48583 -12.2622,-0.80315 -17.915,1.4315l-0.00472441 -0.0129921c-8.25827,3.41103 -24.7725,6.5941 -35.3209,6.92481 -1.10315,1.68543 -2.38465,3.20433 -3.84685,4.49055l-0.0153543 -0.0177165c-2.05866,1.85197 -4.67953,3.32362 -7.43032,4.1067l-0.00354331 -0.00944883c-3.84567,1.09843 -13.1244,-1.47992 -23.9965,-5.52638 -14.2193,-5.2937 -32.2406,-12.8976 -41.9103,-17.1579l-12.7536 -4.6689c-6.06378,8.68347 -17.3669,15.9059 -27.4075,20.5512l-10.9606 5.63386c-0.0259843,-0.121654 -0.0921261,-0.23504 -0.197244,-0.318898l-14.765 -11.8654 -0.0153543 -0.0106299z"/>
   <path id="_294743944" class="fil4" d="M976.559 966.738l-1.8 -6.20552c-0.726379,-2.36103 -0.42874,-4.7941 0.640158,-6.81969 0.935434,-2.02205 11.2724,-9.85867 16.0488,-10.9665 3.84449,0.157087 7.29804,2.79685 8.31379,6.71457 0.562205,2.15079 1.07008,4.20237 1.52008,6.14764l-0.0413386 0.0165354 -24.6095 11.074c-0.0248032,0.011811 -0.0484252,0.0248032 -0.0720473,0.0389764z"/>
   <path id="_294743968" class="fil3" d="M1072.06 965.244c2.62441,3.25748 3.73111,7.363 3.46299,11.85 -0.32126,5.61378 0.348425,11.5488 1.83898,16.3689l0.0129921 -0.0153543c2.89488,2.49449 7.47875,6.4441 11.0374,14.9941 1.9252,4.64055 7.65001,6.51378 15.5055,9.08505 8.24764,2.7 18.4394,5.89961 27.339,11.6894 -0.0141732,0.179528 0.056693,0.36378 0.209055,0.484252l14.765 11.8665c0.240945,0.19252 0.590552,0.157087 0.785434,-0.080315 3.07323,1.86142 7.19528,3.70512 13.7457,5.64095 15.5693,4.58268 51.6591,30.5055 52.793,47.9741 0.622441,9.43347 -3.12402,15.9118 -7.01339,22.6335 -2.40945,4.16575 -4.90158,8.47205 -5.25827,13.0984 0.17126,7.70434 -0.184252,32.0752 -0.414567,47.5217 -0.10748,0.101575 -0.174803,0.243307 -0.178347,0.402756l-0.263386 17.7532c-0.0011811,0.105118 0.0259843,0.204331 0.0755906,0.28937 -0.594095,21.228 -1.0748,41.7378 -0.292914,57.9083 0.994489,20.7047 -2.32205,67.9949 -4.23898,90.5918l0.284646 0.0708662c-0.282284,-0.00590552 -0.531496,0.201969 -0.569292,0.488977l-2.28425 17.4024c-0.0354331,0.264567 0.119291,0.510237 0.359055,0.6l-3.92126 19.5803 -0.0259843 -0.00590552c-1.82717,8.08701 -7.81536,14.7591 -7.97008,15.5173 -2.04331,10.5508 -6.69567,29.9788 -14.6764,40.487 -2.79213,3.67205 -5.60788,4.89685 -8.2004,5.69646 -4.90512,12.0638 -12.6154,28.3618 -21.1429,40.7055l-0.00826772 -0.00472441c-5.88662,8.7567 -13.1091,9.8941 -13.6512,10.3276 -0.323622,0.258662 -13.4788,22.6335 -24.9697,29.1449 -4.11969,2.34213 -8.35867,2.87126 -11.8973,3.30945 -0.35315,0.0437008 -0.0673229,-0.552756 -0.22441,-1.84252l-0.0106299 -0.00590552c-8.21812,13.4102 -18.3567,26.0209 -34.1292,25.461 -7.41024,6.9626 -22.9134,12.5811 -33.3756,10.8685 -8.4626,-1.38425 -19.024,-5.31969 -25.1268,-11.4768l-1.27205 0.0153543 0 -0.0354331c-7.43032,-0.660237 -17.576,-1.56142 -32.1981,-24.7914l0.0165354 -0.0106299 -0.034252 -0.0531496c-0.16063,1.31811 0.144095,1.91811 -0.227953,1.87323 -3.58465,-0.441733 -7.6252,-0.941339 -11.8205,-3.27284l0.00708662 -0.011811c-11.5252,-6.40276 -24.6579,-28.8709 -25.0323,-29.1685 -3.73229,-1.30276 -8.67757,-3.08622 -13.6713,-10.3264 -12.7181,-18.3945 -16.389,-29.2158 -29.3965,-46.4067l-7.04646 -16.526c-6.33898,-15.8587 -15.5539,-39.3863 -15.5728,-39.4677l-3.96969 -19.8142c0.0791339,-0.131102 0.105118,-0.291733 0.0590552,-0.45l-4.92166 -16.8744c-0.0555119,-0.188977 -0.200788,-0.325985 -0.375591,-0.381496 -1.80945,-25.5815 -2.21575,-69.7465 -1.18583,-91.2142 0.784253,-16.2213 0.292914,-36.7902 -0.279921,-58.0701 0.125197,-0.108662 0.200788,-0.271654 0.19252,-0.451181l-0.83504 -17.3587c-0.00944883,-0.190158 -0.112205,-0.355512 -0.262205,-0.448819l-0.056693 -19.0087 0.00944883 -0.0011811 -0.112205 -15.0343c0.0106299,-4.71733 0.0661418,-9.25749 0.173622,-13.5579 -0.244488,-9.86576 -13.3181,-19.3146 -12.2705,-35.6764 1.11496,-17.4213 37.2449,-43.4008 52.7965,-48.0036l0.00236221 0.00944883c6.86575,-2.10118 10.4362,-3.59528 13.7764,-5.62914 0.161811,0.164173 0.415748,0.219685 0.637796,0.11811l19.6004 -9.05316c0.16063,-0.0744095 0.269292,-0.214961 0.309449,-0.37441 2.87126,0.200788 5.45788,-7.84843 9.75473,-9.81142l4.50591 -2.01732 0.00236221 0.00826772c2.85827,-1.04882 5.66339,-1.9689 8.29016,-2.82992 7.83662,-2.56772 13.5626,-4.44449 15.4949,-9.07678 3.56811,-8.57481 8.17087,-12.5398 11.0787,-15.0414 1.5437,-5.14725 2.10354,-10.9559 1.77992,-16.3063 -0.323622,-4.29803 0.887009,-8.47323 3.34016,-11.648 0.155906,0.201969 0.434646,0.27874 0.675591,0.170079l24.6106 -11.0752c0.419292,-0.188977 0.441733,-0.766536 0.0555119,-0.996851 6.98623,-5.18859 14.791,-6.64607 23.3646,-6.64607l0 0.0295276c8.63977,-0.196063 16.7764,2.30788 22.6819,6.80552 0.101575,0.22441 0.370866,0.341339 0.64252,0.341339 0.0448819,0.046063 0.0980316,0.0838583 0.159449,0.112205l23.6433 11.074c0.168898,0.0791339 0.357874,0.0673229 0.509056,-0.0165354z"/>
   <path id="_294743896" class="fil6" d="M1110.66 1019.76c3.07087,1.05354 6.27166,2.22756 9.47127,3.60473 3.40276,2.85945 8.15316,2.7378 10.8366,5.72481 0.0401575,0.159449 0.172441,0.264567 0.309449,0.37441l12.3083 9.97914 2.63977 2.12126c0.240945,0.19252 0.590552,0.157087 0.785434,-0.080315 3.07323,1.86142 7.19528,3.70512 13.7457,5.64095 15.5693,4.58268 51.6591,30.5055 52.793,47.9741 0.622441,9.43347 -3.12402,15.9118 -7.01339,22.6335 -2.40945,4.16575 -4.90158,8.47205 -5.25827,13.0984 0.17126,7.70434 -0.184252,32.0752 -0.414567,47.5217 -0.10748,0.101575 -0.174803,0.243307 -0.178347,0.402756l-0.263386 17.7532c-0.0011811,0.105118 0.0259843,0.204331 0.0755906,0.28937 -0.594095,21.228 -1.0748,41.7378 -0.292914,57.9083 0.994489,20.7047 -2.32205,67.9949 -4.23898,90.5918l0.284646 0.0708662c-0.282284,-0.00590552 -0.531496,0.201969 -0.569292,0.488977l-2.28425 17.4024c-0.0354331,0.264567 0.119291,0.510237 0.359055,0.6l-3.92126 19.5803 -0.0259843 -0.00590552c-1.82717,8.08701 -7.81536,14.7591 -7.97008,15.5173 -2.04331,10.5508 -6.69567,29.9788 -14.6764,40.487 -2.79213,3.67205 -5.60788,4.89685 -8.2004,5.69646 -4.90512,12.0638 -12.6154,28.3618 -21.1429,40.7055l-0.00826772 -0.00472441c-5.88662,8.7567 -13.1091,9.8941 -13.6512,10.3276 -0.323622,0.258662 -13.4788,22.6335 -24.9697,29.1449 -2.60315,1.47992 -5.25473,2.23583 -7.74686,2.70236 -39.965,-114.034 -64.7859,-267.775 -64.7859,-422.542 0,-34.9276 32.967,-65.9067 84.0036,-85.7091z"/>
   <path id="_294744256" class="fil6" d="M958.256 1528.3c-2.93386,-0.431103 -6.10276,-1.13622 -9.36615,-2.94921l0.00708662 -0.011811c-11.5252,-6.40276 -24.6579,-28.8709 -25.0323,-29.1685 -3.73229,-1.30276 -8.67757,-3.08622 -13.6713,-10.3264 -12.7181,-18.3945 -16.389,-29.2158 -29.3965,-46.4067l-7.04646 -16.526c-6.33898,-15.8587 -15.5539,-39.3863 -15.5728,-39.4677l-3.96969 -19.8142c0.0791339,-0.131102 0.105118,-0.291733 0.0590552,-0.45l-4.92166 -16.8744c-0.0555119,-0.188977 -0.200788,-0.325985 -0.375591,-0.381496 -1.80945,-25.5815 -2.21575,-69.7465 -1.18583,-91.2142 0.784253,-16.2213 0.292914,-36.7902 -0.279921,-58.0701 0.125197,-0.108662 0.200788,-0.271654 0.19252,-0.451181l-0.83504 -17.3587c-0.00944883,-0.190158 -0.112205,-0.355512 -0.262205,-0.448819l-0.056693 -19.0087 0.00944883 -0.0011811 -0.112205 -15.0343c0.0106299,-4.71733 0.0661418,-9.25749 0.173622,-13.5579 -0.244488,-9.86576 -13.3181,-19.3146 -12.2705,-35.6764 1.11496,-17.4213 37.2449,-43.4008 52.7965,-48.0036l0.00236221 0.00944883c6.86575,-2.10118 10.4362,-3.59528 13.7764,-5.62914 0.161811,0.164173 0.415748,0.219685 0.637796,0.11811l19.6004 -9.05316c0.16063,-0.0744095 0.269292,-0.214961 0.309449,-0.37441 2.87126,0.200788 5.45788,-7.84843 9.75473,-9.81142l4.50591 -2.01732 0.00236221 0.00826772c0.861024,-0.316536 1.71732,-0.620079 2.56536,-0.914174 51.5185,19.787 84.8469,50.9174 84.8469,86.0375 0,154.896 -24.861,308.765 -64.8851,422.828z"/>
   <line id="_294744016" class="fil3" x1="972.373" y1="977.094" x2="972.373" y2= "977.094" />
   <line id="_294743824" class="fil3" x1="729.246" y1="1006.63" x2="729.246" y2= "1006.63" />
   <line id="_294742984" class="fil3" x1="727.91" y1="1024.55" x2="727.91" y2= "1024.55" />
   <line id="_294742960" class="fil3" x1="718.271" y1="1303.43" x2="718.271" y2= "1303.43" />
   <line id="_294743080" class="fil3" x1="721.714" y1="1321.07" x2="721.714" y2= "1321.07" />
   <line id="_294743392" class="fil3" x1="1285.2" y1="1561.46" x2="1285.2" y2= "1561.46" />
   <line id="_294742816" class="fil3" x1="1286.21" y1="1561.69" x2="1286.21" y2= "1561.69" />
   <line id="_294743224" class="fil3" x1="1330.02" y1="1322.42" x2="1330.02" y2= "1322.42" />
   <line id="_294742744" class="fil3" x1="1337.26" y1="1305.97" x2="1337.26" y2= "1305.97" />
   <line id="_294742912" class="fil3" x1="1329.9" y1="1303.46" x2="1329.9" y2= "1303.46" />
   <line id="_294743344" class="fil3" x1="1259.24" y1="1024.89" x2="1259.24" y2= "1024.89" />
   <line id="_294743440" class="fil3" x1="1075.52" y1="977.094" x2="1075.52" y2= "977.094" />
   <path id="_294742288" class="fil7" d="M1077.8 994.778c0.532678,1.3878 -0.431103,-1.20591 -0.433465,-1.32756l-0.0106299 0.011811c0.135827,0.438189 0.271654,0.846851 0.4063,1.22244l0.0377953 0.0933072z"/>
   <path id="_294742720" class="fil8" d="M1062.75 1125.07c-3.51496,-3.51378 -9.21379,-3.51378 -12.7276,0 -3.51378,3.51378 -3.51378,9.21261 0,12.7264l84.7276 72.0001 -72.0001 -84.7264z"/>
   <path id="_294742384" class="fil8" d="M981.119 1234.82c2.54292,-4.25197 8.05276,-5.63741 12.3047,-3.09449 4.25197,2.54292 5.63741,8.05276 3.09449,12.3047l-66.306 93.0946 50.9067 -102.305z"/>
   <path id="_294742648" class="fil8" d="M1064.08 1234.82c-2.5441,-4.25197 -8.05276,-5.63741 -12.3047,-3.09449 -4.25197,2.54292 -5.63741,8.05276 -3.09449,12.3047l66.3048 93.0946 -50.9056 -102.305z"/>
   <path id="_294742072" class="fil8" d="M968.251 1362.09c1.84488,-4.6004 7.07127,-6.83623 11.6717,-4.99134 4.60158,1.8437 6.83741,7.07008 4.99252,11.6717l-47.6717 94.9926 31.0075 -101.673z"/>
   <path id="_294742432" class="fil8" d="M1079.76 1362.09c-1.8437,-4.6004 -7.07008,-6.83623 -11.6717,-4.99134 -4.60158,1.8437 -6.83623,7.07008 -4.99134,11.6717l47.6717 94.9926 -31.0087 -101.673z"/>
   <path id="_294742048" class="fil8" d="M982.455 1125.07c3.51378,-3.51378 9.21261,-3.51378 12.7264,0 3.51378,3.51378 3.51378,9.21261 0,12.7264l-84.7264 72.0001 72.0001 -84.7264z"/>
   <line id="_294742576" class="fil9" x1="880.79" y1="1439.44" x2="880.79" y2= "1439.44" />
  </g>
  <polygon class="fil10" points="1536.15,350.366 1536.15,478.365 1664.15,478.365 1664.15,350.366 "/>
  <polygon class="fil11" points="1087.84,478.365 1215.84,478.365 1215.84,350.366 1087.84,350.366 "/>
  <polygon class="fil12" points="1311.67,350.366 1311.67,478.365 1439.67,478.365 1439.67,350.366 "/>
 </g>
 <rect class="fil13" width="2048" height="2048"/>
</svg>
