<?xml version="1.0" encoding="UTF-8"?>
<!DOCTYPE svg PUBLIC "-//W3C//DTD SVG 1.1//EN" "http://www.w3.org/Graphics/SVG/1.1/DTD/svg11.dtd">
<!-- Creator: CorelDRAW -->
<svg xmlns="http://www.w3.org/2000/svg" xml:space="preserve" width="2048px" height="2048px" style="shape-rendering:geometricPrecision; text-rendering:geometricPrecision; image-rendering:optimizeQuality; fill-rule:evenodd; clip-rule:evenodd"
viewBox="0 0 2048 2048"
 xmlns:xlink="http://www.w3.org/1999/xlink">
 <defs>
  <style type="text/css">
   <![CDATA[
    .fil14 {fill:none}
    .fil4 {fill:#6C949B}
    .fil10 {fill:#C93C3A}
    .fil3 {fill:#CFAE8C}
    .fil2 {fill:#E6C19C}
    .fil12 {fill:#3E2723;fill-rule:nonzero}
    .fil7 {fill:#4B4B4D;fill-rule:nonzero}
    .fil5 {fill:#749FA6;fill-rule:nonzero}
    .fil13 {fill:#7CB342;fill-rule:nonzero}
    .fil1 {fill:#86AEB6;fill-rule:nonzero}
    .fil8 {fill:#AED581;fill-rule:nonzero}
    .fil9 {fill:#DD403D;fill-rule:nonzero}
    .fil11 {fill:#EF5350;fill-rule:nonzero}
    .fil0 {fill:#F16767;fill-rule:nonzero}
    .fil6 {fill:#F2CEA5;fill-rule:nonzero}
   ]]>
  </style>
 </defs>
 <g id="Layer_x0020_1">
  <metadata id="CorelCorpID_0Corel-Layer"/>
  <path class="fil0" d="M469.198 282.31l0 316.94c0,16.4811 13.3618,29.8429 29.8441,29.8429l50.9244 0 -3.91536 133.212 192.07 -133.212 153.71 0 0 -201.934c0,-32.954 26.7331,-59.6859 59.6871,-59.6859l188.549 1.04055 0 -86.2028c0,-16.4823 -13.3618,-29.8441 -29.8429,-29.8441l-611.182 0c-16.4823,0 -29.8441,13.3618 -29.8441,29.8441z"/>
  <path class="fil1" d="M1791.98 1792l0 -221.173c0,-32.367 -13.2307,-61.7823 -34.5461,-83.0977 -21.3154,-21.3142 -50.7307,-34.5449 -83.0977,-34.5449 -35.1425,0 -54.9414,-5.12717 -72.619,-10.9618 -14.9185,-8.45198 -325.675,-10.611 -358.794,0.84567 -4.46339,1.5437 -9.17127,2.5878 -14.015,3.76418 -7.39607,1.79646 -15.4536,3.37205 -24.724,4.5378 -9.05906,1.1374 -19.0925,1.81417 -30.5421,1.81417 -32.3681,0 -61.7835,13.2295 -83.0977,34.5449 -21.3154,21.3154 -34.5461,50.7307 -34.5461,83.0977l0 221.173c332.958,0 403.072,0 735.982,0z"/>
  <rect class="fil2" x="1300.3" y="1285.55" width="247.375" height="200.72"/>
  <path class="fil3" d="M1300.3 1285.55l247.375 0 0 65.7343c-32.5359,30.1925 -76.0465,64.8993 -123.687,64.8993 -47.641,0 -91.1516,-34.7067 -123.687,-64.8993l0 -65.7343z"/>
  <path class="fil4" d="M1386.34 1554.25c2.80866,1.60984 5.71182,3.0378 8.68938,4.27323 9.28347,3.8504 19.2697,5.89016 29.4166,5.89016 9.84686,0 19.5614,-1.9311 28.6429,-5.5878 3.02126,-1.21654 5.96457,-2.62559 8.81221,-4.2189l-37.9075 -53.0705 -37.6536 52.7138z"/>
  <path class="fil5" d="M1307.09 1377.4l127.283 90.5682 0.0389764 -0.0507874c7.67127,5.45788 9.2256,15.7831 3.47362,23.061 -0.183071,0.230315 -0.370866,0.454725 -0.562205,0.673229l-79.5579 105.671 0.022441 0.0519685c-0.6,0.797245 -1.2626,1.52717 -1.9748,2.19095l-107.91 -141.389c-2.9067,-5.32323 -2.45315,-11.4957 0.681497,-16.2815l31.4091 -59.5985 -0.0649607 -0.0307087c4.2874,-8.13662 14.7177,-11.4354 23.2937,-7.36654 1.4374,0.681497 2.73071,1.52717 3.86811,2.5004z"/>
  <path class="fil5" d="M1540.9 1377.4l-127.283 90.5682 -0.0389764 -0.0507874c-7.67127,5.45788 -9.2256,15.7831 -3.47362,23.061 0.183071,0.230315 0.370866,0.454725 0.562205,0.673229l79.5579 105.671 -0.022441 0.0519685c0.6,0.797245 1.2626,1.52717 1.9748,2.19095l107.91 -141.389c2.9067,-5.32323 2.45315,-11.4957 -0.681497,-16.2815l-31.4091 -59.5985 0.0649607 -0.0307087c-4.2874,-8.13662 -14.7177,-11.4354 -23.2937,-7.36654 -1.4374,0.681497 -2.73071,1.52717 -3.86811,2.5004z"/>
  <polygon class="fil4" points="1405.82,1792 1442.17,1792 1442.17,1556.12 1405.82,1556.12 "/>
  <path class="fil6" d="M1624 1076.52l0 69.0225c0,104.36 -52.1469,171.398 -118.896,200.929 -25.526,11.2925 -53.0197,16.9406 -80.3386,16.9406 -27.3189,0 -54.8115,-5.64804 -80.3386,-16.9406 -66.5493,-29.4437 -118.579,-96.1749 -118.887,-200.006 59.8028,-11.4461 133.978,-56.3563 166.877,-114.67l7.4563 -13.2154 12.5126 7.23071c59.1201,34.1599 144.65,56.0871 211.615,50.7083z"/>
  <path class="fil7" d="M1211.84 1150.46c22.1351,-45.6437 -30.763,-163.134 84.2587,-235.306 23.9351,-15.0165 55.8532,-11.7142 64.1528,-6.5315 -3.95551,32.5689 3.94961,55.976 13.474,86.954 4.70079,15.2929 12.6248,27.9839 23.0587,39.4276l8.84528 9.7004 -5.86182 12.0484c-8.98583,18.4677 -24.365,33.3095 -40.3713,44.5796 -10.0831,7.09843 -23.3303,12.665 -34.6205,17.1425 -24.0862,9.54804 -91.702,33.3118 -112.936,31.9855z"/>
  <path class="fil7" d="M1672.44 1031.85c9.87639,152.164 -366.594,91.8367 -315.416,-116.408 10.2402,-41.6693 96.8682,-33.1831 146.979,-19.4433 136.231,37.3559 97.0123,144.902 168.437,135.852z"/>
  <path class="fil2" d="M1198.93 1112.84c17.9173,-3.2941 36.3827,20.0032 41.2441,52.037 4.86024,32.0327 -5.72363,60.6733 -23.641,63.9674 -17.9173,3.29528 -17.0788,-24.9638 -21.939,-56.9977 -4.86142,-32.0339 -13.5815,-55.7126 4.33583,-59.0067z"/>
  <path class="fil2" d="M1648.39 1107.02c-17.9173,-3.29528 -36.3839,20.0032 -41.2441,52.0359 -4.86142,32.0339 5.72363,60.6733 23.641,63.9686 17.9173,3.2941 17.0776,-24.965 21.939,-56.9977 4.86024,-32.0339 13.5815,-55.7126 -4.33583,-59.0067z"/>
  <path class="fil7" d="M1226.27 1056.02c0.0307087,9.07914 0.18189,55.8166 0.330709,64.7481 0.108662,6.60591 0.216142,13.0772 0.216142,26.511 0,23.0634 2.5689,45.4949 7.40434,66.9686 40.4906,42.2185 -22.2142,-116.354 71.589,-130.367 0,0 1.04173,-12.4536 2.64803,-27.861l-82.1883 0z"/>
  <path class="fil7" d="M1628.53 1056.02c-0.0318898,9.07914 -0.18189,55.8166 -0.330709,64.7481 -0.108662,6.60591 -0.216142,13.0772 -0.216142,26.511 0,23.0634 -2.57008,45.4949 -7.40434,66.9686 -40.4906,42.2185 22.2142,-116.354 -71.589,-130.367 0,0 -1.04173,-12.4536 -2.64803,-27.861l82.1883 0z"/>
  <path class="fil8" d="M1504 381.325l0 316.94c0,16.4811 -13.3618,29.8429 -29.8441,29.8429l-80.7662 0 3.91536 133.212 -192.07 -133.212 -342.261 0c-16.4811,0 -29.8429,-13.3618 -29.8429,-29.8429l0 -316.94c0,-16.4823 13.3618,-29.8441 29.8429,-29.8441l611.182 0c16.4823,0 29.8441,13.3618 29.8441,29.8441z"/>
  <g id="_294749608">
   <path id="_294751120" class="fil9" d="M959.99 1792l0 -211.563c0,-30.9603 -12.6555,-59.0977 -33.0449,-79.4871 -20.3882,-20.3882 -48.5256,-33.0437 -79.4871,-33.0437 -33.6154,0 -52.5532,-4.90394 -69.463,-10.4858 -14.2713,-8.08465 -311.523,-10.1504 -343.204,0.809056 -4.26969,1.47756 -8.77324,2.47559 -13.4055,3.60118 -7.07481,1.71851 -14.7827,3.22559 -23.6504,4.33937 -8.66575,1.08898 -18.2634,1.73622 -29.2146,1.73622 -30.9614,0 -59.0989,12.6555 -79.4871,33.0437 -20.3894,20.3894 -33.0449,48.5268 -33.0449,79.4871l0 211.563c318.49,0 385.557,0 704.001,0z"/>
   <rect id="_294750472" class="fil2" x="489.677" y="1307.56" width="236.626" height="191.998"/>
   <path id="_294750784" class="fil3" d="M489.677 1307.55l236.626 0 0 62.8784c-31.1221,28.8792 -72.743,62.0788 -118.313,62.0788 -45.5693,0 -87.1902,-33.1996 -118.312,-62.0788l0 -62.8784z"/>
   <path id="_294750904" class="fil10" d="M571.973 1564.59c2.68583,1.54016 5.4626,2.90551 8.31142,4.08662 8.87953,3.68386 18.4323,5.63504 28.1386,5.63504 9.41812,0 18.7122,-1.84725 27.3981,-5.34567 2.89016,-1.16339 5.70591,-2.51103 8.42953,-4.03465l-36.2611 -50.765 -36.0166 50.4237z"/>
   <path id="_294751096" class="fil11" d="M496.165 1395.41l121.75 86.6339 0.0389764 -0.0496063c7.33701,5.22048 8.82402,15.098 3.32244,22.0595 -0.174803,0.219685 -0.354331,0.434646 -0.538583,0.643701l-76.1008 101.079 0.0212599 0.0496063c-0.574016,0.762993 -1.20709,1.46102 -1.88858,2.09528l-103.221 -135.245c-2.78032,-5.09056 -2.34685,-10.9961 0.651969,-15.574l30.0449 -57.0083 -0.0625985 -0.0295276c4.10079,-7.78347 14.0776,-10.9382 22.2815,-7.04646 1.3748,0.651969 2.61142,1.46102 3.7004,2.39173z"/>
   <path id="_294750736" class="fil11" d="M719.814 1395.41l-121.75 86.6339 -0.0389764 -0.0496063c-7.33701,5.22048 -8.82402,15.098 -3.32244,22.0595 0.175984,0.219685 0.354331,0.434646 0.538583,0.643701l76.1008 101.079 -0.0212599 0.0496063c0.574016,0.762993 1.20709,1.46102 1.88858,2.09528l103.221 -135.245c2.78032,-5.09056 2.34685,-10.9961 -0.651969,-15.574l-30.0449 -57.0083 0.0625985 -0.0295276c-4.10079,-7.78347 -14.0776,-10.9382 -22.2815,-7.04646 -1.3748,0.651969 -2.61142,1.46102 -3.7004,2.39173z"/>
   <polygon id="_294749848" class="fil10" points="590.602,1792 625.376,1792 625.376,1566.37 590.602,1566.37 "/>
   <path id="_294749752" class="fil6" d="M799.305 1107.61l0 66.0225c0,99.8257 -49.8815,163.95 -113.73,192.199 -24.4158,10.8024 -50.7154,16.2047 -76.8473,16.2047 -26.1307,0 -52.4304,-5.40237 -76.8473,-16.2047 -63.6579,-28.1646 -113.426,-91.9961 -113.721,-191.315 57.2032,-10.9488 128.156,-53.9067 159.625,-109.687l7.13268 -12.6413 11.9693 6.91654c56.55,32.6752 138.364,53.6504 202.419,48.5055z"/>
   <path id="_294749824" class="fil12" d="M405.058 1178.33c21.1725,-43.6595 -23.4508,-160.03 86.5749,-229.067 22.8945,-14.3658 47.4485,-7.22008 55.3867,-2.26181 -3.78307,31.1528 3.77835,53.5441 12.8882,83.1757 4.49646,14.628 12.0768,26.7685 22.0583,37.715l8.46024 9.27875 -5.6067 11.524c-8.59607,17.6658 -23.3067,31.8614 -38.6174,42.6426 -9.64607,6.79016 -22.3169,12.1146 -33.117,16.3973 -23.0386,9.13347 -87.717,31.8638 -108.027,30.5953z"/>
   <path id="_294750208" class="fil12" d="M845.64 1064.88c9.44646,145.551 -350.665,87.8469 -301.709,-111.351 9.79607,-39.8587 59.4508,-43.6359 107.385,-30.4914 130.311,35.7331 126.004,150.499 194.325,141.842z"/>
   <path id="_294749320" class="fil2" d="M392.706 1142.35c17.139,-3.15118 34.8024,19.1351 39.4524,49.7764 4.65,30.6414 -5.47559,58.0359 -22.6134,61.1882 -17.139,3.15118 -16.3358,-23.8795 -20.9858,-54.5209 -4.65,-30.6425 -12.991,-53.2914 4.14685,-56.4437z"/>
   <path id="_294749008" class="fil2" d="M822.635 1136.78c-17.139,-3.15118 -34.8024,19.1351 -39.4524,49.7764 -4.65,30.6414 5.47559,58.0359 22.6134,61.1882 17.139,3.15118 16.3358,-23.8795 20.9858,-54.5209 4.65,-30.6425 12.991,-53.2914 -4.14685,-56.4437z"/>
   <path id="_294748912" class="fil12" d="M418.864 1088c0.0295276,8.68465 0.173622,53.3906 0.315355,61.9347 0.105118,6.3189 0.207874,12.5091 0.207874,25.3595 0,22.0606 2.45669,43.5166 7.0819,64.0571 38.7319,40.3843 -21.2492,-111.298 68.478,-124.701 0,0 0.996851,-11.9126 2.53347,-26.6504l-78.6166 0z"/>
   <path id="_294749584" class="fil12" d="M803.637 1088c-0.0295276,8.68465 -0.173622,53.3906 -0.315355,61.9347 -0.105118,6.3189 -0.207874,12.5091 -0.207874,25.3595 0,22.0606 -2.45669,43.5166 -7.0819,64.0571 -38.7319,40.3843 21.2492,-111.298 -68.478,-124.701 0,0 -0.996851,-11.9126 -2.53347,-26.6504l78.6166 0z"/>
  </g>
  <polygon class="fil13" points="921.204,585.629 1210.83,585.629 1210.83,555.786 921.204,555.786 "/>
  <polygon class="fil13" points="921.204,508.372 1415.93,508.372 1415.93,478.529 921.204,478.529 "/>
 </g>
 <rect class="fil14" width="2048" height="2048"/>
</svg>
