<?xml version="1.0" encoding="UTF-8"?>
<!DOCTYPE svg PUBLIC "-//W3C//DTD SVG 1.1//EN" "http://www.w3.org/Graphics/SVG/1.1/DTD/svg11.dtd">
<!-- Creator: CorelDRAW -->
<svg xmlns="http://www.w3.org/2000/svg" xml:space="preserve" width="2048px" height="2048px" style="shape-rendering:geometricPrecision; text-rendering:geometricPrecision; image-rendering:optimizeQuality; fill-rule:evenodd; clip-rule:evenodd"
viewBox="0 0 2048 2048"
 xmlns:xlink="http://www.w3.org/1999/xlink">
 <defs>
  <style type="text/css">
   <![CDATA[
    .fil17 {fill:none}
    .fil8 {fill:#00B8D4}
    .fil16 {fill:#263238}
    .fil9 {fill:#37474F}
    .fil3 {fill:#546E7A}
    .fil2 {fill:#78909C}
    .fil4 {fill:#80D8FF}
    .fil12 {fill:#8D6E63}
    .fil11 {fill:#ECC46D}
    .fil10 {fill:#EED9A9}
    .fil0 {fill:#263238;fill-rule:nonzero}
    .fil1 {fill:#37474F;fill-rule:nonzero}
    .fil13 {fill:#3E2723;fill-rule:nonzero}
    .fil14 {fill:#5D4037;fill-rule:nonzero}
    .fil7 {fill:#7CB342;fill-rule:nonzero}
    .fil15 {fill:#DD2C00;fill-rule:nonzero}
    .fil5 {fill:#EF5350;fill-rule:nonzero}
    .fil6 {fill:#FFAB40;fill-rule:nonzero}
   ]]>
  </style>
 </defs>
 <g id="Layer_x0020_1">
  <metadata id="CorelCorpID_0Corel-Layer"/>
  <path class="fil0" d="M705.35 1740.77c0,68.3091 637.301,68.3091 637.301,0 0,-68.3091 -637.301,-68.3091 -637.301,0z"/>
  <path class="fil1" d="M1106.25 1510.6c0,-17.6728 -36.8256,-32.0008 -82.2485,-32.0008 -45.4229,0 -82.2485,14.328 -82.2485,32.0008l0 216.9c0,17.6728 36.8256,32.0008 82.2485,32.0008 45.4229,0 82.2485,-14.328 82.2485,-32.0008l0 -216.9z"/>
  <path class="fil2" d="M282.429 558.272l1483.14 0c17.6728,0 32.0008,14.328 32.0008,32.0008l0 920.326c0,17.6728 -14.328,32.0008 -32.0008,32.0008l-1483.14 0c-17.6728,0 -32.0008,-14.328 -32.0008,-32.0008l0 -920.326c0,-17.6728 14.328,-32.0008 32.0008,-32.0008z"/>
  <path class="fil3" d="M1797.57 1298.07l0 212.531c0,17.6728 -14.328,32.0008 -32.0008,32.0008l-1483.14 0c-17.6728,0 -32.0008,-14.328 -32.0008,-32.0008l0 -212.531 1547.14 0z"/>
  <polygon class="fil4" points="1733.57,622.274 314.43,622.274 314.43,1274.08 1733.57,1274.08 "/>
  <g id="_386934968">
   <polygon id="_386935616" class="fil5" points="1693,1400.05 1693,1440.62 1733.57,1440.62 1733.57,1400.05 "/>
   <polygon id="_386935856" class="fil6" points="1550.92,1440.62 1591.49,1440.62 1591.49,1400.05 1550.92,1400.05 "/>
   <polygon id="_386934584" class="fil7" points="1621.86,1400.05 1621.86,1440.62 1662.43,1440.62 1662.43,1400.05 "/>
  </g>
  <g id="_386935184">
   <circle id="_386935232" class="fil8" cx="1024" cy="1420.33" r="39.1205"/>
   <circle id="_386934752" class="fil9" cx="1024" cy="1420.33" r="33.2752"/>
  </g>
  <g id="_386933048">
   <path id="_386935064" class="fil10" d="M603.745 235.067l621.813 0 245.24 245.24 0 793.867 -894.797 0 0 -1011.36c0,-15.2599 12.4854,-27.7465 27.7441,-27.7465z"/>
   <path id="_386934920" class="fil11" d="M1470.8 480.307l-0.741733 0 -216.751 0c-15.2599,0 -27.7453,-12.4854 -27.7453,-27.7453l0 -217.416 0 -0.0767717 245.238 245.238z"/>
   <rect id="_386935016" class="fil12" x="681.78" y="631.589" width="636.237" height="24.2764"/>
   <rect id="_386935136" class="fil12" x="681.78" y="683.613" width="479.68" height="24.2764"/>
   <rect id="_386934776" class="fil12" x="681.78" y="857.742" width="636.237" height="24.2764"/>
   <rect id="_386934128" class="fil12" x="681.78" y="909.765" width="479.68" height="24.2764"/>
   <rect id="_386933984" class="fil12" x="681.78" y="1080.32" width="636.237" height="24.2764"/>
   <rect id="_386933936" class="fil12" x="681.78" y="1132.34" width="479.68" height="24.2764"/>
   <rect id="_386934440" class="fil12" x="681.78" y="381.722" width="360.108" height="24.2764"/>
   <rect id="_386933864" class="fil12" x="681.78" y="433.745" width="271.498" height="24.2764"/>
   <path id="_386934296" class="fil13" d="M1024.67 1054.93l379.413 -380.161 99.8906 101.457 -378.953 379.702 0.0011811 0.0011811c-2.3752,2.37638 -5.22048,3.99567 -8.23583,4.86378l-115.368 41.0906 0.011811 0.0318898c-9.97324,3.55276 -20.941,-1.65236 -24.4925,-11.6268 -1.77756,-4.99016 -1.36181,-10.2295 0.746457,-14.6622l42.3201 -113.483 -0.0649607 -0.034252c1.05,-2.81693 2.69173,-5.23819 4.7315,-7.17993z"/>
   <path id="_386933840" class="fil14" d="M1118.93 1160.39l-24.7973 -3.14882 7.19056 -31.5414 -33.3544 3.93071 7.0441 -31.2319 -31.7965 7.71851 8.27835 -32.824 -27.1996 13.552 -4.22008 -25.3099c-0.61063,1.00039 -1.13268,2.07166 -1.55788,3.20906l0.0637796 0.034252 -42.626 113.595c-2.05748,4.32756 -2.4626,9.44292 -0.72756,14.3114 3.46654,9.7382 14.1744,14.8193 23.9103,11.3516l-0.0106299 -0.0295276 112.624 -40.115c1.58386,-0.455906 5.74016,-2.61969 7.17875,-3.50197z"/>
   <path id="_386934368" class="fil15" d="M1394.49 685.107l89.2831 -89.282 -0.00236221 -0.00236221c7.48701,-7.48583 19.6264,-7.48583 27.1122,0l0.106299 0.108662 73.4575 73.4575 0.0011811 -0.0011811c7.48583,7.48583 7.48583,19.6264 0,27.1122l-0.108662 0.106299 -89.9575 89.9575 -99.8918 -101.457z"/>
   <path id="_386933792" class="fil16" d="M986.887 1191.67c5.87717,6.45 14.3067,6.69686 5.58662,16.3228 -8.72245,9.62481 -20.8229,12.8717 -27.026,7.25079 -6.20197,-5.62087 -4.4126,-17.3398 4.56024,-27.6059 8.97402,-10.2673 11.002,-2.41654 16.8791,4.03229z"/>
   <path id="_386934320" class="fil14" d="M1368.15 814.734c2.33858,-2.33858 2.33858,-6.13347 0,-8.47087 -2.33858,-2.33977 -6.13347,-2.33977 -8.47087,0l-187.215 187.214c-2.33858,2.33858 -2.33858,6.13229 0,8.47087 2.33858,2.33858 6.13229,2.33858 8.47087,0l187.215 -187.214z"/>
  </g>
 </g>
 <rect class="fil17" width="2048" height="2048"/>
</svg>
