<?xml version="1.0" encoding="UTF-8"?>
<!DOCTYPE svg PUBLIC "-//W3C//DTD SVG 1.1//EN" "http://www.w3.org/Graphics/SVG/1.1/DTD/svg11.dtd">
<!-- Creator: CorelDRAW -->
<svg xmlns="http://www.w3.org/2000/svg" xml:space="preserve" width="2048px" height="2048px" style="shape-rendering:geometricPrecision; text-rendering:geometricPrecision; image-rendering:optimizeQuality; fill-rule:evenodd; clip-rule:evenodd"
viewBox="0 0 2048 2048"
 xmlns:xlink="http://www.w3.org/1999/xlink">
 <defs>
  <style type="text/css">
   <![CDATA[
    .fil21 {fill:none}
    .fil8 {fill:#00B8D4}
    .fil9 {fill:#37474F}
    .fil15 {fill:#4D2909}
    .fil3 {fill:#546E7A}
    .fil14 {fill:#57300F}
    .fil13 {fill:#673B15}
    .fil2 {fill:#78909C}
    .fil16 {fill:#7C4D24}
    .fil4 {fill:#80D8FF}
    .fil19 {fill:#824E21}
    .fil18 {fill:#945823}
    .fil20 {fill:#CB740A}
    .fil12 {fill:#FFA000}
    .fil0 {fill:#263238;fill-rule:nonzero}
    .fil1 {fill:#37474F;fill-rule:nonzero}
    .fil17 {fill:#424242;fill-rule:nonzero}
    .fil7 {fill:#7CB342;fill-rule:nonzero}
    .fil10 {fill:#B71C1C;fill-rule:nonzero}
    .fil11 {fill:#D32F2F;fill-rule:nonzero}
    .fil5 {fill:#EF5350;fill-rule:nonzero}
    .fil6 {fill:#FFAB40;fill-rule:nonzero}
   ]]>
  </style>
 </defs>
 <g id="Layer_x0020_1">
  <metadata id="CorelCorpID_0Corel-Layer"/>
  <path class="fil0" d="M705.35 1594.7c0,68.3091 637.301,68.3091 637.301,0 0,-68.3091 -637.301,-68.3091 -637.301,0z"/>
  <path class="fil1" d="M1106.25 1364.53c0,-17.6728 -36.8256,-32.0008 -82.2485,-32.0008 -45.4229,0 -82.2485,14.328 -82.2485,32.0008l0 216.9c0,17.6728 36.8256,32.0008 82.2485,32.0008 45.4229,0 82.2485,-14.328 82.2485,-32.0008l0 -216.9z"/>
  <path class="fil2" d="M282.429 412.204l1483.14 0c17.6728,0 32.0008,14.328 32.0008,32.0008l0 920.326c0,17.6728 -14.328,32.0008 -32.0008,32.0008l-1483.14 0c-17.6728,0 -32.0008,-14.328 -32.0008,-32.0008l0 -920.326c0,-17.6728 14.328,-32.0008 32.0008,-32.0008z"/>
  <path class="fil3" d="M1797.57 1152l0 212.531c0,17.6728 -14.328,32.0008 -32.0008,32.0008l-1483.14 0c-17.6728,0 -32.0008,-14.328 -32.0008,-32.0008l0 -212.531 1547.14 0z"/>
  <polygon class="fil4" points="1733.57,476.205 314.43,476.205 314.43,1128.01 1733.57,1128.01 "/>
  <g id="_386945120">
   <polygon id="_386945480" class="fil5" points="1693,1253.98 1693,1294.55 1733.57,1294.55 1733.57,1253.98 "/>
   <polygon id="_386945360" class="fil6" points="1550.92,1294.55 1591.49,1294.55 1591.49,1253.98 1550.92,1253.98 "/>
   <polygon id="_386945144" class="fil7" points="1621.86,1253.98 1621.86,1294.55 1662.43,1294.55 1662.43,1253.98 "/>
  </g>
  <g id="_386945240">
   <circle id="_386944760" class="fil8" cx="1024" cy="1274.27" r="39.1205"/>
   <circle id="_386944640" class="fil9" cx="1024" cy="1274.27" r="33.2752"/>
  </g>
  <g id="_386944544">
   <polygon id="_386944592" class="fil1" points="684.158,828.592 565.167,892.797 565.167,865.077 659.398,815.761 565.167,766.868 565.167,739.201 684.158,802.614 "/>
   <polygon id="_386944736" class="fil1" points="380.339,828.592 380.339,802.614 499.329,739.201 499.329,766.868 404.973,815.761 499.329,865.077 499.329,892.797 "/>
  </g>
  <g id="_386943752">
   <path id="_386945168" class="fil1" d="M784 608.444c0,-8.83583 -7.16457,-16.0004 -16.0004,-16.0004 -8.83583,0 -16.0004,7.16457 -16.0004,16.0004l0 415.109c0,8.83583 7.16457,16.0004 16.0004,16.0004 8.83583,0 16.0004,-7.16457 16.0004,-16.0004l0 -415.109z"/>
   <path id="_386943992" class="fil1" d="M1296 608.444c0,-8.83583 -7.16457,-16.0004 -16.0004,-16.0004 -8.83583,0 -16.0004,7.16457 -16.0004,16.0004l0 415.109c0,8.83583 7.16457,16.0004 16.0004,16.0004 8.83583,0 16.0004,-7.16457 16.0004,-16.0004l0 -415.109z"/>
  </g>
  <g id="_386943416">
   <g>
    <path id="_386943920" class="fil10" d="M915.418 709.019l-4.70315 0c-11.1473,0 -18.6803,2.13425 -22.5992,6.35788 -3.9189,4.22363 -5.87835,12.9319 -5.87835,26.1697l0 30.9591c0,14.2831 -1.82835,24.4725 -5.52993,30.5681 -3.70158,6.13937 -10.2331,10.5378 -19.5945,13.2803 9.36142,2.61378 15.8929,6.96733 19.5945,13.1079 3.70158,6.09567 5.52993,16.2851 5.52993,30.6107l0 30.7855c0,13.1941 1.91575,21.9024 5.74843,26.126 3.8315,4.18111 11.0599,6.31418 21.6839,6.31418 0.61063,0 1.5248,-0.0437008 2.8311,-0.129921 1.2626,-0.0874016 2.22047,-0.131102 2.91733,-0.131102l0 13.5425 -6.00945 0c-16.7209,0 -28.0855,-3.09213 -33.9638,-9.2315 -5.92205,-6.13937 -8.88308,-18.7677 -8.88308,-37.7528l0 -31.1776c0,-13.1067 -2.43898,-22.3382 -7.27205,-27.6933 -3.71339,-4.11614 -9.48544,-6.6626 -17.2736,-7.62166l0 -13.8886c7.78819,-0.959056 13.5602,-3.50551 17.2736,-7.62048 4.83307,-5.4 7.27205,-14.6752 7.27205,-27.7819l0 -31.0028c0,-18.9414 2.96103,-31.6134 8.92678,-37.8827 5.96575,-6.31418 17.2429,-9.45001 33.9201,-9.45001l6.00945 0 0 13.5425z"/>
    <path id="_386943968" class="fil10" d="M1132.58 709.019l4.70197 0c11.1473,0 18.6803,2.13425 22.5992,6.35788 3.92008,4.22363 5.87953,12.9319 5.87953,26.1697l0 30.9591c0,14.2831 1.82835,24.4725 5.52993,30.5681 3.7004,6.13937 10.2319,10.5378 19.5945,13.2803 -9.36261,2.61378 -15.8941,6.96733 -19.5945,13.1079 -3.70158,6.09567 -5.52993,16.2851 -5.52993,30.6107l0 30.7855c0,13.1941 -1.91693,21.9024 -5.74843,26.126 -3.8315,4.18111 -11.0599,6.31418 -21.6851,6.31418 -0.609449,0 -1.52362,-0.0437008 -2.82992,-0.129921 -1.2626,-0.0874016 -2.22047,-0.131102 -2.91733,-0.131102l0 13.5425 6.00827 0c16.7209,0 28.0866,-3.09213 33.965,-9.2315 5.92205,-6.13937 8.88308,-18.7677 8.88308,-37.7528l0 -31.1776c0,-13.1067 2.4378,-22.3382 7.27087,-27.6933 3.71457,-4.11614 9.48544,-6.6626 17.2748,-7.62166l0 -13.8886c-7.78938,-0.959056 -13.5602,-3.50551 -17.2748,-7.62048 -4.83307,-5.4 -7.27087,-14.6752 -7.27087,-27.7819l0 -31.0028c0,-18.9414 -2.96103,-31.6134 -8.92678,-37.8827 -5.96575,-6.31418 -17.2429,-9.45001 -33.9213,-9.45001l-6.00827 0 0 13.5425z"/>
   </g>
   <g>
    <polygon id="_386944376" class="fil11" points="916.849,761.923 1126.13,761.923 1126.13,779.142 916.849,779.142 "/>
    <polygon id="_386944256" class="fil11" points="916.849,807.419 1126.13,807.419 1126.13,824.637 916.849,824.637 "/>
    <polygon id="_386943944" class="fil11" points="916.849,852.914 1062.43,852.914 1062.43,870.133 916.849,870.133 "/>
   </g>
  </g>
  <g id="_386940560">
   <path id="_386943368" class="fil12" d="M1474.2 860.17c-2.25118,-2.25 -5.36221,-3.64252 -8.79804,-3.64252 -3.43583,0 -6.54686,1.39252 -8.79804,3.64252 -2.25,2.25118 -3.64252,5.36221 -3.64252,8.79804 0,3.43583 1.39252,6.54686 3.64252,8.79804 2.25118,2.25 5.36221,3.64252 8.79804,3.64252 3.43583,0 6.54686,-1.39252 8.79804,-3.64252 2.25,-2.25118 3.64252,-5.36221 3.64252,-8.79804 0,-3.43583 -1.39252,-6.54686 -3.64252,-8.79804z"/>
   <g>
    <g>
     <path id="_386942984" class="fil13" d="M1532.12 728.448c-1.18937,0.218504 -2.3315,-0.569292 -2.55,-1.75866 -6.49843,-35.4331 -40.6146,-58.9748 -76.0465,-52.4752 -1.19055,0.217323 -2.33268,-0.570473 -2.55118,-1.75984 -0.218504,-1.19055 0.570473,-2.33268 1.75984,-2.55118 37.8118,-6.93544 74.2134,18.1843 81.1477,55.9949 0.218504,1.19055 -0.569292,2.33268 -1.75984,2.55z"/>
     <path id="_386943344" class="fil13" d="M1553.39 728.448c1.18937,0.218504 2.3315,-0.569292 2.55,-1.75866 6.49843,-35.4331 40.6146,-58.9748 76.0465,-52.4752 1.19055,0.217323 2.33268,-0.570473 2.55118,-1.75984 0.217323,-1.19055 -0.570473,-2.33268 -1.76102,-2.55118 -37.8107,-6.93544 -74.2123,18.1843 -81.1477,55.9949 -0.217323,1.19055 0.570473,2.33268 1.76102,2.55z"/>
    </g>
    <path id="_386943560" class="fil14" d="M1555.61 731.11l0.486615 -1.67717c0.196063,-0.637796 0.115748,-1.29567 -0.172441,-1.84252 -0.661418,-1.13268 -3.46772,-2.84173 -4.33701,-2.96457 -1.03937,0.0425197 -1.97244,0.755906 -2.24764,1.81536 -0.151181,0.581103 -0.28937,1.13504 -0.409843,1.66063l0.0106299 0.00472441 6.65079 2.99292c0.00708662,0.00354331 0.0129921,0.00708662 0.0188977,0.0106299z"/>
    <path id="_386943152" class="fil15" d="M1510.13 751.594c-2.95276,-1.61339 -5.3752,-2.42717 -8.06575,-4.64646 -0.924804,-0.762993 -1.71024,-1.57914 -2.29488,-2.41654l-3.44764 1.25551c-2.60788,1.15276 -7.46693,3.20433 -11.3067,4.63465 -2.08819,0.778347 -3.9626,1.35591 -5.24646,1.52362 -0.402756,0.103937 -0.838583,0.105118 -1.26732,-0.0177165 -1.28268,-0.364961 -2.32559,-1.22717 -3.04725,-2.32441 -2.91851,-0.0874016 -7.22717,-0.937796 -9.56221,-1.87087 -1.46575,-0.587008 -3.28819,-0.787796 -4.82481,-0.377953 -1.29567,0.341339 -2.62323,-0.432284 -2.96457,-1.72914 -0.341339,-1.29567 0.433465,-2.62323 1.72914,-2.96339 2.61496,-0.693308 5.40827,-0.411024 7.90749,0.583465 1.97835,0.787796 5.96339,1.52126 8.38465,1.52008 1.40669,0 2.63858,0.825591 3.29882,2.04331l0.408662 0.445276c0.147638,-0.0153543 1.47165,-0.620079 3.49252,-1.37362 3.60473,-1.34291 8.40827,-3.37559 11.041,-4.54016 1.48701,-0.655512 5.13071,-2.02914 6.6189,-1.95709 1.27205,0.0614174 2.21929,0.740552 2.52402,1.9311 0.113386,0.458268 0.883465,1.26969 1.63465,1.88977 2.08583,1.72087 4.51536,2.6126 6.94607,3.92835 0.982678,0.531496 2.27244,1.22008 3.33425,1.95473l-5.20867 2.40591c-0.0437008,0.0200788 -0.0732284,0.0578741 -0.0838583,0.101575z"/>
    <path id="_386943704" class="fil15" d="M1496.09 793.229c-2.79449,0.364961 -6.19252,0.698032 -8.68701,0.116929l0.0011811 -0.00590552c-0.155906,-0.0354331 -0.307087,-0.0767717 -0.453544,-0.125197 -2.02559,2.99646 -3.20197,8.17442 -4.42914,12.7276 -1.65,6.1252 -4.36536,16.2142 -8.44607,18.1902 -1.27677,0.618898 -2.72008,0.591733 -4.03465,0.133465 -2.31969,1.1374 -5.40709,2.14725 -7.73386,2.60315l-1.01102 0.366142c-1.70433,0.752363 -3.98268,0.884646 -4.68898,1.61929 -0.929528,0.966142 -2.46496,0.99567 -3.42992,0.0673229 -0.966142,-0.928347 -0.99567,-2.46496 -0.0673229,-3.42992 2.09882,-2.18622 4.51181,-1.94528 6.22914,-2.70355l2.0374 -0.688583c2.02914,-0.398032 4.74567,-1.29213 6.75355,-2.3126 1.86496,-0.947245 3.7004,0.0401575 3.83622,-0.0248032 2.31732,-1.11969 5.08937,-12.1937 6.51142,-17.4827 1.54488,-5.75788 2.61732,-9.75355 5.49331,-13.161 1.09488,-1.29685 2.93504,-1.46457 4.32402,-0.598819l0.209055 0.101575 0.0011811 -0.00590552c1.8378,0.427559 5.12599,0.046063 7.33701,-0.251575 -0.011811,0.0236221 -0.0188977,0.0507874 -0.0177165,0.0791339l0.225591 4.69134c0.00236221,0.0366142 0.0165354,0.0696851 0.0401575,0.0944883z"/>
    <path id="_386943248" class="fil15" d="M1498.22 838.351c-4.06063,1.03937 -8.68465,2.24764 -11.9067,1.99843 -2.72717,7.45158 -4.71615,21.7795 -6.11339,30.9047 -0.88819,5.80748 0.0897638,13.9949 -3.31536,18.8256 -0.731103,1.03701 -1.86142,1.63228 -3.09449,1.75748l-0.291733 0.068504 -0.00472441 -0.0129921c-2.56536,1.92756 -6.57638,3.59646 -9.41221,4.363l-0.00236221 -0.00590552 -0.967324 0.438189c-1.61929,0.859843 -3.89882,1.14567 -4.56024,1.94646 -0.855119,1.03347 -2.38701,1.17756 -3.42048,0.322441 -1.03347,-0.855119 -1.17874,-2.38583 -0.323622,-3.42048 1.92284,-2.32441 4.34882,-2.25355 6.02363,-3.14292l1.99843 -0.82441 -0.00236221 -0.00708662c2.37284,-0.641339 5.66103,-2.00906 7.80473,-3.5752l-0.00472441 -0.00590552c0.683859,-0.517323 1.60984,-0.823229 2.44961,-0.94252 2.15197,-3.5374 1.55906,-11.5571 2.31614,-16.5059 1.45158,-9.49253 3.78189,-26.1496 6.93308,-33.3l-0.00236221 -0.0011811c0.677953,-1.53071 2.40236,-2.3126 3.96024,-1.78937l0.0791339 0.0248032 0 -0.00236221 0.0980316 0.0200788 0 -0.00590552c2.32087,0.285827 6.67678,-0.849213 10.4291,-1.80591 -0.0129921,0.0318898 -0.0153543,0.0673229 -0.00590552,0.101575l1.32992 4.56142 0.00590552 0.0153543z"/>
    <path id="_386943464" class="fil15" d="M1587.48 833.073c3.81614,0.949607 8.97402,2.40118 11.3764,2.01614l0.105118 -0.0259843 -0.0011811 -0.00236221c1.57441,-0.526772 3.29528,0.266929 3.95788,1.82008l0.00354331 -0.0011811c3.23504,7.60276 5.413,23.4425 6.92245,33.2717 0.761812,4.95473 0.167717,12.9721 2.32205,16.5059 0.83504,0.124016 1.74803,0.427559 2.43898,0.954331l0.00354331 -0.00354331c2.03268,1.53189 5.55,2.96103 7.80945,3.57284l1.98662 0.83504 0.0011811 -0.00354331c1.67835,0.890552 4.09961,0.819686 6.02126,3.1441 0.855119,1.03347 0.711024,2.56418 -0.322441,3.41929 -1.03347,0.855119 -2.56536,0.711024 -3.42048,-0.322441 -0.661418,-0.800788 -2.93858,-1.08662 -4.55788,-1.94646l0.0011811 -0.00354331 -0.982678 -0.42874c-2.80866,-0.764174 -6.87402,-2.45551 -9.4193,-4.35591l-0.271654 -0.0625985c-1.24252,-0.125197 -2.37992,-0.722835 -3.10512,-1.76693l0.00472441 -0.00354331c-3.38977,-4.74449 -2.43071,-13.0429 -3.31654,-18.8126 -1.40551,-9.14646 -3.38032,-23.4366 -6.11339,-30.9047 -3.23977,0.251575 -7.9004,-0.97441 -11.9835,-2.01851l0.00354331 -0.0188977 0.617717 -4.70315c0.00826772,-0.0649607 -0.0259843,-0.126378 -0.0814961,-0.154725z"/>
    <path id="_386943176" class="fil15" d="M1589.57 788.538c2.07047,0.27874 5.99528,0.734646 7.54253,0.248032l0.120473 -0.0720473 -0.00236221 -0.00354331c1.41614,-0.881103 3.24685,-0.711024 4.38189,0.666142 3.16299,3.84331 4.17874,8.40946 5.79922,14.4071 1.41024,5.21693 3.92481,15.0957 6.14764,16.1681l0.533859 -0.147638c1.0311,-0.341339 2.32559,-0.333071 3.30118,0.177165l0.00236221 -0.00354331c2.12362,1.07953 4.65355,1.87441 6.80315,2.32205l1.98898 0.679134c1.70669,0.754725 4.1315,0.517323 6.23504,2.70355 0.928347,0.964961 0.89882,2.5004 -0.0661418,3.42992 -0.966142,0.928347 -2.50158,0.89882 -3.42992,-0.0673229 -0.707481,-0.734646 -2.99764,-0.869292 -4.69607,-1.62047l-1.05473 -0.373229c-2.40591,-0.498426 -5.30315,-1.42441 -7.69134,-2.59488 -1.31457,0.458268 -2.7567,0.484252 -4.03583,-0.133465 -4.08898,-1.98071 -6.8067,-12.1099 -8.44961,-18.2303 -1.17638,-4.37481 -2.39764,-9.69922 -4.42323,-12.6886 -2.37402,0.772442 -6.27284,0.387402 -9.06733,0.0248032 0.0011811,-0.00944883 0.00236221,-0.0177165 0.00236221,-0.0271654l0.0720473 -4.79764c0,-0.0236221 -0.00472441,-0.046063 -0.0141732,-0.0661418z"/>
    <path id="_386942480" class="fil15" d="M1571.23 748.456c1.63465,-0.951969 3.31418,-1.86614 4.97599,-2.63504 1.53662,-0.707481 2.96811,-1.57087 4.06181,-2.47087 0.889371,-0.732284 1.4811,-1.35709 1.68071,-2.01496 0.510237,-1.6937 2.26772,-2.08465 3.84922,-1.64882 1.84016,0.505512 3.37205,0.97441 5.25237,1.80473 2.63622,1.16102 7.4563,3.19961 11.061,4.54134 2.0126,0.750001 3.32126,1.35236 3.46418,1.36417 0.0496063,-0.0141732 0.0944883,-0.0401575 0.134646,-0.0755906l-0.00354331 -0.00472441c0.109843,-0.0956694 0.206693,-0.223229 0.288189,-0.370866l-0.00236221 -0.0011811c0.628347,-1.21417 1.93347,-2.03977 3.33425,-2.02795 2.4378,0.0212599 6.41457,-0.780709 8.39292,-1.55197l-0.0011811 -0.00354331c2.48386,-0.981497 5.33622,-1.2248 7.8626,-0.557481 1.29567,0.341339 2.07047,1.6689 1.72914,2.96457 -0.341339,1.29567 -1.66772,2.07047 -2.96457,1.72914 -1.52008,-0.401575 -3.31299,-0.217323 -4.84134,0.386221l-0.0011811 -0.00236221c-2.23229,0.921261 -6.69449,1.7811 -9.54568,1.87087 -0.297638,0.455906 -0.643701,0.865749 -1.03937,1.21299l-0.00472441 -0.00472441c-0.5563,0.500788 -1.26378,0.89882 -2.00788,1.11024l0 -0.00236221c-1.04055,0.296457 -3.54803,-0.400394 -6.48544,-1.4941 -3.84331,-1.43032 -8.713,-3.48544 -11.3268,-4.63583l-3.44646 -1.2626c-1.63937,2.34685 -4.6937,4.29922 -7.4067,5.55473l-2.96221 1.52244c-0.00708662,-0.0330709 -0.0259843,-0.0637796 -0.0531496,-0.0862205l-3.99095 -3.2067 -0.00354331 -0.00354331z"/>
    <path id="_386942240" class="fil14" d="M1529.94 731.11l-0.486615 -1.67717c-0.196063,-0.637796 -0.115748,-1.29567 0.173622,-1.84252 0.252756,-0.546851 3.04607,-2.66457 4.33701,-2.96457 1.03937,0.0425197 1.97244,0.755906 2.24646,1.81536 0.152362,0.581103 0.28937,1.13504 0.411024,1.66063l-0.0106299 0.00472441 -6.65079 2.99292c-0.00708662,0.00354331 -0.0129921,0.00708662 -0.0200788,0.0106299z"/>
    <path id="_386942864" class="fil13" d="M1555.75 730.706c0.708662,0.879922 1.00748,1.99016 0.935434,3.20315 -0.0874016,1.51654 0.0944883,3.12047 0.497244,4.42323l0.00354331 -0.00472441c0.78189,0.67441 2.02087,1.74213 2.98229,4.05237 0.520867,1.25433 2.06811,1.76102 4.19055,2.45551 2.22874,0.729922 4.98307,1.59449 7.38898,3.15945 -0.00472441,0.0484252 0.0153543,0.0980316 0.0555119,0.131102l3.99095 3.2067c0.0649607,0.0519685 0.159449,0.0425197 0.212599,-0.022441 0.830316,0.50315 1.9441,1.00158 3.71457,1.5248 4.20709,1.23898 13.9606,8.2441 14.2677,12.965 0.167717,2.55 -0.844489,4.3004 -1.89567,6.11693 -0.651969,1.12677 -1.3252,2.29016 -1.42087,3.53977 0.046063,2.08229 -0.0507874,8.6693 -0.112205,12.8433 -0.0295276,0.0271654 -0.0472441,0.0661418 -0.0484252,0.108662l-0.0708662 4.79882c-0.0011811,0.0283465 0.00708662,0.0543308 0.0200788,0.0779528 -0.16063,5.73662 -0.290551,11.2795 -0.0791339,15.6496 0.26811,5.59607 -0.627166,18.3756 -1.14567,24.4831l0.0767717 0.0188977c-0.0767717,-0.0011811 -0.142913,0.0543308 -0.153543,0.132284l-0.617717 4.70315c-0.00944883,0.0708662 0.0330709,0.138189 0.0968505,0.161811l-1.05945 5.29134 -0.00708662 -0.0011811c-0.493701,2.18504 -2.11181,3.98859 -2.15315,4.1941 -0.552756,2.85118 -1.81063,8.10119 -3.96733,10.9417 -0.754725,0.992127 -1.51536,1.32284 -2.21575,1.53898 -1.3252,3.25985 -3.40866,7.66536 -5.71418,11.0008l-0.00236221 -0.0011811c-1.59095,2.36693 -3.54213,2.67402 -3.68859,2.79095 -0.0874016,0.0696851 -3.64252,6.11693 -6.74882,7.87678 -1.1126,0.633071 -2.25827,0.775985 -3.21496,0.894095 -0.0956694,0.011811 -0.0177165,-0.148819 -0.0602363,-0.497244l-0.00354331 -0.00236221c-2.22047,3.62481 -4.96063,7.03229 -9.22324,6.88111 -2.00315,1.8815 -6.19252,3.4004 -9.02009,2.9374 -2.28662,-0.37441 -5.14134,-1.4374 -6.79016,-3.10158l-0.343701 0.00354331 0 -0.00944883c-2.00906,-0.178347 -4.7504,-0.421654 -8.70237,-6.69922l0.00472441 -0.00354331 -0.00944883 -0.0141732c-0.0425197,0.356693 0.0389764,0.518504 -0.0614174,0.506693 -0.968505,-0.120473 -2.06103,-0.255118 -3.19488,-0.884646l0.00236221 -0.00354331c-3.11457,-1.73032 -6.66378,-7.80237 -6.76536,-7.88268 -1.00866,-0.351969 -2.34449,-0.833859 -3.69449,-2.79095 -3.43701,-4.97126 -4.42914,-7.89568 -7.9441,-12.541l-1.90512 -4.46693c-1.7126,-4.28622 -4.20355,-10.6441 -4.20827,-10.6665l-1.07244 -5.35512c0.0212599,-0.034252 0.0283465,-0.0779528 0.0153543,-0.120473l-1.32992 -4.56142c-0.0153543,-0.0507874 -0.0543308,-0.0874016 -0.101575,-0.102756 -0.488977,-6.913 -0.598819,-18.8492 -0.320079,-24.6508 0.211417,-4.38426 0.0791339,-9.94253 -0.0755906,-15.6933 0.0330709,-0.0295276 0.0543308,-0.0744095 0.0519685,-0.122835l-0.225591 -4.69016c-0.00236221,-0.0519685 -0.0307087,-0.0968505 -0.0708662,-0.121654l-0.0153543 -5.1378 0.00236221 0 -0.0307087 -4.063c0.00354331,-1.27441 0.0177165,-2.50158 0.0472441,-3.66378 -0.0661418,-2.66693 -3.59882,-5.22048 -3.31654,-9.64253 0.301181,-4.70788 10.0654,-11.7284 14.2689,-12.9732l0 0.00354331c1.85551,-0.568111 2.82047,-0.972048 3.72402,-1.52126 0.0437008,0.0437008 0.112205,0.0590552 0.172441,0.0318898l5.29607 -2.44725c0.0437008,-0.0200788 0.0732284,-0.0578741 0.0838583,-0.101575 0.775985,0.0543308 1.4752,-2.12008 2.63622,-2.65158l1.21772 -0.544489 0.0011811 0.00236221c0.772442,-0.283465 1.53071,-0.532678 2.24055,-0.765355 2.11772,-0.693308 3.66496,-1.20118 4.18701,-2.45315 0.964961,-2.31732 2.20866,-3.38859 2.9941,-4.06418 0.418111,-1.39134 0.569292,-2.96103 0.48189,-4.4067 -0.0885827,-1.16221 0.238583,-2.29016 0.902363,-3.14882 0.0413386,0.0543308 0.116929,0.0755906 0.183071,0.046063l6.65079 -2.99292c0.113386,-0.0507874 0.119291,-0.206693 0.0141732,-0.269292 1.88858,-1.40197 3.99803,-1.79646 6.31536,-1.79646l0 0.00826772c2.33386,-0.0531496 4.53307,0.623623 6.12993,1.83898 0.0271654,0.0614174 0.0992127,0.0921261 0.173622,0.0921261 0.011811,0.0129921 0.0259843,0.022441 0.0425197,0.0307087l6.38977 2.99292c0.046063,0.0212599 0.0968505,0.0177165 0.138189,-0.00472441z"/>
    <path id="_386942312" class="fil16" d="M1566.19 745.44c0.830316,0.284646 1.69488,0.601182 2.55945,0.973229 0.920079,0.773623 2.20394,0.740552 2.92914,1.54843 0.0106299,0.0425197 0.046063,0.0708662 0.0838583,0.100394l3.32599 2.69646 0.713386 0.574016c0.0649607,0.0519685 0.159449,0.0425197 0.212599,-0.022441 0.830316,0.50315 1.9441,1.00158 3.71457,1.5248 4.20709,1.23898 13.9606,8.2441 14.2677,12.965 0.167717,2.55 -0.844489,4.3004 -1.89567,6.11693 -0.651969,1.12677 -1.3252,2.29016 -1.42087,3.53977 0.046063,2.08229 -0.0507874,8.6693 -0.112205,12.8433 -0.0295276,0.0271654 -0.0472441,0.0661418 -0.0484252,0.108662l-0.0708662 4.79882c-0.0011811,0.0283465 0.00708662,0.0543308 0.0200788,0.0779528 -0.16063,5.73662 -0.290551,11.2795 -0.0791339,15.6496 0.26811,5.59607 -0.627166,18.3756 -1.14567,24.4831l0.0767717 0.0188977c-0.0767717,-0.0011811 -0.142913,0.0543308 -0.153543,0.132284l-0.617717 4.70315c-0.00944883,0.0708662 0.0330709,0.138189 0.0968505,0.161811l-1.05945 5.29134 -0.00708662 -0.0011811c-0.493701,2.18504 -2.11181,3.98859 -2.15315,4.1941 -0.552756,2.85118 -1.81063,8.10119 -3.96733,10.9417 -0.754725,0.992127 -1.51536,1.32284 -2.21575,1.53898 -1.3252,3.25985 -3.40866,7.66536 -5.71418,11.0008l-0.00236221 -0.0011811c-1.59095,2.36693 -3.54213,2.67402 -3.68859,2.79095 -0.0874016,0.0696851 -3.64252,6.11693 -6.74882,7.87678 -0.702756,0.400394 -1.41969,0.604725 -2.09291,0.729922 -10.8012,-30.8173 -17.5087,-72.3674 -17.5087,-114.194 0,-9.43938 8.90906,-17.811 22.702,-23.1626z"/>
    <path id="_386942648" class="fil16" d="M1525 882.875c-0.79252,-0.116929 -1.64882,-0.307087 -2.5311,-0.797245l0.00236221 -0.00354331c-3.11457,-1.73032 -6.66378,-7.80237 -6.76536,-7.88268 -1.00866,-0.351969 -2.34449,-0.833859 -3.69449,-2.79095 -3.43701,-4.97126 -4.42914,-7.89568 -7.9441,-12.541l-1.90512 -4.46693c-1.7126,-4.28622 -4.20355,-10.6441 -4.20827,-10.6665l-1.07244 -5.35512c0.0212599,-0.034252 0.0283465,-0.0779528 0.0153543,-0.120473l-1.32992 -4.56142c-0.0153543,-0.0507874 -0.0543308,-0.0874016 -0.101575,-0.102756 -0.488977,-6.913 -0.598819,-18.8492 -0.320079,-24.6508 0.211417,-4.38426 0.0791339,-9.94253 -0.0755906,-15.6933 0.0330709,-0.0295276 0.0543308,-0.0744095 0.0519685,-0.122835l-0.225591 -4.69016c-0.00236221,-0.0519685 -0.0307087,-0.0968505 -0.0708662,-0.121654l-0.0153543 -5.1378 0.00236221 0 -0.0307087 -4.063c0.00354331,-1.27441 0.0177165,-2.50158 0.0472441,-3.66378 -0.0661418,-2.66693 -3.59882,-5.22048 -3.31654,-9.64253 0.301181,-4.70788 10.0654,-11.7284 14.2689,-12.9732l0 0.00354331c1.85551,-0.568111 2.82047,-0.972048 3.72402,-1.52126 0.0437008,0.0437008 0.112205,0.0590552 0.172441,0.0318898l5.29607 -2.44725c0.0437008,-0.0200788 0.0732284,-0.0578741 0.0838583,-0.101575 0.775985,0.0543308 1.4752,-2.12008 2.63622,-2.65158l1.21772 -0.544489 0.0011811 0.00236221c0.232677,-0.0862205 0.464174,-0.167717 0.693308,-0.248032 13.9228,5.34804 22.9299,13.761 22.9299,23.2524 0,41.8618 -6.71812,83.4449 -17.5358,114.272z"/>
    <line id="_386942816" class="fil13" x1="1528.81" y1="733.909" x2="1528.81" y2= "733.909" />
    <line id="_386942384" class="fil13" x1="1463.11" y1="741.89" x2="1463.11" y2= "741.89" />
    <line id="_386942336" class="fil13" x1="1462.75" y1="746.734" x2="1462.75" y2= "746.734" />
    <line id="_386942840" class="fil13" x1="1460.14" y1="822.102" x2="1460.14" y2= "822.102" />
    <line id="_386942720" class="fil13" x1="1461.07" y1="826.869" x2="1461.07" y2= "826.869" />
    <line id="_386941784" class="fil13" x1="1613.36" y1="891.836" x2="1613.36" y2= "891.836" />
    <line id="_386941640" class="fil13" x1="1613.63" y1="891.898" x2="1613.63" y2= "891.898" />
    <line id="_386941568" class="fil13" x1="1625.47" y1="827.234" x2="1625.47" y2= "827.234" />
    <line id="_386942144" class="fil13" x1="1627.42" y1="822.79" x2="1627.42" y2= "822.79" />
    <line id="_386942120" class="fil13" x1="1625.44" y1="822.11" x2="1625.44" y2= "822.11" />
    <line id="_386942024" class="fil13" x1="1606.34" y1="746.826" x2="1606.34" y2= "746.826" />
    <line id="_386941520" class="fil13" x1="1556.69" y1="733.909" x2="1556.69" y2= "733.909" />
    <path id="_386941424" class="fil17" d="M1557.31 738.688c0.144095,0.37441 -0.115748,-0.325985 -0.116929,-0.359055l-0.00236221 0.00354331c0.0366142,0.11811 0.0732284,0.229134 0.109843,0.330709l0.00944883 0.0248032z"/>
    <path id="_386941664" class="fil18" d="M1553.24 773.899c-0.949607,-0.949607 -2.48977,-0.949607 -3.43937,0 -0.949607,0.949607 -0.949607,2.48977 0,3.43937l22.898 19.4587 -19.4587 -22.898z"/>
    <path id="_386941856" class="fil18" d="M1531.18 803.561c0.687402,-1.14921 2.17559,-1.52362 3.32481,-0.836221 1.14921,0.687402 1.52362,2.17677 0.836221,3.32599l-17.9185 25.1587 13.7575 -27.6484z"/>
    <path id="_386941808" class="fil18" d="M1553.6 803.561c-0.687402,-1.14921 -2.17677,-1.52362 -3.32599,-0.836221 -1.14921,0.687402 -1.52362,2.17677 -0.836221,3.32599l17.9197 25.1587 -13.7575 -27.6484z"/>
    <path id="_386940680" class="fil18" d="M1527.7 837.955c0.498426,-1.24252 1.91103,-1.84725 3.15473,-1.34882 1.2437,0.498426 1.84725,1.91103 1.34882,3.15473l-12.8835 25.6725 8.37993 -27.4784z"/>
    <path id="_386941400" class="fil18" d="M1557.84 837.955c-0.498426,-1.24252 -1.91103,-1.84725 -3.15473,-1.34882 -1.2437,0.498426 -1.84725,1.91103 -1.34882,3.15473l12.8835 25.6725 -8.37993 -27.4784z"/>
    <path id="_386940968" class="fil18" d="M1531.54 773.899c0.949607,-0.949607 2.48977,-0.949607 3.44055,0 0.949607,0.949607 0.949607,2.48977 0,3.43937l-22.898 19.4587 19.4575 -22.898z"/>
    <line id="_386941208" class="fil19" x1="1504.06" y1="858.861" x2="1504.06" y2= "858.861" />
   </g>
   <g>
    <path id="_386941136" class="fil12" d="M1481.28 779.299c1.30039,2.60906 2.62087,5.64922 3.93307,8.67284 2.96103,6.81851 5.87717,13.5378 8.12363,14.4874 2.2937,0.970867 9.32009,-1.85551 16.3264,-4.67363 4.12323,-1.65827 10.8047,-5.74843 14.7484,-1.86142 2.67284,2.16378 5.11772,4.35355 7.32284,6.55867 2.34095,2.34095 4.66536,4.95237 6.95906,7.82008l0.0236221 -0.0188977c1.40079,1.75158 1.67362,4.04174 0.916536,5.99174 -0.878741,2.51929 -2.0374,5.40119 -3.19725,8.28308 -2.81811,7.00749 -5.64331,14.0327 -4.67363,16.3264 0.949607,2.24646 7.6689,5.16378 14.4886,8.12481 3.99922,1.73622 12.0154,3.79607 12.398,9.10631 0.563386,4.90985 3.10748,24.0319 -3.72638,26.876 -2.60788,1.30039 -5.64804,2.62087 -8.67166,3.93307 -6.81969,2.96103 -13.5378,5.87835 -14.4886,8.12363 -0.969686,2.2937 1.85551,9.32009 4.67363,16.3264 1.19528,2.97047 2.38937,5.93859 3.27638,8.51103l0.00354331 -0.0011811c0.775985,2.25236 0.147638,4.64882 -1.41851,6.23859 -3.80551,4.70315 -14.2547,17.5949 -20.354,15.2209 -2.51929,-0.878741 -5.39882,-2.03622 -8.28072,-3.19607 -7.0063,-2.81693 -14.0327,-5.64331 -16.3264,-4.67363 -2.24646,0.950788 -5.1626,7.6689 -8.12363,14.4886 -1.73622,3.99922 -3.79607,12.0154 -9.10749,12.398 -6.59056,0.755906 -24.1914,2.72599 -26.876,-3.7252 -1.29921,-2.60906 -2.61969,-5.64922 -3.93307,-8.67284 -2.95984,-6.81969 -5.87717,-13.5378 -8.12363,-14.4886 -2.2937,-0.969686 -9.3189,1.85669 -16.3252,4.67481 -2.97047,1.1941 -5.93859,2.38819 -8.51221,3.2752l0.0011811 0.00354331c-2.25236,0.775985 -4.64882,0.148819 -6.23741,-1.41732 -2.67402,-2.16378 -5.1189,-4.35355 -7.32402,-6.55867 -3.0815,-3.0815 -9.86103,-8.74371 -7.89804,-13.7941 0.878741,-2.52047 2.0374,-5.40119 3.19725,-8.28426 2.81693,-7.0063 5.64331,-14.0315 4.67244,-16.324 -0.949607,-2.24646 -7.6689,-5.16378 -14.4874,-8.12481 -4.0004,-1.73622 -12.0165,-3.79607 -12.3992,-9.10631 -0.191339,-1.67126 -0.343701,-3.43465 -0.453544,-5.29134 -0.116929,-1.98662 -0.178347,-3.84331 -0.178347,-5.56063 0,-1.71614 0.0614174,-3.57166 0.178347,-5.55709 0.115748,-1.96299 0.279921,-3.81969 0.486615,-5.57481l-0.00590552 -0.0011811c0.266929,-2.25591 1.74095,-4.07599 3.69922,-4.89095 2.60788,-1.30039 5.64804,-2.62087 8.67284,-3.93425 6.81851,-2.95984 13.5378,-5.87717 14.4874,-8.12363 0.970867,-2.2937 -1.85551,-9.3189 -4.67363,-16.3252 -1.19528,-2.97047 -2.38937,-5.93859 -3.2752,-8.51103l-0.00354331 0.0011811c-0.775985,-2.25355 -0.148819,-4.65 1.41732,-6.23859 2.16378,-2.67402 4.35355,-5.11772 6.55867,-7.32402 3.0815,-3.08032 8.74371,-9.86103 13.7941,-7.89804 2.52047,0.878741 5.40119,2.0374 8.28426,3.19725 7.00512,2.81811 14.0303,5.64331 16.324,4.67363 2.24646,-0.950788 5.16378,-7.67008 8.12363,-14.4886 3.39567,-7.82127 3.38386,-11.1047 9.88938,-12.3461 5.89725,-1.12559 23.5666,-2.40118 26.0941,3.67323z"/>
    <path id="_386940752" class="fil12" d="M1490.22 844.151c-6.35079,-6.35079 -15.1252,-10.2791 -24.8173,-10.2791 -9.69213,0 -18.4665,3.92835 -24.8173,10.2791 -6.35079,6.35079 -10.278,15.1252 -10.278,24.8162 0,9.69213 3.92717,18.4665 10.278,24.8173 6.35079,6.35079 15.1252,10.2791 24.8173,10.2791 9.69213,0 18.4665,-3.92835 24.8173,-10.2791 6.35079,-6.35079 10.278,-15.1252 10.278,-24.8173 0,-9.69095 -3.92717,-18.4654 -10.278,-24.8162z"/>
    <path id="_386940224" class="fil20" d="M1465.4 821.74c13.0406,0 24.8481,5.28662 33.3957,13.8331 8.54646,8.54646 13.8331,20.354 13.8331,33.3945 0,13.0417 -5.28662,24.8481 -13.8331,33.3957 -8.54764,8.54646 -20.3551,13.8331 -33.3957,13.8331 -13.0406,0 -24.8481,-5.28662 -33.3945,-13.8331 -8.54764,-8.54764 -13.8343,-20.354 -13.8343,-33.3957 0,-13.0406 5.28662,-24.8481 13.8343,-33.3945 8.54646,-8.54646 20.354,-13.8331 33.3945,-13.8331z"/>
    <path id="_386940056" class="fil12" d="M1465.4 846.146c6.30119,0 12.0071,2.55473 16.1374,6.68504 4.12914,4.13032 6.68386,9.83623 6.68386,16.1362 0,6.30119 -2.55473,12.0071 -6.68386,16.1374 -4.13032,4.13032 -9.83623,6.68504 -16.1374,6.68504 -6.30119,0 -12.0071,-2.55473 -16.1362,-6.68504 -4.13032,-4.13032 -6.68504,-9.83623 -6.68504,-16.1374 0,-6.3 2.55473,-12.0059 6.68504,-16.1362 4.12914,-4.13032 9.83505,-6.68504 16.1362,-6.68504z"/>
   </g>
  </g>
 </g>
 <rect class="fil21" width="2048" height="2048"/>
</svg>
