<?xml version="1.0" encoding="UTF-8"?>
<!DOCTYPE svg PUBLIC "-//W3C//DTD SVG 1.1//EN" "http://www.w3.org/Graphics/SVG/1.1/DTD/svg11.dtd">
<!-- Creator: CorelDRAW -->
<svg xmlns="http://www.w3.org/2000/svg" xml:space="preserve" width="2048px" height="2048px" style="shape-rendering:geometricPrecision; text-rendering:geometricPrecision; image-rendering:optimizeQuality; fill-rule:evenodd; clip-rule:evenodd"
viewBox="0 0 2048 2048"
 xmlns:xlink="http://www.w3.org/1999/xlink">
 <defs>
  <style type="text/css">
   <![CDATA[
    .fil13 {fill:none}
    .fil10 {fill:#004D40}
    .fil9 {fill:#00695C}
    .fil11 {fill:#00796B}
    .fil4 {fill:#00BFA5}
    .fil7 {fill:#03A9F4}
    .fil2 {fill:#263238}
    .fil0 {fill:#424242}
    .fil8 {fill:#455A64}
    .fil5 {fill:#8BC34A}
    .fil6 {fill:#D50000}
    .fil3 {fill:#FF9800}
    .fil12 {fill:#00796B;fill-rule:nonzero}
    .fil1 {fill:#00ACC1;fill-rule:nonzero}
   ]]>
  </style>
 </defs>
 <g id="Layer_x0020_1">
  <metadata id="CorelCorpID_0Corel-Layer"/>
  <g id="_386951096">
   <rect id="_386951144" class="fil0" x="1424" y="575.999" width="159.999" height="768.001"/>
   <rect id="_386951048" class="fil0" x="816.001" y="575.999" width="159.999" height="768.001"/>
  </g>
  <g id="_386949848">
   <path id="_386950832" class="fil1" d="M726.188 1152.52l947.624 0c25.4315,0 48.528,10.2036 65.2536,26.641 16.7232,16.4398 27.104,39.1429 27.104,64.1398l0 201.921c0,24.9981 -10.3807,47.7012 -27.104,64.1386 -16.7244,16.4386 -39.8221,26.6421 -65.2536,26.6421l-947.624 0c-25.4315,0 -48.5292,-10.2036 -65.2536,-26.6421 -16.7232,-16.4374 -27.104,-39.1406 -27.104,-64.1386l0 -201.921c0,-24.9969 10.3807,-47.7 27.104,-64.1398 16.7256,-16.4374 39.8221,-26.641 65.2536,-26.641z"/>
   <rect id="_386951024" class="fil2" x="608" y="1213.34" width="1184" height="261.832"/>
   <g>
    <rect id="_386950688" class="fil3" x="682.885" y="1327.92" width="78.2898" height="32.6796"/>
    <rect id="_386950040" class="fil4" x="807.367" y="1327.92" width="78.2898" height="32.6796"/>
    <rect id="_386949920" class="fil5" x="931.848" y="1327.92" width="78.2898" height="32.6796"/>
    <rect id="_386949872" class="fil6" x="1056.33" y="1327.92" width="78.2898" height="32.6796"/>
    <rect id="_386950304" class="fil7" x="1300.26" y="1327.92" width="78.2898" height="32.6796"/>
    <g>
     <rect id="_386950424" class="fil8" x="1507.04" y="1351.44" width="210.075" height="32.6796"/>
     <rect id="_386950208" class="fil8" x="1507.04" y="1304.4" width="210.075" height="32.6796"/>
    </g>
   </g>
  </g>
  <g id="_386949656">
   <path id="_386949728" class="fil9" d="M667.342 1067.39c4.88504,9.80079 9.8445,21.2232 14.7756,32.5831 11.1224,25.6205 22.0831,50.863 30.5221,54.4323 8.61851,3.64607 35.0138,-6.97205 61.3394,-17.5595 15.4925,-6.23268 40.5933,-21.5965 55.4091,-6.99331 10.0453,8.12835 19.2295,16.3559 27.5138,24.6402 8.79568,8.79449 17.5276,18.6047 26.1484,29.3811l0.0874016 -0.0708662c5.26418,6.57993 6.28819,15.1831 3.44173,22.5106 -3.29882,9.46654 -7.65355,20.2914 -12.0095,31.1233 -10.5886,26.3244 -21.2055,52.7197 -17.5606,61.3382 3.56929,8.43898 28.813,19.4008 54.4335,30.5233 15.0272,6.52323 45.1453,14.2618 46.5815,34.2154 2.11536,18.4453 11.6776,90.2906 -13.9996,100.977 -9.79961,4.88504 -21.2221,9.8445 -32.5819,14.7756 -25.6205,11.1236 -50.8642,22.0843 -54.4335,30.5221 -3.64488,8.61851 6.97205,35.0126 17.5606,61.3371 4.48937,11.1602 8.97402,22.3122 12.3059,31.9796l0.0141732 -0.00590552c2.91496,8.46379 0.557481,17.4673 -5.32678,23.4378 -14.2996,17.6705 -53.5583,66.1064 -76.4753,57.1867 -9.463,-3.29882 -20.2831,-7.65119 -31.1103,-12.0047 -26.3244,-10.5886 -52.7197,-21.2055 -61.3382,-17.5606 -8.43898,3.56929 -19.3996,28.813 -30.5221,54.4335 -6.52323,15.0272 -14.2618,45.1453 -34.2154,46.5815 -24.763,2.84055 -90.8906,10.2402 -100.976,-13.9984 -4.88504,-9.79961 -9.8445,-21.2221 -14.778,-32.5843 -11.1213,-25.6193 -22.0819,-50.863 -30.5209,-54.4323 -8.61851,-3.64488 -35.0138,6.97205 -61.3371,17.5606 -11.1602,4.48937 -22.3122,8.97402 -31.9796,12.3059l0.00590552 0.0141732c-8.46379,2.91496 -17.4673,0.557481 -23.4378,-5.32678 -10.0453,-8.12835 -19.2295,-16.3571 -27.515,-24.6414 -11.5772,-11.576 -37.0524,-32.85 -29.6752,-51.8256 3.3,-9.46772 7.65355,-20.2914 12.0106,-31.1233 10.5874,-26.3221 21.202,-52.715 17.5583,-61.3323 -3.56929,-8.43898 -28.813,-19.4008 -54.4335,-30.5233 -15.0272,-6.52323 -45.1453,-14.2618 -46.5827,-34.2154 -0.719292,-6.27874 -1.29213,-12.9024 -1.70551,-19.8803 -0.440552,-7.46221 -0.668504,-14.439 -0.668504,-20.889 0,-6.44764 0.227953,-13.4209 0.668504,-20.8819 0.437008,-7.37127 1.05118,-14.348 1.82835,-20.9433l-0.0200788 -0.00236221c1.00039,-8.47914 6.53741,-15.3177 13.8969,-18.3791 9.79961,-4.88504 21.2221,-9.8445 32.5843,-14.778 25.6193,-11.1213 50.863,-22.0831 54.4311,-30.5209 3.64488,-8.61969 -6.97205,-35.0126 -17.5595,-61.3371 -4.48937,-11.1602 -8.9752,-22.3122 -12.3071,-31.9796l-0.0129921 0.00590552c-2.91496,-8.46379 -0.557481,-17.4673 5.32678,-23.4378 8.12835,-10.0453 16.3559,-19.2295 24.6402,-27.515 11.5772,-11.5772 32.8512,-37.0524 51.8256,-29.6752 9.4689,3.3 20.2925,7.65355 31.1244,12.0106 26.3221,10.5874 52.715,21.2032 61.3323,17.5583 8.43898,-3.56929 19.4008,-28.813 30.5233,-54.4335 12.7547,-29.3835 12.7134,-41.7189 37.154,-46.3866 22.1551,-4.22953 88.539,-9.02009 98.0387,13.8036z"/>
   <path id="_386949248" class="fil10" d="M607.692 1226.84c48.9957,0 93.3568,19.8626 125.469,51.9744 32.1118,32.1118 51.9733,76.4717 51.9733,125.467 0,48.9969 -19.8614,93.3568 -51.9733,125.469 -32.1118,32.1118 -76.4729,51.9744 -125.469,51.9744 -48.9957,0 -93.3556,-19.8626 -125.467,-51.9744 -32.1118,-32.1118 -51.9744,-76.4717 -51.9744,-125.469 0,-48.9957 19.8626,-93.3556 51.9744,-125.467 32.1118,-32.1118 76.4717,-51.9744 125.467,-51.9744z"/>
   <path id="_386949680" class="fil11" d="M607.692 1318.54c23.6729,0 45.1111,9.59883 60.6272,25.115 15.5173,15.5173 25.1162,36.9555 25.1162,60.6272 0,23.6752 -9.59883,45.1111 -25.1162,60.6284 -15.5162,15.5162 -36.9544,25.115 -60.6272,25.115 -23.674,0 -45.1099,-9.59883 -60.6272,-25.115 -15.5173,-15.5173 -25.115,-36.9532 -25.115,-60.6284 0,-23.6717 9.59765,-45.1099 25.115,-60.6272 15.5173,-15.5162 36.9532,-25.115 60.6272,-25.115z"/>
  </g>
  <path class="fil12" d="M693.246 1318.71c-11.2004,-11.2004 -24.5138,-20.198 -39.2457,-26.2996 -14.2099,-5.88544 -29.8488,-9.13465 -46.3087,-9.13465 -16.4599,0 -32.0988,3.24922 -46.3087,9.13465 -14.7319,6.10158 -28.0453,15.0992 -39.2457,26.2996 -11.1992,11.198 -20.1969,24.5114 -26.2984,39.2445 -5.88544,14.2099 -9.13465,29.85 -9.13465,46.3099 0,16.4587 3.24922,32.0988 9.13465,46.3099 6.10158,14.7319 15.098,28.0441 26.2984,39.2445 11.2004,11.2004 24.5126,20.1969 39.2457,26.2984 14.2099,5.88544 29.85,9.13465 46.3087,9.13465 16.4587,0 32.0988,-3.24922 46.3087,-9.13465 14.7331,-6.10158 28.0453,-15.098 39.2457,-26.2984 11.2004,-11.2004 20.1969,-24.5126 26.2984,-39.2457 5.88662,-14.2099 9.13583,-29.85 9.13583,-46.3087 0,-16.4587 -3.24922,-32.0977 -9.13583,-46.3099 -6.10158,-14.7331 -15.0992,-28.0465 -26.2984,-39.2445zm-30.9095 -46.5815c17.5689,7.27678 33.3284,17.8902 46.4646,31.0264 13.1362,13.135 23.7484,28.8945 31.0252,46.4634 6.99567,16.8874 10.8555,35.3481 10.8555,54.6461 0,19.298 -3.86103,37.7599 -10.8555,54.6449 -7.27678,17.5689 -17.889,33.3284 -31.0252,46.4646 -13.1362,13.1362 -28.8957,23.7484 -46.4646,31.0252 -16.8862,6.99331 -35.3481,10.8543 -54.6449,10.8543 -19.2969,0 -37.7587,-3.86103 -54.6449,-10.8543 -17.5689,-7.27678 -33.3284,-17.889 -46.4646,-31.0252 -13.1362,-13.1362 -23.7484,-28.8957 -31.0252,-46.4634 -6.99331,-16.8874 -10.8543,-35.3481 -10.8543,-54.6461 0,-19.298 3.86103,-37.7599 10.8543,-54.6461 7.27678,-17.5689 17.889,-33.3284 31.0252,-46.4634 13.1362,-13.1362 28.8957,-23.7496 46.4646,-31.0264 16.8862,-6.99331 35.3469,-10.8543 54.6449,-10.8543 19.298,0 37.7587,3.86103 54.6449,10.8543z"/>
  <g id="_386947736">
   <path id="_386948912" class="fil1" d="M726.188 255.999l947.624 0c25.4315,0 48.528,10.2036 65.2536,26.641 16.7232,16.4398 27.104,39.1429 27.104,64.1398l0 201.921c0,24.9981 -10.3807,47.7012 -27.104,64.1386 -16.7244,16.4386 -39.8221,26.6421 -65.2536,26.6421l-947.624 0c-25.4315,0 -48.5292,-10.2036 -65.2536,-26.6421 -16.7232,-16.4374 -27.104,-39.1406 -27.104,-64.1386l0 -201.921c0,-24.9969 10.3807,-47.7 27.104,-64.1398 16.7256,-16.4374 39.8221,-26.641 65.2536,-26.641z"/>
   <rect id="_386948888" class="fil2" x="608" y="316.825" width="1184" height="261.832"/>
   <g>
    <rect id="_386948720" class="fil3" x="682.885" y="431.401" width="78.2898" height="32.6796"/>
    <rect id="_386948672" class="fil4" x="807.367" y="431.401" width="78.2898" height="32.6796"/>
    <rect id="_386948360" class="fil5" x="931.848" y="431.401" width="78.2898" height="32.6796"/>
    <rect id="_386948504" class="fil6" x="1056.33" y="431.401" width="78.2898" height="32.6796"/>
    <rect id="_386948792" class="fil7" x="1300.26" y="431.401" width="78.2898" height="32.6796"/>
    <g>
     <rect id="_386947760" class="fil8" x="1507.04" y="454.924" width="210.075" height="32.6796"/>
     <rect id="_386947952" class="fil8" x="1507.04" y="407.878" width="210.075" height="32.6796"/>
    </g>
   </g>
  </g>
  <g id="_386946488">
   <path id="_386948192" class="fil1" d="M726.188 703.786l947.624 0c25.4315,0 48.528,10.2036 65.2536,26.641 16.7232,16.4398 27.104,39.1429 27.104,64.1398l0 201.921c0,24.9981 -10.3807,47.7012 -27.104,64.1386 -16.7244,16.4386 -39.8221,26.6421 -65.2536,26.6421l-947.624 0c-25.4315,0 -48.5292,-10.2036 -65.2536,-26.6421 -16.7232,-16.4374 -27.104,-39.1406 -27.104,-64.1386l0 -201.921c0,-24.9969 10.3807,-47.7 27.104,-64.1398 16.7256,-16.4374 39.8221,-26.641 65.2536,-26.641z"/>
   <rect id="_386947976" class="fil2" x="608" y="764.612" width="1184" height="261.832"/>
   <g>
    <rect id="_386947856" class="fil3" x="682.885" y="879.188" width="78.2898" height="32.6796"/>
    <rect id="_386947136" class="fil4" x="807.367" y="879.188" width="78.2898" height="32.6796"/>
    <rect id="_386946824" class="fil5" x="931.848" y="879.188" width="78.2898" height="32.6796"/>
    <rect id="_386947472" class="fil6" x="1056.33" y="879.188" width="78.2898" height="32.6796"/>
    <rect id="_386947280" class="fil7" x="1300.26" y="879.188" width="78.2898" height="32.6796"/>
    <g>
     <rect id="_386947184" class="fil8" x="1507.04" y="902.711" width="210.075" height="32.6796"/>
     <rect id="_386947040" class="fil8" x="1507.04" y="855.665" width="210.075" height="32.6796"/>
    </g>
   </g>
  </g>
 </g>
 <rect class="fil13" width="2048" height="2048"/>
</svg>
