<?xml version="1.0" encoding="UTF-8"?>
<!DOCTYPE svg PUBLIC "-//W3C//DTD SVG 1.1//EN" "http://www.w3.org/Graphics/SVG/1.1/DTD/svg11.dtd">
<!-- Creator: CorelDRAW -->
<svg xmlns="http://www.w3.org/2000/svg" xml:space="preserve" width="2048px" height="2048px" style="shape-rendering:geometricPrecision; text-rendering:geometricPrecision; image-rendering:optimizeQuality; fill-rule:evenodd; clip-rule:evenodd"
viewBox="0 0 2048 2048"
 xmlns:xlink="http://www.w3.org/1999/xlink">
 <defs>
  <style type="text/css">
   <![CDATA[
    .fil14 {fill:none}
    .fil8 {fill:#00B8D4}
    .fil12 {fill:#1F292D}
    .fil11 {fill:#222D32}
    .fil13 {fill:#263238}
    .fil9 {fill:#37474F}
    .fil10 {fill:#455A64}
    .fil3 {fill:#546E7A}
    .fil2 {fill:#78909C}
    .fil4 {fill:#80D8FF}
    .fil0 {fill:#263238;fill-rule:nonzero}
    .fil1 {fill:#37474F;fill-rule:nonzero}
    .fil7 {fill:#7CB342;fill-rule:nonzero}
    .fil5 {fill:#EF5350;fill-rule:nonzero}
    .fil6 {fill:#FFAB40;fill-rule:nonzero}
   ]]>
  </style>
 </defs>
 <g id="Layer_x0020_1">
  <metadata id="CorelCorpID_0Corel-Layer"/>
  <g id="_386953208">
   <path id="_386954432" class="fil0" d="M568.467 1385.27c0,46.9181 437.736,46.9181 437.736,0 0,-46.9193 -437.736,-46.9193 -437.736,0z"/>
   <path id="_386954408" class="fil1" d="M843.827 1227.18c0,-12.1394 -25.2933,-21.9803 -56.4934,-21.9803 -31.1988,0 -56.4922,9.84095 -56.4922,21.9803l0 148.98c0,12.1382 25.2933,21.9803 56.4922,21.9803 31.2,0 56.4934,-9.84213 56.4934,-21.9803l0 -148.98z"/>
   <path id="_386954048" class="fil2" d="M277.98 573.067l1018.71 0c12.1394,0 21.9803,9.84095 21.9803,21.9792l0 632.136c0,12.1382 -9.84095,21.9792 -21.9803,21.9792l-1018.71 0c-12.1394,0 -21.9803,-9.84095 -21.9803,-21.9792l0 -632.136c0,-12.1382 9.84095,-21.9792 21.9803,-21.9792z"/>
   <path id="_386954312" class="fil3" d="M1318.67 1081.2l0 145.98c0,12.1382 -9.84095,21.9792 -21.9803,21.9792l-1018.71 0c-12.1394,0 -21.9803,-9.84095 -21.9803,-21.9792l0 -145.98 1062.67 0z"/>
   <polygon id="_386954024" class="fil4" points="1274.71,617.026 299.96,617.026 299.96,1064.73 1274.71,1064.73 "/>
   <polygon id="_386953136" class="fil5" points="1246.85,1151.25 1246.85,1179.11 1274.71,1179.11 1274.71,1151.25 "/>
   <polygon id="_386953688" class="fil6" points="1149.26,1179.11 1177.12,1179.11 1177.12,1151.25 1149.26,1151.25 "/>
   <polygon id="_386953568" class="fil7" points="1197.98,1151.25 1197.98,1179.11 1225.84,1179.11 1225.84,1151.25 "/>
   <circle id="_386953520" class="fil8" cx="787.335" cy="1165.18" r="26.8703"/>
   <circle id="_386953304" class="fil9" cx="787.335" cy="1165.18" r="22.8554"/>
  </g>
  <rect class="fil4" x="1079.72" y="826.314" width="544.001" height="451.157"/>
  <path class="fil9" d="M1118.62 749.197l466.213 0c18.7937,0 35.8559,7.663 48.1996,20.0103 12.3473,12.3437 20.0103,29.4047 20.0103,48.2008l0 169.888 -35.5866 0 0 -158.451 -531.462 0 0 444.26 433.412 0 -2.60315 97.0796c-0.490158,18.3343 25.6736,29.7579 36.3933,44.3315l-434.576 0c-18.7937,0 -35.8536,-7.66654 -48.202,-20.0103 -12.3425,-12.3473 -20.0091,-29.4083 -20.0091,-48.202l0 -528.896c0,-18.7914 7.66418,-35.8559 20.0091,-48.2008 12.3484,-12.3437 29.4083,-20.0103 48.202,-20.0103z"/>
  <path class="fil10" d="M1553.28 981.579l188.137 0c13.937,0 26.5878,5.68229 35.7414,14.8382 9.15591,9.15355 14.8382,21.8043 14.8382,35.7425l0 392.191c0,13.9358 -5.68229,26.5878 -14.8382,35.7437 -9.15473,9.15473 -21.8043,14.8382 -35.7414,14.8382l-188.137 0c-13.9358,0 -26.5878,-5.68465 -35.7437,-14.8382 -9.15237,-9.15591 -14.837,-21.8079 -14.837,-35.7437l0 -392.191c0,-13.9347 5.68347,-26.589 14.837,-35.7425 9.15591,-9.15355 21.8079,-14.8382 35.7437,-14.8382z"/>
  <path class="fil11" d="M1315.92 784.914c-5.12481,0 -9.27993,4.1563 -9.27993,9.28111 0,5.12363 4.15512,9.27993 9.27993,9.27993l71.6044 0c5.12481,0 9.27993,-4.1563 9.27993,-9.27993 0,-5.12481 -4.15512,-9.28111 -9.27993,-9.28111l-71.6044 0z"/>
  <path class="fil12" d="M1351.72 1305.16c15.9248,0 28.8378,12.9118 28.8378,28.8378 0,15.926 -12.913,28.8343 -28.8378,28.8343 -15.9248,0 -28.8343,-12.9083 -28.8343,-28.8343 0,-15.926 12.9095,-28.8378 28.8343,-28.8378z"/>
  <polygon class="fil4" points="1765.61,1040.64 1529.09,1040.64 1529.09,1370.07 1765.61,1370.07 "/>
  <path class="fil13" d="M1647.35 1393.84c11.8075,0 21.3839,9.57402 21.3839,21.3827 0,11.8099 -9.57639,21.3827 -21.3839,21.3827 -11.8075,0 -21.3815,-9.57284 -21.3815,-21.3827 0,-11.8087 9.57402,-21.3827 21.3815,-21.3827z"/>
  <path class="fil13" d="M1622.7 1009.04c-3.53032,0 -6.39213,2.86181 -6.39213,6.39095 0,3.53032 2.86181,6.39213 6.39213,6.39213l49.3134 0c3.52914,0 6.39095,-2.86181 6.39095,-6.39213 0,-3.52914 -2.86181,-6.39095 -6.39095,-6.39095l-49.3134 0z"/>
 </g>
 <rect class="fil14" width="2048" height="2048"/>
</svg>
