<?xml version="1.0" encoding="UTF-8"?>
<!DOCTYPE svg PUBLIC "-//W3C//DTD SVG 1.1//EN" "http://www.w3.org/Graphics/SVG/1.1/DTD/svg11.dtd">
<!-- Creator: CorelDRAW -->
<svg xmlns="http://www.w3.org/2000/svg" xml:space="preserve" width="2048px" height="2048px" style="shape-rendering:geometricPrecision; text-rendering:geometricPrecision; image-rendering:optimizeQuality; fill-rule:evenodd; clip-rule:evenodd"
viewBox="0 0 2048 2048"
 xmlns:xlink="http://www.w3.org/1999/xlink">
 <defs>
  <style type="text/css">
   <![CDATA[
    .fil11 {fill:none}
    .fil2 {fill:#37474F}
    .fil0 {fill:#546E7A}
    .fil4 {fill:#7B838E}
    .fil1 {fill:#80D8FF}
    .fil3 {fill:#8E96A3}
    .fil10 {fill:#CB740A}
    .fil9 {fill:#FFA000}
    .fil5 {fill:#415065;fill-rule:nonzero}
    .fil8 {fill:#7CB342;fill-rule:nonzero}
    .fil6 {fill:#EF5350;fill-rule:nonzero}
    .fil7 {fill:#FFAB40;fill-rule:nonzero}
   ]]>
  </style>
 </defs>
 <g id="Layer_x0020_1">
  <metadata id="CorelCorpID_0Corel-Layer"/>
  <path class="fil0" d="M563.778 255.999l585.742 0c43.3914,0 82.7788,17.6917 111.278,46.1965 28.5047,28.4988 46.1965,67.8863 46.1965,111.281l0 1221.04c0,43.3878 -17.6917,82.7788 -46.1965,111.285 -28.5024,28.5012 -67.8863,46.1965 -111.278,46.1965l-585.742 0c-43.3878,0 -82.7776,-17.6988 -111.284,-46.1965 -28.4953,-28.5059 -46.1941,-67.8969 -46.1941,-111.285l0 -1221.04c0,-43.3843 17.6953,-82.7823 46.1941,-111.281 28.5059,-28.4977 67.8957,-46.1965 111.284,-46.1965z"/>
  <polygon class="fil1" points="1224.83,439.876 488.455,439.876 488.455,1465.52 1224.83,1465.52 "/>
  <path class="fil2" d="M856.645 1539.54c36.7607,0 66.5752,29.8087 66.5752,66.5729 0,36.7689 -29.8146,66.5729 -66.5752,66.5729 -36.7618,0 -66.5693,-29.804 -66.5693,-66.5729 0,-36.7642 29.8075,-66.5729 66.5693,-66.5729z"/>
  <path class="fil2" d="M779.882 341.51c-10.9913,0 -19.9016,8.90906 -19.9016,19.8969 0,10.9913 8.91024,19.9016 19.9016,19.9016l153.532 0c10.9878,0 19.8969,-8.91024 19.8969,-19.9016 0,-10.9878 -8.90906,-19.8969 -19.8969,-19.8969l-153.532 0z"/>
  <path class="fil3" d="M1641.7 745.307l0 456.331c0,9.35079 -7.5815,16.9311 -16.9311,16.9311l-964.549 0c-9.35079,0 -16.9311,-7.58032 -16.9311,-16.9311l0 -456.331 998.411 0z"/>
  <polygon class="fil4" points="1641.7,745.307 1641.7,779.166 643.287,779.166 643.287,745.307 "/>
  <path class="fil5" d="M660.218 576l964.549 0c9.34961,0 16.9311,7.58032 16.9311,16.9311l0 152.374 -998.411 0 0 -152.374c0,-9.35079 7.58032,-16.9311 16.9311,-16.9311z"/>
  <polygon class="fil6" points="1506.33,625.927 1506.33,693.649 1574.05,693.649 1574.05,625.927 "/>
  <polygon class="fil7" points="1269.14,693.649 1336.86,693.649 1336.86,625.927 1269.14,625.927 "/>
  <polygon class="fil8" points="1387.57,625.927 1387.57,693.649 1455.29,693.649 1455.29,625.927 "/>
  <g id="_386954984">
   <path id="_386955584" class="fil9" d="M868.087 886.127c3.65315,7.32875 7.36182,15.8705 11.0492,24.365 8.31733,19.1575 16.513,38.0339 22.8236,40.7032 6.4441,2.72481 26.1815,-5.21457 45.867,-13.1315 11.5854,-4.66063 30.3544,-16.1492 41.4331,-5.22874 7.51182,6.07796 14.3799,12.2303 20.5748,18.424 6.57638,6.57756 13.1055,13.9122 19.552,21.9709l0.0661418 -0.0531496c3.93544,4.92048 4.70197,11.3539 2.57244,16.8319 -2.46614,7.07953 -5.72245,15.1736 -8.97993,23.2736 -7.91812,19.6843 -15.8563,39.4229 -13.1315,45.867 2.66929,6.31063 21.5457,14.5063 40.7032,22.8236 11.237,4.87796 33.7583,10.6654 34.8331,25.5851 1.5815,13.7929 8.7319,67.5166 -10.4681,75.5079 -7.32875,3.65315 -15.8705,7.36182 -24.365,11.0492 -19.1575,8.31733 -38.0339,16.513 -40.702,22.8225 -2.72599,6.44528 5.21339,26.1815 13.1303,45.8658 3.3567,8.34568 6.71103,16.6843 9.20198,23.9126l0.0106299 -0.00354331c2.17914,6.32953 0.416929,13.0618 -3.98268,17.5252 -10.6937,13.2142 -40.0488,49.4327 -57.1855,42.763 -7.07717,-2.46614 -15.1677,-5.72126 -23.2642,-8.97757 -19.6843,-7.91694 -39.4217,-15.8551 -45.8658,-13.1303 -6.31063,2.66929 -14.5063,21.5457 -22.8236,40.7032 -4.87796,11.237 -10.6642,33.7583 -25.5851,34.8331 -18.5173,2.12362 -67.9654,7.65709 -75.5068,-10.4681 -3.65315,-7.32875 -7.36182,-15.8693 -11.0504,-24.3662 -8.31615,-19.1563 -16.5118,-38.0327 -22.8225,-40.702 -6.4441,-2.72481 -26.1815,5.21339 -45.8658,13.1315 -8.34449,3.3567 -16.6843,6.71103 -23.9126,9.20198l0.00354331 0.0106299c-6.32835,2.17914 -13.0606,0.416929 -17.5252,-3.98386 -7.51182,-6.07796 -14.3799,-12.2303 -20.5748,-18.4252 -8.65749,-8.65631 -27.7063,-24.5646 -22.1906,-38.7532 2.46732,-7.08071 5.72363,-15.1736 8.98111,-23.2736 7.91694,-19.6831 15.8551,-39.4181 13.1291,-45.8622 -2.66811,-6.31063 -21.5445,-14.5075 -40.7032,-22.8236 -11.237,-4.87914 -33.7583,-10.6654 -34.8319,-25.5862 -0.538583,-4.69489 -0.967324,-9.64725 -1.27559,-14.8654 -0.330709,-5.58071 -0.500788,-10.7965 -0.500788,-15.6201 0,-4.82126 0.170079,-10.0358 0.500788,-15.6142 0.325985,-5.51221 0.785434,-10.7291 1.36654,-15.6614l-0.0153543 -0.0011811c0.748819,-6.34134 4.88859,-11.4543 10.3913,-13.7433 7.32875,-3.65315 15.8693,-7.36182 24.3662,-11.0504 19.1575,-8.31733 38.0339,-16.513 40.702,-22.8225 2.72599,-6.44528 -5.21339,-26.1815 -13.1315,-45.867 -3.3567,-8.34449 -6.71103,-16.6843 -9.20198,-23.9126l-0.00944883 0.00472441c-2.18032,-6.32953 -0.416929,-13.0618 3.98268,-17.5264 6.07796,-7.51064 12.2303,-14.3788 18.4252,-20.5748 8.65749,-8.65631 24.5646,-27.7063 38.7544,-22.1894 7.07953,2.46732 15.1736,5.72245 23.2725,8.98111 19.6831,7.91694 39.4193,15.8539 45.8622,13.1291 6.31063,-2.66929 14.5075,-21.5457 22.8248,-40.7032 9.53741,-21.9721 9.5067,-31.1965 27.7819,-34.6866 16.5673,-3.16299 66.2067,-6.74528 73.3099,10.3217z"/>
   <path id="_386955800" class="fil9" d="M893.205 1068.32c-17.8417,-17.8417 -42.4926,-28.878 -69.7217,-28.878 -27.228,0 -51.8788,11.0362 -69.7205,28.878 -17.8417,17.8417 -28.878,42.4926 -28.878,69.7205 0,27.2292 11.0362,51.88 28.878,69.7217 17.8417,17.8417 42.4926,28.878 69.7205,28.878 27.2292,0 51.88,-11.0362 69.7217,-28.878 17.8417,-17.8417 28.878,-42.4926 28.878,-69.7217 0,-27.228 -11.0362,-51.8788 -28.878,-69.7205z"/>
   <path id="_386955272" class="fil10" d="M823.483 1005.36c36.6378,0 69.8091,14.8524 93.8209,38.8642 24.013,24.013 38.8642,57.1843 38.8642,93.8209 0,36.6378 -14.8512,69.8091 -38.8642,93.8209 -24.0118,24.013 -57.1831,38.8642 -93.8209,38.8642 -36.6366,0 -69.8079,-14.8512 -93.8198,-38.8642 -24.013,-24.0118 -38.8642,-57.1831 -38.8642,-93.8209 0,-36.6366 14.8512,-69.8079 38.8642,-93.8209 24.0118,-24.0118 57.1831,-38.8642 93.8198,-38.8642z"/>
   <path id="_386955176" class="fil9" d="M844.719 1116.81c-5.43308,-5.43308 -12.9425,-8.79331 -21.2362,-8.79331 -8.29371,0 -15.802,3.36024 -21.2351,8.79331 -5.43308,5.43308 -8.79331,12.9425 -8.79331,21.2351 0,8.29489 3.36024,15.8032 8.79331,21.2362 5.43308,5.43308 12.9413,8.79331 21.2351,8.79331 8.29371,0 15.8032,-3.36024 21.2362,-8.79331 5.43308,-5.43308 8.79331,-12.9413 8.79331,-21.2362 0,-8.29253 -3.36024,-15.802 -8.79331,-21.2351z"/>
   <path id="_386955008" class="fil9" d="M823.483 1073.93c17.7024,0 33.7323,7.17756 45.3355,18.7807 11.6032,11.6032 18.7807,27.6331 18.7807,45.3343 0,17.7036 -7.17756,33.7323 -18.7807,45.3355 -11.6032,11.6032 -27.6331,18.7807 -45.3355,18.7807 -17.7024,0 -33.7311,-7.17756 -45.3343,-18.7807 -11.6032,-11.6032 -18.7807,-27.6319 -18.7807,-45.3355 0,-17.7012 7.17756,-33.7311 18.7807,-45.3343 11.6032,-11.6032 27.6319,-18.7807 45.3343,-18.7807z"/>
  </g>
 </g>
 <rect class="fil11" width="2048" height="2048"/>
</svg>
