<?xml version="1.0" encoding="UTF-8"?>
<!DOCTYPE svg PUBLIC "-//W3C//DTD SVG 1.1//EN" "http://www.w3.org/Graphics/SVG/1.1/DTD/svg11.dtd">
<!-- Creator: CorelDRAW -->
<svg xmlns="http://www.w3.org/2000/svg" xml:space="preserve" width="2048px" height="2048px" style="shape-rendering:geometricPrecision; text-rendering:geometricPrecision; image-rendering:optimizeQuality; fill-rule:evenodd; clip-rule:evenodd"
viewBox="0 0 2048 2048"
 xmlns:xlink="http://www.w3.org/1999/xlink">
 <defs>
  <style type="text/css">
   <![CDATA[
    .fil7 {fill:none}
    .fil5 {fill:#4E342E}
    .fil3 {fill:#6D4C41}
    .fil6 {fill:#795548}
    .fil1 {fill:#C9B8A6}
    .fil2 {fill:#D6CBB7}
    .fil0 {fill:#FEE8CD}
    .fil4 {fill:#FFA000}
   ]]>
  </style>
 </defs>
 <g id="Layer_x0020_1">
  <metadata id="CorelCorpID_0Corel-Layer"/>
  <path class="fil0" d="M388.493 248.803l626.556 0 0.688583 322.63 322.249 -0.635434 0 1022.87c0,16.8803 -13.6866,30.5658 -30.5658,30.5658l-918.928 0c-16.8803,0 -30.5658,-13.6854 -30.5658,-30.5658l0 -1314.3c0,-16.8791 13.6854,-30.5658 30.5658,-30.5658z"/>
  <polygon class="fil1" points="1015.71,248.717 1338.07,571.085 1015.71,571.085 "/>
  <polygon class="fil2" points="512.627,615.586 897.611,615.586 897.611,676.718 512.627,676.718 "/>
  <polygon class="fil2" points="512.627,921.237 1183.28,921.237 1183.28,982.368 512.627,982.368 "/>
  <polygon class="fil2" points="512.627,1074.06 1183.28,1074.06 1183.28,1135.19 512.627,1135.19 "/>
  <polygon class="fil2" points="512.627,1226.89 1183.28,1226.89 1183.28,1288.02 512.627,1288.02 "/>
  <polygon class="fil2" points="512.627,1379.71 1183.28,1379.71 1183.28,1440.84 512.627,1440.84 "/>
  <polygon class="fil2" points="512.627,768.412 1183.28,768.412 1183.28,829.543 512.627,829.543 "/>
  <path class="fil3" d="M1393.67 1102.95c4.92166,9.87402 9.91891,21.3839 14.8878,32.8299 11.2063,25.8142 22.2496,51.2481 30.7524,54.8445 8.68347,3.67205 35.2796,-7.0252 61.8036,-17.6941 15.6106,-6.27874 40.9016,-21.7595 55.8296,-7.04528 10.1209,8.18977 19.3748,16.4799 27.7217,24.8268 8.86182,8.86182 17.6599,18.7453 26.3457,29.6032l0.0897638 -0.0708662c5.30315,6.62953 6.33544,15.2976 3.46772,22.6807 -3.32481,9.53859 -7.71142,20.4449 -12.1016,31.3583 -10.6689,26.5252 -21.3662,53.1201 -17.6929,61.8036 3.59646,8.50394 29.0315,19.5473 54.8457,30.7547 15.1406,6.57284 45.4866,14.3693 46.9347,34.474 2.13071,18.5847 11.765,90.9757 -14.1059,101.741 -9.87402,4.92284 -21.3839,9.92009 -32.8288,14.889 -25.8142,11.2075 -51.2493,22.2508 -54.8457,30.7524 -3.67205,8.68347 7.0252,35.2784 17.6941,61.8024 4.52244,11.2441 9.04135,22.4799 12.3992,32.2205l0.0129921 -0.00472441c2.9374,8.52757 0.562205,17.5984 -5.36693,23.6138 -14.4083,17.8051 -53.9634,66.6071 -77.054,57.6201 -9.53505,-3.32362 -20.4366,-7.70906 -31.3465,-12.0957 -26.5229,-10.6677 -53.1189,-21.365 -61.8024,-17.6929 -8.50276,3.59646 -19.5461,29.0315 -30.7524,54.8445 -6.57402,15.1417 -14.3705,45.4878 -34.4752,46.9359 -24.9508,2.86181 -91.5792,10.3169 -101.741,-14.1047 -4.92166,-9.87402 -9.91891,-21.3827 -14.889,-32.8311 -11.2063,-25.813 -22.2496,-51.2481 -30.7524,-54.8445 -8.68347,-3.67205 -35.2784,7.0252 -61.8012,17.6941 -11.2441,4.52244 -22.4811,9.04135 -32.2217,12.3992l0.00590552 0.0129921c-8.52757,2.9374 -17.5996,0.562205 -23.615,-5.36693 -10.1209,-8.18977 -19.376,-16.4799 -27.724,-24.8268 -11.6646,-11.6646 -37.3323,-33.0992 -29.8996,-52.2189 3.32481,-9.53977 7.71142,-20.4449 12.1016,-31.3583 10.6677,-26.5217 21.3626,-53.1154 17.6917,-61.7977 -3.59646,-8.50276 -29.0315,-19.5473 -54.8457,-30.7536 -15.1417,-6.57402 -45.4878,-14.3705 -46.9359,-34.4752 -0.725197,-6.32599 -1.30276,-13.0004 -1.71851,-20.0315 -0.444095,-7.5189 -0.673229,-14.5476 -0.673229,-21.0461 0,-6.49725 0.229134,-13.5236 0.673229,-21.0402 0.43937,-7.42796 1.05827,-14.4567 1.84252,-21.1016l-0.0212599 -0.00236221c1.00866,-8.5441 6.58819,-15.4347 14.002,-18.5197 9.8752,-4.92166 21.3839,-9.91891 32.8311,-14.889 25.8142,-11.2063 51.2493,-22.2496 54.8445,-30.7524 3.67205,-8.68465 -7.0252,-35.2784 -17.6929,-61.8012 -4.52363,-11.2441 -9.04371,-22.4823 -12.4004,-32.2217l-0.0129921 0.00472441c-2.9374,-8.52757 -0.562205,-17.5984 5.36693,-23.6138 8.18977,-10.1209 16.4799,-19.376 24.828,-27.724 11.6646,-11.6646 33.0981,-37.3323 52.2178,-29.8996 9.53977,3.32481 20.4449,7.71142 31.3595,12.1016 26.5217,10.6677 53.1142,21.3626 61.7965,17.6917 8.50394,-3.59646 19.5473,-29.0315 30.7547,-54.8457 12.8504,-29.6067 12.8091,-42.0355 37.4351,-46.7386 22.324,-4.26142 89.2099,-9.08859 98.7816,13.9087z"/>
  <path class="fil4" d="M1427.51 1348.45c-24.0402,-24.0402 -57.2563,-38.9103 -93.945,-38.9103 -36.6898,0 -69.9048,14.8701 -93.9461,38.9103 -24.0414,24.0414 -38.9114,57.2563 -38.9114,93.9461 0,36.6898 14.8701,69.9048 38.9114,93.9461 24.0414,24.0402 57.2563,38.9103 93.9461,38.9103 36.6886,0 69.9048,-14.8701 93.945,-38.9103 24.0414,-24.0414 38.9114,-57.2563 38.9114,-93.9461 0,-36.6898 -14.8701,-69.9048 -38.9114,-93.9461z"/>
  <path class="fil5" d="M1333.57 1263.61c49.3666,0 94.0631,20.0126 126.418,52.3678 32.3551,32.3551 52.3666,77.0516 52.3666,126.418 0,49.3666 -20.0114,94.0631 -52.3666,126.418 -32.3551,32.3551 -77.0516,52.3678 -126.418,52.3678 -49.3678,0 -94.0642,-20.0126 -126.419,-52.3678 -32.354,-32.3551 -52.3666,-77.0516 -52.3666,-126.418 0,-49.3666 20.0126,-94.0631 52.3666,-126.418 32.3551,-32.3551 77.0516,-52.3678 126.419,-52.3678z"/>
  <path class="fil4" d="M1362.18 1413.78c-7.32048,-7.32048 -17.439,-11.85 -28.6134,-11.85 -11.1768,0 -21.2929,4.52953 -28.6146,11.85 -7.32048,7.32048 -11.8488,17.439 -11.8488,28.6134 0,11.1768 4.52835,21.2929 11.8488,28.6134 7.32166,7.32048 17.4378,11.85 28.6146,11.85 11.1744,0 21.2929,-4.52953 28.6134,-11.85 7.32048,-7.32048 11.8488,-17.4366 11.8488,-28.6134 0,-11.1744 -4.52835,-21.2929 -11.8488,-28.6134z"/>
  <path class="fil6" d="M1333.57 1356c23.8512,0 45.4512,9.67087 61.0855,25.3051 15.6354,15.6354 25.3063,37.2343 25.3063,61.0867 0,23.8536 -9.67087,45.4524 -25.3063,61.0867 -15.6343,15.6343 -37.2343,25.3051 -61.0855,25.3051 -23.8536,0 -45.4524,-9.67087 -61.0867,-25.3051 -15.6343,-15.6343 -25.3063,-37.2331 -25.3063,-61.0867 0,-23.8524 9.67205,-45.4512 25.3063,-61.0867 15.6343,-15.6343 37.2331,-25.3051 61.0867,-25.3051z"/>
 </g>
 <rect class="fil7" width="2048" height="2048"/>
</svg>
