<?xml version="1.0" encoding="UTF-8"?>
<!DOCTYPE svg PUBLIC "-//W3C//DTD SVG 1.1//EN" "http://www.w3.org/Graphics/SVG/1.1/DTD/svg11.dtd">
<!-- Creator: CorelDRAW -->
<svg xmlns="http://www.w3.org/2000/svg" xml:space="preserve" width="2048px" height="2048px" style="shape-rendering:geometricPrecision; text-rendering:geometricPrecision; image-rendering:optimizeQuality; fill-rule:evenodd; clip-rule:evenodd"
viewBox="0 0 2048 2048"
 xmlns:xlink="http://www.w3.org/1999/xlink">
 <defs>
  <style type="text/css">
   <![CDATA[
    .fil3 {fill:none}
    .fil0 {fill:#455A64}
    .fil1 {fill:#B0BEC5}
    .fil2 {fill:#DD2C00}
   ]]>
  </style>
 </defs>
 <g id="Layer_x0020_1">
  <metadata id="CorelCorpID_0Corel-Layer"/>
  <path class="fil0" d="M1185.32 405.929l587.895 1020.46 0.120473 -0.0696851c1.08662,1.88268 1.95827,3.82914 2.62677,5.81221 5.22993,12.7323 9.14764,25.7504 11.7614,38.8252 2.84528,14.2311 4.26378,28.7292 4.26378,43.1989 0,47.8796 -15.6083,93.8824 -42.5599,131.199 -26.8347,37.1563 -64.9288,65.7083 -110.14,79.0371l0.022441 0.0779528c-3.99685,1.17756 -8.04213,1.5378 -11.9528,1.17992 -400.203,0.00472441 -800.103,0.132284 -1200.3,0.132284 -2.4437,0 -4.82244,-0.275197 -7.10906,-0.793701 -16.5189,-3.08504 -32.1638,-8.20867 -46.8284,-15.0532 -43.9087,-20.498 -76.6052,-56.0528 -96.13,-98.1509 -19.2036,-41.4036 -25.689,-89.2737 -17.5051,-135.234 3.25394,-18.2788 8.9315,-36.4878 17.1591,-54.1146l-0.113386 -0.0531496c0.833859,-1.78583 1.81299,-3.45709 2.91378,-5.01024 221.557,-384.084 352.246,-610.661 583.29,-1010.84 -0.337796,-0.19252 3.36496,-4.89567 3.78071,-5.36221 77.3682,-104.901 236.879,-105.197 315.18,-1.22599 0.494882,-0.00944883 3.29528,5.25945 3.62953,5.99056z"/>
  <path class="fil1" d="M327.166 1423.18l-0.296457 0.634252c-6.65434,14.2571 -11.4602,29.3327 -14.2169,44.8241 -6.73701,37.8331 -1.58622,77.8619 14.5843,112.728 16.2402,35.0114 43.0429,63.7418 78.254,80.1768 12.2658,5.72481 25.3583,9.60001 38.5937,12.3366 0.226772,0.046063 0.493701,0.102756 0.729922,0.126378 388.689,-0.00354331 777.579,-17.8347 1166.13,-0.0956694 0.382677,0.0165354 0.882284,0.0437008 1.32874,0.0295276l0.0507874 -0.0153543c36.737,-10.8295 68.1426,-34.1516 90.4902,-65.0965 22.8555,-31.6453 35.4236,-70.0855 35.4236,-109.14 0,-12.0201 -1.17874,-24.0449 -3.53504,-35.8335 -2.23819,-11.198 -6.06378,-22.2201 -10.0547,-32.9008 -0.0330709,-0.0897638 -0.0661418,-0.180709 -0.100394,-0.274016l-570.9 -990.956c-0.50315,-0.875198 -0.964961,-1.78347 -1.45039,-2.67284 -64.7434,-85.9182 -191.033,-79.076 -256.896,2.09055 -0.274016,0.341339 -0.550394,0.686221 -0.819686,1.03465l-0.0885827 0.151181c-100.148,173.464 -195.442,349.214 -293.276,523.919 -87.1359,155.597 -177.279,308.091 -273.521,458.275 -0.138189,0.217323 -0.282284,0.437008 -0.427559,0.659056z"/>
  <path class="fil2" d="M1024 1312c24.1181,0 45.9567,9.77599 61.7634,25.5839 15.8067,15.8091 25.5862,37.6488 25.5862,61.7634 0,24.1158 -9.77954,45.9544 -25.5862,61.7634 -15.8079,15.8067 -37.6465,25.5851 -61.7634,25.5851 -24.1146,0 -45.9532,-9.77835 -61.7611,-25.5851 -15.8067,-15.8091 -25.5862,-37.6477 -25.5862,-61.7634 0,-24.1146 9.77954,-45.9544 25.5862,-61.7634 15.8067,-15.8079 37.6441,-25.5839 61.7611,-25.5839zm104.793 -498.022l-33.8126 374.953 0.00236221 0c0,33.7229 -18.8977,55.526 -43.0866,65.2477 -8.97993,3.61063 -18.5232,5.41654 -27.8941,5.41654 -9.37087,0 -18.9165,-1.80591 -27.8965,-5.41654 -24.1855,-9.7193 -43.0855,-31.5225 -43.0855,-65.2477l0 -0.022441 -34.0607 -377.684 -0.121654 0.011811c-0.080315,-0.903544 -0.120473,-1.8 -0.120473,-2.69292l-0.0011811 0 0.0011811 -0.164173 0.00236221 -0.351969c0.19252,-49.7634 27.9083,-81.8493 63.3544,-96.0993 13.4067,-5.38701 27.7536,-8.08111 41.9256,-8.08111 14.1744,0 28.5213,2.6941 41.928,8.08111 35.5677,14.2984 63.3579,46.5555 63.3579,96.6154 0,1.85669 -0.170079,3.67205 -0.49252,5.43426z"/>
 </g>
 <rect class="fil3" width="2048" height="2048"/>
</svg>
