<?xml version="1.0" encoding="UTF-8"?>
<!DOCTYPE svg PUBLIC "-//W3C//DTD SVG 1.1//EN" "http://www.w3.org/Graphics/SVG/1.1/DTD/svg11.dtd">
<!-- Creator: CorelDRAW -->
<svg xmlns="http://www.w3.org/2000/svg" xml:space="preserve" width="2048px" height="2048px" style="shape-rendering:geometricPrecision; text-rendering:geometricPrecision; image-rendering:optimizeQuality; fill-rule:evenodd; clip-rule:evenodd"
viewBox="0 0 2048 2048"
 xmlns:xlink="http://www.w3.org/1999/xlink">
 <defs>
  <style type="text/css">
   <![CDATA[
    .fil13 {fill:none}
    .fil8 {fill:#624B37}
    .fil7 {fill:#6A513C}
    .fil4 {fill:#6D8591}
    .fil6 {fill:#775A41}
    .fil5 {fill:#78909C}
    .fil9 {fill:#88694D}
    .fil12 {fill:#8D694B}
    .fil11 {fill:#9C714C}
    .fil0 {fill:#BBDEFB}
    .fil1 {fill:#37474F;fill-rule:nonzero}
    .fil3 {fill:#553A31;fill-rule:nonzero}
    .fil10 {fill:#596066;fill-rule:nonzero}
    .fil2 {fill:#5D4037;fill-rule:nonzero}
   ]]>
  </style>
 </defs>
 <g id="Layer_x0020_1">
  <metadata id="CorelCorpID_0Corel-Layer"/>
  <g id="_386931152">
   <circle id="_382204440" class="fil0" cx="796.297" cy="827.66" r="427.628"/>
   <path id="_382203864" class="fil1" d="M1204.82 1159.08c-12.8398,-12.0803 -33.0449,-11.465 -45.1252,1.3748 -12.0803,12.8398 -11.465,33.0449 1.3748,45.1252l119.301 111.852c12.8398,12.0803 33.0449,11.465 45.1252,-1.3748 12.0803,-12.8398 11.465,-33.0449 -1.3748,-45.1252l-119.301 -111.852z"/>
   <path id="_382204056" class="fil2" d="M1400.45 1275.29l356.436 278.489c1.56378,1.01693 3.06024,2.18622 4.46929,3.5067l-21.887 23.3445 21.8752 -23.25c42.3225,39.6792 47.6091,88.6442 31.552,129.918 -6.06733,15.5941 -15.228,29.928 -26.5866,42.0437 -11.3587,12.1134 -25.0512,22.1681 -40.1859,29.2087 -39.5185,18.3851 -87.8505,16.5626 -129.812,-21.4713 -1.39725,-1.11614 -2.72126,-2.36339 -3.95079,-3.7441l23.8949 -21.2847 -23.8748 21.2504 -303.408 -340.622c-26.6906,-26.0587 -29.8158,-58.03 -19.2744,-85.1292 3.99803,-10.278 10.0051,-19.6914 17.4354,-27.6154 7.42678,-7.92284 16.415,-14.5134 26.3752,-19.1469 26.5559,-12.3543 58.9855,-11.1319 86.941,14.5028z"/>
   <path id="_382204176" class="fil3" d="M1764.08 1731.66c-10.9028,11.0787 -23.7992,20.3032 -37.9559,26.889 -39.5185,18.3851 -87.8505,16.5626 -129.812,-21.4713 -1.39725,-1.11614 -2.72126,-2.36339 -3.95079,-3.7441l23.8949 -21.2847 -23.8748 21.2504 -303.408 -340.622c-26.6906,-26.0587 -29.8158,-58.03 -19.2744,-85.1292 3.99803,-10.278 10.0051,-19.6914 17.4354,-27.6154 0.324803,-0.346063 0.651969,-0.689764 0.981497,-1.02992l475.963 452.757z"/>
   <path id="_382204032" class="fil2" d="M1400.45 1275.29l356.436 278.489c1.56378,1.01693 3.06024,2.18622 4.46929,3.5067l-21.887 23.3445 21.8752 -23.25c42.3225,39.6792 47.6091,88.6442 31.552,129.918 -6.06733,15.5941 -15.228,29.928 -26.5866,42.0437 -0.707481,0.754725 -1.42323,1.5 -2.14961,2.23937l-0.080315 0.080315 -475.963 -452.757 0.50315 -0.51378c7.12914,-7.23662 15.5847,-13.2744 24.8906,-17.6032 26.5559,-12.3543 58.9855,-11.1319 86.941,14.5028z"/>
   <path id="_382204008" class="fil4" d="M1148.19 405.512l0.745276 -0.794883 23.3646 22.004c0.912993,0.859843 0.51378,0.458268 1.57087,1.53189l0.947245 0.966142 0.298819 0.323622 0.227953 0.243307c98.0387,104.252 165.562,235.419 170.228,380.197 4.34055,134.689 -41.2843,266.508 -127.125,369.566l0.794883 0.745276 -22.004 23.3646c-0.859843,0.912993 -0.458268,0.51378 -1.53189,1.57087l-0.966142 0.947245 -0.323622 0.298819 -0.243307 0.227953c-104.252,98.0387 -235.42,165.562 -380.197,170.228 -145.408,4.68544 -287.472,-48.8634 -393.613,-148.376 -106.673,-100.01 -168.628,-237.11 -173.336,-383.221 -4.68426,-145.407 48.8634,-287.471 148.376,-393.612 100.011,-106.671 237.111,-168.627 383.221,-173.335 134.688,-4.33937 266.509,41.2855 369.566,127.125zm-40.9217 709.979c75.5894,-81.6402 116.164,-190.271 112.578,-301.507 -3.56103,-110.474 -44.5996,-220.631 -130.957,-292.903l-0.519685 -0.433465 -1.26142 -1.10079 -0.863386 -0.793701c-1.15158,-1.06299 -0.788977,-0.718111 -1.80118,-1.74449l-0.311811 -0.317717c-81.6402,-75.5894 -190.271,-116.162 -301.507,-112.577 -112.739,3.63307 -218.333,51.4737 -295.486,133.766 -76.7434,81.8552 -117.999,191.32 -114.385,303.456 3.63307,112.737 51.4737,218.333 133.765,295.485 81.8564,76.7434 191.321,118 303.459,114.385 110.474,-3.56103 220.631,-44.5985 292.903,-130.957l0.433465 -0.519685 1.10079 -1.26142 0.793701 -0.863386c1.06299,-1.15158 0.718111,-0.788977 1.74449,-1.80118l0.316536 -0.311811z"/>
   <path id="_382203648" class="fil5" d="M796.297 355.041c261.02,0 472.62,211.599 472.62,472.62 0,261.02 -211.599,472.62 -472.62,472.62 -261.02,0 -472.62,-211.599 -472.62,-472.62 0,-261.02 211.599,-472.62 472.62,-472.62zm310.968 760.45c75.5894,-81.6402 116.164,-190.271 112.578,-301.507 -3.56103,-110.474 -44.5996,-220.631 -130.957,-292.903l-0.519685 -0.433465 -1.26142 -1.10079 -0.863386 -0.793701c-1.15158,-1.06299 -0.788977,-0.718111 -1.80118,-1.74449l-0.311811 -0.317717c-81.6402,-75.5894 -190.271,-116.162 -301.507,-112.577 -112.739,3.63307 -218.333,51.4737 -295.486,133.766 -76.7434,81.8552 -117.999,191.32 -114.385,303.456 3.63307,112.737 51.4737,218.333 133.765,295.485 81.8564,76.7434 191.321,118 303.459,114.385 110.474,-3.56103 220.631,-44.5985 292.903,-130.957l0.433465 -0.519685 1.10079 -1.26142 0.793701 -0.863386c1.06299,-1.15158 0.718111,-0.788977 1.74449,-1.80118l0.316536 -0.311811z"/>
   <g>
    <g>
     <path id="_382204248" class="fil6" d="M771.532 697.955c-2.77205,0.507874 -5.43189,-1.32874 -5.94095,-4.09961 -15.137,-82.532 -94.6016,-137.367 -177.135,-122.23 -2.77205,0.509056 -5.43189,-1.32756 -5.94095,-4.09843 -0.507874,-2.77205 1.32756,-5.43308 4.09961,-5.94095 88.0725,-16.1539 172.863,42.3555 189.017,130.428 0.507874,2.77205 -1.32874,5.43189 -4.09961,5.94095z"/>
     <path id="_294742408" class="fil6" d="M821.064 697.955c2.77205,0.507874 5.43189,-1.32874 5.94095,-4.09961 15.137,-82.532 94.6016,-137.367 177.135,-122.23 2.77087,0.509056 5.43189,-1.32756 5.93977,-4.09843 0.509056,-2.77205 -1.32638,-5.43308 -4.09843,-5.94095 -88.0725,-16.1539 -172.863,42.3555 -189.017,130.428 -0.507874,2.77205 1.32756,5.43189 4.09961,5.94095z"/>
    </g>
    <path id="_386956016" class="fil7" d="M826.249 704.155l1.13386 -3.90709c0.457087,-1.48583 0.269292,-3.01772 -0.402756,-4.29331 -1.54252,-2.6374 -8.07638,-6.61654 -10.1032,-6.90237 -2.42008,0.0980316 -4.59449,1.75984 -5.23347,4.22599 -0.354331,1.35354 -0.673229,2.64567 -0.956694,3.87048l0.0248032 0.00944883 15.4925 6.97205c0.0153543,0.00708662 0.0307087,0.0153543 0.0448819,0.0248032z"/>
    <path id="_386929568" class="fil8" d="M720.308 751.867c-6.87756,-3.75709 -12.5197,-5.65394 -18.7866,-10.8236 -2.15433,-1.77638 -3.98504,-3.67677 -5.34567,-5.62914l-8.0315 2.92559c-6.07441,2.68583 -17.3917,7.46339 -26.3362,10.7953 -4.86378,1.81299 -9.22914,3.15945 -12.2197,3.54922 -0.938977,0.242126 -1.95354,0.244488 -2.95394,-0.0401575 -2.98583,-0.851575 -5.41654,-2.85945 -7.09725,-5.41654 -6.79607,-0.201969 -16.8343,-2.18386 -22.2709,-4.35709 -3.41457,-1.36772 -7.66182,-1.83307 -11.2406,-0.878741 -3.01772,0.794883 -6.10985,-1.00866 -6.90473,-4.02756 -0.793701,-3.0189 1.00866,-6.10985 4.02756,-6.90473 6.09213,-1.61457 12.5988,-0.955513 18.4193,1.36181 4.60866,1.83425 13.8898,3.54213 19.5295,3.53977 3.27638,-0.0011811 6.14764,1.92402 7.68544,4.75867l0.951969 1.03701c0.34252,-0.0354331 3.42638,-1.44567 8.13426,-3.19961 8.39528,-3.12756 19.5862,-7.86379 25.7173,-10.5744 3.46299,-1.52835 11.9528,-4.72796 15.4181,-4.56024 2.96221,0.144095 5.16733,1.72559 5.87717,4.5 0.264567,1.06654 2.05748,2.95748 3.80906,4.40197 4.85906,4.00866 10.5189,6.08504 16.1799,9.15001 2.2878,1.23898 5.29134,2.84173 7.76457,4.55197l-12.1323 5.60434c-0.101575,0.0472441 -0.170079,0.135827 -0.194882,0.236221z"/>
    <path id="_386955488" class="fil8" d="M687.608 848.848c-6.50906,0.849213 -14.4248,1.6252 -20.2347,0.272835l0.00354331 -0.0141732c-0.362599,-0.0826772 -0.714567,-0.180709 -1.05709,-0.292914 -4.71733,6.97914 -7.45749,19.0417 -10.3169,29.6469 -3.84095,14.2677 -10.1681,37.7658 -19.6725,42.3697 -2.9752,1.44095 -6.33662,1.37835 -9.39922,0.31063 -5.40119,2.64921 -12.5941,5.00079 -18.013,6.0626l-2.3563 0.853938c-3.96851,1.7504 -9.27639,2.05866 -10.9217,3.77244 -2.16378,2.24882 -5.74016,2.31851 -7.98898,0.155906 -2.24882,-2.16378 -2.31851,-5.74134 -0.155906,-7.99016 4.88859,-5.09292 10.5083,-4.52953 14.5087,-6.29528l4.74567 -1.60394c4.72796,-0.928347 11.0528,-3.01063 15.7299,-5.38819 4.34528,-2.20748 8.62087,0.0944883 8.93859,-0.0590552 5.39646,-2.60551 11.8547,-28.3996 15.1642,-40.7209 3.59882,-13.4102 6.09686,-22.7185 12.7949,-30.6555 2.55118,-3.02008 6.83741,-3.41103 10.0736,-1.3937l0.485433 0.23504 0.00354331 -0.0141732c4.2815,0.99567 11.9398,0.108662 17.0917,-0.585827 -0.0295276,0.0543308 -0.0448819,0.11811 -0.0413386,0.184252l0.525591 10.9276c0.00354331,0.0850394 0.0389764,0.162992 0.0921261,0.222047z"/>
    <path id="_386944040" class="fil8" d="M692.578 953.949c-9.45946,2.42126 -20.2288,5.23583 -27.737,4.65355 -6.34961,17.3575 -10.9843,50.7319 -14.237,71.9882 -2.06929,13.5248 0.207874,32.5973 -7.72323,43.8485 -1.70197,2.41536 -4.33701,3.80315 -7.20827,4.09489l-0.679134 0.158268 -0.0106299 -0.0307087c-5.97638,4.49055 -15.3189,8.37757 -21.9248,10.1634l-0.00354331 -0.0141732 -2.25591 1.02047c-3.77008,2.00315 -9.07914,2.66811 -10.6217,4.53426 -1.99252,2.40709 -5.55945,2.7437 -7.96654,0.752363 -2.40827,-1.99252 -2.74488,-5.55945 -0.752363,-7.96654 4.47756,-5.41536 10.128,-5.25119 14.0291,-7.32402l4.65355 -1.91929 -0.00354331 -0.0153543c5.5252,-1.4941 13.1858,-4.67953 18.1795,-8.32796l-0.011811 -0.0141732c1.59449,-1.20473 3.75118,-1.91693 5.70591,-2.19567 5.01378,-8.23938 3.63189,-26.9197 5.39528,-38.4473 3.38268,-22.1103 8.80867,-60.9083 16.1504,-77.5642l-0.00590552 -0.00236221c1.57914,-3.56693 5.59607,-5.38819 9.22442,-4.16929l0.183071 0.0578741 0.0011811 -0.00472441 0.226772 0.0472441 0.0011811 -0.0141732c5.40591,0.664961 15.5528,-1.97835 24.2929,-4.20591 -0.0307087,0.0720473 -0.0377953,0.155906 -0.0141732,0.237402l3.09921 10.6228 0.0129921 0.0366142z"/>
    <path id="_386936552" class="fil8" d="M900.486 941.656c8.89135,2.21339 20.9043,5.59489 26.5016,4.69607l0.243307 -0.0590552 -0.00236221 -0.00708662c3.66614,-1.22717 7.67599,0.622441 9.21733,4.24016l0.00826772 -0.00354331c7.53662,17.7083 12.6095,54.6059 16.1268,77.5005 1.77284,11.5406 0.388583,30.2162 5.40827,38.4473 1.9441,0.287008 4.07126,0.994489 5.68111,2.22284l0.00708662 -0.00944883c4.73504,3.56811 12.9272,6.89646 18.1902,8.32323l4.62756 1.9441 0.00472441 -0.00826772c3.90709,2.07638 9.54804,1.90866 14.0244,7.32284 1.99252,2.40827 1.65591,5.9752 -0.752363,7.96654 -2.40709,1.99252 -5.97402,1.65591 -7.96654,-0.752363 -1.54134,-1.86496 -6.84449,-2.52992 -10.6169,-4.53426l0.00354331 -0.00826772 -2.29016 -0.998032c-6.54095,-1.77874 -16.011,-5.72008 -21.9402,-10.1457l-0.63189 -0.147638c-2.89488,-0.290551 -5.54292,-1.68071 -7.23308,-4.11378l0.0106299 -0.00826772c-7.89331,-11.0504 -5.66103,-30.3827 -7.72442,-43.8189 -3.27402,-21.3071 -7.87442,-54.593 -14.2417,-71.9882 -7.54371,0.587008 -18.4004,-2.2689 -27.9107,-4.70079l0.00826772 -0.0425197 1.43858 -10.9547c0.0200788,-0.153543 -0.0602363,-0.296457 -0.191339,-0.362599z"/>
    <path id="_386932472" class="fil8" d="M905.351 837.92c4.82244,0.649607 13.9654,1.71024 17.5689,0.577559l0.281103 -0.167717 -0.00472441 -0.00708662c3.29646,-2.05276 7.5626,-1.65709 10.2047,1.55197 7.3689,8.94922 9.73465,19.5862 13.5095,33.5563 3.28465,12.1536 9.14174,35.1626 14.3185,37.6618l1.24488 -0.343701c2.40118,-0.794883 5.41654,-0.778347 7.68898,0.412205l0.00472441 -0.00944883c4.94646,2.51575 10.8402,4.36772 15.8457,5.40945l4.63347 1.5815c3.97559,1.75748 9.62363,1.20591 14.524,6.29646 2.1626,2.24882 2.09291,5.82638 -0.155906,7.98898 -2.24882,2.16378 -5.82638,2.0941 -7.98898,-0.154725 -1.64764,-1.7126 -6.98032,-2.02559 -10.9358,-3.77599l-2.45788 -0.868111c-5.60434,-1.16102 -12.352,-3.3189 -17.915,-6.04489 -3.06142,1.06772 -6.42284,1.12913 -9.40158,-0.311811 -9.52442,-4.61221 -15.8563,-28.2059 -19.6819,-42.463 -2.7378,-10.1894 -5.58544,-22.5921 -10.3028,-29.5536 -5.52993,1.79646 -14.6114,0.900001 -21.1205,0.0555119 0.00472441,-0.0200788 0.00590552,-0.0413386 0.00708662,-0.0625985l0.165354 -11.1756c0.0011811,-0.0555119 -0.0106299,-0.10748 -0.0318898,-0.153543z"/>
    <path id="_386932424" class="fil8" d="M862.639 744.558c3.81024,-2.21929 7.72087,-4.34764 11.5925,-6.13819 3.57874,-1.64882 6.913,-3.66024 9.45946,-5.75552 2.07166,-1.70433 3.45118,-3.16063 3.91418,-4.69489 1.19055,-3.9437 5.28307,-4.85433 8.96812,-3.84095 4.28622,1.17992 7.85434,2.27126 12.2339,4.20591 6.14174,2.70473 17.3669,7.45276 25.7634,10.578 4.6878,1.74567 7.73741,3.15 8.0693,3.17599 0.114567,-0.0330709 0.219685,-0.0933072 0.315355,-0.173622l-0.0106299 -0.0106299c0.257481,-0.225591 0.48189,-0.522048 0.672048,-0.864568l-0.00590552 -0.00354331c1.46339,-2.82756 4.50355,-4.75158 7.76694,-4.72323 5.67756,0.0484252 14.9421,-1.8189 19.5496,-3.61536l-0.00236221 -0.00708662c5.78622,-2.2878 12.4299,-2.85236 18.3142,-1.29921 3.0189,0.794883 4.82244,3.88701 4.02756,6.90473 -0.793701,3.0189 -3.88583,4.82244 -6.90473,4.02756 -3.54095,-0.935434 -7.71851,-0.505512 -11.2772,0.901182l-0.00236221 -0.00826772c-5.19922,2.14725 -15.5953,4.1504 -22.2355,4.35945 -0.694489,1.06063 -1.5,2.01732 -2.42126,2.82638l-0.00944883 -0.011811c-1.29685,1.16693 -2.94567,2.09291 -4.67835,2.58544l-0.0011811 -0.00472441c-2.42126,0.690945 -8.26182,-0.93189 -15.1063,-3.47953 -8.9504,-3.33307 -20.2949,-8.1189 -26.3823,-10.8012l-8.02796 -2.93858c-3.81733,5.46615 -10.9323,10.0122 -17.2536,12.9366l-6.89882 3.54685c-0.0165354,-0.0767717 -0.0590552,-0.147638 -0.124016,-0.200788l-9.29528 -7.4693 -0.00944883 -0.00708662z"/>
    <path id="_386932328" class="fil7" d="M766.465 704.155l-1.13386 -3.90709c-0.457087,-1.48583 -0.269292,-3.01772 0.402756,-4.29331 0.589371,-1.27323 7.09607,-6.20552 10.1032,-6.90237 2.42008,0.0980316 4.59449,1.75984 5.23347,4.22599 0.35315,1.35354 0.673229,2.64567 0.956694,3.87048l-0.0259843 0.00944883 -15.4914 6.97205c-0.0165354,0.00708662 -0.0307087,0.0153543 -0.0448819,0.0248032z"/>
    <path id="_386932688" class="fil6" d="M826.58 703.214c1.65118,2.0504 2.34921,4.63465 2.18032,7.45985 -0.20315,3.53386 0.219685,7.26969 1.1563,10.3039l0.00944883 -0.00944883c1.82126,1.56969 4.70788,4.05709 6.94725,9.4382 1.21299,2.92087 4.81654,4.10079 9.76064,5.72008 5.19213,1.69843 11.6079,3.71339 17.2099,7.35827 -0.00944883,0.113386 0.0366142,0.227953 0.131102,0.304725l9.29528 7.4693c0.151181,0.121654 0.372048,0.0992127 0.494882,-0.0507874 1.93465,1.17284 4.52953,2.33386 8.65276,3.55158 9.80079,2.88544 32.5193,19.2036 33.2327,30.1996 0.392126,5.93859 -1.96654,10.0169 -4.41496,14.2476 -1.51654,2.62323 -3.08504,5.33386 -3.30945,8.24528 0.10748,4.85079 -0.116929,20.1921 -0.262205,29.915 -0.0673229,0.0637796 -0.109843,0.153543 -0.111024,0.253937l-0.166536 11.1756c0,0.0661418 0.0165354,0.12874 0.0472441,0.18189 -0.373229,13.363 -0.676772,26.2736 -0.183071,36.4536 0.624804,13.0335 -1.46221,42.802 -2.66929,57.0272l0.179528 0.0448819c-0.178347,-0.00472441 -0.334252,0.126378 -0.357874,0.307087l-1.43858 10.9547c-0.022441,0.166536 0.0755906,0.32126 0.225591,0.377953l-2.46851 12.326 -0.0165354 -0.00472441c-1.14921,5.09174 -4.9193,9.29174 -5.01615,9.76891 -1.2874,6.64134 -4.21536,18.8717 -9.23859,25.487 -1.75866,2.31142 -3.5315,3.08268 -5.1626,3.58583 -3.0874,7.59331 -7.94056,17.8536 -13.3099,25.624l-0.00472441 -0.00354331c-3.70512,5.51221 -8.25237,6.22914 -8.59371,6.50079 -0.20315,0.162992 -8.48505,14.2488 -15.7181,18.3473 -2.5937,1.4752 -5.26182,1.80827 -7.48938,2.08347 -0.222047,0.0271654 -0.0425197,-0.347244 -0.141732,-1.15984l-0.00590552 -0.00354331c-5.17441,8.44135 -11.5559,16.3795 -21.4843,16.0276 -4.66536,4.38307 -14.4236,7.9193 -21.0106,6.84213 -5.32678,-0.871654 -11.9752,-3.34961 -15.8162,-7.22481l-0.800788 0.00944883 0 -0.022441c-4.67835,-0.415748 -11.0646,-0.982678 -20.2689,-15.6059l0.00944883 -0.00708662 -0.0200788 -0.0330709c-0.101575,0.830316 0.0897638,1.20709 -0.144095,1.17874 -2.25709,-0.27874 -4.8,-0.592914 -7.44095,-2.05984l0.00354331 -0.00826772c-7.25434,-4.02992 -15.5221,-18.1736 -15.7571,-18.3603 -2.34921,-0.820867 -5.4626,-1.9441 -8.60552,-6.50079 -8.0067,-11.5795 -10.3181,-18.3921 -18.5055,-29.2134l-4.43622 -10.4032c-3.98977,-9.98268 -9.79135,-24.7937 -9.80316,-24.8445l-2.49803 -12.4736c0.0496063,-0.0814961 0.0661418,-0.183071 0.0366142,-0.282284l-3.09803 -10.6228c-0.0354331,-0.119291 -0.126378,-0.205512 -0.236221,-0.239764 -1.13976,-16.1043 -1.39488,-43.9063 -0.746457,-57.4193 0.493701,-10.2118 0.184252,-23.1591 -0.175984,-36.5551 0.0779528,-0.068504 0.125197,-0.17126 0.120473,-0.283465l-0.525591 -10.9276c-0.00590552,-0.120473 -0.0708662,-0.22441 -0.164173,-0.283465l-0.0366142 -11.9658 0.00590552 0 -0.0696851 -9.46418c0.00590552,-2.96929 0.0413386,-5.82756 0.108662,-8.53465 -0.153543,-6.21024 -8.38347,-12.1583 -7.72442,-22.4587 0.701575,-10.9665 23.4449,-27.3213 33.2351,-30.2185l0.00236221 0.00590552c4.32166,-1.32284 6.5693,-2.26299 8.67166,-3.54331 0.101575,0.103937 0.262205,0.138189 0.401575,0.0744095l12.3378 -5.69882c0.101575,-0.0472441 0.170079,-0.135827 0.194882,-0.236221 1.80709,0.126378 3.43583,-4.94055 6.14174,-6.17599l2.83583 -1.26969 0.0011811 0.00472441c1.79882,-0.660237 3.56457,-1.23898 5.2193,-1.7811 4.93229,-1.61575 8.53701,-2.79803 9.75355,-5.71418 2.24646,-5.39646 5.1437,-7.89331 6.97441,-9.46772 0.972048,-3.23977 1.32402,-6.89646 1.12087,-10.265 -0.204331,-2.70591 0.557481,-5.33386 2.10236,-7.33229 0.0980316,0.126378 0.272835,0.174803 0.425197,0.106299l15.4914 -6.97087c0.264567,-0.119291 0.27874,-0.483071 0.0354331,-0.627166 4.39843,-3.26693 9.31182,-4.18465 14.7083,-4.18465l0 0.0188977c5.43898,-0.124016 10.5602,1.45276 14.2784,4.28386 0.0637796,0.141732 0.233858,0.214961 0.403937,0.214961 0.0283465,0.0283465 0.0625985,0.0519685 0.100394,0.0708662l14.8843 6.97087c0.106299,0.0496063 0.22441,0.0425197 0.320079,-0.0106299z"/>
    <path id="_386932832" class="fil9" d="M850.881 737.533c1.93347,0.66378 3.94843,1.40197 5.96339,2.2689 2.14134,1.80118 5.13189,1.72323 6.82087,3.60473 0.0259843,0.100394 0.108662,0.165354 0.194882,0.23504l7.74804 6.28229 1.66181 1.33465c0.151181,0.121654 0.372048,0.0992127 0.494882,-0.0507874 1.93465,1.17284 4.52953,2.33386 8.65276,3.55158 9.80079,2.88544 32.5193,19.2036 33.2327,30.1996 0.392126,5.93859 -1.96654,10.0169 -4.41496,14.2476 -1.51654,2.62323 -3.08504,5.33386 -3.30945,8.24528 0.10748,4.85079 -0.116929,20.1921 -0.262205,29.915 -0.0673229,0.0637796 -0.109843,0.153543 -0.111024,0.253937l-0.166536 11.1756c0,0.0661418 0.0165354,0.12874 0.0472441,0.18189 -0.373229,13.363 -0.676772,26.2736 -0.183071,36.4536 0.624804,13.0335 -1.46221,42.802 -2.66929,57.0272l0.179528 0.0448819c-0.178347,-0.00472441 -0.334252,0.126378 -0.357874,0.307087l-1.43858 10.9547c-0.022441,0.166536 0.0755906,0.32126 0.225591,0.377953l-2.46851 12.326 -0.0165354 -0.00472441c-1.14921,5.09174 -4.9193,9.29174 -5.01615,9.76891 -1.2874,6.64134 -4.21536,18.8717 -9.23859,25.487 -1.75866,2.31142 -3.5315,3.08268 -5.1626,3.58583 -3.0874,7.59331 -7.94056,17.8536 -13.3099,25.624l-0.00472441 -0.00354331c-3.70512,5.51221 -8.25237,6.22914 -8.59371,6.50079 -0.20315,0.162992 -8.48505,14.2488 -15.7181,18.3473 -1.63937,0.93189 -3.30827,1.40788 -4.87678,1.70197 -25.1575,-71.7851 -40.7823,-168.565 -40.7823,-265.99 0,-21.9874 20.752,-41.4886 52.8792,-53.954z"/>
    <path id="_386932280" class="fil9" d="M754.943 1057.66c-1.84725,-0.271654 -3.84213,-0.715749 -5.89607,-1.85669l0.00354331 -0.00826772c-7.25434,-4.02992 -15.5221,-18.1736 -15.7571,-18.3603 -2.34921,-0.820867 -5.4626,-1.9441 -8.60552,-6.50079 -8.0067,-11.5795 -10.3181,-18.3921 -18.5055,-29.2134l-4.43622 -10.4032c-3.98977,-9.98268 -9.79135,-24.7937 -9.80316,-24.8445l-2.49803 -12.4736c0.0496063,-0.0814961 0.0661418,-0.183071 0.0366142,-0.282284l-3.09803 -10.6228c-0.0354331,-0.119291 -0.126378,-0.205512 -0.236221,-0.239764 -1.13976,-16.1043 -1.39488,-43.9063 -0.746457,-57.4193 0.493701,-10.2118 0.184252,-23.1591 -0.175984,-36.5551 0.0779528,-0.068504 0.125197,-0.17126 0.120473,-0.283465l-0.525591 -10.9276c-0.00590552,-0.120473 -0.0708662,-0.22441 -0.164173,-0.283465l-0.0366142 -11.9658 0.00590552 0 -0.0696851 -9.46418c0.00590552,-2.96929 0.0413386,-5.82756 0.108662,-8.53465 -0.153543,-6.21024 -8.38347,-12.1583 -7.72442,-22.4587 0.701575,-10.9665 23.4449,-27.3213 33.2351,-30.2185l0.00236221 0.00590552c4.32166,-1.32284 6.5693,-2.26299 8.67166,-3.54331 0.101575,0.103937 0.262205,0.138189 0.401575,0.0744095l12.3378 -5.69882c0.101575,-0.0472441 0.170079,-0.135827 0.194882,-0.236221 1.80709,0.126378 3.43583,-4.94055 6.14174,-6.17599l2.83583 -1.26969 0.0011811 0.00472441c0.542126,-0.198425 1.08071,-0.389764 1.61457,-0.575197 32.4307,12.4559 53.4119,32.0528 53.4119,54.1607 0,97.506 -15.6508,194.367 -40.8449,266.17z"/>
    <line id="_386932616" class="fil6" x1="763.83" y1="710.673" x2="763.83" y2= "710.673" />
    <line id="_386932352" class="fil6" x1="610.782" y1="729.264" x2="610.782" y2= "729.264" />
    <line id="_386932736" class="fil6" x1="609.941" y1="740.547" x2="609.941" y2= "740.547" />
    <line id="_386932568" class="fil6" x1="603.873" y1="916.1" x2="603.873" y2= "916.1" />
    <line id="_386932856" class="fil6" x1="606.041" y1="927.204" x2="606.041" y2= "927.204" />
    <line id="_386932088" class="fil6" x1="960.757" y1="1078.53" x2="960.757" y2= "1078.53" />
    <line id="_386931968" class="fil6" x1="961.39" y1="1078.68" x2="961.39" y2= "1078.68" />
    <line id="_386931752" class="fil6" x1="988.966" y1="928.054" x2="988.966" y2= "928.054" />
    <line id="_386931944" class="fil6" x1="993.523" y1="917.703" x2="993.523" y2= "917.703" />
    <line id="_386931800" class="fil6" x1="988.891" y1="916.119" x2="988.891" y2= "916.119" />
    <line id="_386931584" class="fil6" x1="944.41" y1="740.761" x2="944.41" y2= "740.761" />
    <line id="_386932136" class="fil6" x1="828.76" y1="710.673" x2="828.76" y2= "710.673" />
    <path id="_386932160" class="fil10" d="M830.196 721.806c0.335433,0.872835 -0.270473,-0.759449 -0.272835,-0.836221l-0.00708662 0.00708662c0.0862205,0.276378 0.17126,0.533859 0.256299,0.770079l0.0236221 0.0590552z"/>
    <path id="_386932112" class="fil11" d="M820.719 803.821c-2.21221,-2.21103 -5.79922,-2.21103 -8.01142,0 -2.21221,2.21221 -2.21221,5.8004 0,8.01142l53.3351 45.3248 -45.3237 -53.3363z"/>
    <path id="_386931440" class="fil11" d="M769.335 872.914c1.60039,-2.67638 5.0693,-3.54922 7.74568,-1.94764 2.67638,1.60039 3.54803,5.0693 1.94764,7.74568l-41.739 58.6028 32.0457 -64.4008z"/>
    <path id="_386930984" class="fil11" d="M821.56 872.914c-1.60158,-2.67638 -5.0693,-3.54922 -7.74568,-1.94764 -2.67638,1.60039 -3.54922,5.0693 -1.94764,7.74568l41.739 58.6028 -32.0457 -64.4008z"/>
    <path id="_386930840" class="fil11" d="M761.235 953.028c1.16102,-2.89607 4.4504,-4.30276 7.34646,-3.14173 2.89725,1.16102 4.30394,4.4504 3.14292,7.34646l-30.0095 59.7981 19.5201 -64.0028z"/>
    <path id="_386931392" class="fil11" d="M831.431 953.028c-1.16102,-2.89607 -4.4504,-4.30276 -7.34764,-3.14173 -2.89607,1.16102 -4.30276,4.4504 -3.14173,7.34646l30.0095 59.7981 -19.5201 -64.0028z"/>
    <path id="_386931344" class="fil11" d="M770.176 803.821c2.21221,-2.21103 5.79922,-2.21103 8.01142,0 2.21221,2.21221 2.21221,5.8004 0,8.01142l-53.3363 45.3248 45.3248 -53.3363z"/>
    <line id="_386930720" class="fil12" x1="706.178" y1="1001.72" x2="706.178" y2= "1001.72" />
   </g>
  </g>
 </g>
 <rect class="fil13" width="2048" height="2048"/>
</svg>
