<?xml version="1.0" encoding="UTF-8"?>
<!DOCTYPE svg PUBLIC "-//W3C//DTD SVG 1.1//EN" "http://www.w3.org/Graphics/SVG/1.1/DTD/svg11.dtd">
<!-- Creator: CorelDRAW -->
<svg xmlns="http://www.w3.org/2000/svg" xml:space="preserve" width="2048px" height="2048px" style="shape-rendering:geometricPrecision; text-rendering:geometricPrecision; image-rendering:optimizeQuality; fill-rule:evenodd; clip-rule:evenodd"
viewBox="0 0 2048 2048"
 xmlns:xlink="http://www.w3.org/1999/xlink">
 <defs>
  <style type="text/css">
   <![CDATA[
    .fil10 {fill:none}
    .fil6 {fill:#01579B}
    .fil5 {fill:#0277BD}
    .fil4 {fill:#37474F}
    .fil8 {fill:#558B2F}
    .fil1 {fill:#8BC34A}
    .fil9 {fill:#CE3330}
    .fil7 {fill:#E6840E}
    .fil2 {fill:#EF5350}
    .fil0 {fill:#FFA000}
    .fil3 {fill:#37474F;fill-rule:nonzero}
   ]]>
  </style>
 </defs>
 <g id="Layer_x0020_1">
  <metadata id="CorelCorpID_0Corel-Layer"/>
  <path class="fil0" d="M265.504 1283.44l371.38 0c7.22717,0 13.0854,5.85945 13.0854,13.0854l0 473.83c0,7.22599 -5.85827,13.0854 -13.0854,13.0854l-371.38 0c-7.22599,0 -13.0843,-5.85945 -13.0843,-13.0854l0 -473.83c0,-7.22599 5.85827,-13.0854 13.0843,-13.0854z"/>
  <path class="fil1" d="M834.809 1283.44l371.38 0c7.22717,0 13.0854,5.85945 13.0854,13.0854l0 473.83c0,7.22599 -5.85827,13.0854 -13.0854,13.0854l-371.38 0c-7.22599,0 -13.0843,-5.85945 -13.0843,-13.0854l0 -473.83c0,-7.22599 5.85827,-13.0854 13.0843,-13.0854z"/>
  <path class="fil2" d="M1411.11 1283.44l371.38 0c7.22717,0 13.0854,5.85945 13.0854,13.0854l0 473.83c0,7.22599 -5.85827,13.0854 -13.0854,13.0854l-371.38 0c-7.22599,0 -13.0843,-5.85945 -13.0843,-13.0854l0 -473.83c0,-7.22599 5.85827,-13.0854 13.0843,-13.0854z"/>
  <path class="fil3" d="M1583.98 1150.32c0,8.83583 7.16457,16.0004 16.0004,16.0004 8.83583,0 16.0004,-7.16457 16.0004,-16.0004l0 -195.803c0,-8.83583 -7.16457,-16.0004 -16.0004,-16.0004l-1148.62 0c-8.83583,0 -16.0004,7.16457 -16.0004,16.0004l0 195.803c0,8.83583 7.16457,16.0004 16.0004,16.0004 8.83583,0 16.0004,-7.16457 16.0004,-16.0004l0 -179.803 1116.62 0 0 179.803z"/>
  <path class="fil3" d="M1036.5 744.283c0,-8.83583 -7.16457,-16.0004 -16.0004,-16.0004 -8.83583,0 -16.0004,7.16457 -16.0004,16.0004l0 406.04c0,8.83583 7.16457,16.0004 16.0004,16.0004 8.83583,0 16.0004,-7.16457 16.0004,-16.0004l0 -406.04z"/>
  <polygon class="fil4" points="371.354,1117.97 531.033,1117.97 451.194,1197.81 "/>
  <polygon class="fil4" points="940.659,1117.97 1100.34,1117.97 1020.5,1197.81 "/>
  <polygon class="fil4" points="1516.97,1117.97 1676.65,1117.97 1596.81,1197.81 "/>
  <g id="_382209552">
   <path id="_382209024" class="fil3" d="M671.856 1517.44l0 32.0008 81.528 0c8.83583,0 16.0004,-7.16457 16.0004,-16.0004 0,-8.83583 -7.16457,-16.0004 -16.0004,-16.0004l-81.528 0z"/>
   <polygon id="_382209432" class="fil4" points="721.033,1613.28 721.033,1453.6 800.873,1533.44 "/>
  </g>
  <g id="_382209504">
   <path id="_382209096" class="fil3" d="M1235.13 1517.44l0 32.0008 81.528 0c8.83583,0 16.0004,-7.16457 16.0004,-16.0004 0,-8.83583 -7.16457,-16.0004 -16.0004,-16.0004l-81.528 0z"/>
   <polygon id="_382209576" class="fil4" points="1284.3,1613.28 1284.3,1453.6 1364.14,1533.44 "/>
  </g>
  <g id="_382207800">
   <path id="_382209144" class="fil5" d="M834.81 264.562l371.38 0c7.22717,0 13.0854,5.85945 13.0854,13.0854l0 473.83c0,7.22599 -5.85827,13.0854 -13.0854,13.0854l-371.38 0c-7.22599,0 -13.0843,-5.85945 -13.0843,-13.0854l0 -473.83c0,-7.22599 5.85827,-13.0854 13.0843,-13.0854z"/>
   <polygon id="_382208472" class="fil6" points="880.003,674.36 1161,674.36 1161,700.531 880.003,700.531 "/>
   <polygon id="_382208448" class="fil6" points="880.003,610.33 1161,610.33 1161,636.5 880.003,636.5 "/>
   <polygon id="_382208304" class="fil6" points="880.003,546.299 1161,546.299 1161,572.469 880.003,572.469 "/>
   <polygon id="_382208688" class="fil6" points="880.003,482.268 1161,482.268 1161,508.438 880.003,508.438 "/>
   <polygon id="_382207848" class="fil6" points="880.003,354.207 1041.3,354.207 1041.3,380.377 880.003,380.377 "/>
   <polygon id="_382207464" class="fil6" points="880.003,418.238 1161,418.238 1161,444.408 880.003,444.408 "/>
  </g>
  <polygon class="fil7" points="310.697,1693.23 591.69,1693.23 591.69,1719.41 310.697,1719.41 "/>
  <polygon class="fil7" points="310.697,1629.2 591.69,1629.2 591.69,1655.37 310.697,1655.37 "/>
  <polygon class="fil7" points="310.697,1565.17 591.69,1565.17 591.69,1591.34 310.697,1591.34 "/>
  <polygon class="fil7" points="310.697,1501.14 591.69,1501.14 591.69,1527.31 310.697,1527.31 "/>
  <polygon class="fil7" points="310.697,1373.08 471.998,1373.08 471.998,1399.25 310.697,1399.25 "/>
  <polygon class="fil7" points="310.697,1437.11 591.69,1437.11 591.69,1463.28 310.697,1463.28 "/>
  <polygon class="fil8" points="880.002,1693.23 1160.99,1693.23 1160.99,1719.41 880.002,1719.41 "/>
  <polygon class="fil8" points="880.002,1629.2 1160.99,1629.2 1160.99,1655.37 880.002,1655.37 "/>
  <polygon class="fil8" points="880.002,1565.17 1160.99,1565.17 1160.99,1591.34 880.002,1591.34 "/>
  <polygon class="fil8" points="880.002,1501.14 1160.99,1501.14 1160.99,1527.31 880.002,1527.31 "/>
  <polygon class="fil8" points="880.002,1373.08 1041.3,1373.08 1041.3,1399.25 880.002,1399.25 "/>
  <polygon class="fil8" points="880.002,1437.11 1160.99,1437.11 1160.99,1463.28 880.002,1463.28 "/>
  <polygon class="fil9" points="1456.31,1693.23 1737.3,1693.23 1737.3,1719.41 1456.31,1719.41 "/>
  <polygon class="fil9" points="1456.31,1629.2 1737.3,1629.2 1737.3,1655.37 1456.31,1655.37 "/>
  <polygon class="fil9" points="1456.31,1565.17 1737.3,1565.17 1737.3,1591.34 1456.31,1591.34 "/>
  <polygon class="fil9" points="1456.31,1501.14 1737.3,1501.14 1737.3,1527.31 1456.31,1527.31 "/>
  <polygon class="fil9" points="1456.31,1373.08 1617.61,1373.08 1617.61,1399.25 1456.31,1399.25 "/>
  <polygon class="fil9" points="1456.31,1437.11 1737.3,1437.11 1737.3,1463.28 1456.31,1463.28 "/>
 </g>
 <rect class="fil10" width="2048" height="2048"/>
</svg>
