<?xml version="1.0" encoding="UTF-8"?>
<!DOCTYPE svg PUBLIC "-//W3C//DTD SVG 1.1//EN" "http://www.w3.org/Graphics/SVG/1.1/DTD/svg11.dtd">
<!-- Creator: CorelDRAW -->
<svg xmlns="http://www.w3.org/2000/svg" xml:space="preserve" width="2048px" height="2048px" style="shape-rendering:geometricPrecision; text-rendering:geometricPrecision; image-rendering:optimizeQuality; fill-rule:evenodd; clip-rule:evenodd"
viewBox="0 0 2048 2048"
 xmlns:xlink="http://www.w3.org/1999/xlink">
 <defs>
  <style type="text/css">
   <![CDATA[
    .fil8 {fill:none}
    .fil2 {fill:none;fill-rule:nonzero}
    .fil6 {fill:#B71C1C}
    .fil7 {fill:#D32F2F}
    .fil4 {fill:#E53935}
    .fil5 {fill:#FFA000}
    .fil1 {fill:#E99506;fill-rule:nonzero}
    .fil0 {fill:#FFA000;fill-rule:nonzero}
    .fil3 {fill:#FFB300;fill-rule:nonzero}
   ]]>
  </style>
 </defs>
 <g id="Layer_x0020_1">
  <metadata id="CorelCorpID_0Corel-Layer"/>
  <g id="_382178784">
   <path id="_382179960" class="fil0" d="M298.366 641.638l0.0389764 0c-0.0519685,-0.131102 -0.122835,-0.416929 -0.0708662,-0.155906l0.0318898 0.155906z"/>
   <polygon id="_382180392" class="fil0" points="1296.2,490.555 1286.95,469.261 "/>
   <path id="_382180560" class="fil1" d="M1365.79 490.555l9.80079 33.9827 -901.028 878.625c-39.8044,-11.537 -92.1639,-30.7311 -101.432,-76.1847l-137.293 -672.745c-0.936615,-4.59567 -1.38543,-8.79095 -1.38543,-12.5953 0,-18.3803 8.02205,-34.7799 20.5536,-47.3044 11.028,-11.0197 25.9654,-19.011 41.7284,-22.2295 5.52638,-1.12677 10.8484,-1.72205 15.828,-1.72205l324.407 0 18.3543 -118.747c2.40827,-15.5811 9.28583,-30.1063 19.8449,-40.6654 11.0799,-11.0799 25.6937,-17.948 43.1433,-17.948l566.4 0c19.8307,0 33.6177,8.58544 44.2748,21.5398 7.59213,9.22442 12.1264,19.2189 16.4634,29.1992l20.3398 46.7941z"/>
   <path id="_382180296" class="fil2" d="M898.185 490.555l398.018 0 69.5835 0 152.518 0c25.3689,0 49.5615,10.0665 67.4918,27.9969 1.30158,1.30158 2.56063,2.6374 3.77835,4.00276"/>
   <polygon id="_382179984" class="fil0" points="379.835,1040.84 298.366,641.638 "/>
   <path id="_382179600" class="fil3" d="M489.31 699.914l324.408 0 18.3532 -118.746c2.40827,-15.5799 9.28702,-30.1063 19.8461,-40.6654 11.0799,-11.0799 25.6937,-17.948 43.1433,-17.948l623.245 0c17.491,0 33.3733,7.13386 44.8642,18.6248 11.491,11.491 18.6248,27.3732 18.6248,44.8642l0 234.618 0 159.617 0 423.93 -435.34 0 -347.998 0 -309.146 0c-21.3378,0 -40.7162,-8.70709 -54.7418,-22.7339 -14.0268,-14.0256 -22.7339,-33.404 -22.7339,-54.7418l0 -549.343c0,-21.3378 8.70709,-40.7162 22.7339,-54.7418 14.0256,-14.0268 33.404,-22.7339 54.7418,-22.7339z"/>
   <path id="_382179528" class="fil4" d="M1496.38 909.866c5.26654,10.5661 10.6146,22.8815 15.9307,35.1284 11.9917,27.6225 23.8087,54.8386 32.9079,58.6867 9.29174,3.93071 37.7504,-7.51654 66.1323,-18.9319 16.7043,-6.72048 43.767,-23.2843 59.7414,-7.54016 10.8295,8.76379 20.7319,17.6339 29.6634,26.5666 9.4819,9.4819 18.8965,20.0587 28.1906,31.6772l0.0956694 -0.0767717c5.6752,7.09489 6.77953,16.3701 3.71103,24.2693 -3.55748,10.2071 -8.25237,21.8776 -12.9496,33.5563 -11.4154,28.3819 -22.8626,56.8406 -18.9319,66.1323 3.84803,9.09922 31.0642,20.9162 58.6867,32.9091 16.2024,7.03347 48.6744,15.3756 50.2229,36.8894 2.28071,19.8862 12.5906,97.3477 -15.0933,108.868 -10.5661,5.26772 -22.8815,10.6146 -35.1296,15.9307 -27.6225,11.9929 -54.8386,23.8099 -58.6867,32.9079 -3.92953,9.29174 7.51772,37.7492 18.9331,66.1312 4.84016,12.0319 9.6756,24.0555 13.2685,34.4776l0.0141732 -0.00472441c3.14292,9.1252 0.601182,18.8315 -5.74252,25.2685 -15.4181,19.0512 -57.7441,71.2725 -82.4528,61.656 -10.2024,-3.5563 -21.8681,-8.24883 -33.5422,-12.9425 -28.3807,-11.4154 -56.8394,-22.8626 -66.1312,-18.9319 -9.09922,3.84803 -20.9162,31.0642 -32.9079,58.6867 -7.03347,16.2012 -15.3768,48.6733 -36.8894,50.2229 -26.6988,3.06142 -97.995,11.0398 -108.868,-15.0933 -5.26654,-10.5661 -10.6146,-22.8803 -15.9319,-35.1307 -11.9917,-27.6213 -23.8087,-54.8374 -32.9067,-58.6855 -9.29174,-3.93071 -37.7492,7.51654 -66.1312,18.9319 -12.0319,4.84016 -24.0555,9.6756 -34.4788,13.2685l0.00590552 0.0141732c-9.1252,3.14292 -18.8327,0.601182 -25.2685,-5.74252 -10.8307,-8.76379 -20.7331,-17.6351 -29.6658,-26.5666 -12.4819,-12.4819 -39.9485,-35.4177 -31.9937,-55.8768 3.5563,-10.2083 8.25119,-21.8776 12.9484,-33.5551 11.4142,-28.3795 22.8591,-56.8359 18.9307,-66.1264 -3.84803,-9.09922 -31.0654,-20.9162 -58.6878,-32.9091 -16.2024,-7.03347 -48.6733,-15.3756 -50.2229,-36.8894 -0.775985,-6.7689 -1.3937,-13.911 -1.83898,-21.4335 -0.475985,-8.04568 -0.721654,-15.5681 -0.721654,-22.5213 0,-6.95197 0.245669,-14.4709 0.721654,-22.5142 0.470079,-7.94764 1.13268,-15.4689 1.97126,-22.5803l-0.022441 -0.00236221c1.07953,-9.14174 7.04882,-16.5142 14.9835,-19.8166 10.5661,-5.26654 22.8803,-10.6134 35.1307,-15.9319 27.6213,-11.9917 54.8386,-23.8087 58.6855,-32.9067 3.92953,-9.29292 -7.51654,-37.7492 -18.9331,-66.1312 -4.83898,-12.0319 -9.6756,-24.0555 -13.2673,-34.4776l-0.0141732 0.00472441c-3.14292,-9.12402 -0.601182,-18.8315 5.74252,-25.2685 8.76379,-10.8295 17.6351,-20.7331 26.5666,-29.6658 12.4819,-12.4819 35.4177,-39.9485 55.8756,-31.9937 10.2095,3.5563 21.8788,8.25119 33.5563,12.9484 28.3795,11.4154 56.8359,22.8603 66.1264,18.9307 9.09922,-3.84803 20.9162,-31.0654 32.9079,-58.6878 13.7516,-31.6796 13.7067,-44.9788 40.0583,-50.0126 23.8878,-4.55906 95.4591,-9.7252 105.7,14.8843z"/>
   <path id="_382179096" class="fil5" d="M1532.6 1172.56c-25.7244,-25.7256 -61.2674,-41.6374 -100.526,-41.6374 -39.2599,0 -74.8016,15.9118 -100.527,41.6374 -25.7244,25.7244 -41.6363,61.2662 -41.6363,100.526 0,39.2599 15.9118,74.8016 41.6363,100.527 25.7256,25.7244 61.2674,41.6363 100.527,41.6363 39.2587,0 74.8016,-15.9118 100.526,-41.6363 25.7256,-25.7256 41.6374,-61.2674 41.6374,-100.527 0,-39.2599 -15.9118,-74.8016 -41.6374,-100.526z"/>
   <path id="_382179432" class="fil6" d="M1432.07 1081.78c52.8248,0 100.652,21.4146 135.274,56.0363 34.6205,34.6217 56.0351,82.4493 56.0351,135.274 0,52.8248 -21.4146,100.652 -56.0351,135.274 -34.6217,34.6217 -82.4493,56.0363 -135.274,56.0363 -52.826,0 -100.654,-21.4146 -135.274,-56.0363 -34.6217,-34.6217 -56.0363,-82.4493 -56.0363,-135.274 0,-52.8248 21.4146,-100.652 56.0363,-135.274 34.6205,-34.6217 82.4481,-56.0363 135.274,-56.0363z"/>
   <path id="_382178736" class="fil5" d="M1462.69 1242.47c-7.83308,-7.83426 -18.6603,-12.6791 -30.6177,-12.6791 -11.9599,0 -22.7847,4.84489 -30.6189,12.6791 -7.83308,7.83308 -12.6791,18.6603 -12.6791,30.6177 0,11.9587 4.84607,22.7847 12.6791,30.6177 7.83426,7.83426 18.6591,12.6791 30.6189,12.6791 11.9575,0 22.7847,-4.84489 30.6177,-12.6791 7.83308,-7.83308 12.6791,-18.6591 12.6791,-30.6177 0,-11.9575 -4.84607,-22.7847 -12.6791,-30.6177z"/>
   <path id="_382178352" class="fil7" d="M1432.07 1180.64c25.5225,0 48.6355,10.3488 65.3646,27.078 16.7303,16.7303 27.0792,39.8433 27.0792,65.3658 0,25.5248 -10.3488,48.6355 -27.0792,65.3658 -16.7291,16.7291 -39.8422,27.078 -65.3646,27.078 -25.5248,0 -48.6367,-10.3488 -65.3658,-27.078 -16.7303,-16.7303 -27.078,-39.841 -27.078,-65.3658 0,-25.5225 10.3476,-48.6355 27.078,-65.3658 16.7291,-16.7291 39.841,-27.078 65.3658,-27.078z"/>
  </g>
 </g>
 <rect class="fil8" width="2048" height="2048"/>
</svg>
