<?xml version="1.0" encoding="UTF-8"?>
<!DOCTYPE svg PUBLIC "-//W3C//DTD SVG 1.1//EN" "http://www.w3.org/Graphics/SVG/1.1/DTD/svg11.dtd">
<!-- Creator: CorelDRAW -->
<svg xmlns="http://www.w3.org/2000/svg" xml:space="preserve" width="2048px" height="2048px" style="shape-rendering:geometricPrecision; text-rendering:geometricPrecision; image-rendering:optimizeQuality; fill-rule:evenodd; clip-rule:evenodd"
viewBox="0 0 2048 2048"
 xmlns:xlink="http://www.w3.org/1999/xlink">
 <defs>
  <style type="text/css">
   <![CDATA[
    .fil9 {fill:none}
    .fil1 {fill:#7B838E}
    .fil0 {fill:#8E96A3}
    .fil7 {fill:#E3F2FD}
    .fil8 {fill:#FF6F00}
    .fil6 {fill:#FFD54F}
    .fil2 {fill:#415065;fill-rule:nonzero}
    .fil5 {fill:#7CB342;fill-rule:nonzero}
    .fil3 {fill:#EF5350;fill-rule:nonzero}
    .fil4 {fill:#FFAB40;fill-rule:nonzero}
   ]]>
  </style>
 </defs>
 <g id="Layer_x0020_1">
  <metadata id="CorelCorpID_0Corel-Layer"/>
  <path class="fil0" d="M1792 576.003l0 1184c0,17.6728 -14.328,32.0008 -32.0008,32.0008l-1472 0c-17.6728,0 -32.0008,-14.328 -32.0008,-32.0008l0 -1184 1536 0z"/>
  <polygon class="fil1" points="1792,576.003 1792,639.999 255.999,639.999 255.999,576.003 "/>
  <path class="fil2" d="M288 255.999l1472 0c17.6728,0 32.0008,14.328 32.0008,32.0008l0 288 -1536 0 0 -288c0,-17.6728 14.328,-32.0008 32.0008,-32.0008z"/>
  <polygon class="fil3" points="1536.15,350.366 1536.15,478.365 1664.15,478.365 1664.15,350.366 "/>
  <polygon class="fil4" points="1087.84,478.365 1215.84,478.365 1215.84,350.366 1087.84,350.366 "/>
  <polygon class="fil5" points="1311.67,350.366 1311.67,478.365 1439.67,478.365 1439.67,350.366 "/>
  <g id="_382180800">
   <path id="_382181616" class="fil6" d="M876.411 1135.62l295.179 0c26.9221,0 51.3815,10.9961 69.0945,28.7091 17.713,17.7154 28.7091,42.1725 28.7091,69.0957l0 249.147c0,26.9232 -10.9961,51.3815 -28.7091,69.0957 -17.713,17.713 -42.1725,28.7091 -69.0945,28.7091l-295.179 0c-26.9232,0 -51.3827,-10.9961 -69.0957,-28.7091 -17.713,-17.7142 -28.7091,-42.1725 -28.7091,-69.0957l0 -249.147c0,-26.9232 10.9961,-51.3804 28.7091,-69.0957 17.713,-17.713 42.1725,-28.7091 69.0957,-28.7091zm68.4154 138.246c0,-14.6504 -11.8784,-26.5288 -26.5299,-26.5288 -14.6516,0 -26.5299,11.8784 -26.5299,26.5288l0 -0.654331c0,14.6504 11.8784,26.5288 26.5299,26.5288 14.6516,0 26.5299,-11.8784 26.5299,-26.5288l0 0.654331zm211.408 0c0,-14.6504 -11.8784,-26.5288 -26.5299,-26.5288 -14.6516,0 -26.5299,11.8784 -26.5299,26.5288l0 -0.654331c0,14.6504 11.8784,26.5288 26.5299,26.5288 14.6516,0 26.5299,-11.8784 26.5299,-26.5288l0 0.654331zm-115.67 -6.20434c0,-9.14883 -7.41615,-16.565 -16.565,-16.565 -9.14764,0 -16.5638,7.41615 -16.5638,16.565l-9.96615 99.3875c0,14.6504 11.8784,26.5288 26.5299,26.5288 14.6516,0 26.5299,-11.8784 26.5299,-26.5288l-9.96497 -99.3875zm99.6083 139.557c-38.8217,16.6193 -74.2418,36.815 -117.452,36.815 -39.8256,0 -79.389,-18.5528 -116.757,-31.8272 5.9504,60.5363 69.991,84.8859 116.757,84.8859 49.8886,0 113.626,-39.5103 117.452,-89.8737z"/>
   <path id="_382182072" class="fil7" d="M1643.08 815.953l0 -27.0425 20.9221 0 0 21.3862c0,11.5335 -1.14567,19.8851 -3.36378,24.9662 -3.10512,6.9815 -7.94764,12.2398 -14.5276,15.7736l-4.76811 -9.18898c3.9189,-1.9004 6.80197,-4.86142 8.72363,-8.97048 1.92284,-4.11024 2.9941,-9.72048 3.17953,-16.924l-10.1658 0zm-33.5646 0l0 -27.0425 20.8854 0 0 21.3862c0,11.5335 -1.10906,19.8851 -3.32717,24.9662 -3.10512,6.9815 -7.94764,12.2398 -14.5276,15.7736l-4.76811 -9.18898c3.88111,-1.9004 6.80197,-4.86142 8.72363,-8.97048 1.92284,-4.11024 2.95748,-9.72048 3.17953,-16.924l-10.1658 0zm-105.168 96.0627c0,17.6303 3.10512,30.7973 9.31536,39.5032 6.21024,8.70473 13.5295,13.0795 21.9945,13.0795 8.50276,0 15.7476,-4.19764 21.6992,-12.5055 5.95158,-8.3067 8.94568,-21.0331 8.94568,-38.1331 0,-18.8244 -3.03189,-32.6091 -9.09331,-41.4036 -6.0626,-8.83701 -13.5295,-13.2118 -22.4386,-13.2118 -8.6504,0 -15.8953,4.24252 -21.6992,12.6827 -5.80276,8.44016 -8.72363,21.7831 -8.72363,39.9886zm61.6217 68.6221l0 -17.3658c-7.2815,13.6536 -18.0024,20.4591 -32.1603,20.4591 -9.16654,0 -17.5949,-3.00473 -25.2839,-9.05788 -7.68898,-6.01063 -13.6406,-14.4496 -17.8914,-25.3205 -4.21418,-10.826 -6.32126,-23.2418 -6.32126,-37.337 0,-13.6973 1.92166,-26.1591 5.72953,-37.337 3.84449,-11.1803 9.57402,-19.7516 17.2264,-25.6736 7.65119,-5.96457 16.2272,-8.97048 25.6902,-8.97048 6.913,0 13.0866,1.76811 18.4831,5.25945 5.43426,3.49016 9.83268,8.04095 13.2343,13.6536l0 -68.093 19.3701 0 0 189.783 -18.0768 0zm-124.316 0l0 -189.783 19.4811 0 0 189.783 -19.4811 0zm-73.6347 0l0 -137.466 17.5217 0 0 20.8134c4.47284,-9.72166 8.61261,-16.1728 12.4205,-19.2662 3.77008,-3.09331 7.94764,-4.68426 12.4949,-4.68426 6.57993,0 13.2331,2.51929 20.0351,7.513l-6.72756 21.6508c-4.7315,-3.40158 -9.50079,-5.08229 -14.2689,-5.08229 -4.28859,0 -8.09528,1.54725 -11.4969,4.59567 -3.4004,3.09331 -5.80276,7.33583 -7.24489,12.7701 -2.1815,8.263 -3.25276,17.3221 -3.25276,27.1748l0 71.9812 -19.4811 0zm-110.38 -68.7544c0,17.6303 3.21614,30.7973 9.64843,39.5469 6.43229,8.79331 14.5276,13.1681 24.2492,13.1681 9.68505,0 17.7437,-4.41969 24.176,-13.213 6.39449,-8.79213 9.61064,-22.226 9.61064,-40.2532 0,-17.0126 -3.21614,-29.915 -9.68505,-38.6634 -6.4689,-8.74961 -14.4898,-13.1244 -24.1016,-13.1244 -9.72166,0 -17.8169,4.37481 -24.2492,13.0795 -6.43229,8.70473 -9.64843,21.8729 -9.64843,39.4595zm-20.0351 0c0,-25.4516 5.91497,-44.3197 17.7803,-56.5595 9.87048,-10.1634 21.9213,-15.2894 36.1524,-15.2894 15.8221,0 28.7599,6.18662 38.7768,18.6036 10.0547,12.3721 15.0449,29.4721 15.0449,51.3012 0,17.7177 -2.21693,31.637 -6.65315,41.7555 -4.43622,10.1646 -10.9051,18.0295 -19.3701,23.6398 -8.50158,5.6126 -17.7437,8.39646 -27.7984,8.39646 -16.0795,0 -29.0918,-6.14292 -39.0355,-18.515 -9.94371,-12.3284 -14.8973,-30.0898 -14.8973,-53.3327zm-167.861 68.7544l-42.1406 -189.783 21.5504 0 24.176 124.387c2.5878,13.0347 4.80473,25.9819 6.69095,38.8394 4.06536,-20.2807 6.43111,-31.9465 7.17048,-35.0835l30.2008 -128.143 25.3583 0 22.7339 96.0627c5.69292,23.8169 9.79607,46.2189 12.3473,67.1634 1.99606,-11.9728 4.65709,-25.7599 7.90985,-41.2701l24.8788 -121.956 21.1441 0 -43.5461 189.783 -20.2571 0 -33.4536 -144.579c-2.80984,-12.1075 -4.47284,-19.5319 -4.99016,-22.2709 -1.66299,8.70473 -3.21614,16.128 -4.65827,22.2709l-33.6756 144.579 -21.4394 0zm-202.425 -68.7544c0,17.6303 3.21614,30.7973 9.64843,39.5469 6.43229,8.79331 14.5276,13.1681 24.2492,13.1681 9.68505,0 17.7437,-4.41969 24.176,-13.213 6.39449,-8.79213 9.61064,-22.226 9.61064,-40.2532 0,-17.0126 -3.21614,-29.915 -9.68505,-38.6634 -6.4689,-8.74961 -14.4898,-13.1244 -24.1016,-13.1244 -9.72166,0 -17.8169,4.37481 -24.2492,13.0795 -6.43229,8.70473 -9.64843,21.8729 -9.64843,39.4595zm-20.0351 0c0,-25.4516 5.91497,-44.3197 17.7803,-56.5595 9.87048,-10.1634 21.9213,-15.2894 36.1524,-15.2894 15.8221,0 28.7599,6.18662 38.7768,18.6036 10.0547,12.3721 15.0449,29.4721 15.0449,51.3012 0,17.7177 -2.21693,31.637 -6.65315,41.7555 -4.43622,10.1646 -10.9051,18.0295 -19.3701,23.6398 -8.50158,5.6126 -17.7437,8.39646 -27.7984,8.39646 -16.0795,0 -29.0918,-6.14292 -39.0355,-18.515 -9.94371,-12.3284 -14.8973,-30.0898 -14.8973,-53.3327zm-42.437 68.7544l0 -189.783 19.4811 0 0 189.783 -19.4811 0zm-49.2756 0l0 -189.783 19.4811 0 0 189.783 -19.4811 0zm-108.199 -81.9674l64.2095 0c-0.850394,-11.5323 -3.32717,-20.237 -7.35591,-25.9819 -6.21024,-8.9693 -14.2689,-13.4764 -24.1382,-13.4764 -8.94568,0 -16.487,3.57992 -22.5862,10.7374 -6.09922,7.15867 -9.463,16.748 -10.1291,28.7209zm63.9875 37.6925l20.1461 2.95984c-3.17835,14.0965 -9.0567,25.0099 -17.6327,32.7874 -8.61261,7.73268 -19.591,11.6209 -32.9362,11.6209 -16.8189,0 -30.163,-6.18662 -39.9969,-18.5587 -9.8693,-12.3721 -14.7862,-29.7378 -14.7862,-52.0961 0,-23.1543 4.99134,-41.0953 14.9351,-53.8642 9.98032,-12.7701 22.8815,-19.1776 38.7768,-19.1776 15.3768,0 27.9461,6.2752 37.6677,18.7807 9.75828,12.5043 14.6386,30.1347 14.6386,52.8024 0,1.41496 -0.0377953,3.49134 -0.111024,6.23032l-85.7599 0c0.701575,15.1122 4.2874,26.6894 10.7197,34.6866 6.43229,8.04213 14.4165,12.0638 24.0272,12.0638 7.13504,0 13.2343,-2.25355 18.2977,-6.76182 5.06457,-4.46221 9.0567,-11.6209 12.0142,-21.4736zm-235.766 44.2748l0 -189.783 21.0331 0 0 77.9457 82.5072 0 0 -77.9457 21.0331 0 0 189.783 -21.0331 0 0 -89.4343 -82.5072 0 0 89.4343 -21.0331 0zm-28.1303 -157.924l0 27.0425 -20.9232 0 0 -21.3425c0,-11.5772 1.18347,-19.9276 3.47481,-25.1421 3.03189,-6.8941 7.83662,-12.1075 14.4165,-15.6414l4.7693 9.05788c-3.99213,1.9878 -6.913,4.94882 -8.79804,8.88072 -1.84843,3.88819 -2.92087,9.63308 -3.14173,17.1449l10.2024 0zm-33.5646 0l0 27.0425 -20.9232 0 0 -21.3425c0,-11.5772 1.14685,-19.9276 3.47481,-25.1421 3.03189,-6.8941 7.83662,-12.1075 14.4165,-15.6414l4.7315 9.05788c-3.95433,1.9878 -6.8752,4.94882 -8.76024,8.88072 -1.88504,3.88819 -2.92087,9.63308 -3.14173,17.1449l10.2024 0z"/>
   <path id="_382181472" class="fil8" d="M1022.72 1444.03c-39.8256,0 -79.389,-18.5528 -116.757,-31.8272 5.9504,60.5363 69.991,84.8859 116.757,84.8859 49.8886,0 113.626,-39.5103 117.452,-89.8737 -38.8217,16.6193 -74.2418,36.815 -117.452,36.815z"/>
   <path id="_382181208" class="fil8" d="M997.469 1367.05c0,14.6504 11.8784,26.5288 26.5299,26.5288 14.6516,0 26.5299,-11.8784 26.5299,-26.5288l-9.96497 -99.3875c0,-9.14883 -7.41615,-16.565 -16.565,-16.565 -9.14764,0 -16.5638,7.41615 -16.5638,16.565l-9.96615 99.3875z"/>
   <path id="_382181112" class="fil8" d="M918.296 1299.74c14.4319,0 26.1744,-11.5252 26.5299,-25.8744 0,-0.218504 -0.00354331,-0.437008 -0.00826772,-0.654331 -0.347244,-14.3492 -12.0898,-25.8744 -26.5217,-25.8744 -14.4319,0 -26.1744,11.5252 -26.5299,25.8744 0,0.218504 0.00354331,0.437008 0.00826772,0.654331 0.347244,14.3492 12.0898,25.8744 26.5217,25.8744z"/>
   <path id="_382180848" class="fil8" d="M1103.18 1273.86c0.347244,14.3492 12.0898,25.8744 26.5217,25.8744 14.4319,0 26.1744,-11.5252 26.5299,-25.8744 0,-0.218504 -0.00354331,-0.437008 -0.00826772,-0.654331 -0.347244,-14.3492 -12.0898,-25.8744 -26.5217,-25.8744 -14.4319,0 -26.1744,11.5252 -26.5299,25.8744 0,0.218504 0.00354331,0.437008 0.00826772,0.654331z"/>
  </g>
 </g>
 <rect class="fil9" width="2048" height="2048"/>
</svg>
