<?xml version="1.0" encoding="UTF-8"?>
<!DOCTYPE svg PUBLIC "-//W3C//DTD SVG 1.1//EN" "http://www.w3.org/Graphics/SVG/1.1/DTD/svg11.dtd">
<!-- Creator: CorelDRAW -->
<svg xmlns="http://www.w3.org/2000/svg" xml:space="preserve" width="2048px" height="2048px" style="shape-rendering:geometricPrecision; text-rendering:geometricPrecision; image-rendering:optimizeQuality; fill-rule:evenodd; clip-rule:evenodd"
viewBox="0 0 2048 2048"
 xmlns:xlink="http://www.w3.org/1999/xlink">
 <defs>
  <style type="text/css">
   <![CDATA[
    .fil17 {fill:none}
    .fil9 {fill:#00B8D4}
    .fil10 {fill:#37474F}
    .fil5 {fill:#455A64}
    .fil3 {fill:#546E7A}
    .fil14 {fill:#6D8591}
    .fil2 {fill:#78909C}
    .fil4 {fill:#80D8FF}
    .fil11 {fill:#BBDEFB}
    .fil0 {fill:#263238;fill-rule:nonzero}
    .fil1 {fill:#37474F;fill-rule:nonzero}
    .fil13 {fill:#553A31;fill-rule:nonzero}
    .fil12 {fill:#5D4037;fill-rule:nonzero}
    .fil15 {fill:#757575;fill-rule:nonzero}
    .fil8 {fill:#7CB342;fill-rule:nonzero}
    .fil6 {fill:#EF5350;fill-rule:nonzero}
    .fil16 {fill:#FF8F00;fill-rule:nonzero}
    .fil7 {fill:#FFAB40;fill-rule:nonzero}
   ]]>
  </style>
 </defs>
 <g id="Layer_x0020_1">
  <metadata id="CorelCorpID_0Corel-Layer"/>
  <g id="_382187184">
   <path id="_382188600" class="fil0" d="M609.619 1396.9c0,53.9339 503.191,53.9339 503.191,0 0,-53.9351 -503.191,-53.9351 -503.191,0z"/>
   <path id="_382188696" class="fil1" d="M926.155 1215.17c0,-13.9536 -29.0752,-25.2662 -64.9406,-25.2662 -35.8642,0 -64.9406,11.3126 -64.9406,25.2662l0 171.258c0,13.9536 29.0764,25.2662 64.9406,25.2662 35.8654,0 64.9406,-11.3126 64.9406,-25.2662l0 -171.258z"/>
   <path id="_382188288" class="fil2" d="M275.695 463.239l1171.04 0c13.9536,0 25.2662,11.3126 25.2662,25.2673l0 726.658c0,13.9547 -11.3126,25.2673 -25.2662,25.2673l-1171.04 0c-13.9547,0 -25.2673,-11.3126 -25.2673,-25.2673l0 -726.658c0,-13.9547 11.3126,-25.2673 25.2673,-25.2673z"/>
   <path id="_382187688" class="fil3" d="M1472 1047.36l0 167.808c0,13.9547 -11.3126,25.2673 -25.2662,25.2673l-1171.04 0c-13.9547,0 -25.2673,-11.3126 -25.2673,-25.2673l0 -167.808 1221.57 0z"/>
   <polygon id="_382188024" class="fil4" points="1421.47,513.773 300.962,513.773 300.962,1028.42 1421.47,1028.42 "/>
   <g>
    <polygon id="_382187640" class="fil5" points="1022.22,918.334 1022.22,885.68 1260.11,885.68 1260.11,918.334 "/>
    <polygon id="_382187952" class="fil5" points="763.117,873.222 916.47,792.963 763.117,713.392 763.117,668.365 956.766,771.566 956.766,813.844 763.117,918.334 "/>
    <polygon id="_382188168" class="fil5" points="655.971,918.334 462.322,813.844 462.322,771.566 655.971,668.365 655.971,713.392 502.413,792.963 655.971,873.222 "/>
   </g>
   <g>
    <polygon id="_382186776" class="fil6" points="1389.44,1127.88 1389.44,1159.91 1421.47,1159.91 1421.47,1127.88 "/>
    <polygon id="_382187472" class="fil7" points="1277.26,1159.91 1309.28,1159.91 1309.28,1127.88 1277.26,1127.88 "/>
    <polygon id="_382187112" class="fil8" points="1333.26,1127.88 1333.26,1159.91 1365.3,1159.91 1365.3,1127.88 "/>
   </g>
   <g>
    <circle id="_382187328" class="fil9" cx="861.215" cy="1143.89" r="30.8883"/>
    <circle id="_382187136" class="fil10" cx="861.215" cy="1143.89" r="26.273"/>
   </g>
  </g>
  <circle class="fil11" cx="1248.46" cy="1045.8" r="231.285"/>
  <path class="fil1" d="M1469.41 1225.05c-6.94489,-6.53386 -17.8725,-6.20079 -24.4063,0.742914 -6.53386,6.94489 -6.20079,17.8725 0.742914,24.4063l64.5249 60.4961c6.94489,6.53386 17.8725,6.20079 24.4063,-0.744095 6.53386,-6.94371 6.20079,-17.8725 -0.742914,-24.4063l-64.5249 -60.4949z"/>
  <path class="fil12" d="M1575.22 1287.91l192.781 150.623c0.84567,0.550394 1.65473,1.18228 2.41654,1.89685l-11.837 12.626 11.8311 -12.5752c22.8898,21.4606 25.7492,47.9445 17.0646,70.2674 -3.2811,8.43426 -8.23583,16.187 -14.3788,22.7398 -6.1441,6.55158 -13.5496,11.9894 -21.7347,15.7973 -21.3744,9.94371 -47.5146,8.95867 -70.2095,-11.6126 -0.755906,-0.603544 -1.47165,-1.27795 -2.13662,-2.02559l12.9236 -11.511 -12.913 11.4933 -164.1 -184.228c-14.4354,-14.0929 -16.1268,-31.3855 -10.4244,-46.0418 2.16142,-5.55945 5.41063,-10.65 9.42993,-14.9362 4.01693,-4.28504 8.87835,-7.84961 14.2654,-10.3559 14.3622,-6.6815 31.9016,-6.02008 47.0221,7.84371z"/>
  <path class="fil13" d="M1771.89 1534.74c-5.89725,5.99174 -12.8728,10.9807 -20.5288,14.5429 -21.3744,9.94371 -47.5146,8.95867 -70.2095,-11.6126 -0.755906,-0.603544 -1.47165,-1.27795 -2.13662,-2.02559l12.9236 -11.511 -12.913 11.4933 -164.1 -184.228c-14.4354,-14.0929 -16.1268,-31.3855 -10.4244,-46.0418 2.16142,-5.55945 5.41063,-10.65 9.42993,-14.9362 0.174803,-0.187795 0.351969,-0.373229 0.530315,-0.557481l257.429 244.877z"/>
  <path class="fil12" d="M1575.22 1287.91l192.781 150.623c0.84567,0.550394 1.65473,1.18228 2.41654,1.89685l-11.837 12.626 11.8311 -12.5752c22.8898,21.4606 25.7492,47.9445 17.0646,70.2674 -3.2811,8.43426 -8.23583,16.187 -14.3788,22.7398 -0.382677,0.407481 -0.770079,0.811418 -1.16339,1.21063l-0.0425197 0.0437008 -257.429 -244.877 0.272835 -0.277559c3.85512,-3.91418 8.42835,-7.17993 13.4622,-9.52087 14.3622,-6.6815 31.9016,-6.02008 47.0221,7.84371z"/>
  <path class="fil14" d="M1438.78 817.482l0.402756 -0.429922 12.6378 11.9008c0.493701,0.465355 0.277559,0.248032 0.849213,0.829134l0.512599 0.522048 0.161811 0.174803 0.122835 0.132284c53.0245,56.3847 89.5453,127.328 92.0682,205.631 2.34803,72.8481 -22.3288,144.143 -68.7556,199.883l0.429922 0.402756 -11.9008 12.6366c-0.465355,0.493701 -0.248032,0.27874 -0.829134,0.850394l-0.522048 0.511418 -0.174803 0.161811 -0.132284 0.124016c-56.3847,53.0245 -127.328,89.5453 -205.631,92.0682 -78.6449,2.53465 -155.482,-26.4284 -212.889,-80.2501 -57.6945,-54.091 -91.2036,-128.243 -93.7501,-207.267 -2.53347,-78.6449 26.4284,-155.48 80.2501,-212.888 54.0922,-57.6934 128.244,-91.2036 207.268,-93.7501 72.8469,-2.34685 144.143,22.3299 199.882,68.7567zm-22.1327 383.997c40.8827,-44.1555 62.8276,-102.91 60.8882,-163.073 -1.9252,-59.7508 -24.1217,-119.329 -70.8284,-158.418l-0.281103 -0.23504 -0.682678 -0.595276 -0.466536 -0.42874c-0.622441,-0.575197 -0.426378,-0.388583 -0.97441,-0.943702l-0.168898 -0.172441c-44.1555,-40.8827 -102.91,-62.8264 -163.071,-60.8871 -60.9756,1.96417 -118.087,27.8398 -159.816,72.3473 -41.5063,44.2725 -63.8209,103.476 -61.8662,164.126 1.96536,60.9756 27.8398,118.087 72.3485,159.815 44.2725,41.5075 103.476,63.8221 164.127,61.8662 59.7508,-1.92638 119.329,-24.1217 158.418,-70.8296l0.23504 -0.279921 0.595276 -0.682678 0.42874 -0.466536c0.575197,-0.623623 0.388583,-0.427559 0.943702,-0.97441l0.17126 -0.168898z"/>
  <path class="fil2" d="M1248.46 790.184c141.175,0 255.619,114.445 255.619,255.619 0,141.175 -114.444,255.62 -255.619,255.62 -141.174,0 -255.619,-114.445 -255.619,-255.62 0,-141.174 114.445,-255.619 255.619,-255.619zm168.189 411.294c40.8827,-44.1555 62.8276,-102.91 60.8882,-163.073 -1.9252,-59.7508 -24.1217,-119.329 -70.8284,-158.418l-0.281103 -0.23504 -0.682678 -0.595276 -0.466536 -0.42874c-0.622441,-0.575197 -0.426378,-0.388583 -0.97441,-0.943702l-0.168898 -0.172441c-44.1555,-40.8827 -102.91,-62.8264 -163.071,-60.8871 -60.9756,1.96417 -118.087,27.8398 -159.816,72.3473 -41.5063,44.2725 -63.8209,103.476 -61.8662,164.126 1.96536,60.9756 27.8398,118.087 72.3485,159.815 44.2725,41.5075 103.476,63.8221 164.127,61.8662 59.7508,-1.92638 119.329,-24.1217 158.418,-70.8296l0.23504 -0.279921 0.595276 -0.682678 0.42874 -0.466536c0.575197,-0.623623 0.388583,-0.427559 0.943702,-0.97441l0.17126 -0.168898z"/>
  <g id="_382185216">
   <path id="_382185600" class="fil15" d="M1276.46 1058.84c0,13.2543 10.7457,24 24,24 13.2543,0 24,-10.7457 24,-24l0 -85.3312c0,-19.5036 -7.963,-37.2177 -20.7874,-50.0433 -12.8256,-12.8244 -30.5398,-20.7874 -50.0433,-20.7874l-10.3429 0c-19.5036,0 -37.2177,7.963 -50.0433,20.7886 -12.8256,12.8244 -20.7886,30.5398 -20.7886,50.0422l0 85.3312c0,13.2543 10.7457,24 24,24 13.2543,0 24,-10.7457 24,-24l0 -85.3312c0,-6.25158 2.57717,-11.9551 6.72638,-16.1043 4.14922,-4.14922 9.85276,-6.72638 16.1055,-6.72638l10.3429 0c6.25276,0 11.9563,2.57717 16.1055,6.7252 4.14803,4.14922 6.7252,9.85276 6.7252,16.1055l0 85.3312z"/>
   <path id="_382185936" class="fil16" d="M1154.31 1034.84l188.291 0c13.2543,0 24,10.7457 24,24l0 106.096c0,13.2543 -10.7457,24 -24,24l-188.291 0c-13.2543,0 -24,-10.7457 -24,-24l0 -106.096c0,-13.2543 10.7457,-24 24,-24z"/>
  </g>
 </g>
 <rect class="fil17" width="2048" height="2048"/>
</svg>
