<?xml version="1.0" encoding="UTF-8"?>
<!DOCTYPE svg PUBLIC "-//W3C//DTD SVG 1.1//EN" "http://www.w3.org/Graphics/SVG/1.1/DTD/svg11.dtd">
<!-- Creator: CorelDRAW -->
<svg xmlns="http://www.w3.org/2000/svg" xml:space="preserve" width="2048px" height="2048px" style="shape-rendering:geometricPrecision; text-rendering:geometricPrecision; image-rendering:optimizeQuality; fill-rule:evenodd; clip-rule:evenodd"
viewBox="0 0 2048 2048"
 xmlns:xlink="http://www.w3.org/1999/xlink">
 <defs>
  <style type="text/css">
   <![CDATA[
    .fil11 {fill:none}
    .fil8 {fill:#00B8D4}
    .fil9 {fill:#37474F}
    .fil4 {fill:#4DD0E1}
    .fil3 {fill:#546E7A}
    .fil2 {fill:#78909C}
    .fil10 {fill:#00838F;fill-rule:nonzero}
    .fil0 {fill:#263238;fill-rule:nonzero}
    .fil1 {fill:#37474F;fill-rule:nonzero}
    .fil7 {fill:#7CB342;fill-rule:nonzero}
    .fil5 {fill:#EF5350;fill-rule:nonzero}
    .fil6 {fill:#FFAB40;fill-rule:nonzero}
   ]]>
  </style>
 </defs>
 <g id="Layer_x0020_1">
  <metadata id="CorelCorpID_0Corel-Layer"/>
  <path class="fil0" d="M707.645 1585.56c0,67.8178 632.712,67.8178 632.712,0 0,-67.8178 -632.712,-67.8178 -632.712,0z"/>
  <path class="fil1" d="M1105.66 1357.05c0,-17.5465 -36.5599,-31.7705 -81.6556,-31.7705 -45.0957,0 -81.6568,14.224 -81.6568,31.7705l0 215.338c0,17.5453 36.5611,31.7705 81.6568,31.7705 45.0957,0 81.6556,-14.2252 81.6556,-31.7705l0 -215.338z"/>
  <path class="fil2" d="M287.77 411.578l1472.46 0c17.5465,0 31.7705,14.224 31.7705,31.7693l0 913.7c0,17.5453 -14.224,31.7693 -31.7705,31.7693l-1472.46 0c-17.5453,0 -31.7705,-14.224 -31.7705,-31.7693l0 -913.7c0,-17.5453 14.2252,-31.7693 31.7705,-31.7693z"/>
  <path class="fil3" d="M1792 1146.05l0 211.002c0,17.5453 -14.224,31.7693 -31.7705,31.7693l-1472.46 0c-17.5453,0 -31.7705,-14.224 -31.7705,-31.7693l0 -211.002 1536 0z"/>
  <polygon class="fil4" points="1728.46,475.118 319.54,475.118 319.54,1122.23 1728.46,1122.23 "/>
  <g id="_382190280">
   <polygon id="_382190088" class="fil5" points="1688.19,1247.29 1688.19,1287.57 1728.46,1287.57 1728.46,1247.29 "/>
   <polygon id="_382189920" class="fil6" points="1547.13,1287.57 1587.4,1287.57 1587.4,1247.29 1547.13,1247.29 "/>
   <polygon id="_382190352" class="fil7" points="1617.56,1247.29 1617.56,1287.57 1657.83,1287.57 1657.83,1247.29 "/>
  </g>
  <g id="_382190448">
   <circle id="_382190496" class="fil8" cx="1024" cy="1267.43" r="38.8388"/>
   <circle id="_382190136" class="fil9" cx="1024" cy="1267.43" r="33.0356"/>
  </g>
  <g id="_382189560">
   <path id="_382190400" class="fil10" d="M395.924 547.169l1256.15 0c8.83583,0 16.0004,7.16457 16.0004,16.0004l0 128.001c0,8.83583 -7.16457,16.0004 -16.0004,16.0004l-1256.15 0c-8.83583,0 -16.0004,-7.16457 -16.0004,-16.0004l0 -128.001c0,-8.83583 7.16457,-16.0004 16.0004,-16.0004z"/>
   <path id="_382190232" class="fil10" d="M399.194 754.042l253.223 0c8.83583,0 16.0004,7.16457 16.0004,16.0004l0 157.956c0,8.83583 -7.16457,16.0004 -16.0004,16.0004l-253.223 0c-8.83583,0 -16.0004,-7.16457 -16.0004,-16.0004l0 -157.956c0,-8.83583 7.16457,-16.0004 16.0004,-16.0004z"/>
   <path id="_382189512" class="fil10" d="M731.324 754.042l253.223 0c8.83583,0 16.0004,7.16457 16.0004,16.0004l0 157.956c0,8.83583 -7.16457,16.0004 -16.0004,16.0004l-253.223 0c-8.83583,0 -16.0004,-7.16457 -16.0004,-16.0004l0 -157.956c0,-8.83583 7.16457,-16.0004 16.0004,-16.0004z"/>
   <path id="_382189392" class="fil10" d="M1063.45 754.042l253.223 0c8.83583,0 16.0004,7.16457 16.0004,16.0004l0 157.956c0,8.83583 -7.16457,16.0004 -16.0004,16.0004l-253.223 0c-8.83583,0 -16.0004,-7.16457 -16.0004,-16.0004l0 -157.956c0,-8.83583 7.16457,-16.0004 16.0004,-16.0004z"/>
   <path id="_382189248" class="fil10" d="M1395.58 754.042l253.223 0c8.83583,0 16.0004,7.16457 16.0004,16.0004l0 157.956c0,8.83583 -7.16457,16.0004 -16.0004,16.0004l-253.223 0c-8.83583,0 -16.0004,-7.16457 -16.0004,-16.0004l0 -157.956c0,-8.83583 7.16457,-16.0004 16.0004,-16.0004z"/>
   <path id="_382189632" class="fil10" d="M399.194 975.999l253.223 0c8.83583,0 16.0004,7.16457 16.0004,16.0004l0 130.226 -285.223 0 0 -130.226c0,-8.83583 7.16457,-16.0004 16.0004,-16.0004z"/>
   <path id="_382189176" class="fil10" d="M715.111 1072l949.694 0 0 -32.0008 -949.694 0 0 32.0008zm0 -64.0004l949.694 0 0 -32.0008 -949.694 0 0 32.0008z"/>
  </g>
 </g>
 <rect class="fil11" width="2048" height="2048"/>
</svg>
