<?xml version="1.0" encoding="UTF-8"?>
<!DOCTYPE svg PUBLIC "-//W3C//DTD SVG 1.1//EN" "http://www.w3.org/Graphics/SVG/1.1/DTD/svg11.dtd">
<!-- Creator: CorelDRAW -->
<svg xmlns="http://www.w3.org/2000/svg" xml:space="preserve" width="2048px" height="2048px" style="shape-rendering:geometricPrecision; text-rendering:geometricPrecision; image-rendering:optimizeQuality; fill-rule:evenodd; clip-rule:evenodd"
viewBox="0 0 2048 2048"
 xmlns:xlink="http://www.w3.org/1999/xlink">
 <defs>
  <style type="text/css">
   <![CDATA[
    .fil13 {fill:none}
    .fil8 {fill:#00B8D4}
    .fil9 {fill:#37474F}
    .fil4 {fill:#4DD0E1}
    .fil3 {fill:#546E7A}
    .fil2 {fill:#78909C}
    .fil11 {fill:#00838F;fill-rule:nonzero}
    .fil0 {fill:#263238;fill-rule:nonzero}
    .fil1 {fill:#37474F;fill-rule:nonzero}
    .fil10 {fill:#757575;fill-rule:nonzero}
    .fil7 {fill:#7CB342;fill-rule:nonzero}
    .fil5 {fill:#EF5350;fill-rule:nonzero}
    .fil12 {fill:#FF8F00;fill-rule:nonzero}
    .fil6 {fill:#FFAB40;fill-rule:nonzero}
   ]]>
  </style>
 </defs>
 <g id="Layer_x0020_1">
  <metadata id="CorelCorpID_0Corel-Layer"/>
  <path class="fil0" d="M707.645 1585.56c0,67.8178 632.712,67.8178 632.712,0 0,-67.8178 -632.712,-67.8178 -632.712,0z"/>
  <path class="fil1" d="M1105.66 1357.05c0,-17.5465 -36.5599,-31.7705 -81.6556,-31.7705 -45.0957,0 -81.6568,14.224 -81.6568,31.7705l0 215.338c0,17.5453 36.5611,31.7705 81.6568,31.7705 45.0957,0 81.6556,-14.2252 81.6556,-31.7705l0 -215.338z"/>
  <path class="fil2" d="M287.77 411.578l1472.46 0c17.5465,0 31.7705,14.224 31.7705,31.7693l0 913.7c0,17.5453 -14.224,31.7693 -31.7705,31.7693l-1472.46 0c-17.5453,0 -31.7705,-14.224 -31.7705,-31.7693l0 -913.7c0,-17.5453 14.2252,-31.7693 31.7705,-31.7693z"/>
  <path class="fil3" d="M1792 1146.05l0 211.002c0,17.5453 -14.224,31.7693 -31.7705,31.7693l-1472.46 0c-17.5453,0 -31.7705,-14.224 -31.7705,-31.7693l0 -211.002 1536 0z"/>
  <polygon class="fil4" points="1728.46,475.118 319.54,475.118 319.54,1122.23 1728.46,1122.23 "/>
  <g id="_382192200">
   <polygon id="_382192368" class="fil5" points="1688.19,1247.29 1688.19,1287.57 1728.46,1287.57 1728.46,1247.29 "/>
   <polygon id="_382192416" class="fil6" points="1547.13,1287.57 1587.4,1287.57 1587.4,1247.29 1547.13,1247.29 "/>
   <polygon id="_382192248" class="fil7" points="1617.56,1247.29 1617.56,1287.57 1657.83,1287.57 1657.83,1247.29 "/>
  </g>
  <g id="_382191384">
   <circle id="_382192464" class="fil8" cx="1024" cy="1267.43" r="38.8388"/>
   <circle id="_382192776" class="fil9" cx="1024" cy="1267.43" r="33.0356"/>
  </g>
  <path class="fil10" d="M1058.99 738.412c0,13.2543 10.7457,24 24,24 13.2543,0 24,-10.7457 24,-24l0 -96.7902c0,-21.2315 -8.67048,-40.5201 -22.6347,-54.4855 -13.9654,-13.9654 -33.2528,-22.6358 -54.4855,-22.6358l-11.7319 0c-21.2327,0 -40.5201,8.67048 -54.4855,22.6358 -13.9654,13.9654 -22.6358,33.2528 -22.6358,54.4855l0 96.7902c0,13.2543 10.7457,24 24,24 13.2543,0 24,-10.7457 24,-24l0 -96.7902c0,-7.98071 3.28465,-15.2587 8.57363,-20.5477 5.28898,-5.28898 12.5669,-8.57363 20.5477,-8.57363l11.7319 0c7.98071,0 15.2587,3.28465 20.5477,8.57363 5.2878,5.28898 8.57245,12.5646 8.57245,20.5477l0 96.7902z"/>
  <path class="fil11" d="M648.29 924.499l751.421 0c8.83583,0 16.0004,7.16457 16.0004,16.0004l0 79.069c0,8.83583 -7.16457,16.0004 -16.0004,16.0004l-751.421 0c-8.83583,0 -16.0004,-7.16457 -16.0004,-16.0004l0 -79.069c0,-8.83583 7.16457,-16.0004 16.0004,-16.0004zm585.421 32.0008l-569.421 0 0 47.0681 569.421 0 0 -47.0681z"/>
  <path class="fil12" d="M917.211 714.412l213.579 0c13.2543,0 24,10.7457 24,24l0 120.345c0,13.2543 -10.7457,24 -24,24l-213.579 0c-13.2543,0 -24,-10.7457 -24,-24l0 -120.345c0,-13.2543 10.7457,-24 24,-24z"/>
 </g>
 <rect class="fil13" width="2048" height="2048"/>
</svg>
