<?xml version="1.0" encoding="UTF-8"?>
<!DOCTYPE svg PUBLIC "-//W3C//DTD SVG 1.1//EN" "http://www.w3.org/Graphics/SVG/1.1/DTD/svg11.dtd">
<!-- Creator: CorelDRAW -->
<svg xmlns="http://www.w3.org/2000/svg" xml:space="preserve" width="2048px" height="2048px" style="shape-rendering:geometricPrecision; text-rendering:geometricPrecision; image-rendering:optimizeQuality; fill-rule:evenodd; clip-rule:evenodd"
viewBox="0 0 2048 2048"
 xmlns:xlink="http://www.w3.org/1999/xlink">
 <defs>
  <style type="text/css">
   <![CDATA[
    .fil10 {fill:none}
    .fil8 {fill:#006064}
    .fil4 {fill:#0D47A1}
    .fil5 {fill:#33691E}
    .fil6 {fill:#3E2723}
    .fil3 {fill:#78909C}
    .fil7 {fill:#8E24AA}
    .fil0 {fill:#B0855B}
    .fil9 {fill:#B71C1C}
    .fil1 {fill:#E5B680}
    .fil2 {fill:#E5BD8C}
   ]]>
  </style>
 </defs>
 <g id="Layer_x0020_1">
  <metadata id="CorelCorpID_0Corel-Layer"/>
  <path class="fil0" d="M1614.48 1077.89l-94.8839 -189.757c-8.41536,-16.8437 -11.0256,-36.2788 -7.32993,-54.7512l20.3043 -101.556c0.338977,-1.67953 0.507874,-3.39095 0.507874,-5.12244 0.0011811,-187.599 -110.327,-349.924 -269.502,-425.497 -143.636,-68.1934 -401.257,-61.0441 -542.247,7.70197 -175.324,85.4847 -296.411,265.563 -296.411,473.381 0,145.228 34.8733,265.342 68.5949,381.5 32.3988,111.604 65.8394,226.765 69.9402,367.721 0.243307,8.38701 0.383859,206.777 0.413386,260.492l552.348 0 0 -92.6162c0,-77.5678 63.1146,-140.684 140.704,-140.684l92.2406 0c70.7965,0 130.859,-55.2638 136.748,-125.826l17.9646 -215.508 67.9146 -27.1689c21.1335,-8.45079 37.8957,-25.5106 45.9851,-46.7847 8.09056,-21.2681 6.88701,-45.1512 -3.29173,-65.5252z"/>
  <g id="_382195128">
   <path id="_382194456" class="fil1" d="M991.5 253.701c-99.9969,1.85197 -199.666,20.8264 -270.169,55.2036 -175.324,85.4847 -296.411,265.563 -296.411,473.381 0,145.228 34.8733,265.342 68.5949,381.5 32.3988,111.604 65.8394,226.765 69.9402,367.721 0.243307,8.38701 0.383859,206.777 0.413386,260.492l427.631 0 0 -1538.3z"/>
   <path id="_382195080" class="fil2" d="M1614.48 1077.89l-94.8839 -189.757c-8.41536,-16.8437 -11.0256,-36.2788 -7.32993,-54.7512l20.3043 -101.556c0.338977,-1.67953 0.507874,-3.39095 0.507874,-5.12244 0.0011811,-187.599 -110.327,-349.924 -269.502,-425.497 -71.5536,-33.9721 -171.396,-49.2402 -271.014,-47.5158l-1.06417 0.0141732 0 1538.3 0.116929 0 124.599 0 0 -92.6162c0,-77.5678 63.1146,-140.684 140.704,-140.684l92.2406 0c70.7965,0 130.859,-55.2638 136.748,-125.826l17.9646 -215.508 67.9146 -27.1689c21.1335,-8.45079 37.8957,-25.5106 45.9851,-46.7847 8.09056,-21.2681 6.88701,-45.1512 -3.29173,-65.5252z"/>
  </g>
  <g id="_382193808">
   <path id="_382194528" class="fil3" d="M1000.76 952.706l-10.2248 -141.195c3.45945,-1.39016 6.74056,-3.13229 9.79961,-5.17914l178.851 142.409c-1.84016,5.27126 -2.88189,10.9193 -2.97756,16.7965l-139.297 16.9288c-6.78426,-14.7402 -20.054,-25.8792 -36.1512,-29.7603zm-42.8552 -138.836l10.226 141.199c-4.29331,1.72677 -8.31024,3.98977 -11.9693,6.70867l-257.628 -185.299 0.0011811 -0.00236221 220.761 1.25079c5.58308,17.8677 20.2595,31.7197 38.6091,36.1429zm32.6906 -264.606c-2.70945,-1.41732 -5.28662,-3.0567 -7.69961,-4.89804l-285.409 195.959c0.451181,1.15394 0.863386,2.32677 1.23543,3.51733l220.762 1.25079c6.25512,-19.2366 23.0776,-33.704 43.6181,-36.5481l27.4925 -159.281zm55.8685 -3.82441c-6.8563,4.87323 -14.9079,8.17796 -23.6292,9.38505l-27.4925 159.281c12.5339,6.54804 22.1587,17.8984 26.4307,31.611l306.75 19.3087c0.461811,-2.10118 1.04646,-4.15512 1.74567,-6.15709l-283.805 -213.429zm291.866 263.738c-2.62677,-3.42638 -4.85197,-7.17756 -6.59882,-11.185l-310.212 -19.5284c-0.253937,0.772442 -0.523229,1.53662 -0.811418,2.29252l178.164 141.861c8.75316,-6.20315 19.4457,-9.85158 30.991,-9.85158 11.1331,0 21.4725,3.38977 30.0449,9.19135l78.4229 -112.78zm-322.92 -361.172c29.6398,0 53.667,24.026 53.667,53.6658 0,6.20079 -1.05473,12.1536 -2.98937,17.6941l283.8 213.427c8.76497,-6.2315 19.4811,-9.89646 31.0547,-9.89646 29.6398,0 53.6658,24.026 53.6658,53.6658 0,29.6398 -24.026,53.667 -53.6658,53.667 -5.4815,0 -10.7705,-0.82441 -15.75,-2.3504l-84.4501 121.448c1.80591,5.37284 2.78504,11.126 2.78504,17.1071 0,29.6398 -24.026,53.6658 -53.6658,53.6658 -18.1382,0 -34.1729,-8.99883 -43.8863,-22.7752l-145.121 17.6362c-4.71733,24.8197 -26.5229,43.5851 -52.7162,43.5851 -29.6398,0 -53.6658,-24.026 -53.6658,-53.6658 0,-5.79685 0.922442,-11.3787 2.62441,-16.6087l-257.629 -185.299c-8.93032,6.63662 -19.9949,10.5638 -31.976,10.5638 -29.6398,0 -53.667,-24.026 -53.667,-53.6658 0,-29.641 24.0272,-53.667 53.667,-53.667 10.8047,0 20.8618,3.19488 29.2819,8.6882l287.37 -197.306c-1.55906,-5.02914 -2.39882,-10.3736 -2.39882,-15.9142 0,-29.6398 24.026,-53.6658 53.6658,-53.6658z"/>
   <circle id="_382194504" class="fil4" cx="647.579" cy="759.995" r="53.7298"/>
   <circle id="_382193664" class="fil5" cx="1014.87" cy="501.481" r="53.7298"/>
   <circle id="_382194000" class="fil6" cx="970.401" cy="761.434" r="53.7298"/>
   <circle id="_382193784" class="fil7" cx="987.999" cy="1004.43" r="53.7298"/>
   <circle id="_382193712" class="fil8" cx="1230.2" cy="966.516" r="53.7298"/>
   <circle id="_382194144" class="fil9" cx="1380.89" cy="776.789" r="53.7298"/>
  </g>
 </g>
 <rect class="fil10" width="2048" height="2048"/>
</svg>
