<?xml version="1.0" encoding="UTF-8"?>
<!DOCTYPE svg PUBLIC "-//W3C//DTD SVG 1.1//EN" "http://www.w3.org/Graphics/SVG/1.1/DTD/svg11.dtd">
<!-- Creator: CorelDRAW -->
<svg xmlns="http://www.w3.org/2000/svg" xml:space="preserve" width="2048px" height="2048px" style="shape-rendering:geometricPrecision; text-rendering:geometricPrecision; image-rendering:optimizeQuality; fill-rule:evenodd; clip-rule:evenodd"
viewBox="0 0 2048 2048"
 xmlns:xlink="http://www.w3.org/1999/xlink">
 <defs>
  <style type="text/css">
   <![CDATA[
    .fil15 {fill:none}
    .fil9 {fill:#00B8D4}
    .fil10 {fill:#37474F}
    .fil11 {fill:#47B4C3}
    .fil5 {fill:#4DD0E1}
    .fil4 {fill:#546E7A}
    .fil3 {fill:#78909C}
    .fil13 {fill:#EC6104}
    .fil14 {fill:#FF6600}
    .fil1 {fill:#263238;fill-rule:nonzero}
    .fil2 {fill:#37474F;fill-rule:nonzero}
    .fil0 {fill:#5D4037;fill-rule:nonzero}
    .fil8 {fill:#7CB342;fill-rule:nonzero}
    .fil6 {fill:#EF5350;fill-rule:nonzero}
    .fil12 {fill:#FF8F00;fill-rule:nonzero}
    .fil7 {fill:#FFAB40;fill-rule:nonzero}
   ]]>
  </style>
 </defs>
 <g id="Layer_x0020_1">
  <metadata id="CorelCorpID_0Corel-Layer"/>
  <path class="fil0" d="M810.416 433.588c-8.83583,0 -16.0004,7.16457 -16.0004,16.0004 0,8.83583 7.16457,16.0004 16.0004,16.0004l133.249 0 0 1054.41 -133.249 0c-8.83583,0 -16.0004,7.16457 -16.0004,16.0004 0,8.83583 7.16457,16.0004 16.0004,16.0004l149.249 0c8.83583,0 16.0004,-7.16457 16.0004,-16.0004l0 -1086.41c0,-8.83583 -7.16457,-16.0004 -16.0004,-16.0004l-149.249 0z"/>
  <path class="fil0" d="M1139.21 1013.11c8.83583,0 16.0004,-7.16457 16.0004,-16.0004 0,-8.83583 -7.16457,-16.0004 -16.0004,-16.0004l-328.794 0c-8.83583,0 -16.0004,7.16457 -16.0004,16.0004 0,8.83583 7.16457,16.0004 16.0004,16.0004l328.794 0z"/>
  <g id="_382201584">
   <path id="_382196784" class="fil1" d="M424.668 715.946c0,25.2059 235.167,25.2059 235.167,0 0,-25.2059 -235.167,-25.2059 -235.167,0z"/>
   <path id="_382188432" class="fil2" d="M572.601 631.013c0,-6.52087 -13.5886,-11.8087 -30.3496,-11.8087 -16.761,0 -30.3496,5.2878 -30.3496,11.8087l0 80.0375c0,6.52087 13.5886,11.8087 30.3496,11.8087 16.761,0 30.3496,-5.2878 30.3496,-11.8087l0 -80.0375z"/>
   <path id="_382203072" class="fil3" d="M268.609 279.6l547.284 0c6.52205,0 11.8087,5.2878 11.8087,11.8087l0 339.604c0,6.52205 -5.28662,11.8087 -11.8087,11.8087l-547.284 0c-6.52087,0 -11.8087,-5.28662 -11.8087,-11.8087l0 -339.604c0,-6.52087 5.2878,-11.8087 11.8087,-11.8087z"/>
   <path id="_382203504" class="fil4" d="M827.702 552.589l0 78.4241c0,6.52205 -5.28662,11.8087 -11.8087,11.8087l-547.284 0c-6.52087,0 -11.8087,-5.28662 -11.8087,-11.8087l0 -78.4241 570.902 0z"/>
   <polygon id="_382203264" class="fil5" points="804.086,303.218 280.418,303.218 280.418,543.737 804.086,543.737 "/>
   <g>
    <polygon id="_382203096" class="fil6" points="789.116,590.221 789.116,605.189 804.086,605.189 804.086,590.221 "/>
    <polygon id="_382203360" class="fil7" points="736.688,605.189 751.656,605.189 751.656,590.221 736.688,590.221 "/>
    <polygon id="_382202448" class="fil8" points="762.864,590.221 762.864,605.189 777.833,605.189 777.833,590.221 "/>
   </g>
   <g>
    <circle id="_382202088" class="fil9" cx="542.251" cy="597.704" r="14.4356"/>
    <circle id="_382202712" class="fil10" cx="542.251" cy="597.704" r="12.2787"/>
   </g>
   <g>
    <rect id="_382202664" class="fil11" x="333.669" y="368.723" width="154.392" height="14.821"/>
    <rect id="_382202256" class="fil11" x="333.669" y="402.482" width="417.165" height="14.821"/>
    <rect id="_382202520" class="fil11" x="333.669" y="432.947" width="417.165" height="14.821"/>
    <rect id="_382201944" class="fil11" x="333.669" y="463.412" width="417.165" height="14.821"/>
   </g>
  </g>
  <g id="_382200120">
   <path id="_382201536" class="fil1" d="M424.668 1257.26c0,25.2059 235.167,25.2059 235.167,0 0,-25.2059 -235.167,-25.2059 -235.167,0z"/>
   <path id="_382201488" class="fil2" d="M572.601 1172.32c0,-6.52087 -13.5886,-11.8087 -30.3496,-11.8087 -16.761,0 -30.3496,5.2878 -30.3496,11.8087l0 80.0375c0,6.52087 13.5886,11.8087 30.3496,11.8087 16.761,0 30.3496,-5.2878 30.3496,-11.8087l0 -80.0375z"/>
   <path id="_382201344" class="fil3" d="M268.609 820.912l547.284 0c6.52205,0 11.8087,5.2878 11.8087,11.8087l0 339.604c0,6.52205 -5.28662,11.8087 -11.8087,11.8087l-547.284 0c-6.52087,0 -11.8087,-5.28662 -11.8087,-11.8087l0 -339.604c0,-6.52087 5.2878,-11.8087 11.8087,-11.8087z"/>
   <path id="_382201800" class="fil4" d="M827.702 1093.9l0 78.4241c0,6.52205 -5.28662,11.8087 -11.8087,11.8087l-547.284 0c-6.52087,0 -11.8087,-5.28662 -11.8087,-11.8087l0 -78.4241 570.902 0z"/>
   <polygon id="_382200936" class="fil5" points="804.086,844.529 280.418,844.529 280.418,1085.05 804.086,1085.05 "/>
   <g>
    <polygon id="_382200744" class="fil6" points="789.116,1131.53 789.116,1146.5 804.086,1146.5 804.086,1131.53 "/>
    <polygon id="_382200912" class="fil7" points="736.688,1146.5 751.656,1146.5 751.656,1131.53 736.688,1131.53 "/>
    <polygon id="_382201176" class="fil8" points="762.864,1131.53 762.864,1146.5 777.833,1146.5 777.833,1131.53 "/>
   </g>
   <g>
    <circle id="_382200576" class="fil9" cx="542.251" cy="1139.02" r="14.4356"/>
    <circle id="_382201224" class="fil10" cx="542.251" cy="1139.02" r="12.2787"/>
   </g>
   <g>
    <rect id="_382200456" class="fil11" x="333.669" y="910.034" width="154.392" height="14.821"/>
    <rect id="_382200240" class="fil11" x="333.669" y="943.793" width="417.165" height="14.821"/>
    <rect id="_382200216" class="fil11" x="333.669" y="974.258" width="417.165" height="14.821"/>
    <rect id="_382199856" class="fil11" x="333.669" y="1004.72" width="417.165" height="14.821"/>
   </g>
  </g>
  <g id="_382197552">
   <path id="_382199976" class="fil1" d="M424.668 1779.33c0,25.2059 235.167,25.2059 235.167,0 0,-25.2059 -235.167,-25.2059 -235.167,0z"/>
   <path id="_382199808" class="fil2" d="M572.601 1694.4c0,-6.52087 -13.5886,-11.8087 -30.3496,-11.8087 -16.761,0 -30.3496,5.2878 -30.3496,11.8087l0 80.0375c0,6.52087 13.5886,11.8087 30.3496,11.8087 16.761,0 30.3496,-5.2878 30.3496,-11.8087l0 -80.0375z"/>
   <path id="_382199544" class="fil3" d="M268.609 1342.98l547.284 0c6.52205,0 11.8087,5.2878 11.8087,11.8087l0 339.604c0,6.52205 -5.28662,11.8087 -11.8087,11.8087l-547.284 0c-6.52087,0 -11.8087,-5.28662 -11.8087,-11.8087l0 -339.604c0,-6.52087 5.2878,-11.8087 11.8087,-11.8087z"/>
   <path id="_382199712" class="fil4" d="M827.702 1615.97l0 78.4241c0,6.52205 -5.28662,11.8087 -11.8087,11.8087l-547.284 0c-6.52087,0 -11.8087,-5.28662 -11.8087,-11.8087l0 -78.4241 570.902 0z"/>
   <polygon id="_382199304" class="fil5" points="804.086,1366.6 280.418,1366.6 280.418,1607.12 804.086,1607.12 "/>
   <g>
    <polygon id="_382199448" class="fil6" points="789.116,1653.6 789.116,1668.57 804.086,1668.57 804.086,1653.6 "/>
    <polygon id="_382199424" class="fil7" points="736.688,1668.57 751.656,1668.57 751.656,1653.6 736.688,1653.6 "/>
    <polygon id="_382198320" class="fil8" points="762.864,1653.6 762.864,1668.57 777.833,1668.57 777.833,1653.6 "/>
   </g>
   <g>
    <circle id="_382198968" class="fil9" cx="542.251" cy="1661.09" r="14.4356"/>
    <circle id="_382198488" class="fil10" cx="542.251" cy="1661.09" r="12.2787"/>
   </g>
   <g>
    <rect id="_382198608" class="fil11" x="333.669" y="1432.11" width="154.392" height="14.821"/>
    <rect id="_382198752" class="fil11" x="333.669" y="1465.86" width="417.165" height="14.821"/>
    <rect id="_382198800" class="fil11" x="333.669" y="1496.33" width="417.165" height="14.821"/>
    <rect id="_382197648" class="fil11" x="333.669" y="1526.79" width="417.165" height="14.821"/>
   </g>
  </g>
  <g id="_382198128">
   <path id="_382197936" class="fil12" d="M1187.07 1172.09c61.5993,103.129 148.845,189.201 252.932,249.441 104.087,-60.2398 191.332,-146.313 252.931,-249.443 62.9138,-105.328 99.0686,-228.667 99.0686,-360.64 0,-33.4618 -2.24055,-65.9351 -6.57402,-97.2934 -3.10984,-22.5142 -7.30158,-44.7296 -12.5162,-66.5918 -59.0658,-1.45158 -116.623,-9.49135 -171.958,-23.4154 -56.3008,-14.1638 -110.2,-34.4445 -160.951,-60.0886 -50.7508,25.6441 -104.652,45.9248 -160.952,60.0886 -55.3347,13.924 -112.891,21.9638 -171.958,23.4154 -5.21457,21.8622 -9.40631,44.0788 -12.5162,66.5918 -4.33347,31.3583 -6.57402,63.8315 -6.57402,97.2934 0,131.973 36.1548,255.312 99.0686,360.643z"/>
   <path id="_382198224" class="fil13" d="M1440 1384.26l0.0011811 0.0011811 0.205512 -0.127559c92.1627,-56.8571 169.655,-135.371 225.253,-228.453 62.3233,-104.34 94.5414,-222.737 94.5414,-344.231 0,-31.0666 -2.02087,-62.1367 -6.27284,-92.9139 -1.85079,-13.3949 -4.11024,-26.7307 -6.77127,-39.9874 -51.8752,-2.87362 -103.396,-10.6819 -153.813,-23.3669 -52.4244,-13.1906 -103.432,-31.6347 -152.17,-54.9804l-0.973229 -0.466536 -0.0011811 0 0 784.525z"/>
   <path id="_382197720" class="fil14" d="M1133.04 678.545c-2.66103,13.2567 -4.92048,26.5937 -6.77127,39.9874 -4.25197,30.7772 -6.27284,61.8473 -6.27284,92.9139 0,121.495 32.2181,239.893 94.5414,344.234 55.6394,93.1513 133.206,171.711 225.458,228.577l0 -784.525c-49.0323,23.5666 -100.369,42.1689 -153.143,55.4469 -50.4166,12.685 -101.937,20.4933 -153.813,23.3669z"/>
  </g>
 </g>
 <rect class="fil15" width="2048" height="2048"/>
</svg>
