<?xml version="1.0" encoding="UTF-8"?>
<!DOCTYPE svg PUBLIC "-//W3C//DTD SVG 1.1//EN" "http://www.w3.org/Graphics/SVG/1.1/DTD/svg11.dtd">
<!-- Creator: CorelDRAW -->
<svg xmlns="http://www.w3.org/2000/svg" xml:space="preserve" width="2048px" height="2048px" style="shape-rendering:geometricPrecision; text-rendering:geometricPrecision; image-rendering:optimizeQuality; fill-rule:evenodd; clip-rule:evenodd"
viewBox="0 0 2048 2048"
 xmlns:xlink="http://www.w3.org/1999/xlink">
 <defs>
  <style type="text/css">
   <![CDATA[
    .fil3 {fill:none}
    .fil0 {fill:#B0BEC5}
    .fil2 {fill:#BD2904}
    .fil1 {fill:#FF3D00}
   ]]>
  </style>
 </defs>
 <g id="Layer_x0020_1">
  <metadata id="CorelCorpID_0Corel-Layer"/>
  <rect class="fil0" x="261.124" y="261.124" width="1525.75" height="1525.75" rx="120.75" ry="120.75"/>
  <path class="fil1" d="M1024 556.125c129.197,0 246.167,52.3701 330.836,137.039 84.6686,84.6698 137.039,201.639 137.039,330.836 0,129.197 -52.3701,246.167 -137.039,330.836 -84.6698,84.6686 -201.639,137.039 -330.836,137.039 -129.197,0 -246.167,-52.3701 -330.836,-137.039 -84.6686,-84.6698 -137.039,-201.639 -137.039,-330.836 0,-129.197 52.3701,-246.167 137.039,-330.836 84.6698,-84.6686 201.639,-137.039 330.836,-137.039z"/>
  <path class="fil2" d="M1061.43 705.845l0 318.155c0,20.6658 -16.7646,37.4303 -37.4303,37.4303 -20.6658,0 -37.4303,-16.7646 -37.4303,-37.4303l0 -318.155c0,-20.6658 16.7646,-37.4303 37.4303,-37.4303 20.6658,0 37.4303,16.7646 37.4303,37.4303z"/>
  <path class="fil2" d="M1145.55 740.202c-14.2323,-6.05552 -30.6792,0.572835 -36.7359,14.8039 -6.05552,14.2323 0.572835,30.6792 14.8039,36.7359 46.4764,19.9181 84.7536,52.6831 111.386,93.0733 26.6185,40.3689 41.6492,88.5036 41.6492,139.185 0,69.7713 -28.2792,132.936 -73.9985,178.655 -45.7193,45.7193 -108.884,73.9985 -178.655,73.9985 -69.7713,0 -132.936,-28.2792 -178.655,-73.9985 -45.7193,-45.7193 -73.9985,-108.884 -73.9985,-178.655 0,-49.4174 14.3008,-96.4772 39.7642,-136.276 25.4646,-39.7985 62.1721,-72.4902 106.982,-93.1725 14.0504,-6.47953 20.1886,-23.1236 13.7079,-37.1729 -6.47953,-14.0504 -23.1236,-20.1874 -37.174,-13.7079 -54.6083,25.2036 -99.4454,65.2087 -130.668,114.007 -31.2225,48.7985 -48.7571,106.243 -48.7571,166.322 0,85.2698 34.565,162.469 90.4465,218.352 55.8827,55.8815 133.082,90.4465 218.352,90.4465 85.2698,0 162.469,-34.565 218.352,-90.4465 55.8815,-55.8827 90.4465,-133.082 90.4465,-218.352 0,-61.617 -18.4335,-120.379 -51.0804,-169.889 -32.6315,-49.4894 -79.428,-89.5914 -136.168,-113.909z"/>
 </g>
 <rect class="fil3" width="2048" height="2048"/>
</svg>
