<?xml version="1.0" encoding="UTF-8"?>
<!DOCTYPE svg PUBLIC "-//W3C//DTD SVG 1.1//EN" "http://www.w3.org/Graphics/SVG/1.1/DTD/svg11.dtd">
<!-- Creator: CorelDRAW -->
<svg xmlns="http://www.w3.org/2000/svg" xml:space="preserve" width="2048px" height="2048px" style="shape-rendering:geometricPrecision; text-rendering:geometricPrecision; image-rendering:optimizeQuality; fill-rule:evenodd; clip-rule:evenodd"
viewBox="0 0 2048 2048"
 xmlns:xlink="http://www.w3.org/1999/xlink">
 <defs>
  <style type="text/css">
   <![CDATA[
    .fil8 {fill:none}
    .fil7 {fill:#01579B}
    .fil3 {fill:#333333}
    .fil5 {fill:#4DB6AC}
    .fil6 {fill:#A7FFEB}
    .fil0 {fill:#D2A979}
    .fil2 {fill:#E5B680}
    .fil1 {fill:#0277BD;fill-rule:nonzero}
    .fil4 {fill:#263238;fill-rule:nonzero}
   ]]>
  </style>
 </defs>
 <g id="Layer_x0020_1">
  <metadata id="CorelCorpID_0Corel-Layer"/>
  <polygon class="fil0" points="870.864,1041.22 1177.15,1041.22 1177.15,1203.21 1023.89,1258.67 870.864,1203.21 "/>
  <ellipse class="fil0" cx="1024.01" cy="1269.8" rx="253.768" ry="122.5"/>
  <path class="fil1" d="M389.991 1786.82l1267.22 0c14.3386,-75.43 -4.84489,-219.519 -35.915,-321.272 -27.704,-90.7406 -241.973,-228.788 -417.808,-298.503 -34.1481,42.8611 -104.681,72.293 -186.17,72.293 -75.854,0 -142.22,-25.5036 -178.578,-63.6024 -172.717,70.7965 -379.191,196.78 -403.47,270.19 -33.9,102.528 -59.5158,260.111 -45.2741,340.894z"/>
  <path class="fil2" d="M1364.89 699.682c0,232.93 -181.899,438.521 -357.77,430.825 -164.627,-7.19882 -323.99,-212.793 -323.99,-430.825 0,-386.914 171.415,-411.405 329.533,-414.361 174.334,-3.25394 352.227,9.88111 352.227,414.361z"/>
  <path class="fil3" d="M1401.49 514.848c0,88.9099 -23.2063,220.932 -62.9977,258.158 -108.646,-171.338 57.8067,-292.491 -57.5233,-345.94 -52.5733,-24.3626 -146.749,-39.5811 -271.086,-33.8469 -457.288,21.0886 -169.915,147.649 -300.32,379.819 -39.8126,-37.2296 -63.0296,-169.275 -63.0296,-258.19 0,-238.957 306.575,-285.536 497.552,-247.726 153.443,30.3803 257.405,144.209 257.405,247.726z"/>
  <path class="fil2" d="M672.232 690.498c18.2847,0 46.2118,36.7855 46.2118,84.5894 0,47.804 -14.8217,86.556 -33.1063,86.556 -18.2858,0 -26.2099,-38.752 -26.2099,-86.556 0,-47.804 -5.18032,-84.5894 13.1043,-84.5894z"/>
  <path class="fil2" d="M1375.78 690.498c-18.2847,0 -46.2118,36.7855 -46.2118,84.5894 0,47.804 14.8217,86.556 33.1087,86.556 18.2847,0 26.2087,-38.752 26.2087,-86.556 0,-47.804 5.17914,-84.5894 -13.1055,-84.5894z"/>
  <path class="fil4" d="M1099.37 791.814c11.2158,11.6209 27.4784,20.4449 49.4729,22.5732 1.5626,0.15 4.85552,0.28937 8.57481,0.400394 6.48071,0.197244 13.3264,0.308268 16.3973,0.330709 28.3784,0.218504 45.7276,-7.50827 55.6619,-19.7327 19.5945,-24.1205 19.6748,-80.1284 0,-104.345 -9.93308,-12.228 -27.2835,-19.9536 -55.6619,-19.7351 -3.07087,0.0248032 -9.92009,0.134646 -16.4032,0.329528 -3.71693,0.113386 -7.00867,0.250394 -8.5689,0.401575 -23.1461,2.24173 -39.489,10.2106 -50.3433,21.4583 -26.5051,27.463 -25.1055,71.3953 0.870473,98.3186zm-117.501 31.9618c-18.2197,18.8788 -44.08,33.1571 -78.365,36.4784 -2.55118,0.244488 -6.92599,0.438189 -11.6433,0.579922 -6.21024,0.190158 -13.8142,0.302362 -17.4827,0.33189 -44.2311,0.340158 -73.1587,-14.0221 -91.5934,-36.7099 -33.4394,-41.1567 -33.4878,-121.269 0,-162.487 18.4347,-22.6878 47.3599,-37.0512 91.5934,-36.7087 3.67087,0.0283465 11.2772,0.140551 17.4886,0.328347 4.71496,0.142913 9.08505,0.335433 11.6374,0.582284 35.2323,3.41221 61.1115,16.5815 79.2355,35.3634 7.63111,7.90867 13.8862,16.6311 18.7878,25.8768l44.9587 0c4.90276,-9.24568 11.1567,-17.9681 18.7878,-25.8768 18.1252,-18.7819 44.0032,-31.9512 79.2355,-35.3634 2.55236,-0.246851 6.92245,-0.43937 11.6374,-0.582284 6.2126,-0.187795 13.8177,-0.3 17.4886,-0.328347 44.2335,-0.34252 73.1587,14.0209 91.5934,36.7087 33.4878,41.217 33.4394,121.331 0,162.487 -18.4347,22.6878 -47.3599,37.05 -91.5934,36.7099 -3.66851,-0.0295276 -11.2724,-0.141732 -17.4827,-0.33189 -4.71615,-0.141732 -9.09213,-0.335433 -11.6433,-0.579922 -34.2851,-3.32126 -60.1453,-17.5996 -78.365,-36.4784 -23.889,-24.7606 -34.9996,-57.8398 -32.7827,-90.1371l-18.7099 0c2.21693,32.2973 -8.89371,65.3764 -32.7827,90.1371zm-32.3551 -130.28c-10.852,-11.2476 -27.1973,-19.2166 -50.3433,-21.4583 -1.56024,-0.151181 -4.85197,-0.288189 -8.56772,-0.401575 -6.48426,-0.194882 -13.3335,-0.304725 -16.4043,-0.329528 -28.3784,-0.218504 -45.7288,7.50709 -55.6619,19.7351 -19.6748,24.2162 -19.5945,80.2241 0,104.345 9.93426,12.2244 27.2835,19.9512 55.6619,19.7327 3.07087,-0.022441 9.91654,-0.133465 16.3984,-0.330709 3.72048,-0.111024 7.01103,-0.250394 8.57363,-0.400394 62.9457,-6.09449 92.465,-77.2442 50.3433,-120.892z"/>
  <path class="fil4" d="M1277.06 687.412c-12.7654,0 -23.1142,10.3488 -23.1142,23.1142 0,12.763 10.3488,23.113 23.1142,23.113l18.2327 0c12.7642,0 23.113,-10.35 23.113,-23.113 0,-12.7654 -10.3488,-23.1142 -23.113,-23.1142l-18.2327 0zm-524.334 0c-12.763,0 -23.113,10.3488 -23.113,23.1142 0,12.763 10.35,23.113 23.113,23.113l18.2327 0c12.7665,0 23.1142,-10.35 23.1142,-23.113 0,-12.7654 -10.3476,-23.1142 -23.1142,-23.1142l-18.2327 0z"/>
  <g id="_374541296">
   <path id="_374542136" class="fil5" d="M1187.61 1360.72l7.08544 0c16.7965,0 28.1469,3.21378 34.0512,9.57875 5.90552,6.36378 8.85827,19.4858 8.85827,39.4311l0 46.6489c0,21.5197 2.75551,36.8729 8.3315,46.0583 5.57717,9.25158 15.4193,15.8776 29.5252,20.0114 -14.1059,3.93662 -23.948,10.4976 -29.5252,19.748 -5.57599,9.18544 -8.3315,24.5386 -8.3315,46.1244l0 46.3855c0,19.8803 -2.8878,33.0024 -8.66103,39.3662 -5.77323,6.29882 -16.6642,9.51379 -32.674,9.51379 -0.917717,0 -2.29606,-0.0661418 -4.26378,-0.197244 -1.90276,-0.131102 -3.34725,-0.196063 -4.39607,-0.196063l0 20.4047 9.05434 0c25.1941,0 42.3177,-4.65827 51.1748,-13.9099 8.92324,-9.2504 13.3854,-28.278 13.3854,-56.8843l0 -46.976c0,-19.7492 3.67323,-33.6579 10.9559,-41.7284 5.59607,-6.20079 14.2925,-10.0382 26.028,-11.4839l0 -20.9256c-11.7354,-1.44567 -20.4319,-5.28189 -26.028,-11.4839 -7.28268,-8.13544 -10.9559,-22.1103 -10.9559,-41.8595l0 -46.7138c0,-28.5402 -4.46221,-47.6327 -13.4504,-57.0804 -8.98938,-9.51379 -25.9819,-14.2382 -51.1099,-14.2382l-9.05434 0 0 20.4059z"/>
   <polygon id="_374541056" class="fil6" points="873.198,1437.4 1188.53,1437.4 1188.53,1469.4 873.198,1469.4 "/>
   <polygon id="_374541392" class="fil6" points="873.198,1505.95 1188.53,1505.95 1188.53,1537.95 873.198,1537.95 "/>
   <polygon id="_374541128" class="fil6" points="873.198,1574.5 1092.56,1574.5 1092.56,1606.5 873.198,1606.5 "/>
   <path id="_374541488" class="fil5" d="M860.399 1360.72l-7.08544 0c-16.7965,0 -28.1469,3.21378 -34.0512,9.57875 -5.90552,6.36378 -8.85827,19.4858 -8.85827,39.4311l0 46.6489c0,21.5197 -2.75551,36.8729 -8.3315,46.0583 -5.57717,9.25158 -15.4193,15.8776 -29.5252,20.0114 14.1059,3.93662 23.948,10.4976 29.5252,19.748 5.57599,9.18544 8.3315,24.5386 8.3315,46.1244l0 46.3855c0,19.8803 2.8878,33.0024 8.66103,39.3662 5.77323,6.29882 16.6642,9.51379 32.674,9.51379 0.917717,0 2.29606,-0.0661418 4.26378,-0.197244 1.90276,-0.131102 3.34725,-0.196063 4.39607,-0.196063l0 20.4047 -9.05434 0c-25.1941,0 -42.3177,-4.65827 -51.1748,-13.9099 -8.92324,-9.2504 -13.3854,-28.278 -13.3854,-56.8843l0 -46.976c0,-19.7492 -3.67441,-33.6579 -10.9559,-41.7284 -5.59607,-6.20079 -14.2925,-10.0382 -26.028,-11.4839l0 -20.9256c11.7354,-1.44567 20.4319,-5.28189 26.028,-11.4839 7.2815,-8.13544 10.9559,-22.1103 10.9559,-41.8595l0 -46.7138c0,-28.5402 4.46221,-47.6327 13.4504,-57.0804 8.98938,-9.51379 25.9819,-14.2382 51.1099,-14.2382l9.05434 0 0 20.4059z"/>
  </g>
  <path class="fil7" d="M870.864 1201.47c-9.27166,-5.77323 -17.6823,-12.0898 -25.1032,-18.8669 -2.45197,-2.24055 -4.79528,-4.53071 -7.02638,-6.86812 -8.07638,3.31063 -16.226,6.74174 -24.4264,10.2815 2.19921,3.37323 4.61693,6.67796 7.24253,9.91064 36.0532,44.387 111.214,74.9138 198.091,74.9138 89.2194,0 166.081,-32.1945 200.921,-78.5339 3.51614,-4.67599 6.60473,-9.49725 9.23387,-14.4437 -8.84646,-3.76418 -17.6268,-7.37481 -26.3138,-10.8189 -3.13229,3.93189 -6.57166,7.75158 -10.2969,11.4449 -4.86969,4.82835 -10.2295,9.44174 -16.0347,13.8142 -38.165,28.7421 -95.5973,47.0339 -159.839,47.0339 -22.4563,0 -44.0811,-2.23465 -64.3406,-6.37087 -27.9059,-5.69528 -53.2241,-14.9965 -74.5642,-27.0272 -2.57244,-1.45039 -5.08819,-2.94095 -7.54371,-4.46929z"/>
 </g>
 <rect class="fil8" width="2048" height="2048"/>
</svg>
