<?xml version="1.0" encoding="UTF-8"?>
<!DOCTYPE svg PUBLIC "-//W3C//DTD SVG 1.1//EN" "http://www.w3.org/Graphics/SVG/1.1/DTD/svg11.dtd">
<!-- Creator: CorelDRAW -->
<svg xmlns="http://www.w3.org/2000/svg" xml:space="preserve" width="2048px" height="2048px" style="shape-rendering:geometricPrecision; text-rendering:geometricPrecision; image-rendering:optimizeQuality; fill-rule:evenodd; clip-rule:evenodd"
viewBox="0 0 2048 2048"
 xmlns:xlink="http://www.w3.org/1999/xlink">
 <defs>
  <style type="text/css">
   <![CDATA[
    .fil24 {fill:none}
    .fil21 {fill:#004D40}
    .fil20 {fill:#00695C}
    .fil22 {fill:#00796B}
    .fil8 {fill:#00B8D4}
    .fil16 {fill:#253035}
    .fil9 {fill:#37474F}
    .fil11 {fill:#494F56}
    .fil3 {fill:#546E7A}
    .fil10 {fill:#555A61}
    .fil2 {fill:#78909C}
    .fil18 {fill:#7B838E}
    .fil4 {fill:#80DEEA}
    .fil17 {fill:#989FAA}
    .fil23 {fill:#00796B;fill-rule:nonzero}
    .fil0 {fill:#263238;fill-rule:nonzero}
    .fil12 {fill:#2A3541;fill-rule:nonzero}
    .fil1 {fill:#37474F;fill-rule:nonzero}
    .fil15 {fill:#49692E;fill-rule:nonzero}
    .fil19 {fill:#526072;fill-rule:nonzero}
    .fil7 {fill:#7CB342;fill-rule:nonzero}
    .fil13 {fill:#873636;fill-rule:nonzero}
    .fil14 {fill:#8E652D;fill-rule:nonzero}
    .fil5 {fill:#EF5350;fill-rule:nonzero}
    .fil6 {fill:#FFAB40;fill-rule:nonzero}
   ]]>
  </style>
 </defs>
 <g id="Layer_x0020_1">
  <metadata id="CorelCorpID_0Corel-Layer"/>
  <path class="fil0" d="M707.645 1585.56c0,67.8178 632.712,67.8178 632.712,0 0,-67.8178 -632.712,-67.8178 -632.712,0z"/>
  <path class="fil1" d="M1105.66 1357.05c0,-17.5465 -36.5599,-31.7705 -81.6556,-31.7705 -45.0957,0 -81.6568,14.224 -81.6568,31.7705l0 215.338c0,17.5453 36.5611,31.7705 81.6568,31.7705 45.0957,0 81.6556,-14.2252 81.6556,-31.7705l0 -215.338z"/>
  <path class="fil2" d="M287.77 411.578l1472.46 0c17.5465,0 31.7705,14.224 31.7705,31.7693l0 913.7c0,17.5453 -14.224,31.7693 -31.7705,31.7693l-1472.46 0c-17.5453,0 -31.7705,-14.224 -31.7705,-31.7693l0 -913.7c0,-17.5453 14.2252,-31.7693 31.7705,-31.7693z"/>
  <path class="fil3" d="M1792 1146.05l0 211.002c0,17.5453 -14.224,31.7693 -31.7705,31.7693l-1472.46 0c-17.5453,0 -31.7705,-14.224 -31.7705,-31.7693l0 -211.002 1536 0z"/>
  <polygon class="fil4" points="1728.46,475.118 319.54,475.118 319.54,1122.23 1728.46,1122.23 "/>
  <g id="_374549432">
   <polygon id="_374548928" class="fil5" points="1688.19,1247.29 1688.19,1287.57 1728.46,1287.57 1728.46,1247.29 "/>
   <polygon id="_374549288" class="fil6" points="1547.13,1287.57 1587.4,1287.57 1587.4,1247.29 1547.13,1247.29 "/>
   <polygon id="_374549096" class="fil7" points="1617.56,1247.29 1617.56,1287.57 1657.83,1287.57 1657.83,1247.29 "/>
  </g>
  <g id="_374548520">
   <circle id="_374548088" class="fil8" cx="1024" cy="1267.43" r="38.8388"/>
   <circle id="_374548064" class="fil9" cx="1024" cy="1267.43" r="33.0356"/>
  </g>
  <g id="_374544368">
   <g>
    <g>
     <path id="_374548472" class="fil10" d="M1149.15 636.599l0 258.301c0,5.29252 -4.29095,9.58347 -9.58347,9.58347l-440.834 0c-5.29252,0 -9.58347,-4.29095 -9.58347,-9.58347l0 -258.301 460.001 0z"/>
     <polygon id="_374548160" class="fil11" points="1149.15,636.599 1149.15,655.765 689.154,655.765 689.154,636.599 "/>
     <path id="_374548352" class="fil12" d="M698.737 540.765l440.834 0c5.29252,0 9.58347,4.29095 9.58347,9.58347l0 86.2501 -460.001 0 0 -86.2501c0,-5.29252 4.29095,-9.58347 9.58347,-9.58347z"/>
     <polygon id="_374547200" class="fil13" points="1072.53,569.026 1072.53,607.359 1110.87,607.359 1110.87,569.026 "/>
     <polygon id="_374547152" class="fil14" points="938.274,607.359 976.607,607.359 976.607,569.026 938.274,569.026 "/>
     <polygon id="_374547632" class="fil15" points="1005.31,569.026 1005.31,607.359 1043.64,607.359 1043.64,569.026 "/>
     <g>
      <polygon id="_374547512" class="fil16" points="981.118,823.46 981.118,809.634 1081.84,809.634 1081.84,823.46 "/>
      <polygon id="_374546504" class="fil16" points="877.732,804.36 942.662,770.378 877.732,736.688 877.732,717.624 959.723,761.319 959.723,779.22 877.732,823.46 "/>
      <polygon id="_374546528" class="fil16" points="838.458,823.46 756.467,779.22 756.467,761.319 838.458,717.624 838.458,736.688 773.442,770.378 838.458,804.36 "/>
     </g>
    </g>
    <g>
     <path id="_374547008" class="fil17" d="M1241.15 708.238l0 258.303c0,5.29252 -4.29095,9.58347 -9.58347,9.58347l-440.834 0c-5.29252,0 -9.58347,-4.29095 -9.58347,-9.58347l0 -258.303 460.001 0z"/>
     <polygon id="_374546648" class="fil18" points="1241.15,708.238 1241.15,727.404 781.153,727.404 781.153,708.238 "/>
     <path id="_374546600" class="fil19" d="M790.737 612.403l440.834 0c5.29252,0 9.58347,4.29095 9.58347,9.58347l0 86.2512 -460.001 0 0 -86.2512c0,-5.29252 4.29095,-9.58347 9.58347,-9.58347z"/>
     <polygon id="_374546216" class="fil5" points="1164.53,640.665 1164.53,678.997 1202.87,678.997 1202.87,640.665 "/>
     <polygon id="_374545880" class="fil6" points="1030.27,678.997 1068.61,678.997 1068.61,640.665 1030.27,640.665 "/>
     <polygon id="_374545856" class="fil7" points="1097.31,640.665 1097.31,678.997 1135.64,678.997 1135.64,640.665 "/>
     <g>
      <polygon id="_374546120" class="fil9" points="1073.12,895.099 1073.12,881.274 1173.84,881.274 1173.84,895.099 "/>
      <polygon id="_374546072" class="fil9" points="969.732,875.999 1034.66,842.017 969.732,808.327 969.732,789.263 1051.72,832.959 1051.72,850.859 969.732,895.099 "/>
      <polygon id="_374545568" class="fil9" points="930.458,895.099 848.467,850.859 848.467,832.959 930.458,789.263 930.458,808.327 865.442,842.017 930.458,875.999 "/>
     </g>
    </g>
   </g>
   <g>
    <g>
     <path id="_374545424" class="fil20" d="M1242.45 803.135c1.93347,3.87756 3.89528,8.39764 5.84646,12.8917 4.40079,10.1374 8.7378,20.126 12.0768,21.5386 3.40985,1.44213 13.8543,-2.75906 24.2705,-6.94843 6.13111,-2.46614 16.0618,-8.54528 21.9248,-2.76732 3.97441,3.21614 7.60867,6.47126 10.8862,9.75001 3.47953,3.47953 6.93544,7.36182 10.3465,11.6256l0.034252 -0.0283465c2.08347,2.60315 2.48858,6.00709 1.36181,8.9067 -1.30512,3.74528 -3.02835,8.02914 -4.75158,12.3142 -4.18937,10.4161 -8.39056,20.8606 -6.94843,24.2705 1.4126,3.33898 11.4012,7.67599 21.5374,12.078 5.94685,2.58071 17.863,5.64213 18.4323,13.5378 0.836221,7.29804 4.62048,35.726 -5.53937,39.9544 -3.87756,1.93228 -8.39764,3.89528 -12.8929,5.84646 -10.1362,4.40079 -20.1248,8.7378 -21.5374,12.0768 -1.44213,3.40985 2.75906,13.8532 6.94843,24.2693 1.77638,4.41615 3.5504,8.82875 4.86969,12.6532l0.00472441 -0.0011811c1.15394,3.34843 0.220866,6.91064 -2.10709,9.27284 -5.65867,6.99213 -21.1914,26.1567 -30.2599,22.6276 -3.7441,-1.30512 -8.0256,-3.02717 -12.3095,-4.7504 -10.4161,-4.18937 -20.8606,-8.38938 -24.2705,-6.94725 -3.33898,1.41142 -7.67599,11.4 -12.0768,21.5374 -2.58071,5.94567 -5.64331,17.863 -13.5378,18.4311 -9.79843,1.12441 -35.9634,4.05237 -39.9544,-5.53819 -1.93228,-3.87756 -3.89528,-8.39764 -5.84646,-12.8929 -4.40079,-10.1374 -8.7378,-20.126 -12.0768,-21.5374 -3.40985,-1.44213 -13.8543,2.75788 -24.2705,6.94843 -4.41496,1.7752 -8.82757,3.5504 -12.6532,4.86851l0.00236221 0.00590552c-3.34843,1.15276 -6.91182,0.220866 -9.27402,-2.10827 -3.97441,-3.21614 -7.60867,-6.47126 -10.8862,-9.75001 -4.5815,-4.58032 -14.661,-12.998 -11.7425,-20.5051 1.3063,-3.74764 3.02835,-8.02914 4.75276,-12.3154 4.18937,-10.415 8.38938,-20.8583 6.94725,-24.2681 -1.4126,-3.33898 -11.4012,-7.67599 -21.5374,-12.0768 -5.94685,-2.58189 -17.863,-5.64331 -18.4323,-13.539 -0.284646,-2.48386 -0.511418,-5.10473 -0.67441,-7.86615 -0.174803,-2.95276 -0.264567,-5.713 -0.264567,-8.26418 0,-2.55118 0.0897638,-5.31142 0.264567,-8.263 0.172441,-2.91733 0.415748,-5.67756 0.722835,-8.28662l-0.00826772 -0.0011811c0.396851,-3.35433 2.5878,-6.06024 5.49922,-7.27205 3.87756,-1.93347 8.39646,-3.89528 12.8929,-5.84764 10.1362,-4.40079 20.1248,-8.7378 21.5374,-12.0756 1.44213,-3.41103 -2.75906,-13.8543 -6.94843,-24.2705 -1.77638,-4.41496 -3.55158,-8.82875 -4.86969,-12.6532l-0.00472441 0.00236221c-1.15394,-3.34843 -0.220866,-6.91182 2.10709,-9.27402 3.21614,-3.97441 6.47245,-7.60867 9.75001,-10.8874 4.58032,-4.58032 12.998,-14.6599 20.5063,-11.7413 3.74646,1.3063 8.02914,3.02835 12.3154,4.75276 10.415,4.18937 20.8583,8.38938 24.2669,6.94725 3.34016,-1.4126 7.67717,-11.4012 12.078,-21.5386 5.04685,-11.6256 5.03032,-16.5071 14.7012,-18.3532 8.76615,-1.67362 35.0327,-3.56929 38.791,5.46142z"/>
     <path id="_374544944" class="fil21" d="M1218.85 866.226c19.3866,0 36.939,7.85906 49.6453,20.5642 12.7051,12.7063 20.5642,30.2587 20.5642,49.6453 0,19.3866 -7.85906,36.939 -20.5642,49.6441 -12.7063,12.7063 -30.2587,20.5654 -49.6453,20.5654 -19.3866,0 -36.939,-7.85906 -49.6453,-20.5654 -12.7051,-12.7051 -20.5642,-30.2575 -20.5642,-49.6441 0,-19.3866 7.85906,-36.939 20.5642,-49.6453 12.7063,-12.7051 30.2587,-20.5642 49.6453,-20.5642z"/>
     <path id="_374545448" class="fil22" d="M1218.85 902.508c9.36733,0 17.8488,3.79843 23.9894,9.9378 6.13937,6.14056 9.93662,14.6221 9.93662,23.9894 0,9.36733 -3.79725,17.8488 -9.93662,23.9882 -6.14056,6.13937 -14.6221,9.9378 -23.9894,9.9378 -9.36733,0 -17.8488,-3.79843 -23.9882,-9.9378 -6.14056,-6.13937 -9.9378,-14.6209 -9.9378,-23.9882 0,-9.36733 3.79725,-17.8488 9.9378,-23.9894 6.13937,-6.13937 14.6209,-9.9378 23.9882,-9.9378z"/>
    </g>
    <path id="_374544320" class="fil23" d="M1252.7 902.577c-4.4315,-4.4315 -9.69922,-7.99134 -15.528,-10.4055 -5.62323,-2.32914 -11.811,-3.61418 -18.3236,-3.61418 -6.5126,0 -12.7004,1.28504 -18.3236,3.61418 -5.82874,2.41418 -11.0965,5.97402 -15.528,10.4055 -4.4315,4.4315 -7.99134,9.69922 -10.4055,15.528 -2.32914,5.62323 -3.61536,11.811 -3.61536,18.3236 0,6.5126 1.28622,12.7016 3.61536,18.3236 2.41418,5.82993 5.97402,11.0965 10.4055,15.5291 4.4315,4.4315 9.69922,7.99134 15.528,10.4055 5.62323,2.32795 11.811,3.61418 18.3236,3.61418 6.5126,0 12.7004,-1.28622 18.3236,-3.61418 5.82874,-2.41418 11.0965,-5.97402 15.528,-10.4055 4.4315,-4.43268 7.99134,-9.69922 10.4055,-15.5291 2.32914,-5.62205 3.61536,-11.811 3.61536,-18.3236 0,-6.51142 -1.28622,-12.7004 -3.61536,-18.3236 -2.41418,-5.82874 -5.97402,-11.0965 -10.4055,-15.528zm-12.2303 -18.4311c6.95197,2.87953 13.1882,7.07835 18.3851,12.2764 5.19804,5.19685 9.39686,11.4331 12.2764,18.3851 2.76851,6.6815 4.29567,13.9854 4.29567,21.6213 0,7.63583 -1.52835,14.941 -4.29567,21.6225 -2.87953,6.95079 -7.07835,13.187 -12.2764,18.3851 -5.19685,5.19685 -11.4331,9.39568 -18.3851,12.2752 -6.6815,2.76732 -13.9854,4.29567 -21.6213,4.29567 -7.63583,0 -14.9398,-1.52835 -21.6213,-4.29567 -6.95197,-2.87953 -13.1882,-7.07835 -18.3851,-12.2752 -5.19804,-5.19804 -9.39686,-11.4343 -12.2764,-18.3851 -2.76732,-6.6815 -4.29449,-13.9866 -4.29449,-21.6225 0,-7.63583 1.52717,-14.9398 4.29449,-21.6213 2.87953,-6.95197 7.07835,-13.1882 12.2764,-18.3851 5.19685,-5.19804 11.4331,-9.39686 18.3851,-12.2764 6.6815,-2.76732 13.9854,-4.29449 21.6213,-4.29449 7.63583,0 14.9398,1.52717 21.6213,4.29449z"/>
   </g>
  </g>
 </g>
 <rect class="fil24" width="2048" height="2048"/>
</svg>
