<?xml version="1.0" encoding="UTF-8"?>
<!DOCTYPE svg PUBLIC "-//W3C//DTD SVG 1.1//EN" "http://www.w3.org/Graphics/SVG/1.1/DTD/svg11.dtd">
<!-- Creator: CorelDRAW -->
<svg xmlns="http://www.w3.org/2000/svg" xml:space="preserve" width="2048px" height="2048px" style="shape-rendering:geometricPrecision; text-rendering:geometricPrecision; image-rendering:optimizeQuality; fill-rule:evenodd; clip-rule:evenodd"
viewBox="0 0 2048 2048"
 xmlns:xlink="http://www.w3.org/1999/xlink">
 <defs>
  <style type="text/css">
   <![CDATA[
    .fil8 {fill:none}
    .fil4 {fill:#03A9F4}
    .fil7 {fill:#455A64}
    .fil6 {fill:#8BC34A}
    .fil2 {fill:#C9B8A6}
    .fil3 {fill:#EF5350}
    .fil1 {fill:#FEE8CD}
    .fil5 {fill:#FFB300}
    .fil0 {fill:#DACAB1;fill-rule:nonzero}
   ]]>
  </style>
 </defs>
 <g id="Layer_x0020_1">
  <metadata id="CorelCorpID_0Corel-Layer"/>
  <path class="fil0" d="M637.552 447.509c0,-32.5925 30.5374,-59.0339 68.1804,-59.0339 197.725,0 376.598,41.5382 574.102,3.1252l-0.511418 -0.461811 0.676772 -101.913c0,-21.3307 -15.6236,-33.2268 -57.3567,-33.2268l-820.534 0c-18.828,0 -34.0914,14.0351 -34.0914,31.3477l0 1347.92c0,17.3114 15.2634,31.3477 34.0914,31.3477l231.96 0c0,-431.315 3.48189,-825.664 3.48189,-1219.11z"/>
  <path class="fil1" d="M669.419 381.385l642.583 0 0.7063 330.883 330.49 -0.651969 0 1049.04c0,17.3126 -14.0362,31.3477 -31.3477,31.3477l-942.432 0c-17.3126,0 -31.3477,-14.0351 -31.3477,-31.3477l0 -1347.92c0,-17.3114 14.0351,-31.3477 31.3477,-31.3477z"/>
  <polygon class="fil2" points="1312.67,381.297 1643.29,711.91 1312.67,711.91 "/>
  <g id="_374550632">
   <path id="_374550464" class="fil3" d="M814.034 1207.27c10.474,5.3941 19.6512,12.9012 25.9819,23.3669 11.0516,18.2669 12.6827,47.1603 12.6827,67.9784l0 64.2461c0,12.5776 0.851575,39.2386 9.92954,49.193 8.49331,9.313 27.7772,10.5957 39.4087,10.5957 1.77284,0 3.60355,-0.134646 5.37166,-0.253937 2.19449,-0.148819 4.42441,-0.290551 6.62363,-0.290551l7.91221 0 0 44.0847 -20.4532 0c-24.4618,0 -58.5402,-2.91851 -76.5851,-21.6945 -18.5906,-19.3465 -20.7449,-59.0563 -20.7449,-84.2694l0 -65.0646c0,-16.0335 -1.78347,-39.913 -13.1374,-52.4941 -7.73386,-8.57127 -20.0752,-11.9906 -31.1421,-13.3536l-6.94489 -0.855119 0 -42.978 6.94489 -0.855119c11.0457,-1.35945 23.4248,-4.76693 31.1315,-13.3406 11.3599,-12.639 13.148,-36.6036 13.148,-52.689l0 -64.7008c0,-25.4327 2.21339,-64.8981 20.7992,-84.5032 18.1536,-19.1469 51.743,-22.187 76.5308,-22.187l20.4532 0 0 44.0847 -17.726 0c-11.9634,0 -32.5418,1.22953 -41.3634,10.7374 -9.27048,9.98977 -10.1563,36.5362 -10.1563,49.2331l0 64.6099c0,20.798 -1.64291,49.6394 -12.6827,67.8886 -6.33189,10.4669 -15.5173,18.0225 -25.9819,23.511zm653.202 0c-10.4658,-5.48859 -19.6512,-13.0441 -25.9831,-23.511 -11.0398,-18.2492 -12.6827,-47.0906 -12.6827,-67.8886l0 -64.6099c0,-12.6969 -0.885827,-39.2433 -10.1563,-49.2331 -8.82166,-9.50788 -29.4,-10.7374 -41.3634,-10.7374l-17.726 0 0 -44.0847 20.4532 0c24.7878,0 58.3772,3.04016 76.5308,22.187 18.587,19.6051 20.7992,59.0705 20.7992,84.5032l0 64.7008c0,16.0854 1.78819,40.05 13.148,52.689 7.7067,8.57363 20.087,11.9811 31.1315,13.3406l6.94489 0.855119 0 42.978 -6.94489 0.855119c-11.0669,1.36299 -23.4071,4.78229 -31.1421,13.3536 -11.3539,12.5811 -13.1374,36.4607 -13.1374,52.4941l0 65.0646c0,25.213 -2.15315,64.9229 -20.7449,84.2694 -18.0449,18.776 -52.1233,21.6945 -76.5851,21.6945l-20.4532 0 0 -44.0847 7.91221 0c2.19921,0 4.42914,0.141732 6.62363,0.290551 1.76811,0.119291 3.59882,0.253937 5.37166,0.253937 11.6315,0 30.9154,-1.28268 39.4087,-10.5957 9.07796,-9.95434 9.92954,-36.6154 9.92954,-49.193l0 -64.2461c0,-20.8181 1.6311,-49.7115 12.6827,-67.9784 6.33189,-10.4658 15.5079,-17.9728 25.9831,-23.3669z"/>
   <polygon id="_374550896" class="fil4" points="1228.53,1307.86 1228.53,1267.67 1385.91,1267.67 1385.91,1307.86 "/>
   <polygon id="_374550656" class="fil5" points="905.493,1206.43 990.303,1262.01 990.303,1314.85 859.247,1226.18 859.247,1186.21 990.303,1098.64 990.303,1151.33 "/>
   <polygon id="_374550584" class="fil6" points="1217.43,1206.43 1132.72,1151.33 1132.72,1098.64 1263.78,1186.21 1263.78,1226.18 1132.72,1314.85 1132.72,1262.02 "/>
   <polygon id="_374550752" class="fil7" points="1136.49,1044.61 1032.38,1381.02 986.541,1368.77 1090.65,1032.37 "/>
  </g>
 </g>
 <rect class="fil8" width="2048" height="2048"/>
</svg>
