<?xml version="1.0" encoding="UTF-8"?>
<!DOCTYPE svg PUBLIC "-//W3C//DTD SVG 1.1//EN" "http://www.w3.org/Graphics/SVG/1.1/DTD/svg11.dtd">
<!-- Creator: CorelDRAW -->
<svg xmlns="http://www.w3.org/2000/svg" xml:space="preserve" width="2048px" height="2048px" style="shape-rendering:geometricPrecision; text-rendering:geometricPrecision; image-rendering:optimizeQuality; fill-rule:evenodd; clip-rule:evenodd"
viewBox="0 0 2048 2048"
 xmlns:xlink="http://www.w3.org/1999/xlink">
 <defs>
  <style type="text/css">
   <![CDATA[
    .fil22 {fill:none}
    .fil6 {fill:#1B2327}
    .fil7 {fill:#20302A}
    .fil14 {fill:#253035}
    .fil1 {fill:#353A3E}
    .fil21 {fill:#37474F}
    .fil0 {fill:#3E4246}
    .fil9 {fill:#494F56}
    .fil8 {fill:#555A61}
    .fil16 {fill:#7B838E}
    .fil15 {fill:#989FAA}
    .fil2 {fill:#1F2730;fill-rule:nonzero}
    .fil10 {fill:#2A3541;fill-rule:nonzero}
    .fil5 {fill:#354D21;fill-rule:nonzero}
    .fil13 {fill:#49692E;fill-rule:nonzero}
    .fil17 {fill:#526072;fill-rule:nonzero}
    .fil3 {fill:#632828;fill-rule:nonzero}
    .fil4 {fill:#684A21;fill-rule:nonzero}
    .fil20 {fill:#7CB342;fill-rule:nonzero}
    .fil11 {fill:#873636;fill-rule:nonzero}
    .fil12 {fill:#8E652D;fill-rule:nonzero}
    .fil18 {fill:#EF5350;fill-rule:nonzero}
    .fil19 {fill:#FFAB40;fill-rule:nonzero}
   ]]>
  </style>
 </defs>
 <g id="Layer_x0020_1">
  <metadata id="CorelCorpID_0Corel-Layer"/>
  <g id="_374551784">
   <g>
    <path id="_374556872" class="fil0" d="M1792 686.245l0 581.054c0,11.9055 -9.65316,21.5575 -21.5587,21.5575l-991.663 0c-11.9055,0 -21.5587,-9.65198 -21.5587,-21.5575l0 -581.054 1034.78 0z"/>
    <polygon id="_374555768" class="fil1" points="1792,686.245 1792,729.357 757.221,729.357 757.221,686.245 "/>
    <path id="_374555744" class="fil2" d="M778.779 470.663l991.663 0c11.9055,0 21.5587,9.65316 21.5587,21.5587l0 194.021 -1034.78 0 0 -194.021c0,-11.9055 9.65316,-21.5587 21.5587,-21.5587z"/>
    <polygon id="_374556272" class="fil3" points="1619.64,534.237 1619.64,620.467 1705.87,620.467 1705.87,534.237 "/>
    <polygon id="_374555720" class="fil4" points="1317.62,620.467 1403.85,620.467 1403.85,534.237 1317.62,534.237 "/>
    <polygon id="_374555672" class="fil5" points="1468.41,534.237 1468.41,620.467 1554.64,620.467 1554.64,534.237 "/>
    <g>
     <polygon id="_374555192" class="fil6" points="1414,1106.59 1414,1075.49 1640.58,1075.49 1640.58,1106.59 "/>
     <polygon id="_374554832" class="fil6" points="1181.43,1063.62 1327.49,987.183 1181.43,911.396 1181.43,868.51 1365.87,966.804 1365.87,1007.07 1181.43,1106.59 "/>
     <polygon id="_374555024" class="fil7" points="1093.08,1106.59 908.643,1007.07 908.643,966.804 1093.08,868.51 1093.08,911.396 946.828,987.183 1093.08,1063.62 "/>
    </g>
   </g>
   <g>
    <path id="_374554904" class="fil8" d="M1290.78 849.949l0 581.054c0,11.9067 -9.65198,21.5587 -21.5587,21.5587l-991.663 0c-11.9055,0 -21.5587,-9.65198 -21.5587,-21.5587l0 -581.054 1034.78 0z"/>
    <polygon id="_374554304" class="fil9" points="1290.78,849.949 1290.78,893.063 255.998,893.063 255.998,849.949 "/>
    <path id="_374554808" class="fil10" d="M277.557 634.368l991.663 0c11.9067,0 21.5587,9.65316 21.5587,21.5587l0 194.021 -1034.78 0 0 -194.021c0,-11.9055 9.65316,-21.5587 21.5587,-21.5587z"/>
    <polygon id="_374554352" class="fil11" points="1118.42,697.942 1118.42,784.172 1204.65,784.172 1204.65,697.942 "/>
    <polygon id="_374554568" class="fil12" points="816.399,784.172 902.63,784.172 902.63,697.942 816.399,697.942 "/>
    <polygon id="_374554544" class="fil13" points="967.188,697.942 967.188,784.172 1053.42,784.172 1053.42,697.942 "/>
    <g>
     <polygon id="_374553464" class="fil14" points="912.778,1270.3 912.778,1239.2 1139.36,1239.2 1139.36,1270.3 "/>
     <polygon id="_374553656" class="fil14" points="680.209,1227.33 826.27,1150.89 680.209,1075.1 680.209,1032.22 864.648,1130.51 864.648,1170.78 680.209,1270.3 "/>
     <polygon id="_374553608" class="fil14" points="591.86,1270.3 407.42,1170.78 407.42,1130.51 591.86,1032.22 591.86,1075.1 445.605,1150.89 591.86,1227.33 "/>
    </g>
   </g>
   <g>
    <path id="_374553680" class="fil15" d="M1497.73 974.723l0 581.054c0,11.9067 -9.65198,21.5587 -21.5587,21.5587l-991.663 0c-11.9055,0 -21.5587,-9.65198 -21.5587,-21.5587l0 -581.054 1034.78 0z"/>
    <polygon id="_374553800" class="fil16" points="1497.73,974.723 1497.73,1017.84 462.954,1017.84 462.954,974.723 "/>
    <path id="_374552720" class="fil17" d="M484.512 759.142l991.663 0c11.9067,0 21.5587,9.65316 21.5587,21.5587l0 194.021 -1034.78 0 0 -194.021c0,-11.9055 9.65316,-21.5587 21.5587,-21.5587z"/>
    <polygon id="_374553128" class="fil18" points="1325.37,822.716 1325.37,908.946 1411.6,908.946 1411.6,822.716 "/>
    <polygon id="_374553200" class="fil19" points="1023.35,908.946 1109.59,908.946 1109.59,822.716 1023.35,822.716 "/>
    <polygon id="_374552576" class="fil20" points="1174.14,822.716 1174.14,908.946 1260.37,908.946 1260.37,822.716 "/>
    <g>
     <polygon id="_374552552" class="fil21" points="1119.73,1395.07 1119.73,1363.97 1346.31,1363.97 1346.31,1395.07 "/>
     <polygon id="_374552168" class="fil21" points="887.164,1352.1 1033.23,1275.66 887.164,1199.88 887.164,1156.99 1071.6,1255.28 1071.6,1295.55 887.164,1395.07 "/>
     <polygon id="_374551880" class="fil21" points="798.816,1395.07 614.376,1295.55 614.376,1255.28 798.816,1156.99 798.816,1199.88 652.561,1275.66 798.816,1352.1 "/>
    </g>
   </g>
  </g>
 </g>
 <rect class="fil22" width="2048" height="2048"/>
</svg>
