<?xml version="1.0" encoding="UTF-8"?>
<!DOCTYPE svg PUBLIC "-//W3C//DTD SVG 1.1//EN" "http://www.w3.org/Graphics/SVG/1.1/DTD/svg11.dtd">
<!-- Creator: CorelDRAW -->
<svg xmlns="http://www.w3.org/2000/svg" xml:space="preserve" width="2048px" height="2048px" style="shape-rendering:geometricPrecision; text-rendering:geometricPrecision; image-rendering:optimizeQuality; fill-rule:evenodd; clip-rule:evenodd"
viewBox="0 0 2048 2048"
 xmlns:xlink="http://www.w3.org/1999/xlink">
 <defs>
  <style type="text/css">
   <![CDATA[
    .fil6 {fill:none}
    .fil0 {fill:#1565C0}
    .fil3 {fill:#2973C6}
    .fil2 {fill:#80B946}
    .fil1 {fill:#8BC34A}
    .fil5 {fill:#D23633}
    .fil4 {fill:#E53935}
   ]]>
  </style>
 </defs>
 <g id="Layer_x0020_1">
  <metadata id="CorelCorpID_0Corel-Layer"/>
  <path class="fil0" d="M1590.23 908.911l0 1.87205 -255.288 -0.951969c-0.791339,-0.00354331 -1.81772,-0.0472441 -2.66221,0.0177165 -0.230315,0.145276 -0.36378,0.399213 -0.35315,0.673229l32.6859 114.406c10.0252,35.0894 0.398032,68.6327 -30.1807,89.6198 -23.791,16.3288 -54.8233,22.9406 -83.3363,22.9406 -28.513,0 -59.5465,-6.61182 -83.3363,-22.9406 -30.5788,-20.9882 -40.2059,-54.5304 -30.1807,-89.6198l32.3091 -113.085c0.121654,-0.427559 0.295276,-0.999213 0.367323,-1.46811 -0.0366142,-0.242126 -0.18189,-0.442914 -0.386221,-0.553937l-258.003 0.961418 0.158268 -82.3512c0.0614174,-32.0752 -0.335433,-64.1304 -0.562205,-96.202 -0.178347,-25.1185 -0.276378,-50.354 0.892914,-75.4501 0.0188977,-0.414567 0.0519685,-1.01693 0.00354331,-1.46221 -0.127559,-0.291733 -0.414567,-0.466536 -0.726379,-0.454725l-112.833 32.2347c-35.0906,10.0252 -68.6339,0.398032 -89.6209,-30.1807 -11.8181,-17.2193 -18.5457,-38.2323 -21.3614,-59.3374l-1.67599 0 0 -23.9988c0,-28.5496 6.69567,-59.5229 23.0386,-83.3351 20.987,-30.5788 54.5304,-40.2048 89.6198,-30.1796l111.495 31.8555c0.434646,0.124016 1.01221,0.298819 1.48583,0.373229 0.244488,-0.0366142 0.446457,-0.180709 0.558662,-0.386221l0 -0.379134c-0.0838583,-65.6103 -0.22441,-131.219 -0.351969,-196.828l-0.119291 -61.6063 2.53701 -0.00944883 1.00984 -0.00354331 227.682 -0.849213 0 0.185433 25.337 0 -32.315 113.106c-10.7965,37.7894 -1.45866,69.0142 30.9319,91.245 23.7768,16.3193 55.5048,23.224 84.0438,23.224 28.5402,0 60.2682,-6.90591 84.0449,-23.2252 32.3906,-22.2295 41.7284,-53.4544 30.9319,-91.2438l-32.3173 -113.106 25.3394 0 0 -0.185433 231.137 0.862205 0 253.112 -111.161 -31.7575c-37.7894,-10.7953 -69.013,-1.46102 -91.2438,30.9296 -16.3193,23.7768 -23.2252,55.5059 -23.2252,84.0449 0,28.539 6.90591,60.2682 23.2252,84.0449 22.2307,32.3906 53.4532,41.7296 91.2438,30.9319l111.161 -31.7622 0 256.108 0 0.165354z"/>
  <g id="_374557136">
   <path id="_374558216" class="fil1" d="M911.911 1587.48l0 1.87205 255.288 -0.951969c0.791339,-0.00354331 1.81772,-0.0472441 2.66221,0.0177165 0.230315,0.145276 0.36378,0.399213 0.35315,0.673229l-32.6859 114.406c-10.0252,35.0894 -0.398032,68.6327 30.1807,89.6198 23.791,16.3288 54.8233,22.9406 83.3363,22.9406 28.513,0 59.5465,-6.61182 83.3363,-22.9406 30.5788,-20.9882 40.2059,-54.5304 30.1807,-89.6198l-32.3091 -113.085c-0.121654,-0.427559 -0.295276,-0.999213 -0.367323,-1.46811 0.0366142,-0.242126 0.18189,-0.442914 0.386221,-0.553937l258.003 0.961418 -0.158268 -82.3512c-0.0614174,-32.0752 0.335433,-64.1304 0.562205,-96.202 0.178347,-25.1185 0.276378,-50.354 -0.892914,-75.4501 -0.0188977,-0.414567 -0.0519685,-1.01693 -0.00354331,-1.46221 0.127559,-0.291733 0.414567,-0.466536 0.726379,-0.454725l112.833 32.2347c35.0906,10.0252 68.6339,0.398032 89.6209,-30.1807 11.8181,-17.2193 18.5457,-38.2323 21.3614,-59.3374l1.67599 0 0 -23.9988c0,-28.5496 -6.69567,-59.5229 -23.0386,-83.3351 -20.987,-30.5788 -54.5304,-40.2048 -89.6198,-30.1796l-111.495 31.8555c-0.434646,0.124016 -1.01221,0.298819 -1.48583,0.373229 -0.244488,-0.0366142 -0.446457,-0.180709 -0.558662,-0.386221l0 -0.379134c0.0838583,-65.6103 0.22441,-131.219 0.351969,-196.828l0.119291 -61.6063 -2.53701 -0.00944883 -675.826 675.826z"/>
   <path id="_374557232" class="fil2" d="M1359.04 910.986l-25.337 0 32.315 113.106c10.7965,37.7894 1.45866,69.0142 -30.9319,91.245 -23.7768,16.3193 -55.5048,23.224 -84.0438,23.224 -28.5402,0 -60.2682,-6.90591 -84.0449,-23.2252 -32.3906,-22.2295 -41.7284,-53.4544 -30.9319,-91.2438l32.3173 -113.106 -25.3394 0 0 -0.185433 -231.137 0.862205 0 253.112 111.161 -31.7575c37.7894,-10.7953 69.013,-1.46102 91.2438,30.9296 16.3193,23.7768 23.2252,55.5059 23.2252,84.0449 0,28.539 -6.90591,60.2682 -23.2252,84.0449 -22.2307,32.3906 -53.4532,41.7296 -91.2438,30.9319l-111.161 -31.7622 0 256.108 0 0.165354 675.826 -675.826 -1.00984 -0.00354331 -227.682 -0.849213 0 0.185433z"/>
  </g>
  <path class="fil0" d="M1590.23 908.485l0 1.87205 -255.288 -0.951969c-0.791339,-0.00354331 -1.81772,-0.0472441 -2.66221,0.0177165 -0.230315,0.145276 -0.36378,0.399213 -0.35315,0.673229l32.6859 114.406c10.0252,35.0894 0.398032,68.6327 -30.1807,89.6198 -23.791,16.3288 -54.8233,22.9406 -83.3363,22.9406 -28.513,0 -59.5465,-6.61182 -83.3363,-22.9406 -30.5788,-20.9882 -40.2059,-54.5304 -30.1807,-89.6198l32.3091 -113.085c0.121654,-0.427559 0.295276,-0.999213 0.367323,-1.46811 -0.0366142,-0.242126 -0.18189,-0.442914 -0.386221,-0.553937l-258.003 0.961418 0.158268 -82.3512c0.0614174,-32.0752 -0.335433,-64.1304 -0.562205,-96.202 -0.178347,-25.1185 -0.276378,-50.354 0.892914,-75.4501 0.0188977,-0.414567 0.0519685,-1.01693 0.00354331,-1.46221 -0.127559,-0.291733 -0.414567,-0.466536 -0.726379,-0.454725l-112.833 32.2347c-35.0906,10.0252 -68.6339,0.398032 -89.6209,-30.1807 -11.8181,-17.2193 -18.5457,-38.2323 -21.3614,-59.3374l-1.67599 0 0 -23.9988c0,-28.5496 6.69567,-59.5229 23.0386,-83.3351 20.987,-30.5788 54.5304,-40.2048 89.6198,-30.1796l111.495 31.8555c0.434646,0.124016 1.01221,0.298819 1.48583,0.373229 0.244488,-0.0366142 0.446457,-0.180709 0.558662,-0.386221l0 -0.379134c-0.0838583,-65.6103 -0.22441,-131.219 -0.351969,-196.828l-0.119291 -61.6063 2.53701 -0.00944883 675.826 675.826z"/>
  <path class="fil3" d="M1143.1 231.991l25.337 0 -32.315 113.106c-10.7965,37.7894 -1.45866,69.0142 30.9319,91.245 23.7768,16.3193 55.5048,23.224 84.0438,23.224 28.5402,0 60.2682,-6.90591 84.0449,-23.2252 32.3906,-22.2295 41.7284,-53.4544 30.9319,-91.2438l-32.3173 -113.106 25.3394 0 0 -0.185433 231.137 0.862205 0 253.112 -111.161 -31.7575c-37.7894,-10.7953 -69.013,-1.46102 -91.2438,30.9296 -16.3193,23.7768 -23.2252,55.5059 -23.2252,84.0449 0,28.539 6.90591,60.2682 23.2252,84.0449 22.2307,32.3906 53.4532,41.7296 91.2438,30.9319l111.161 -31.7622 0 256.108 0 0.165354 -675.826 -675.826 1.00984 -0.00354331 227.682 -0.849213 0 0.185433z"/>
  <g id="_374557496">
   <path id="_374557880" class="fil4" d="M681.391 905.363l-25.337 0 32.315 113.106c10.7965,37.7894 1.45866,69.0142 -30.9319,91.245 -23.7768,16.3193 -55.5048,23.224 -84.0438,23.224 -28.5402,0 -60.2682,-6.90591 -84.0449,-23.2252 -32.3906,-22.2295 -41.7284,-53.4544 -30.9319,-91.2438l32.3173 -113.106 -25.3394 0 0 -0.185433 -231.137 0.862205 0 253.112 111.161 -31.7575c37.7894,-10.7953 69.013,-1.46102 91.2438,30.9296 16.3193,23.7768 23.2252,55.5059 23.2252,84.0449 0,28.539 -6.90591,60.2682 -23.2252,84.0449 -22.2307,32.3906 -53.4532,41.7296 -91.2438,30.9319l-111.161 -31.7622 0 256.108 0 0.165354 0 1.87205 255.288 -0.951969c0.791339,-0.00354331 1.81772,-0.0472441 2.66221,0.0177165 0.230315,0.145276 0.36378,0.399213 0.35315,0.673229l-32.6859 114.406c-10.0252,35.0894 -0.398032,68.6327 30.1807,89.6198 23.791,16.3288 54.8233,22.9406 83.3363,22.9406 28.513,0 59.5465,-6.61182 83.3363,-22.9406 30.5788,-20.9882 40.2059,-54.5304 30.1807,-89.6198l-32.3091 -113.085c-0.121654,-0.427559 -0.295276,-0.999213 -0.367323,-1.46811 0.0366142,-0.242126 0.18189,-0.442914 0.386221,-0.553937l258.003 0.961418 -0.158268 -82.3512c-0.0614174,-32.0752 0.335433,-64.1304 0.562205,-96.202 0.178347,-25.1185 0.276378,-50.354 -0.892914,-75.4501 -0.0188977,-0.414567 -0.0519685,-1.01693 -0.00354331,-1.46221 0.127559,-0.291733 0.414567,-0.466536 0.726379,-0.454725l112.833 32.2347c35.0906,10.0252 68.6339,0.398032 89.6209,-30.1807 11.8181,-17.2193 18.5457,-38.2323 21.3614,-59.3374l1.67599 0 0 -23.9988c0,-28.5496 -6.69567,-59.5229 -23.0386,-83.3351 -20.987,-30.5788 -54.5304,-40.2048 -89.6198,-30.1796l-111.495 31.8555c-0.434646,0.124016 -1.01221,0.298819 -1.48583,0.373229 -0.244488,-0.0366142 -0.446457,-0.180709 -0.558662,-0.386221l0 -0.379134c0.0838583,-65.6103 0.22441,-131.219 0.351969,-196.828l0.119291 -61.6063 -2.53701 -0.00944883 -1.00984 -0.00354331 -227.682 -0.849213 0 0.185433z"/>
   <path id="_374557448" class="fil5" d="M234.564 906.038l677.659 677.659 0.0295276 0.0295276 0.369685 0.0011811 -0.158268 -82.3512c-0.0614174,-32.0752 0.335433,-64.1304 0.562205,-96.202 0.173622,-24.4158 0.270473,-48.9414 -0.797245,-73.343 -0.0307087,-0.702756 -0.0625985,-1.40433 -0.0956694,-2.10709 -0.0188977,-0.414567 -0.0519685,-1.01693 -0.00354331,-1.46221 0.127559,-0.291733 0.414567,-0.466536 0.726379,-0.454725l112.833 32.2347c35.0906,10.0252 68.6339,0.398032 89.6209,-30.1807 9.18308,-13.3795 15.2917,-29.0492 18.8811,-45.2729 1.02992,-4.65591 1.85197,-9.35788 2.48032,-14.0646l1.67599 0 0 -23.9988c0,-28.5496 -6.69567,-59.5229 -23.0386,-83.3351 -20.9351,-30.5044 -54.3662,-40.1575 -89.3623,-30.2528 -0.0862205,0.0248032 -0.17126,0.0484252 -0.257481,0.0732284l-111.495 31.8555c-0.376772,0.10748 -0.861024,0.252756 -1.29213,0.338977 -0.0661418,0.0129921 -0.131102,0.0248032 -0.193701,0.034252 -0.198425,-0.0295276 -0.368504,-0.129921 -0.485433,-0.276378 -0.0271654,-0.034252 -0.0519685,-0.0708662 -0.0732284,-0.109843l0 -0.379134c0.0212599,-16.5638 0.046063,-33.1264 0.0732284,-49.6902 0.080315,-49.0465 0.183071,-98.0918 0.27874,-147.138l0.10748 -55.3595 0.00236221 -1.3063 -0.434646 0.0011811 0.00944883 -4.94292 -2.10236 -0.00826772 -1.00984 -0.00354331 -227.682 -0.849213 0 0.185433 -25.337 0 32.315 113.106c10.7965,37.7894 1.45866,69.0142 -30.9319,91.245 -23.7768,16.3193 -55.5048,23.224 -84.0438,23.224 -28.5402,0 -60.2682,-6.90591 -84.0449,-23.2252 -32.3906,-22.2295 -41.7284,-53.4544 -30.9319,-91.2438l32.3173 -113.106 -25.3394 0 0 -0.185433 -230.831 0.861024z"/>
  </g>
 </g>
 <rect class="fil6" width="2048" height="2048"/>
</svg>
