<?xml version="1.0" encoding="UTF-8"?>
<!DOCTYPE svg PUBLIC "-//W3C//DTD SVG 1.1//EN" "http://www.w3.org/Graphics/SVG/1.1/DTD/svg11.dtd">
<!-- Creator: CorelDRAW -->
<svg xmlns="http://www.w3.org/2000/svg" xml:space="preserve" width="2048px" height="2048px" style="shape-rendering:geometricPrecision; text-rendering:geometricPrecision; image-rendering:optimizeQuality; fill-rule:evenodd; clip-rule:evenodd"
viewBox="0 0 2048 2048"
 xmlns:xlink="http://www.w3.org/1999/xlink">
 <defs>
  <style type="text/css">
   <![CDATA[
    .fil4 {fill:none}
    .fil5 {fill:#1F292D}
    .fil3 {fill:#263238}
    .fil1 {fill:#455A64}
    .fil6 {fill:#75CAF6}
    .fil2 {fill:#80D8FF}
    .fil8 {fill:#FF6F00}
    .fil0 {fill:#37474F;fill-rule:nonzero}
    .fil7 {fill:#FF6F00;fill-rule:nonzero}
   ]]>
  </style>
 </defs>
 <g id="Layer_x0020_1">
  <metadata id="CorelCorpID_0Corel-Layer"/>
  <g id="_374560736">
   <path id="_374562008" class="fil0" d="M574.75 850.216l3.57048 -362.919c0.0755906,-6.7878 2.96221,-13.0618 7.58977,-17.6882 4.42559,-4.42559 10.4787,-7.17048 17.1484,-7.17048l931.882 0c6.73938,0 12.8882,2.77914 17.3646,7.25552 4.4752,4.4752 7.25552,10.624 7.25552,17.3622l0 776.991c0,6.39567 -3.34488,12.7453 -8.46615,17.6906 -5.59134,5.4 -12.8823,8.85591 -20.1118,8.85591l-823.235 0 0 61.7587 993.066 0c23.5595,0 46.2508,-10.2331 62.8111,-26.2276 16.65,-16.0807 27.5244,-38.2146 27.5244,-62.0776l0 -776.991c0,-23.7851 -9.70867,-45.3863 -25.3488,-61.0276 -15.6414,-15.6402 -37.2437,-25.3488 -61.03,-25.3488l-1163.47 0c-23.7662,0 -45.2221,9.67324 -60.8138,25.265 -15.502,15.5008 -25.1752,37.0536 -25.441,60.8693l-3.57638 363.402 123.279 0z"/>
   <g>
    <path id="_374561048" class="fil1" d="M341.706 819.659l315.623 0c23.3811,0 44.6044,9.53268 59.9611,24.8929 15.3602,15.3567 24.8929,36.5799 24.8929,59.9623l0 657.95c0,23.3788 -9.53268,44.6044 -24.8929,59.9646 -15.3579,15.3579 -36.5799,24.8929 -59.9611,24.8929l-315.623 0c-23.3788,0 -44.6044,-9.53623 -59.9646,-24.8929 -15.3543,-15.3602 -24.8906,-36.5859 -24.8906,-59.9646l0 -657.95c0,-23.3764 9.53505,-44.6055 24.8906,-59.9623 15.3602,-15.3567 36.5859,-24.8929 59.9646,-24.8929z"/>
    <polygon id="_374561504" class="fil2" points="697.912,918.739 301.119,918.739 301.119,1471.4 697.912,1471.4 "/>
    <path id="_374561432" class="fil3" d="M499.515 1511.28c19.8095,0 35.8748,16.0618 35.8748,35.8725 0,19.8118 -16.0654,35.8713 -35.8748,35.8713 -19.8083,0 -35.8701,-16.0595 -35.8701,-35.8713 0,-19.8106 16.0618,-35.8725 35.8701,-35.8725z"/>
    <path id="_374561264" class="fil3" d="M458.152 865.735c-5.92205,0 -10.7232,4.80118 -10.7232,10.7221 0,5.92323 4.80118,10.7232 10.7232,10.7232l82.7292 0c5.92087,0 10.7221,-4.8 10.7221,-10.7232 0,-5.92087 -4.80118,-10.7221 -10.7221,-10.7221l-82.7292 0z"/>
   </g>
   <path id="_374561384" class="fil4" d="M271.979 1586.65l0 0zm176.547 -711.942c0,-6.39449 5.18504,-11.5795 11.5795,-11.5795l75.8068 0c6.39449,0 11.5795,5.18504 11.5795,11.5795 0,6.39449 -5.18504,11.5795 -11.5795,11.5795l-75.8068 0c-6.39449,0 -11.5795,-5.18504 -11.5795,-11.5795z"/>
   <path id="_374560568" class="fil5" d="M1677.31 836.907c21.874,0 39.6107,17.7354 39.6107,39.6107 0,21.8764 -17.7366,39.6071 -39.6107,39.6071 -21.874,0 -39.6071,-17.7307 -39.6071,-39.6071 0,-21.8752 17.7331,-39.6107 39.6071,-39.6107z"/>
   <path id="_374560208" class="fil6" d="M1559.56 1264.05l0 -776.991c0,-6.73819 -2.78032,-12.887 -7.25552,-17.3622 -4.47638,-4.47638 -10.6252,-7.25552 -17.3646,-7.25552l-931.882 0c-6.66969,0 -12.7228,2.74488 -17.1484,7.17048 -4.62756,4.62638 -7.51418,10.9004 -7.58977,17.6882l-3.26929 332.361 82.278 0c23.3811,0 44.6055,9.53268 59.9611,24.8929 15.3602,15.3555 24.8929,36.5799 24.8929,59.9623l0 386.08 788.8 0c7.22953,0 14.5205,-3.45591 20.1118,-8.85591 5.12126,-4.94528 8.46615,-11.2949 8.46615,-17.6906z"/>
   <path id="_374560472" class="fil7" d="M1392.46 661.684c7.36064,-4.2626 9.87166,-13.6866 5.60906,-21.0473 -4.2626,-7.36064 -13.6866,-9.87048 -21.0473,-5.60906l-861.18 497.32c-7.35945,4.2626 -9.87048,13.6866 -5.60788,21.0473 4.2626,7.35945 13.6866,9.87048 21.0473,5.60788l861.179 -497.319z"/>
   <polygon id="_374560640" class="fil8" points="1283.43,608.208 1403.72,636.223 1375.71,756.517 "/>
   <polygon id="_374560352" class="fil8" points="615.651,1193.59 495.357,1165.58 523.37,1045.29 "/>
  </g>
 </g>
 <rect class="fil4" width="2048" height="2048"/>
</svg>
