<?xml version="1.0" encoding="UTF-8"?>
<!DOCTYPE svg PUBLIC "-//W3C//DTD SVG 1.1//EN" "http://www.w3.org/Graphics/SVG/1.1/DTD/svg11.dtd">
<!-- Creator: CorelDRAW -->
<svg xmlns="http://www.w3.org/2000/svg" xml:space="preserve" width="2048px" height="2048px" style="shape-rendering:geometricPrecision; text-rendering:geometricPrecision; image-rendering:optimizeQuality; fill-rule:evenodd; clip-rule:evenodd"
viewBox="0 0 2048 2048"
 xmlns:xlink="http://www.w3.org/1999/xlink">
 <defs>
  <style type="text/css">
   <![CDATA[
    .fil17 {fill:none}
    .fil9 {fill:#00E676}
    .fil13 {fill:#03A9F4}
    .fil16 {fill:#37474F}
    .fil15 {fill:#3949AB}
    .fil3 {fill:#3E2723}
    .fil14 {fill:#4CAF50}
    .fil8 {fill:#546E7A}
    .fil12 {fill:#AB47BC}
    .fil11 {fill:#E53935}
    .fil1 {fill:#FF8F00}
    .fil2 {fill:#FFA000}
    .fil10 {fill:#FFD600}
    .fil6 {fill:#455A64;fill-rule:nonzero}
    .fil7 {fill:#78909C;fill-rule:nonzero}
    .fil5 {fill:#90A4AE;fill-rule:nonzero}
    .fil0 {fill:#DB640A;fill-rule:nonzero}
    .fil4 {fill:#FF8F00;fill-rule:nonzero}
   ]]>
  </style>
 </defs>
 <g id="Layer_x0020_1">
  <metadata id="CorelCorpID_0Corel-Layer"/>
  <path class="fil0" d="M1152 752.484c0,-17.6728 -57.3107,-32.0008 -128.001,-32.0008 -70.6902,0 -128.001,14.328 -128.001,32.0008l0 108.876c0,17.6728 57.3107,32.0008 128.001,32.0008 70.6902,0 128.001,-14.328 128.001,-32.0008l0 -108.876z"/>
  <path class="fil1" d="M1024 255.998c91.6194,0 174.569,37.141 234.613,97.1835 60.0449,60.0449 97.1835,142.995 97.1835,234.614 0,29.6044 -3.92835,58.415 -11.2913,85.9335 -7.55906,28.2414 -18.8032,55.0737 -33.1925,79.9512l0.0661418 0.0377953c-6.00119,10.3736 -16.9347,16.1138 -28.1221,15.9768l-518.937 0c-12.7039,0 -23.6788,-7.40316 -28.8461,-18.1299 -13.8095,-24.2799 -24.6343,-50.393 -31.9796,-77.8359 -7.363,-27.5185 -11.2913,-56.3292 -11.2913,-85.9335 0,-91.6194 37.1386,-174.569 97.1835,-234.614 60.0437,-60.0426 142.994,-97.1835 234.613,-97.1835z"/>
  <g id="_374565320">
   <path id="_374566328" class="fil1" d="M1024 769.695l-259.68 0c-12.7039,0 -23.6788,-7.40316 -28.8461,-18.1299 -13.8095,-24.2799 -24.6343,-50.393 -31.9796,-77.8359 -7.363,-27.5185 -11.2913,-56.3292 -11.2913,-85.9335 0,-91.6194 37.1386,-174.569 97.1835,-234.614 60.0437,-60.0426 142.994,-97.1835 234.613,-97.1835l0 513.697z"/>
   <path id="_374566184" class="fil2" d="M1024 255.998l0.908268 0.00590552c91.2591,0.244488 173.86,37.3335 233.705,97.1776 60.0449,60.0449 97.1835,142.995 97.1835,234.614 0,29.6044 -3.92835,58.415 -11.2913,85.9335 -7.55906,28.2414 -18.8032,55.0737 -33.1925,79.9512l0.0661418 0.0377953c-6.00119,10.3736 -16.9347,16.1138 -28.1221,15.9768l-258.984 0 -0.272835 0 0 -513.697z"/>
  </g>
  <g id="_374565008">
   <path id="_374565512" class="fil3" d="M1078.91 476.529c0,17.6728 14.328,32.0008 32.0008,32.0008 17.6728,0 32.0008,-14.328 32.0008,-32.0008l0 -23.5642c0,-17.6728 -14.328,-32.0008 -32.0008,-32.0008 -17.6728,0 -32.0008,14.328 -32.0008,32.0008l0 23.5642z"/>
   <path id="_374564912" class="fil3" d="M1144.1 607.999c-27.1146,36.8882 -70.8083,60.8351 -120.1,60.8351 -49.2922,0 -92.9859,-23.9469 -120.1,-60.8351l240.201 0z"/>
   <path id="_374564864" class="fil3" d="M905.091 476.529c0,17.6728 14.328,32.0008 32.0008,32.0008 17.6728,0 32.0008,-14.328 32.0008,-32.0008l0 -23.5642c0,-17.6728 -14.328,-32.0008 -32.0008,-32.0008 -17.6728,0 -32.0008,14.328 -32.0008,32.0008l0 23.5642z"/>
  </g>
  <g id="_374564840">
   <path id="_374565464" class="fil4" d="M903.858 1364.27c0,-17.6728 -14.328,-32.0008 -32.0008,-32.0008 -17.6728,0 -64.0004,14.328 -64.0004,32.0008l0 331.733 -102.147 39.528c-15.5929,0 -28.2355,12.6425 -28.2355,28.2355 0,15.5929 12.6425,28.2355 28.2355,28.2355l134.147 0.0011811c17.6728,0 32.0008,-14.328 32.0008,-32.0008l31.9996 -395.732z"/>
   <path id="_374565440" class="fil4" d="M1144.14 1364.27c0,-17.6728 14.328,-32.0008 32.0008,-32.0008 17.6728,0 64.0004,14.328 64.0004,32.0008l0 331.733 102.147 39.528c15.5929,0 28.2355,12.6425 28.2355,28.2355 0,15.5929 -12.6425,28.2355 -28.2355,28.2355l-134.147 0.0011811c-17.6728,0 -32.0008,-14.328 -32.0008,-32.0008l-31.9996 -395.732z"/>
  </g>
  <g id="_374564384">
   <path id="_374564696" class="fil4" d="M436.272 1322c-8.33268,62.0032 85.9465,74.6717 94.2768,12.6673 6.83504,-101.858 11.2287,-206.491 11.2287,-306.979 0,-93.1572 -14.9788,-81.1926 73.2532,-81.1926 17.6728,0 32.0008,-14.328 32.0008,-32.0008 0,-17.6728 1.8189,-50.1662 -15.8539,-50.1662 -136.162,0 -155.241,5.74607 -154.305,89.1969 1.80591,161.201 -6.57638,210.571 -40.6004,368.475z"/>
   <path id="_374564168" class="fil4" d="M1611.73 1322c8.33268,62.0032 -85.9465,74.6717 -94.2768,12.6673 -6.83504,-101.858 -11.2287,-206.491 -11.2287,-306.979 0,-93.1572 14.9788,-81.1926 -73.2532,-81.1926 -17.6728,0 -32.0008,-14.328 -32.0008,-32.0008 0,-17.6728 -1.8189,-50.1662 15.8539,-50.1662 136.162,0 155.241,5.74607 154.305,89.1969 -1.80591,161.201 6.57638,210.571 40.6004,368.475z"/>
  </g>
  <path class="fil5" d="M1338.11 1381.58c-80.3883,80.3894 -191.445,130.113 -314.109,130.113 -122.663,0 -233.72,-49.7233 -314.109,-130.113 -80.3894,-80.3894 -130.113,-191.445 -130.113,-314.109 0,-39.678 5.25355,-78.2552 15.1051,-115.062 9.913,-37.0418 24.5481,-72.2481 43.2201,-104.939 5.17205,-10.7161 16.141,-18.1099 28.8366,-18.1099l713.749 0c11.1685,-0.11811 22.0772,5.61969 28.0689,15.978l-0.0649607 0.0377953c19.2473,33.2788 34.2969,69.1985 44.4225,107.033 9.85158,36.8067 15.1051,75.3839 15.1051,115.062 0,122.663 -49.7233,233.719 -130.113,314.109z"/>
  <path class="fil4" d="M627.4 867.364c3.40394,-6.72875 6.97323,-13.3618 10.7043,-19.8945 5.17205,-10.7161 16.141,-18.1099 28.8366,-18.1099l713.749 0c11.1685,-0.11811 22.0772,5.61969 28.0689,15.978l-0.0649607 0.0377953c4.16929,7.20827 8.14016,14.5406 11.9079,21.9886l-793.202 0z"/>
  <path class="fil6" d="M1041.46 1116.22c0,19.7599 14.328,35.7792 32.0008,35.7792 17.6728,0 32.0008,-16.0193 32.0008,-35.7792l0 -113.583c0,-19.7599 -14.328,-35.7792 -32.0008,-35.7792 -17.6728,0 -32.0008,16.0193 -32.0008,35.7792l0 113.583z"/>
  <path class="fil6" d="M942.532 1116.22c0,19.7599 14.328,35.7792 32.0008,35.7792 17.6728,0 32.0008,-16.0193 32.0008,-35.7792l0 -113.583c0,-19.7599 -14.328,-35.7792 -32.0008,-35.7792 -17.6728,0 -32.0008,16.0193 -32.0008,35.7792l0 113.583z"/>
  <path class="fil7" d="M1140.4 1116.22c0,19.7599 14.328,35.7792 32.0008,35.7792 17.6728,0 32.0008,-16.0193 32.0008,-35.7792l0 -113.583c0,-19.7599 -14.328,-35.7792 -32.0008,-35.7792 -17.6728,0 -32.0008,16.0193 -32.0008,35.7792l0 113.583z"/>
  <path class="fil7" d="M843.599 1116.22c0,19.7599 14.328,35.7792 32.0008,35.7792 17.6728,0 32.0008,-16.0193 32.0008,-35.7792l0 -113.583c0,-19.7599 -14.328,-35.7792 -32.0008,-35.7792 -17.6728,0 -32.0008,16.0193 -32.0008,35.7792l0 113.583z"/>
  <rect class="fil8" x="743.375" y="1191.74" width="561.252" height="132.501"/>
  <rect class="fil9" x="783.688" y="1219.86" width="25.6252" height="76.2497"/>
  <rect class="fil10" x="840.563" y="1219.86" width="25.6252" height="76.2497"/>
  <rect class="fil11" x="897.438" y="1219.86" width="25.6252" height="76.2497"/>
  <rect class="fil12" x="954.313" y="1219.86" width="25.6252" height="76.2497"/>
  <rect class="fil13" x="1011.19" y="1219.86" width="25.6252" height="76.2497"/>
  <rect class="fil14" x="1068.06" y="1219.86" width="25.6252" height="76.2497"/>
  <rect class="fil15" x="1124.94" y="1219.86" width="25.6252" height="76.2497"/>
  <rect class="fil16" x="1181.81" y="1219.86" width="25.6252" height="76.2497"/>
  <rect class="fil3" x="1238.69" y="1219.86" width="25.6252" height="76.2497"/>
 </g>
 <rect class="fil17" width="2048" height="2048"/>
</svg>
