<?xml version="1.0" encoding="UTF-8"?>
<!DOCTYPE svg PUBLIC "-//W3C//DTD SVG 1.1//EN" "http://www.w3.org/Graphics/SVG/1.1/DTD/svg11.dtd">
<!-- Creator: CorelDRAW -->
<svg xmlns="http://www.w3.org/2000/svg" xml:space="preserve" width="2048px" height="2048px" style="shape-rendering:geometricPrecision; text-rendering:geometricPrecision; image-rendering:optimizeQuality; fill-rule:evenodd; clip-rule:evenodd"
viewBox="0 0 2048 2048"
 xmlns:xlink="http://www.w3.org/1999/xlink">
 <defs>
  <style type="text/css">
   <![CDATA[
    .fil6 {fill:none}
    .fil2 {fill:#37474F}
    .fil3 {fill:#B0BEC5}
    .fil4 {fill:#FF6F00}
    .fil0 {fill:#37474F;fill-rule:nonzero}
    .fil1 {fill:#455A64;fill-rule:nonzero}
    .fil5 {fill:#78909C;fill-rule:nonzero}
   ]]>
  </style>
 </defs>
 <g id="Layer_x0020_1">
  <metadata id="CorelCorpID_0Corel-Layer"/>
  <path class="fil0" d="M287.347 324.457l249.866 0 784.586 0 112.651 0c8.75552,0 16.6689,3.58937 22.3571,9.37678l326.009 326.01 0.00236221 -0.00236221c6.12048,6.12048 9.18072,14.1425 9.18072,22.1658l0.0011811 0 0 1053.06c0,17.3126 -14.0351,31.3477 -31.3477,31.3477l-1473.31 0c-17.3126,0 -31.3477,-14.0351 -31.3477,-31.3477l0 -1379.26c0,-17.3126 14.0351,-31.3477 31.3477,-31.3477z"/>
  <path class="fil1" d="M287.347 281.583l249.866 0 784.586 0 112.651 0c8.75552,0 16.6689,3.58937 22.3571,9.37678l326.009 326.01 0.00236221 -0.00236221c6.12048,6.12048 9.18072,14.1425 9.18072,22.1658l0.0011811 0 0 1053.06c0,17.3126 -14.0351,31.3477 -31.3477,31.3477l-1473.31 0c-17.3126,0 -31.3477,-14.0351 -31.3477,-31.3477l0 -1379.26c0,-17.3126 14.0351,-31.3477 31.3477,-31.3477z"/>
  <path class="fil2" d="M579.077 281.583l727.502 0 0 347.502c0,16.5 -13.4988,29.9988 -29.9988,29.9988l-667.504 0c-16.5,0 -29.9988,-13.4988 -29.9988,-29.9988l0 -347.502z"/>
  <path class="fil3" d="M709.079 281.583l542.5 0 0 259.133c0,12.3036 -10.0665,22.3701 -22.3701,22.3701l-497.759 0c-12.3036,0 -22.3701,-10.0665 -22.3701,-22.3701l0 -259.133z"/>
  <polygon class="fil0" points="1208.46,357.518 1174.51,357.518 1174.51,487.153 1208.46,487.153 "/>
  <rect class="fil3" x="579.077" y="1011.04" width="867.501" height="712.501"/>
  <rect class="fil4" x="579.077" y="1011.04" width="867.501" height="59.9339"/>
  <polygon class="fil5" points="699.357,1405.89 699.357,1342.18 1326.3,1342.18 1326.3,1405.89 "/>
  <polygon class="fil5" points="699.357,1260.89 699.357,1197.18 1326.3,1197.18 1326.3,1260.89 "/>
  <polygon class="fil5" points="699.357,1530.26 699.357,1466.56 1326.3,1466.56 1326.3,1530.26 "/>
  <g id="_374566784">
   <circle id="_374566424" class="fil2" cx="351.499" cy="1642.49" r="35.312"/>
   <circle id="_374566376" class="fil2" cx="1696.5" cy="1642.49" r="35.312"/>
  </g>
 </g>
 <rect class="fil6" width="2048" height="2048"/>
</svg>
