<?xml version="1.0" encoding="UTF-8"?>
<!DOCTYPE svg PUBLIC "-//W3C//DTD SVG 1.1//EN" "http://www.w3.org/Graphics/SVG/1.1/DTD/svg11.dtd">
<!-- Creator: CorelDRAW -->
<svg xmlns="http://www.w3.org/2000/svg" xml:space="preserve" width="2048px" height="2048px" style="shape-rendering:geometricPrecision; text-rendering:geometricPrecision; image-rendering:optimizeQuality; fill-rule:evenodd; clip-rule:evenodd"
viewBox="0 0 2048 2048"
 xmlns:xlink="http://www.w3.org/1999/xlink">
 <defs>
  <style type="text/css">
   <![CDATA[
    .fil10 {fill:none}
    .fil9 {fill:#455A64}
    .fil4 {fill:#6D8591}
    .fil5 {fill:#78909C}
    .fil8 {fill:#8BC34A}
    .fil0 {fill:#BBDEFB}
    .fil6 {fill:#EF5350}
    .fil7 {fill:#FFB300}
    .fil1 {fill:#37474F;fill-rule:nonzero}
    .fil3 {fill:#553A31;fill-rule:nonzero}
    .fil2 {fill:#5D4037;fill-rule:nonzero}
   ]]>
  </style>
 </defs>
 <g id="Layer_x0020_1">
  <metadata id="CorelCorpID_0Corel-Layer"/>
  <circle class="fil0" cx="796.297" cy="827.66" r="427.628"/>
  <path class="fil1" d="M1204.82 1159.08c-12.8398,-12.0803 -33.0449,-11.465 -45.1252,1.3748 -12.0803,12.8398 -11.465,33.0449 1.3748,45.1252l119.301 111.852c12.8398,12.0803 33.0449,11.465 45.1252,-1.3748 12.0803,-12.8398 11.465,-33.0449 -1.3748,-45.1252l-119.301 -111.852z"/>
  <path class="fil2" d="M1400.45 1275.29l356.436 278.489c1.56378,1.01693 3.06024,2.18622 4.46929,3.5067l-21.887 23.3445 21.8752 -23.25c42.3225,39.6792 47.6091,88.6442 31.552,129.918 -6.06733,15.5941 -15.228,29.928 -26.5866,42.0437 -11.3587,12.1134 -25.0512,22.1681 -40.1859,29.2087 -39.5185,18.3851 -87.8505,16.5626 -129.812,-21.4713 -1.39725,-1.11614 -2.72126,-2.36339 -3.95079,-3.7441l23.8949 -21.2847 -23.8748 21.2504 -303.408 -340.622c-26.6906,-26.0587 -29.8158,-58.03 -19.2744,-85.1292 3.99803,-10.278 10.0051,-19.6914 17.4354,-27.6154 7.42678,-7.92284 16.415,-14.5134 26.3752,-19.1469 26.5559,-12.3543 58.9855,-11.1319 86.941,14.5028z"/>
  <path class="fil3" d="M1764.08 1731.66c-10.9028,11.0787 -23.7992,20.3032 -37.9559,26.889 -39.5185,18.3851 -87.8505,16.5626 -129.812,-21.4713 -1.39725,-1.11614 -2.72126,-2.36339 -3.95079,-3.7441l23.8949 -21.2847 -23.8748 21.2504 -303.408 -340.622c-26.6906,-26.0587 -29.8158,-58.03 -19.2744,-85.1292 3.99803,-10.278 10.0051,-19.6914 17.4354,-27.6154 0.324803,-0.346063 0.651969,-0.689764 0.981497,-1.02992l475.963 452.757z"/>
  <path class="fil2" d="M1400.45 1275.29l356.436 278.489c1.56378,1.01693 3.06024,2.18622 4.46929,3.5067l-21.887 23.3445 21.8752 -23.25c42.3225,39.6792 47.6091,88.6442 31.552,129.918 -6.06733,15.5941 -15.228,29.928 -26.5866,42.0437 -0.707481,0.754725 -1.42323,1.5 -2.14961,2.23937l-0.080315 0.080315 -475.963 -452.757 0.50315 -0.51378c7.12914,-7.23662 15.5847,-13.2744 24.8906,-17.6032 26.5559,-12.3543 58.9855,-11.1319 86.941,14.5028z"/>
  <path class="fil4" d="M1148.19 405.512l0.745276 -0.794883 23.3646 22.004c0.912993,0.859843 0.51378,0.458268 1.57087,1.53189l0.947245 0.966142 0.298819 0.323622 0.227953 0.243307c98.0387,104.252 165.562,235.419 170.228,380.197 4.34055,134.689 -41.2843,266.508 -127.125,369.566l0.794883 0.745276 -22.004 23.3646c-0.859843,0.912993 -0.458268,0.51378 -1.53189,1.57087l-0.966142 0.947245 -0.323622 0.298819 -0.243307 0.227953c-104.252,98.0387 -235.42,165.562 -380.197,170.228 -145.408,4.68544 -287.472,-48.8634 -393.613,-148.376 -106.673,-100.01 -168.628,-237.11 -173.336,-383.221 -4.68426,-145.407 48.8634,-287.471 148.376,-393.612 100.011,-106.671 237.111,-168.627 383.221,-173.335 134.688,-4.33937 266.509,41.2855 369.566,127.125zm-40.9217 709.979c75.5894,-81.6402 116.164,-190.271 112.578,-301.507 -3.56103,-110.474 -44.5996,-220.631 -130.957,-292.903l-0.519685 -0.433465 -1.26142 -1.10079 -0.863386 -0.793701c-1.15158,-1.06299 -0.788977,-0.718111 -1.80118,-1.74449l-0.311811 -0.317717c-81.6402,-75.5894 -190.271,-116.162 -301.507,-112.577 -112.739,3.63307 -218.333,51.4737 -295.486,133.766 -76.7434,81.8552 -117.999,191.32 -114.385,303.456 3.63307,112.737 51.4737,218.333 133.765,295.485 81.8564,76.7434 191.321,118 303.459,114.385 110.474,-3.56103 220.631,-44.5985 292.903,-130.957l0.433465 -0.519685 1.10079 -1.26142 0.793701 -0.863386c1.06299,-1.15158 0.718111,-0.788977 1.74449,-1.80118l0.316536 -0.311811z"/>
  <path class="fil5" d="M796.297 355.041c261.02,0 472.62,211.599 472.62,472.62 0,261.02 -211.599,472.62 -472.62,472.62 -261.02,0 -472.62,-211.599 -472.62,-472.62 0,-261.02 211.599,-472.62 472.62,-472.62zm310.968 760.45c75.5894,-81.6402 116.164,-190.271 112.578,-301.507 -3.56103,-110.474 -44.5996,-220.631 -130.957,-292.903l-0.519685 -0.433465 -1.26142 -1.10079 -0.863386 -0.793701c-1.15158,-1.06299 -0.788977,-0.718111 -1.80118,-1.74449l-0.311811 -0.317717c-81.6402,-75.5894 -190.271,-116.162 -301.507,-112.577 -112.739,3.63307 -218.333,51.4737 -295.486,133.766 -76.7434,81.8552 -117.999,191.32 -114.385,303.456 3.63307,112.737 51.4737,218.333 133.765,295.485 81.8564,76.7434 191.321,118 303.459,114.385 110.474,-3.56103 220.631,-44.5985 292.903,-130.957l0.433465 -0.519685 1.10079 -1.26142 0.793701 -0.863386c1.06299,-1.15158 0.718111,-0.788977 1.74449,-1.80118l0.316536 -0.311811z"/>
  <g id="_374532632">
   <path id="_374533400" class="fil6" d="M1058.4 828.226c-10.3606,-5.43189 -19.454,-12.913 -25.7221,-23.2748 -10.9299,-18.0662 -12.5551,-46.6181 -12.5551,-67.2083l0 -63.9615c0,-12.5705 -0.876379,-38.85 -10.0547,-48.7406 -8.73308,-9.41221 -29.1047,-10.6287 -40.9489,-10.6287l-17.5477 0 0 -43.6429 20.2465 0c24.541,0 57.7926,3.00945 75.7642,21.965 18.4004,19.4079 20.5914,58.4776 20.5914,83.6564l0 64.0512c0,15.9236 1.77047,39.6485 13.0158,52.1611 7.62993,8.48859 19.8851,11.8606 30.8197,13.2071l6.8752 0.846851 0 42.5469 -6.8752 0.846851c-10.9571,1.34882 -23.1732,4.73504 -30.8292,13.2189 -11.2417,12.4559 -13.0063,36.0957 -13.0063,51.9685l0 64.4126c0,24.9603 -2.13189,64.2709 -20.537,83.4237 -17.8642,18.5882 -51.6,21.4772 -75.8186,21.4772l-20.2465 0 0 -43.6429 7.8319 0c2.17795,0 4.38544,0.140551 6.55749,0.288189 1.7504,0.11811 3.56221,0.251575 5.31733,0.251575 11.5158,0 30.6059,-1.26969 39.0142,-10.4894 8.98701,-9.85513 9.83032,-36.2492 9.83032,-48.6993l0 -63.6036c0,-20.6079 1.61457,-49.2118 12.5551,-67.2969 6.26812,-10.3606 15.3532,-17.791 25.7221,-23.1331z"/>
   <path id="_374533520" class="fil6" d="M534.189 828.226c10.3689,5.34213 19.4551,12.7725 25.7232,23.1331 10.9394,18.0851 12.5551,46.689 12.5551,67.2969l0 63.6036c0,12.45 0.842127,38.8441 9.82914,48.6993 8.40827,9.21969 27.4996,10.4894 39.0142,10.4894 1.75512,0 3.56811,-0.133465 5.31851,-0.251575 2.17087,-0.147638 4.37953,-0.288189 6.5563,-0.288189l7.83308 0 0 43.6429 -20.2477 0c-24.2173,0 -57.9544,-2.88898 -75.8174,-21.4772 -18.4051,-19.1528 -20.537,-58.4634 -20.537,-83.4237l0 -64.4126c0,-15.8728 -1.76575,-39.5126 -13.0063,-51.9685 -7.65709,-8.48386 -19.8732,-11.8701 -30.8303,-13.2189l-6.87402 -0.846851 0 -42.5469 6.87402 -0.846851c10.9347,-1.34646 23.191,-4.71851 30.8197,-13.2071 11.2465,-12.5126 13.0169,-36.2374 13.0169,-52.1611l0 -64.0512c0,-25.1788 2.18977,-64.2485 20.5914,-83.6564 17.9705,-18.9555 51.2233,-21.965 75.7631,-21.965l20.2477 0 0 43.6429 -17.5488 0c-11.8441,0 -32.2158,1.21654 -40.9477,10.6287 -9.17835,9.89056 -10.0547,36.1701 -10.0547,48.7406l0 63.9615c0,20.5902 -1.62638,49.1422 -12.5551,67.2083 -6.2693,10.3618 -15.3626,17.8429 -25.7232,23.2748z"/>
   <polygon id="_374533232" class="fil7" points="624.733,827.403 708.693,882.425 708.693,934.733 578.95,846.956 578.95,807.384 708.693,720.69 708.693,772.854 "/>
   <polygon id="_374532776" class="fil8" points="933.538,827.403 849.686,772.85 849.686,720.69 979.429,807.384 979.429,846.956 849.686,934.733 849.686,882.428 "/>
   <polygon id="_374532800" class="fil9" points="853.41,667.205 750.344,1000.24 704.969,988.116 808.034,655.081 "/>
  </g>
 </g>
 <rect class="fil10" width="2048" height="2048"/>
</svg>
