<?xml version="1.0" encoding="UTF-8"?>
<!DOCTYPE svg PUBLIC "-//W3C//DTD SVG 1.1//EN" "http://www.w3.org/Graphics/SVG/1.1/DTD/svg11.dtd">
<!-- Creator: CorelDRAW -->
<svg xmlns="http://www.w3.org/2000/svg" xml:space="preserve" width="2048px" height="2048px" style="shape-rendering:geometricPrecision; text-rendering:geometricPrecision; image-rendering:optimizeQuality; fill-rule:evenodd; clip-rule:evenodd"
viewBox="0 0 2048 2048"
 xmlns:xlink="http://www.w3.org/1999/xlink">
 <defs>
  <style type="text/css">
   <![CDATA[
    .fil10 {fill:none}
    .fil6 {fill:#01579B}
    .fil7 {fill:#0277BD}
    .fil8 {fill:#0288D1}
    .fil9 {fill:#05659E}
    .fil4 {fill:#6D8591}
    .fil5 {fill:#78909C}
    .fil0 {fill:#BBDEFB}
    .fil1 {fill:#37474F;fill-rule:nonzero}
    .fil3 {fill:#553A31;fill-rule:nonzero}
    .fil2 {fill:#5D4037;fill-rule:nonzero}
   ]]>
  </style>
 </defs>
 <g id="Layer_x0020_1">
  <metadata id="CorelCorpID_0Corel-Layer"/>
  <g id="_374535584">
   <g>
    <circle id="_374537696" class="fil0" transform="matrix(0.411758 0.411758 -0.411758 0.411758 1540.68 964.73)" r="336"/>
    <path id="_374537336" class="fil1" d="M1565.63 1204.12c-0.245669,-8.06221 -6.9815,-14.4 -15.0449,-14.1543 -8.06221,0.245669 -14.4,6.98268 -14.1543,15.0449l2.41063 74.7851c0.245669,8.06221 6.9815,14.4 15.0437,14.1543 8.06221,-0.245669 14.4,-6.98268 14.1543,-15.0449l-2.40945 -74.7851z"/>
    <path id="_374537768" class="fil2" d="M1591.32 1305.02l25.2189 205.417c0.175984,0.833859 0.282284,1.69725 0.31063,2.57953l-14.6339 0.472441 14.5996 -0.445276c0.855119,26.5299 -13.2756,44.0823 -31.8236,52.2402 -7.00867,3.08268 -14.6102,4.7563 -22.2047,5.00079 -7.59331,0.244488 -15.2764,-0.933072 -22.4504,-3.55158 -18.7347,-6.83741 -33.7819,-23.0634 -35.0516,-48.9437 -0.090945,-0.81378 -0.115748,-1.64528 -0.0673229,-2.48977l14.6173 0.844489 -14.5996 -0.849213 12.0402 -208.363c-0.204331,-17.0658 9.12757,-28.4209 21.3059,-33.7784 4.61811,-2.0315 9.60709,-3.13347 14.5748,-3.29292 4.96654,-0.16063 10.0063,0.615355 14.7284,2.33858 12.5882,4.59449 22.6855,15.4819 23.4355,32.8205z"/>
    <path id="_374537048" class="fil3" d="M1561.32 1570.31c-7.11142,0.056693 -14.2689,-1.1315 -20.9788,-3.58111 -18.7347,-6.83741 -33.7819,-23.0634 -35.0516,-48.9437 -0.090945,-0.81378 -0.115748,-1.64528 -0.0673229,-2.48977l14.6173 0.844489 -14.5996 -0.849213 12.0402 -208.363c-0.204331,-17.0658 9.12757,-28.4209 21.3059,-33.7784 4.61811,-2.0315 9.60709,-3.13347 14.5748,-3.29292 0.217323,-0.00708662 0.434646,-0.011811 0.650788,-0.0153543l7.50827 300.469z"/>
    <path id="_374537024" class="fil2" d="M1591.32 1305.02l25.2189 205.417c0.175984,0.833859 0.282284,1.69725 0.31063,2.57953l-14.6339 0.472441 14.5996 -0.445276c0.855119,26.5299 -13.2756,44.0823 -31.8236,52.2402 -7.00867,3.08268 -14.6102,4.7563 -22.2047,5.00079 -0.472441,0.0153543 -0.944883,0.0248032 -1.41969,0.0295276l-0.0519685 0 -7.50827 -300.469 0.329528 -0.00354331c4.64764,-0.0354331 9.33662,0.747638 13.748,2.35748 12.5882,4.59449 22.6855,15.4819 23.4355,32.8205z"/>
    <path id="_374536976" class="fil4" d="M1791.11 942l0.498426 -0.0165354 0.440552 14.6788c0.0177165,0.572835 0.0177165,0.314173 0.0129921,1.00394l-0.00708662 0.618898 -0.00708662 0.200788 -0.00590552 0.152362c-2.01024,65.4473 -22.6004,129.73 -67.9312,178.08 -42.1713,44.98 -99.58,72.867 -160.694,78.4371l0.0153543 0.498426 -14.6776 0.440552c-0.574016,0.0165354 -0.315355,0.0177165 -1.00394,0.011811l-0.618898 -0.00590552 -0.201969 -0.00826772 -0.152362 -0.00472441c-65.4473,-2.01024 -129.73,-22.6004 -178.08,-67.9312 -48.5587,-45.528 -77.1969,-108.815 -79.3406,-175.35 -2.15669,-66.8682 22.1551,-131.269 67.904,-180.063 45.528,-48.5599 108.814,-77.1969 175.349,-79.3418 66.8682,-2.15433 131.269,22.1563 180.063,67.904 44.98,42.1725 72.867,99.5812 78.4371,160.695zm-242.939 216.461c50.8689,-1.95827 99.1406,-23.9764 133.969,-61.1245 34.5898,-36.8941 56.9516,-85.8107 52.3949,-137.132l-0.0283465 -0.308268 -0.0519685 -0.764174 -0.022441 -0.536221c-0.0283465,-0.71693 -0.022441,-0.487796 -0.0177165,-1.14685l0.0011811 -0.204331c-1.95709,-50.8689 -23.9764,-99.1406 -61.1245,-133.969 -37.65,-35.2985 -87.2906,-53.9835 -138.876,-52.3205 -51.3107,1.65354 -100.074,23.7213 -135.184,61.1693 -35.2985,37.65 -53.9835,87.2906 -52.3217,138.875 1.65473,51.3119 23.7225,100.075 61.1717,135.186 36.8941,34.5898 85.8095,56.9516 137.132,52.3949l0.308268 -0.0283465 0.764174 -0.0519685 0.536221 -0.022441c0.715749,-0.0283465 0.486615,-0.0236221 1.14685,-0.0188977l0.20315 0.00236221z"/>
    <path id="_374536640" class="fil5" d="M1693.59 811.823c84.4477,84.4489 84.4477,221.366 0,305.815 -84.4477,84.4477 -221.366,84.4477 -305.814,0 -84.4477,-84.4489 -84.4477,-221.366 0,-305.815 84.4477,-84.4477 221.366,-84.4477 305.814,0zm-145.421 346.637c50.8689,-1.95827 99.1406,-23.9764 133.969,-61.1245 34.5898,-36.8941 56.9516,-85.8107 52.3949,-137.132l-0.0283465 -0.308268 -0.0519685 -0.764174 -0.022441 -0.536221c-0.0283465,-0.71693 -0.022441,-0.487796 -0.0177165,-1.14685l0.0011811 -0.204331c-1.95709,-50.8689 -23.9764,-99.1406 -61.1245,-133.969 -37.65,-35.2985 -87.2906,-53.9835 -138.876,-52.3205 -51.3107,1.65354 -100.074,23.7213 -135.184,61.1693 -35.2985,37.65 -53.9835,87.2906 -52.3217,138.875 1.65473,51.3119 23.7225,100.075 61.1717,135.186 36.8941,34.5898 85.8095,56.9516 137.132,52.3949l0.308268 -0.0283465 0.764174 -0.0519685 0.536221 -0.022441c0.715749,-0.0283465 0.486615,-0.0236221 1.14685,-0.0188977l0.20315 0.00236221z"/>
   </g>
   <path id="_374536688" class="fil6" d="M280.012 446.319l683.18 0c13.2933,0 24.0709,10.7764 24.0709,24.0697l0 871.644c0,13.2933 -10.7776,24.0709 -24.0709,24.0709l-683.18 0c-13.2933,0 -24.0709,-10.7776 -24.0709,-24.0709l0 -871.644c0,-13.2933 10.7776,-24.0697 24.0709,-24.0697z"/>
   <path id="_374535704" class="fil7" d="M410.678 564.109l683.181 0c13.2933,0 24.0709,10.7764 24.0709,24.0697l0 871.644c0,13.2933 -10.7776,24.0709 -24.0709,24.0709l-683.181 0c-13.2933,0 -24.0697,-10.7776 -24.0697,-24.0709l0 -871.644c0,-13.2933 10.7764,-24.0697 24.0697,-24.0697z"/>
   <path id="_374536328" class="fil8" d="M528.467 681.898l683.18 0c13.2933,0 24.0709,10.7776 24.0709,24.0709l0 871.644c0,13.2933 -10.7776,24.0709 -24.0709,24.0709l-683.18 0c-13.2933,0 -24.0709,-10.7776 -24.0709,-24.0709l0 -871.644c0,-13.2933 10.7776,-24.0709 24.0709,-24.0709z"/>
   <polygon id="_374536040" class="fil9" points="611.604,1435.75 1128.51,1435.75 1128.51,1483.89 611.604,1483.89 "/>
   <polygon id="_374535632" class="fil9" points="611.604,1317.96 1128.51,1317.96 1128.51,1366.1 611.604,1366.1 "/>
   <polygon id="_374535440" class="fil9" points="611.604,1200.17 1128.51,1200.17 1128.51,1248.31 611.604,1248.31 "/>
   <polygon id="_374535248" class="fil9" points="611.604,1082.38 1128.51,1082.38 1128.51,1130.52 611.604,1130.52 "/>
   <polygon id="_374535608" class="fil9" points="611.604,846.804 908.329,846.804 908.329,894.946 611.604,894.946 "/>
   <polygon id="_374535512" class="fil9" points="611.604,964.594 1128.51,964.594 1128.51,1012.73 611.604,1012.73 "/>
  </g>
 </g>
 <rect class="fil10" width="2048" height="2048"/>
</svg>
