<?xml version="1.0" encoding="UTF-8"?>
<!DOCTYPE svg PUBLIC "-//W3C//DTD SVG 1.1//EN" "http://www.w3.org/Graphics/SVG/1.1/DTD/svg11.dtd">
<!-- Creator: CorelDRAW -->
<svg xmlns="http://www.w3.org/2000/svg" xml:space="preserve" width="2048px" height="2048px" style="shape-rendering:geometricPrecision; text-rendering:geometricPrecision; image-rendering:optimizeQuality; fill-rule:evenodd; clip-rule:evenodd"
viewBox="0 0 2048 2048"
 xmlns:xlink="http://www.w3.org/1999/xlink">
 <defs>
  <style type="text/css">
   <![CDATA[
    .fil22 {fill:none}
    .fil8 {fill:#00B8D4}
    .fil16 {fill:#253035}
    .fil9 {fill:#37474F}
    .fil11 {fill:#494F56}
    .fil3 {fill:#546E7A}
    .fil10 {fill:#555A61}
    .fil2 {fill:#78909C}
    .fil18 {fill:#7B838E}
    .fil4 {fill:#80DEEA}
    .fil17 {fill:#989FAA}
    .fil0 {fill:#263238;fill-rule:nonzero}
    .fil12 {fill:#2A3541;fill-rule:nonzero}
    .fil1 {fill:#37474F;fill-rule:nonzero}
    .fil15 {fill:#49692E;fill-rule:nonzero}
    .fil19 {fill:#526072;fill-rule:nonzero}
    .fil20 {fill:#616161;fill-rule:nonzero}
    .fil7 {fill:#7CB342;fill-rule:nonzero}
    .fil13 {fill:#873636;fill-rule:nonzero}
    .fil14 {fill:#8E652D;fill-rule:nonzero}
    .fil5 {fill:#EF5350;fill-rule:nonzero}
    .fil21 {fill:#FF8F00;fill-rule:nonzero}
    .fil6 {fill:#FFAB40;fill-rule:nonzero}
   ]]>
  </style>
 </defs>
 <g id="Layer_x0020_1">
  <metadata id="CorelCorpID_0Corel-Layer"/>
  <path class="fil0" d="M707.645 1585.56c0,67.8178 632.712,67.8178 632.712,0 0,-67.8178 -632.712,-67.8178 -632.712,0z"/>
  <path class="fil1" d="M1105.66 1357.05c0,-17.5465 -36.5599,-31.7705 -81.6556,-31.7705 -45.0957,0 -81.6568,14.224 -81.6568,31.7705l0 215.338c0,17.5453 36.5611,31.7705 81.6568,31.7705 45.0957,0 81.6556,-14.2252 81.6556,-31.7705l0 -215.338z"/>
  <path class="fil2" d="M287.77 411.578l1472.46 0c17.5465,0 31.7705,14.224 31.7705,31.7693l0 913.7c0,17.5453 -14.224,31.7693 -31.7705,31.7693l-1472.46 0c-17.5453,0 -31.7705,-14.224 -31.7705,-31.7693l0 -913.7c0,-17.5453 14.2252,-31.7693 31.7705,-31.7693z"/>
  <path class="fil3" d="M1792 1146.05l0 211.002c0,17.5453 -14.224,31.7693 -31.7705,31.7693l-1472.46 0c-17.5453,0 -31.7705,-14.224 -31.7705,-31.7693l0 -211.002 1536 0z"/>
  <polygon class="fil4" points="1728.46,475.118 319.54,475.118 319.54,1122.23 1728.46,1122.23 "/>
  <g id="_388580256">
   <polygon id="_388579896" class="fil5" points="1688.19,1247.29 1688.19,1287.57 1728.46,1287.57 1728.46,1247.29 "/>
   <polygon id="_388579800" class="fil6" points="1547.13,1287.57 1587.4,1287.57 1587.4,1247.29 1547.13,1247.29 "/>
   <polygon id="_388579728" class="fil7" points="1617.56,1247.29 1617.56,1287.57 1657.83,1287.57 1657.83,1247.29 "/>
  </g>
  <g id="_388580184">
   <circle id="_388579584" class="fil8" cx="1024" cy="1267.43" r="38.8388"/>
   <circle id="_388579656" class="fil9" cx="1024" cy="1267.43" r="33.0356"/>
  </g>
  <g id="_374538104">
   <g>
    <g>
     <path id="_388579272" class="fil10" d="M1152.08 636.599l0 258.301c0,5.29252 -4.29095,9.58347 -9.58347,9.58347l-440.834 0c-5.29252,0 -9.58347,-4.29095 -9.58347,-9.58347l0 -258.301 460.001 0z"/>
     <polygon id="_388579128" class="fil11" points="1152.08,636.599 1152.08,655.765 692.076,655.765 692.076,636.599 "/>
     <path id="_388579464" class="fil12" d="M701.659 540.765l440.834 0c5.29252,0 9.58347,4.29095 9.58347,9.58347l0 86.2501 -460.001 0 0 -86.2501c0,-5.29252 4.29095,-9.58347 9.58347,-9.58347z"/>
     <polygon id="_388579056" class="fil13" points="1075.45,569.026 1075.45,607.359 1113.79,607.359 1113.79,569.026 "/>
     <polygon id="_388579488" class="fil14" points="941.196,607.359 979.529,607.359 979.529,569.026 941.196,569.026 "/>
     <polygon id="_388578072" class="fil15" points="1008.23,569.026 1008.23,607.359 1046.56,607.359 1046.56,569.026 "/>
     <g>
      <polygon id="_388578768" class="fil16" points="984.04,823.46 984.04,809.634 1084.76,809.634 1084.76,823.46 "/>
      <polygon id="_388578408" class="fil16" points="880.654,804.36 945.584,770.378 880.654,736.688 880.654,717.624 962.645,761.319 962.645,779.22 880.654,823.46 "/>
      <polygon id="_388578696" class="fil16" points="841.38,823.46 759.389,779.22 759.389,761.319 841.38,717.624 841.38,736.688 776.364,770.378 841.38,804.36 "/>
     </g>
    </g>
    <g>
     <path id="_374560280" class="fil17" d="M1244.08 708.238l0 258.303c0,5.29252 -4.29095,9.58347 -9.58347,9.58347l-440.834 0c-5.29252,0 -9.58347,-4.29095 -9.58347,-9.58347l0 -258.303 460.001 0z"/>
     <polygon id="_374549864" class="fil18" points="1244.08,708.238 1244.08,727.404 784.075,727.404 784.075,708.238 "/>
     <path id="_374538824" class="fil19" d="M793.659 612.403l440.834 0c5.29252,0 9.58347,4.29095 9.58347,9.58347l0 86.2512 -460.001 0 0 -86.2512c0,-5.29252 4.29095,-9.58347 9.58347,-9.58347z"/>
     <polygon id="_374539232" class="fil5" points="1167.45,640.665 1167.45,678.997 1205.79,678.997 1205.79,640.665 "/>
     <polygon id="_374539064" class="fil6" points="1033.2,678.997 1071.53,678.997 1071.53,640.665 1033.2,640.665 "/>
     <polygon id="_374539352" class="fil7" points="1100.23,640.665 1100.23,678.997 1138.56,678.997 1138.56,640.665 "/>
     <g>
      <polygon id="_374539400" class="fil9" points="1076.04,895.099 1076.04,881.274 1176.76,881.274 1176.76,895.099 "/>
      <polygon id="_374538200" class="fil9" points="972.654,875.999 1037.58,842.017 972.654,808.327 972.654,789.263 1054.64,832.959 1054.64,850.859 972.654,895.099 "/>
      <polygon id="_374538080" class="fil9" points="933.38,895.099 851.389,850.859 851.389,832.959 933.38,789.263 933.38,808.327 868.364,842.017 933.38,875.999 "/>
     </g>
    </g>
   </g>
   <g>
    <path id="_374538272" class="fil20" d="M1310.79 947.865l0 -0.0673229 0 -53.1048c0,-15.7311 -8.08583,-29.7248 -21.1075,-39.5941 -11.7366,-8.89489 -27.6992,-14.4154 -45.0461,-14.4154l-11.0776 0c-17.3469,0 -33.3095,5.52048 -45.0449,14.4154 -13.024,9.8693 -21.1087,23.8618 -21.1087,39.5941l0 52.1339 0 1.03819 32.0008 0 0 -0.822048 0 -52.35c0,-5.17323 3.20197,-10.187 8.35749,-14.0941 6.44292,-4.88268 15.561,-7.91457 25.7953,-7.91457l11.0776 0c10.2343,0 19.3524,3.03189 25.7965,7.91457 5.15433,3.90709 8.35631,8.92087 8.35631,14.0941l0 52.8874 0 0.284646 32.0008 0z"/>
    <path id="_374538536" class="fil21" d="M1310.79 945.138l0 -0.0862205 -32.0008 0 0 0.0862205 -79.3831 0 0 -0.0862205 -32.0008 0 0 0.0862205 -29.1331 0c-8.83583,0 -16.0004,7.16457 -16.0004,16.0004l0 113.622c0,8.83583 7.16457,16.0004 16.0004,16.0004l201.65 0c8.83583,0 16.0004,-7.16457 16.0004,-16.0004l0 -113.622c0,-8.83583 -7.16457,-16.0004 -16.0004,-16.0004l-29.1319 0z"/>
   </g>
  </g>
 </g>
 <rect class="fil22" width="2048" height="2048"/>
</svg>
