<?xml version="1.0" encoding="UTF-8"?>
<!DOCTYPE svg PUBLIC "-//W3C//DTD SVG 1.1//EN" "http://www.w3.org/Graphics/SVG/1.1/DTD/svg11.dtd">
<!-- Creator: CorelDRAW -->
<svg xmlns="http://www.w3.org/2000/svg" xml:space="preserve" width="2048px" height="2048px" style="shape-rendering:geometricPrecision; text-rendering:geometricPrecision; image-rendering:optimizeQuality; fill-rule:evenodd; clip-rule:evenodd"
viewBox="0 0 2048 2048"
 xmlns:xlink="http://www.w3.org/1999/xlink">
 <defs>
  <style type="text/css">
   <![CDATA[
    .fil25 {fill:none}
    .fil23 {fill:#006064}
    .fil21 {fill:#00838F}
    .fil24 {fill:#0097A7}
    .fil1 {fill:#494F56}
    .fil0 {fill:#555A61}
    .fil7 {fill:#7B838E}
    .fil6 {fill:#989FAA}
    .fil22 {fill:#FFA000}
    .fil19 {fill:#00695C;fill-rule:nonzero}
    .fil13 {fill:#1565C0;fill-rule:nonzero}
    .fil2 {fill:#2A3541;fill-rule:nonzero}
    .fil18 {fill:#2E7D32;fill-rule:nonzero}
    .fil5 {fill:#49692E;fill-rule:nonzero}
    .fil8 {fill:#526072;fill-rule:nonzero}
    .fil20 {fill:#7B1FA2;fill-rule:nonzero}
    .fil11 {fill:#7CB342;fill-rule:nonzero}
    .fil3 {fill:#873636;fill-rule:nonzero}
    .fil16 {fill:#8BC34A;fill-rule:nonzero}
    .fil4 {fill:#8E652D;fill-rule:nonzero}
    .fil15 {fill:#C2185B;fill-rule:nonzero}
    .fil17 {fill:#C62828;fill-rule:nonzero}
    .fil12 {fill:#CFD8DC;fill-rule:nonzero}
    .fil9 {fill:#EF5350;fill-rule:nonzero}
    .fil14 {fill:#FFA000;fill-rule:nonzero}
    .fil10 {fill:#FFAB40;fill-rule:nonzero}
   ]]>
  </style>
 </defs>
 <g id="Layer_x0020_1">
  <metadata id="CorelCorpID_0Corel-Layer"/>
  <g id="_388582824">
   <path id="_388587096" class="fil0" d="M1282.14 593.797l0 580.243c0,11.889 -9.63898,21.528 -21.5292,21.528l-990.278 0c-11.889,0 -21.528,-9.63898 -21.528,-21.528l0 -580.243 1033.34 0z"/>
   <polygon id="_388585752" class="fil1" points="1282.14,593.797 1282.14,636.85 248.809,636.85 248.809,593.797 "/>
   <path id="_388585872" class="fil2" d="M270.337 378.516l990.278 0c11.8902,0 21.5292,9.63898 21.5292,21.5292l0 193.749 -1033.34 0 0 -193.749c0,-11.8902 9.63898,-21.5292 21.528,-21.5292z"/>
   <polygon id="_388586232" class="fil3" points="1110.02,442.002 1110.02,528.111 1196.13,528.111 1196.13,442.002 "/>
   <polygon id="_388586280" class="fil4" points="808.426,528.111 894.537,528.111 894.537,442.002 808.426,442.002 "/>
   <polygon id="_388586064" class="fil5" points="959.005,442.002 959.005,528.111 1045.12,528.111 1045.12,442.002 "/>
   <path id="_388585080" class="fil6" d="M1488.81 754.725l0 580.244c0,11.889 -9.63898,21.528 -21.528,21.528l-990.278 0c-11.8902,0 -21.5292,-9.63898 -21.5292,-21.528l0 -580.244 1033.34 0z"/>
   <polygon id="_388585392" class="fil7" points="1488.81,754.725 1488.81,797.777 455.475,797.777 455.475,754.725 "/>
   <path id="_388585248" class="fil8" d="M477.004 539.445l990.278 0c11.889,0 21.528,9.63898 21.528,21.528l0 193.751 -1033.34 0 0 -193.751c0,-11.889 9.63898,-21.528 21.5292,-21.528z"/>
   <polygon id="_388585104" class="fil9" points="1316.69,602.93 1316.69,689.039 1402.8,689.039 1402.8,602.93 "/>
   <polygon id="_388585680" class="fil10" points="1015.09,689.039 1101.2,689.039 1101.2,602.93 1015.09,602.93 "/>
   <polygon id="_388585296" class="fil11" points="1165.67,602.93 1165.67,689.039 1251.78,689.039 1251.78,602.93 "/>
   <g>
    <path id="_388585416" class="fil12" d="M747.279 1181.79c0,2.83229 2.29606,5.12953 5.12835,5.12953 2.83229,0 5.12835,-2.29725 5.12835,-5.12953l0 -32.8004c0,-2.83229 -2.29606,-5.12953 -5.12835,-5.12953l-131.204 0c-2.83229,0 -5.12835,2.29725 -5.12835,5.12953l0 32.8004c0,2.83229 2.29606,5.12953 5.12835,5.12953 2.83229,0 5.12835,-2.29725 5.12835,-5.12953l0 -27.6721 120.947 0 0 27.6721z"/>
    <path id="_388584288" class="fil12" d="M691.935 1110.11c0,-2.83229 -2.29725,-5.12835 -5.12953,-5.12835 -2.83229,0 -5.12835,2.29606 -5.12835,5.12835l0 38.8737c0,2.83229 2.29606,5.12835 5.12835,5.12835 2.83229,0 5.12953,-2.29606 5.12953,-5.12835l0 -38.8737z"/>
    <path id="_388584504" class="fil12" d="M1031.56 1181.79c0,2.83229 2.29606,5.12953 5.12835,5.12953 2.83229,0 5.12835,-2.29725 5.12835,-5.12953l0 -32.8004c0,-2.83229 -2.29606,-5.12953 -5.12835,-5.12953l-131.205 0c-2.8311,0 -5.12835,2.29725 -5.12835,5.12953l0 32.8004c0,2.83229 2.29725,5.12953 5.12835,5.12953 2.83229,0 5.12953,-2.29725 5.12953,-5.12953l0 -27.6721 120.947 0 0 27.6721z"/>
    <path id="_388584216" class="fil12" d="M976.21 1110.11c0,-2.83229 -2.29606,-5.12835 -5.12835,-5.12835 -2.83229,0 -5.12953,2.29606 -5.12953,5.12835l0 38.8737c0,2.83229 2.29725,5.12835 5.12953,5.12835 2.83229,0 5.12835,-2.29606 5.12835,-5.12835l0 -38.8737z"/>
    <path id="_388584336" class="fil12" d="M965.682 1043.49c0,2.83229 2.29606,5.12953 5.12835,5.12953 2.83229,0 5.12835,-2.29725 5.12835,-5.12953l0 -41.6989c0,-2.83229 -2.29606,-5.12835 -5.12835,-5.12835l-283.733 0c-2.83229,0 -5.12953,2.29606 -5.12953,5.12835l0 41.6989c0,2.83229 2.29725,5.12953 5.12953,5.12953 2.83229,0 5.12835,-2.29725 5.12835,-5.12953l0 -36.5705 273.476 0 0 36.5705z"/>
    <path id="_388584936" class="fil12" d="M834.073 961.991c0,-2.83229 -2.29725,-5.12835 -5.12953,-5.12835 -2.83229,0 -5.12835,2.29606 -5.12835,5.12835l0 74.4142c0,2.83229 2.29606,5.12953 5.12835,5.12953 2.83229,0 5.12953,-2.29725 5.12953,-5.12953l0 -74.4142z"/>
    <path id="_388584600" class="fil13" d="M765.501 862.915l126.884 0c5.66575,0 10.2579,4.59213 10.2579,10.2567l0 88.819c0,5.66457 -4.59213,10.2567 -10.2579,10.2567l-126.884 0c-5.66457,0 -10.2567,-4.59213 -10.2567,-10.2567l0 -88.819c0,-5.66457 4.59213,-10.2567 10.2567,-10.2567z"/>
    <path id="_388584672" class="fil14" d="M786.027 1033.28l85.8343 0c5.66575,0 10.2579,4.59331 10.2579,10.2579l0 60.0851c0,5.66457 -4.59213,10.2567 -10.2579,10.2567l-85.8343 0c-5.66575,0 -10.2579,-4.59213 -10.2579,-10.2567l0 -60.0851c0,-5.66457 4.59213,-10.2579 10.2579,-10.2579z"/>
    <path id="_388584456" class="fil15" d="M643.888 1033.28l85.8355 0c5.66457,0 10.2579,4.59331 10.2579,10.2579l0 60.0851c0,5.66457 -4.59331,10.2567 -10.2579,10.2567l-85.8355 0c-5.66457,0 -10.2567,-4.59213 -10.2567,-10.2567l0 -60.0851c0,-5.66457 4.59213,-10.2579 10.2567,-10.2579z"/>
    <path id="_388584648" class="fil16" d="M928.164 1033.28l85.8355 0c5.66457,0 10.2567,4.59331 10.2567,10.2579l0 60.0851c0,5.66457 -4.59213,10.2567 -10.2567,10.2567l-85.8355 0c-5.66457,0 -10.2579,-4.59213 -10.2579,-10.2567l0 -60.0851c0,-5.66457 4.59331,-10.2579 10.2579,-10.2579z"/>
    <path id="_388584624" class="fil17" d="M713.075 1172.81l78.554 0c5.66457,0 10.2567,4.59213 10.2567,10.2567l0 54.9874c0,5.66575 -4.59213,10.2579 -10.2567,10.2579l-78.554 0c-5.66457,0 -10.2579,-4.59213 -10.2579,-10.2579l0 -54.9874c0,-5.66457 4.59331,-10.2567 10.2579,-10.2567z"/>
    <path id="_388583808" class="fil18" d="M581.983 1172.81l78.554 0c5.66457,0 10.2579,4.59213 10.2579,10.2567l0 54.9874c0,5.66575 -4.59331,10.2579 -10.2579,10.2579l-78.554 0c-5.66457,0 -10.2567,-4.59213 -10.2567,-10.2579l0 -54.9874c0,-5.66457 4.59213,-10.2567 10.2567,-10.2567z"/>
    <path id="_388583928" class="fil19" d="M997.351 1172.81l78.554 0c5.66457,0 10.2567,4.59213 10.2567,10.2567l0 54.9874c0,5.66575 -4.59213,10.2579 -10.2567,10.2579l-78.554 0c-5.66575,0 -10.2579,-4.59213 -10.2579,-10.2579l0 -54.9874c0,-5.66457 4.59213,-10.2567 10.2579,-10.2567z"/>
    <path id="_388584096" class="fil20" d="M866.259 1172.81l78.554 0c5.66457,0 10.2579,4.59213 10.2579,10.2567l0 54.9874c0,5.66575 -4.59331,10.2579 -10.2579,10.2579l-78.554 0c-5.66457,0 -10.2567,-4.59213 -10.2567,-10.2579l0 -54.9874c0,-5.66457 4.59213,-10.2567 10.2567,-10.2567z"/>
   </g>
   <path id="_388583664" class="fil21" d="M1523.79 1022.48c4.57323,9.17481 9.21615,19.8685 13.8331,30.5032 10.4126,23.9858 20.674,47.6185 28.5744,50.9599 8.06812,3.41221 32.7792,-6.52678 57.4252,-16.4398 14.5051,-5.83465 38.0044,-20.2181 51.8752,-6.54686 9.40394,7.60985 18.0024,15.3118 25.7575,23.0681 8.23465,8.23347 16.4091,17.4177 24.4795,27.5067l0.0826772 -0.0661418c4.92756,6.15945 5.88662,14.2146 3.22205,21.0732 -3.08859,8.863 -7.16457,18.998 -11.2441,29.1378 -9.913,24.6461 -19.852,49.3571 -16.4398,57.4252 3.34134,7.90158 26.9752,18.163 50.9611,28.5756 14.0681,6.10749 42.2646,13.3524 43.6099,32.0327 1.97953,17.2689 10.9323,84.5304 -13.1067,94.5355 -9.17481,4.57323 -19.8685,9.21615 -30.5032,13.8331 -23.9858,10.4138 -47.6185,20.674 -50.9599,28.5744 -3.41339,8.06812 6.52678,32.7792 16.4398,57.4241 4.20237,10.4469 8.40119,20.8878 11.5205,29.9386l0.0129921 -0.00472441c2.72835,7.92284 0.522048,16.3524 -4.98662,21.9414 -13.3878,16.5437 -50.1414,61.8886 -71.5961,53.5382 -8.85946,-3.0874 -18.9886,-7.16221 -29.126,-11.2394 -24.6449,-9.91182 -49.3559,-19.8508 -57.4241,-16.4386 -7.9004,3.34134 -18.1618,26.974 -28.5744,50.9599 -6.10749,14.0681 -13.3524,42.2646 -32.0327,43.6099 -23.1839,2.65866 -85.0926,9.58702 -94.5343,-13.1055 -4.57323,-9.17481 -9.21615,-19.8685 -13.8343,-30.5055 -10.4126,-23.9847 -20.674,-47.6174 -28.5744,-50.9587 -8.06812,-3.41221 -32.7792,6.52678 -57.4241,16.4398 -10.4469,4.20237 -20.8878,8.40119 -29.9386,11.5205l0.00472441 0.0129921c-7.92284,2.72835 -16.3524,0.522048 -21.9414,-4.98662 -9.40394,-7.60985 -18.0036,-15.313 -25.7599,-23.0693 -10.8378,-10.8378 -34.689,-30.7536 -27.7819,-48.5185 3.08859,-8.86536 7.16575,-18.9969 11.2441,-29.1378 9.91182,-24.6425 19.8496,-49.3524 16.4386,-57.4205 -3.34134,-7.9004 -26.9752,-18.1618 -50.9611,-28.5744 -14.0681,-6.10749 -42.2646,-13.3524 -43.6099,-32.0327 -0.67441,-5.87835 -1.21063,-12.0791 -1.59685,-18.613 -0.413386,-6.98623 -0.625985,-13.5165 -0.625985,-19.5555 0,-6.03544 0.212599,-12.5646 0.625985,-19.5496 0.408662,-6.90119 0.982678,-13.4327 1.71142,-19.6063l-0.0188977 -0.00236221c0.936615,-7.9382 6.12048,-14.341 13.0099,-17.2075 9.17481,-4.57323 19.8685,-9.21615 30.5055,-13.8343 23.9847,-10.4126 47.6185,-20.674 50.9587,-28.5744 3.41221,-8.0693 -6.52678,-32.7792 -16.4398,-57.4241 -4.20237,-10.4469 -8.40237,-20.889 -11.5205,-29.9386l-0.0129921 0.00472441c-2.72953,-7.92284 -0.522048,-16.3524 4.98662,-21.9414 7.60985,-9.40394 15.313,-18.0036 23.0693,-25.7599 10.8378,-10.8378 30.7536,-34.6878 48.5185,-27.7819 8.86418,3.08859 18.9969,7.16575 29.1378,11.2441 24.6425,9.91182 49.3524,19.8496 57.4193,16.4386 7.90158,-3.34134 18.163,-26.9752 28.5756,-50.9611 11.941,-27.5091 11.902,-39.0567 34.7835,-43.4268 20.7425,-3.95906 82.891,-8.44489 91.7847,12.9236z"/>
   <path id="_388583640" class="fil22" d="M1555.23 1250.58c-22.337,-22.3382 -53.2004,-36.1548 -87.2906,-36.1548 -34.0902,0 -64.9524,13.8165 -87.2906,36.1548 -22.3382,22.3382 -36.1548,53.2004 -36.1548,87.2906 0,34.0914 13.8165,64.9536 36.1548,87.2918 22.3382,22.337 53.2004,36.1548 87.2906,36.1548 34.0902,0 64.9536,-13.8177 87.2906,-36.1548 22.3382,-22.3382 36.1548,-53.2004 36.1548,-87.2918 0,-34.0902 -13.8165,-64.9524 -36.1548,-87.2906z"/>
   <path id="_388582752" class="fil23" d="M1467.94 1171.75c45.8705,0 87.4005,18.5953 117.463,48.6579 30.0638,30.0638 48.6579,71.5938 48.6579,117.463 0,45.8705 -18.5941,87.4005 -48.6579,117.464 -30.0626,30.0626 -71.5926,48.6579 -117.463,48.6579 -45.8693,0 -87.4005,-18.5953 -117.463,-48.6579 -30.0626,-30.0638 -48.6579,-71.5938 -48.6579,-117.464 0,-45.8693 18.5953,-87.3993 48.6579,-117.463 30.0626,-30.0626 71.5938,-48.6579 117.463,-48.6579z"/>
   <path id="_388582872" class="fil22" d="M1494.53 1311.29c-6.80197,-6.80197 -16.2036,-11.0091 -26.5866,-11.0091 -10.3843,0 -19.7847,4.20709 -26.5866,11.0091 -6.80197,6.80197 -11.0102,16.2047 -11.0102,26.5866 0,10.3854 4.20827,19.7858 11.0102,26.5878 6.80197,6.80197 16.2024,11.0091 26.5866,11.0091 10.3831,0 19.7847,-4.20709 26.5866,-11.0091 6.80197,-6.80197 11.0102,-16.2024 11.0102,-26.5878 0,-10.3819 -4.20827,-19.7847 -11.0102,-26.5866z"/>
   <path id="_388582992" class="fil24" d="M1467.94 1257.6c22.1622,0 42.2327,8.98583 56.7591,23.5122 14.5276,14.5276 23.5134,34.5969 23.5134,56.7591 0,22.1646 -8.98583,42.2327 -23.5134,56.7603 -14.5264,14.5264 -34.5969,23.5122 -56.7591,23.5122 -22.1634,0 -42.2315,-8.98583 -56.7591,-23.5122 -14.5276,-14.5276 -23.5134,-34.5957 -23.5134,-56.7603 0,-22.1622 8.98583,-42.2315 23.5134,-56.7591 14.5276,-14.5264 34.5957,-23.5122 56.7591,-23.5122z"/>
  </g>
 </g>
 <rect class="fil25" width="2048" height="2048"/>
</svg>
