<?xml version="1.0" encoding="UTF-8"?>
<!DOCTYPE svg PUBLIC "-//W3C//DTD SVG 1.1//EN" "http://www.w3.org/Graphics/SVG/1.1/DTD/svg11.dtd">
<!-- Creator: CorelDRAW -->
<svg xmlns="http://www.w3.org/2000/svg" xml:space="preserve" width="2048px" height="2048px" style="shape-rendering:geometricPrecision; text-rendering:geometricPrecision; image-rendering:optimizeQuality; fill-rule:evenodd; clip-rule:evenodd"
viewBox="0 0 2048 2048"
 xmlns:xlink="http://www.w3.org/1999/xlink">
 <defs>
  <style type="text/css">
   <![CDATA[
    .fil11 {fill:none}
    .fil3 {fill:#01579B}
    .fil10 {fill:#212121}
    .fil2 {fill:#424242}
    .fil5 {fill:#616161}
    .fil7 {fill:#A8A8A8}
    .fil6 {fill:#B0B0B0}
    .fil8 {fill:#BDBDBD}
    .fil1 {fill:#F6C4AA}
    .fil4 {fill:#FFA726}
    .fil0 {fill:#FFDDCC}
    .fil9 {fill:#212121;fill-rule:nonzero}
   ]]>
  </style>
 </defs>
 <g id="Layer_x0020_1">
  <metadata id="CorelCorpID_0Corel-Layer"/>
  <g id="_388588872">
   <path id="_388590048" class="fil0" d="M917.244 1006.05c-236.012,103.471 -306.813,158.634 -334.799,183.398 -43.1268,38.1638 -66.9827,180.421 -92.4201,301.205l533.972 0 533.979 0c-25.4362,-120.784 -49.291,-263.041 -92.4201,-301.205 -27.9756,-24.7642 -96.1831,-78.5091 -332.205,-181.983l-216.106 -1.41496z"/>
   <path id="_388589616" class="fil0" d="M1138.6 799.803l0 261.618c-63.0308,77.1945 -166.169,74.5241 -229.193,0l0 -261.618c0,-141.262 229.193,-141.262 229.193,0z"/>
   <path id="_388589856" class="fil1" d="M1138.6 799.803l0 175.153c-43.3689,31.611 -85.1646,49.3193 -114.598,49.3193 -29.4319,0 -71.2359,-17.7083 -114.595,-49.3134l0 -175.159c0,-141.262 229.193,-141.262 229.193,0z"/>
   <path id="_388590216" class="fil0" d="M731.154 584.58c20.178,-6.64134 45.8611,16.2614 57.3544,51.1689 11.5028,34.9063 4.44922,68.5914 -15.7288,75.2375 -20.1874,6.64843 -45.8717,-16.2567 -57.3638,-51.1642 -11.5004,-34.9028 -4.4504,-68.589 15.7382,-75.2422z"/>
   <path id="_388589832" class="fil0" d="M1321.26 584.585c-20.1874,-6.64607 -45.8717,16.2567 -57.365,51.1642 -11.4921,34.9063 -4.44922,68.5914 15.7394,75.2375 20.1851,6.64843 45.8693,-16.2591 57.3615,-51.1642 11.5028,-34.9028 4.45276,-68.589 -15.7358,-75.2375z"/>
   <path id="_388590264" class="fil0" d="M1024 330.11c-384.613,0 -246.295,464.741 -221.171,501.731 27.7004,40.7953 159.037,148.934 221.171,148.934 62.152,0 193.469,-108.135 221.18,-148.934 25.1327,-36.9969 163.442,-501.731 -221.18,-501.731z"/>
   <path id="_388589808" class="fil2" d="M936.941 434.984c-64.5485,-42.7276 -147.304,118.317 -169.508,249.218 -47.23,-179.551 -17.7,-335.809 116.812,-398.253 66.6095,-30.9225 195.592,-32.739 281.538,-15.0236 112.693,23.2299 142.481,141.636 116.33,393.405 -23.7402,-106.45 -107.57,-273.696 -171.054,-229.347 -52.8874,36.9473 -121.167,35.0445 -174.118,0z"/>
   <path id="_388589904" class="fil1" d="M900.687 791.176c84.1961,32.5654 179.297,29.3835 246.633,0 -26.9162,69.6875 -208.265,70.252 -246.633,0z"/>
   <path id="_388590096" class="fil3" d="M828.431 1047.44c-165.964,77.9233 -221.873,121.828 -245.986,143.166 -43.1268,38.1614 -66.9827,180.412 -92.4272,301.205l533.979 0 533.986 0c-25.4433,-120.793 -49.2981,-263.048 -92.4272,-301.205 -23.2937,-20.6232 -74.5123,-61.3453 -227.247,-134.126 -1.09016,1.12677 -2.59016,1.92402 -3.25866,3.38032 -41.5996,91.0867 -114.976,143.014 -191.141,168.887 -105.58,-20.7036 -196.241,-102.543 -210.31,-174.147 -1.71496,-2.43662 -3.44646,-4.7693 -5.16851,-7.16103z"/>
   <path id="_388589784" class="fil4" d="M555.365 1232.23c-27.1583,61.1847 -45.7926,166.723 -65.3481,259.589l216.775 0c-4.84961,-151.506 -5.11536,-232.088 -151.427,-259.589z"/>
   <path id="_388588920" class="fil4" d="M1492.63 1232.23c27.1689,61.1847 45.7926,166.723 65.3481,259.589l-216.775 0c4.84134,-151.506 5.11772,-232.088 151.427,-259.589z"/>
   <path id="_388589040" class="fil4" d="M828.431 1047.44c-15.7028,7.37008 -30.4181,14.4366 -44.2122,21.2079 40.1363,83.6091 113.495,167.834 259.69,200.975 126.984,-38.2394 193.63,-115.988 231.962,-194.894 -11.7945,-5.84646 -24.2823,-11.9256 -37.5614,-18.2492 -1.09016,1.12677 -2.59016,1.92402 -3.25866,3.38032 -41.5996,91.0867 -114.976,143.014 -191.141,168.887 -105.58,-20.7036 -196.241,-102.543 -210.31,-174.147 -1.71496,-2.43662 -3.44646,-4.7693 -5.16851,-7.16103z"/>
  </g>
  <g id="_388587480">
   <path id="_388589496" class="fil5" d="M500.387 1730.33l1040.78 0c4.25906,0 7.74095,3.72402 7.74095,8.27363l0 43.8461c0,4.55079 -3.48189,8.27363 -7.74095,8.27363l-1040.78 0c-4.25788,0 -7.73977,-3.72284 -7.73977,-8.27363l0 -43.8461c0,-4.54961 3.48189,-8.27363 7.73977,-8.27363z"/>
   <path id="_388589256" class="fil6" d="M1532.32 1727.24c34.6075,0 55.226,-31.187 62.9209,-67.2473l76.0323 -356.355c7.69489,-36.0603 -28.3158,-67.2473 -62.9209,-67.2473 -352.343,0 -816.36,0 -1168.7,0 -34.604,0 -70.6146,31.187 -62.9209,67.2473l76.0335 356.355c7.69371,36.0603 28.3134,67.2473 62.9209,67.2473 301.654,0 714.982,0 1016.64,0z"/>
   <path id="_388589184" class="fil7" d="M1671.34 1303.26c7.37245,-35.9055 -28.5059,-66.8788 -62.993,-66.8788 -352.343,0 -816.36,0 -1168.7,0 -34.4859,0 -70.3642,30.9733 -62.9918,66.8788l1294.69 0z"/>
   <g>
    <rect id="_388589064" class="fil2" x="689.129" y="1726.21" width="97.1186" height="6.03071"/>
    <rect id="_388588848" class="fil2" x="1261.75" y="1726.21" width="97.1198" height="6.03071"/>
   </g>
   <rect id="_388589472" class="fil2" x="543.799" y="1743.39" width="113.143" height="34.2839"/>
   <rect id="_388589304" class="fil8" x="551.775" y="1748.75" width="12.3626" height="23.5666"/>
   <rect id="_388588896" class="fil8" x="571.525" y="1748.75" width="12.3626" height="23.5666"/>
   <rect id="_388588728" class="fil8" x="591.276" y="1748.75" width="12.3626" height="23.5666"/>
   <rect id="_388588224" class="fil8" x="611.025" y="1748.75" width="12.3638" height="23.5666"/>
   <rect id="_388588392" class="fil8" x="630.775" y="1748.75" width="12.3626" height="23.5666"/>
   <rect id="_388588128" class="fil2" x="1384.61" y="1747.24" width="113.143" height="26.576"/>
   <rect id="_388588656" class="fil8" x="1399.89" y="1751.68" width="82.591" height="17.687"/>
   <path id="_388588704" class="fil8" d="M1391.76 1757.87c1.37362,0 2.4874,1.19055 2.4874,2.65984 0,1.46811 -1.11378,2.65866 -2.4874,2.65866 -1.3748,0 -2.48858,-1.19055 -2.48858,-2.65866 0,-1.46929 1.11378,-2.65984 2.48858,-2.65984z"/>
   <path id="_388588560" class="fil8" d="M1490.21 1757.87c1.37362,0 2.4874,1.19055 2.4874,2.65984 0,1.46811 -1.11378,2.65866 -2.4874,2.65866 -1.3748,0 -2.48858,-1.19055 -2.48858,-2.65866 0,-1.46929 1.11378,-2.65984 2.48858,-2.65984z"/>
   <path id="_388588032" class="fil9" d="M1391.76 1757.26c0.843308,0 1.60984,0.367323 2.16142,0.957875 0.552756,0.590552 0.897638,1.41024 0.897638,2.31142 0,0.900001 -0.344882,1.71969 -0.897638,2.31024 -0.551575,0.591733 -1.31811,0.960237 -2.16142,0.960237 -0.843308,0 -1.60984,-0.368504 -2.1626,-0.960237 -0.551575,-0.590552 -0.896457,-1.41024 -0.896457,-2.31024 0,-0.901182 0.344882,-1.72087 0.896457,-2.31142 0.552756,-0.590552 1.31929,-0.957875 2.1626,-0.957875zm1.35591 1.8189c-0.344882,-0.368504 -0.825591,-0.597638 -1.35591,-0.597638 -0.531496,0 -1.01221,0.229134 -1.35709,0.597638 -0.344882,0.368504 -0.559843,0.882284 -0.559843,1.45039 0,0.56693 0.214961,1.08071 0.559843,1.44921 0.344882,0.368504 0.825591,0.598819 1.35709,0.598819 0.530315,0 1.01102,-0.230315 1.35591,-0.598819 0.344882,-0.368504 0.561024,-0.882284 0.561024,-1.44921 0,-0.568111 -0.216142,-1.08189 -0.561024,-1.45039z"/>
   <path id="_388588776" class="fil9" d="M1490.21 1757.26c0.843308,0 1.60984,0.367323 2.16142,0.957875 0.552756,0.590552 0.897638,1.41024 0.897638,2.31142 0,0.900001 -0.344882,1.71969 -0.897638,2.31024 -0.551575,0.591733 -1.31811,0.960237 -2.16142,0.960237 -0.843308,0 -1.60984,-0.368504 -2.1626,-0.960237 -0.551575,-0.590552 -0.896457,-1.41024 -0.896457,-2.31024 0,-0.901182 0.344882,-1.72087 0.896457,-2.31142 0.552756,-0.590552 1.31929,-0.957875 2.1626,-0.957875zm1.35591 1.8189c-0.344882,-0.368504 -0.825591,-0.597638 -1.35591,-0.597638 -0.531496,0 -1.01221,0.229134 -1.35709,0.597638 -0.344882,0.368504 -0.559843,0.882284 -0.559843,1.45039 0,0.56693 0.214961,1.08071 0.559843,1.44921 0.344882,0.368504 0.825591,0.598819 1.35709,0.598819 0.530315,0 1.01102,-0.230315 1.35591,-0.598819 0.344882,-0.368504 0.561024,-0.882284 0.561024,-1.44921 0,-0.568111 -0.216142,-1.08189 -0.561024,-1.45039z"/>
   <g>
    <rect id="_388588680" class="fil8" x="704.385" y="1750.53" width="165.305" height="4.12441"/>
    <rect id="_388587456" class="fil8" x="704.385" y="1758.46" width="165.305" height="4.12677"/>
    <rect id="_388587288" class="fil8" x="704.385" y="1766.4" width="165.305" height="4.12441"/>
    <rect id="_388587600" class="fil8" x="1171.87" y="1750.53" width="165.305" height="4.12441"/>
    <rect id="_388588008" class="fil8" x="1171.87" y="1758.46" width="165.305" height="4.12677"/>
    <rect id="_388587984" class="fil8" x="1171.87" y="1766.4" width="165.305" height="4.12441"/>
   </g>
   <path id="_388587576" class="fil8" d="M1024 1423.89c48.5528,0 87.9107,32.1201 87.9107,71.7414 0,39.6225 -39.3579,83.1697 -87.9107,83.1697 -48.5516,0 -87.9107,-43.5473 -87.9107,-83.1697 0,-39.6213 39.3591,-71.7414 87.9107,-71.7414z"/>
  </g>
  <g id="_388587432">
   <path id="_388587672" class="fil10" d="M1158.66 575.008c75.7453,-6.39804 117.226,11.0008 124.984,14.6091 9.35316,4.363 7.20355,35.8441 -0.715749,42.1146 -7.91812,6.2752 -14.3906,31.3571 -33.1181,62.7154 -12.0378,20.1591 -54.1878,28.6949 -91.1505,30.9756l0 -8.80749c30.2173,-1.7374 61.865,-8.46379 75.6319,-20.2524 27.9414,-23.941 30.6024,-74.8914 10.0795,-98.6056 -10.7622,-12.4547 -48.28,-15.9236 -85.7115,-13.7043l0 -9.04489zm-269.331 0l0 0 3.17362 0.284646c77.7579,7.16103 94.3229,25.9772 102.242,25.0866 9.26221,-1.04764 19.2721,-2.62205 28.7256,-2.62205 9.45473,0 20.1614,1.52953 29.7839,2.62205 7.91812,0.890552 24.4736,-17.9256 102.232,-25.0866l3.17362 -0.284646 0 9.04489 -0.386221 0.0283465c-37.5662,2.2689 -86.5666,13.1091 -96.1891,39.8965 -9.61182,26.7839 8.70237,74.6599 35.2689,86.6233 12.0567,5.43544 36.1866,7.44568 61.3063,6.01418l0 8.80749c-20.5465,1.26142 -39.4748,0.595276 -50.7626,-1.08898 -31.6713,-4.71851 -55.3689,-52.2815 -59.6823,-66.6225 -9.71576,-32.2051 -38.7248,-32.2051 -48.4311,0 -4.32284,14.341 -28.0205,61.904 -59.6918,66.6225 -11.2878,1.68425 -30.2162,2.3504 -50.7626,1.08898l0 -8.80749c25.1303,1.4315 49.2603,-0.578741 61.3205,-6.01418 26.5524,-11.9634 44.8807,-59.8394 35.2548,-86.6233 -9.613,-26.7874 -58.6229,-37.6276 -96.1796,-39.8965l-0.39567 -0.0283465 0 -9.04489zm-124.984 14.6091l0 0c7.7693,-3.60827 49.2496,-21.0071 124.984,-14.6091l0 9.04489c-37.4185,-2.23583 -74.9386,1.26142 -85.7115,13.7043 -20.5134,23.7142 -17.8618,74.6646 10.0784,98.6056 13.7669,11.7886 45.417,18.515 75.6331,20.2524l0 8.80749c-36.9626,-2.28071 -79.1138,-10.8165 -91.1398,-30.9756 -18.724,-31.3583 -25.2,-56.4402 -33.1193,-62.7154 -7.92875,-6.27048 -10.0772,-37.7516 -0.725197,-42.1146z"/>
   <path id="_388587816" class="fil0" d="M803.623 597.758c10.8083,-12.4843 48.554,-15.9532 86.1072,-13.676 37.5567,2.2689 86.5666,13.1091 96.1796,39.8965 9.62599,26.7839 -8.70237,74.6599 -35.2548,86.6233 -26.5772,11.9776 -111.744,7.363 -136.954,-14.2382 -27.9402,-23.941 -30.5918,-74.8914 -10.0784,-98.6056z"/>
   <path id="_388587888" class="fil0" d="M1244.38 597.758c-10.7953,-12.4843 -48.5433,-15.9532 -86.0977,-13.676 -37.5662,2.2689 -86.5666,13.1091 -96.1891,39.8965 -9.61182,26.7839 8.70237,74.6599 35.2689,86.6233 26.563,11.9776 111.73,7.363 136.938,-14.2382 27.9414,-23.941 30.6024,-74.8914 10.0795,-98.6056z"/>
  </g>
 </g>
 <rect class="fil11" width="2048" height="2048"/>
</svg>
