<?xml version="1.0" encoding="UTF-8"?>
<!DOCTYPE svg PUBLIC "-//W3C//DTD SVG 1.1//EN" "http://www.w3.org/Graphics/SVG/1.1/DTD/svg11.dtd">
<!-- Creator: CorelDRAW -->
<svg xmlns="http://www.w3.org/2000/svg" xml:space="preserve" width="2048px" height="2048px" style="shape-rendering:geometricPrecision; text-rendering:geometricPrecision; image-rendering:optimizeQuality; fill-rule:evenodd; clip-rule:evenodd"
viewBox="0 0 2048 2048"
 xmlns:xlink="http://www.w3.org/1999/xlink">
 <defs>
  <style type="text/css">
   <![CDATA[
    .fil26 {fill:none}
    .fil5 {fill:#0277BD}
    .fil8 {fill:#212121}
    .fil22 {fill:#263238}
    .fil2 {fill:#37474F}
    .fil6 {fill:#3E2723}
    .fil24 {fill:#616161}
    .fil19 {fill:#90A4AE}
    .fil23 {fill:#9E9E9E}
    .fil18 {fill:#B0BEC5}
    .fil25 {fill:#B71C1C}
    .fil17 {fill:#D32F2F}
    .fil3 {fill:#D7B48F}
    .fil21 {fill:#E57373}
    .fil7 {fill:#E8C198}
    .fil9 {fill:#FF6F00}
    .fil13 {fill:#FFECB3}
    .fil14 {fill:#212121;fill-rule:nonzero}
    .fil20 {fill:#3B4C55;fill-rule:nonzero}
    .fil15 {fill:#B71C1C;fill-rule:nonzero}
    .fil16 {fill:#D32F2F;fill-rule:nonzero}
    .fil10 {fill:#D7B48F;fill-rule:nonzero}
    .fil0 {fill:#E8C198;fill-rule:nonzero}
    .fil12 {fill:#E9CBAB;fill-rule:nonzero}
    .fil1 {fill:#FF6F00;fill-rule:nonzero}
    .fil4 {fill:#FF8F00;fill-rule:nonzero}
    .fil11 {fill:#FFA000;fill-rule:nonzero}
   ]]>
  </style>
 </defs>
 <g id="Layer_x0020_1">
  <metadata id="CorelCorpID_0Corel-Layer"/>
  <path class="fil0" d="M341.544 1431.89c4.28622,6.54686 11.6705,9.78662 17.0717,5.89016 3.57638,-2.58071 4.55788,-10.4787 2.46142,-16.963 -2.88544,-10.911 0.923623,-11.6717 -2.51339,-34.2296 -3.3189,-21.7973 5.81693,-38.4319 -10.0276,-58.8308l4.88032 -28.1079 -71.165 -12.8788 -4.64764 26.3469c-13.3642,9.52087 -22.0453,22.2921 -24.4843,40.7363l-2.67874 20.2689c-2.41418,18.2669 0.393307,17.5193 -2.02205,35.7851 -1.85669,14.0551 16.9158,19.6536 19.4492,3.52087l2.87244 -18.2823 -1.60866 30.9189c-0.811418,15.5811 17.4969,18.2811 19.448,3.52087 2.1,-15.8823 2.3811,-13.3276 4.48111,-29.2087 2.49095,-18.8386 -0.334252,29.4744 -1.30394,36.8103 -1.96417,14.8524 17.1189,18.7878 19.4492,3.52087l5.26772 -35.8075 -0.801969 30.352c-1.22362,15.9272 17.504,17.9315 19.448,3.52087l3.97914 -29.5063 0.638977 0.115748c-0.474804,9.81615 -3.13701,14.9599 1.80591,22.5071z"/>
  <path class="fil1" d="M361.902 1260.04l-79.5579 -14.3988c-2.90788,-0.526772 -5.63977,1.88504 -6.10276,5.38583l-3.92835 29.7107c-0.461811,3.50079 1.52008,6.76536 4.42796,7.29213l79.5568 14.3976c2.90788,0.526772 5.64095,-1.88504 6.10394,-5.38583l3.92717 -29.7107c0.462992,-3.50079 -1.5189,-6.76654 -4.42678,-7.29095z"/>
  <polygon class="fil2" points="805.678,1277.14 386.732,1277.14 386.732,1797.21 554.893,1797.21 592.114,1470.29 633.4,1797.21 805.678,1797.21 "/>
  <rect class="fil3" x="523.055" y="648.01" width="152.01" height="186.161"/>
  <path class="fil4" d="M271.276 1278.69l95.393 14.4236 19.4398 -293.494 1.88032 254.61 417.623 0 -4.20709 -314.119 29.9067 48.3804c35.7898,-10.1941 135.639,-8.15316 87.9131,-70.2839 -32.1012,-41.7898 -126.656,-192.869 -193.377,-204.812 -20.4225,-3.65433 -37.1918,-15.2362 -54.6768,-17.804l-72.7371 60.613c-54.3059,-41.7 -116.474,-48.2611 -164.519,-31.6831 -51.9048,17.9102 -90.469,54.0721 -103.811,108.34 -12.0225,48.9083 -58.8272,390.222 -58.8272,445.828z"/>
  <polygon class="fil5" points="615.874,754.42 580.678,758.467 559.306,1098.81 588.391,1147.77 626.269,1098.81 "/>
  <rect class="fil6" x="384.852" y="1244.53" width="425.217" height="40.1339"/>
  <path class="fil7" d="M746.382 421.493l-294.644 0 0 129.243c0,81.026 66.2941,147.321 147.323,147.321l0 0c81.0272,0 147.321,-66.2918 147.321,-147.321l0 -129.243z"/>
  <path class="fil8" d="M749.776 491.829c-22.9583,-3.89055 -46.4729,-11.0528 -68.3752,-21.2398 -25.0961,-11.6705 -48.4205,-27.4984 -66.9579,-47.1933 -9.03662,9.06615 -18.6307,17.7945 -28.6299,26.054 -39.567,32.6752 -86.3599,58.9347 -130.543,70.2792 -6.68386,-21.4299 -10.4835,-43.7185 -10.4835,-65.5489 0,-52.0748 18.4158,-86.3091 48.1831,-107.888 28.2024,-20.4449 65.5264,-27.9792 106.089,-27.9792 40.5638,0 77.8867,7.53426 106.089,27.9792 29.7685,21.5788 48.1819,55.8119 48.1819,107.888 0,14.9043 -0.760631,22.5047 -3.55394,37.6488z"/>
  <polygon class="fil8" points="455.2,497.334 461.894,497.334 461.894,546.219 455.2,537.261 "/>
  <polygon class="fil8" points="749.845,488.627 743.151,488.627 743.151,537.513 749.845,528.556 "/>
  <polygon class="fil9" points="702.397,656.941 599.06,754.223 630.471,806.709 724.384,715.081 "/>
  <polygon class="fil9" points="495.723,656.941 599.059,754.223 567.65,806.709 474.491,716.966 "/>
  <path class="fil10" d="M1175.74 661.476c-2.94921,-8.87835 -10.4929,-14.8843 -17.9303,-12.0319 -4.92402,1.88858 -8.4756,10.7173 -8.03623,18.8528 -0.00590552,13.4953 -7.80001,31.1988 -16.1008,41.7402 -16.3595,20.7768 -36.2528,29.0835 -38.8441,59.8619l-27.065 20.765 52.1516 68.9847 25.4327 -19.4055c19.4669,2.45315 37.4481,-1.74449 54.5351,-15.9886l18.7795 -15.6543c16.9217,-14.1083 13.8473,-15.7264 30.7701,-29.8347 13.0217,-10.8555 1.04764,-30.9874 -14.2524,-18.8516l-17.3351 13.7504 26.4638 -25.8886c13.3347,-13.0441 -0.577559,-30.2528 -14.2512,-18.8516 -14.7142,12.2658 -12.8929,9.79017 -27.6059,22.0547 -17.4532,14.5512 24.1736,-25.65 30.9709,-31.317 13.7587,-11.4685 0.165354,-30.391 -14.2536,-18.8516l-33.6425 27.2221 25.2957 -26.0421c13.9795,-13.0169 -0.86693,-29.9516 -14.2524,-18.854l-27.404 22.7244 -0.467717 -0.620079c4.59685,-10.3925 10.4445,-33.5268 7.04174,-43.7646z"/>
  <path class="fil1" d="M1028.21 818.626l58.3016 77.1178c2.12953,2.81929 6.4878,2.9126 9.72993,0.207874l27.5256 -22.9465c3.24331,-2.70355 4.14567,-7.18111 2.01378,-9.99922l-58.3004 -77.119c-2.13071,-2.81929 -6.4878,-2.91142 -9.73111,-0.207874l-27.5244 22.9465c-3.24331,2.70473 -4.14567,7.17993 -2.01496,10.0004z"/>
  <path class="fil11" d="M831.051 975.633c33.4666,-27.9744 166.368,-171.564 196.538,-171.762 7.27914,-0.0484252 13.9181,2.72835 18.1606,8.33977l50.1922 66.3945c4.24252,5.61142 5.3126,13.0311 3.61654,20.465 -1.69488,7.43386 -6.15709,14.8902 -12.9756,20.5736 -55.5662,40.1044 -128.023,100.197 -156.761,105.522 -24.0201,4.45158 -121.247,-28.1055 -98.7709,-49.5331z"/>
  <path class="fil12" d="M1246.25 747.628c5.43189,-4.5437 6.15355,-12.6307 1.60984,-18.0626 -4.54134,-5.43308 -12.6295,-6.15355 -18.0626,-1.60984l-33.9225 26.5311c-5.43308,4.54134 -6.15355,12.6295 -1.61102,18.0626 4.54252,5.43189 12.6295,6.15355 18.0626,1.60984l33.9236 -26.5311z"/>
  <path class="fil12" d="M1235.07 719.467c5.43308,-4.54252 6.15473,-12.6307 1.61221,-18.0638 -4.5437,-5.43189 -12.6307,-6.15355 -18.0626,-1.60984l-35.0362 29.5831c-5.43189,4.5437 -6.15355,12.6307 -1.60984,18.0626 4.54252,5.43308 12.6307,6.15355 18.0614,1.61102l35.0351 -29.5831z"/>
  <path class="fil12" d="M1214.86 701.983c5.43308,-4.54252 6.15355,-12.6307 1.61102,-18.0638 -4.54252,-5.43071 -12.6295,-6.15237 -18.0626,-1.60984l-26.8382 22.5284c-5.43308,4.5437 -6.15355,12.6307 -1.60984,18.0626 4.54134,5.43308 12.6295,6.15355 18.0626,1.61102l26.837 -22.5284z"/>
  <path class="fil12" d="M1251.95 776.377c5.43189,-4.54252 6.15355,-12.6307 1.60984,-18.0638 -4.54252,-5.43189 -12.6307,-6.15237 -18.0614,-1.60984l-27.7429 22.0347c-5.43189,4.5437 -6.15355,12.6307 -1.61102,18.0638 4.54252,5.43189 12.6295,6.15355 18.0626,1.61102l27.7429 -22.0358z"/>
  <path class="fil13" d="M1171.04 709.334c6.40749,-5.34804 14.4118,-6.31536 17.8784,-2.16142 3.46418,4.15276 1.07953,11.8536 -5.32914,17.2016 -6.40749,5.34685 -10.9016,3.75 -14.3681,-0.402756 -3.46536,-4.15276 -4.58977,-9.29174 1.8189,-14.6374z"/>
  <path class="fil13" d="M1182.17 733.889c6.46063,-5.28189 14.4744,-6.17245 17.8984,-1.98425 3.42402,4.18701 0.962599,11.8654 -5.49685,17.1484 -6.46063,5.28426 -10.9394,3.6437 -14.3646,-0.544489 -3.42402,-4.18701 -4.49764,-9.33544 1.96299,-14.6197z"/>
  <path class="fil13" d="M1196.46 757.256c7.05827,-4.45394 15.1193,-4.35709 18.0071,0.217323 2.88662,4.57441 -0.493701,11.8937 -7.55197,16.3488 -7.05827,4.45394 -11.3032,2.27835 -14.1898,-2.29606 -2.88662,-4.57441 -3.32362,-9.81497 3.73465,-14.2701z"/>
  <path class="fil13" d="M1206.98 782.519c6.83977,-4.78229 14.8984,-5.06575 17.9977,-0.633071 3.1004,4.43268 0.068504,11.9043 -6.77127,16.6866 -6.83977,4.78229 -11.1827,2.81103 -14.2819,-1.62284 -3.1004,-4.43268 -3.78425,-9.64725 3.05551,-14.4307z"/>
  <polygon class="fil14" points="743.252,713.61 743.252,713.607 743.218,713.611 743.214,713.613 "/>
  <polygon class="fil14" points="742.782,713.664 742.782,713.66 723.999,715.804 724.003,715.811 "/>
  <polygon class="fil14" points="743.252,713.607 743.252,713.61 755.441,712.215 "/>
  <polygon class="fil14" points="742.782,713.66 742.782,713.664 742.87,713.653 742.868,713.651 "/>
  <polygon class="fil14" points="742.868,713.651 742.87,713.653 743.062,713.631 743.038,713.631 "/>
  <polygon class="fil14" points="743.038,713.631 743.062,713.631 743.214,713.613 743.218,713.611 "/>
  <g id="_388590984">
   <path id="_388556688" class="fil15" d="M1381.82 521.026c0,-11.0291 -19.8319,-19.9701 -44.2949,-19.9701 -24.4606,0 -44.2937,8.94095 -44.2937,19.9701l0 65.8595c0,11.028 19.8331,19.9701 44.2937,19.9701 24.463,0 44.2949,-8.94213 44.2949,-19.9701l0 -65.8595z"/>
   <path id="_388556592" class="fil16" d="M1249.71 475.026c-11.028,0 -19.9689,18.7736 -19.9689,41.9268 0,23.1555 8.94095,41.928 19.9689,41.928l175.629 0c11.028,0 19.9689,-18.7725 19.9689,-41.928 0,-23.1532 -8.94095,-41.9268 -19.9689,-41.9268l-175.629 0z"/>
   <path id="_388556832" class="fil15" d="M1637.62 626.465c5.98701,-9.21851 3.36851,-21.5469 -5.85,-27.5351 -9.21851,-5.98819 -21.548,-3.36851 -27.5362,5.85l-35.8689 55.2343c-5.98701,9.21969 -3.36851,21.548 5.85,27.5362 9.21851,5.98701 21.548,3.36851 27.5351,-5.85l35.8701 -55.2355z"/>
   <path id="_388556616" class="fil15" d="M1070.81 604.779c-5.98819,-9.21851 -18.3165,-11.837 -27.5351,-5.84882 -9.21851,5.98701 -11.8382,18.3154 -5.85,27.5339l35.8689 55.2367c5.98819,9.21851 18.3177,11.837 27.5362,5.84882 9.21851,-5.98819 11.837,-18.3154 5.84882,-27.5351l-35.8689 -55.2355z"/>
   <path id="_388556064" class="fil17" d="M1337.52 570.384c119.738,0 228.143,48.5363 306.613,127.005 78.469,78.4701 127.005,186.875 127.005,306.612 0,119.738 -48.5363,228.142 -127.005,306.612 -78.4701,78.4701 -186.874,127.005 -306.613,127.005 -119.737,0 -228.141,-48.5351 -306.611,-127.005 -78.4701,-78.4701 -127.005,-186.875 -127.005,-306.612 0,-119.738 48.5374,-228.142 127.005,-306.612 78.4701,-78.4678 186.875,-127.005 306.611,-127.005z"/>
   <path id="_388555992" class="fil18" d="M1337.52 637.77c101.131,0 192.69,40.9926 258.965,107.268 66.2752,66.2752 107.268,157.834 107.268,258.964 0,101.132 -40.9926,192.69 -107.268,258.964 -66.2752,66.2741 -157.833,107.268 -258.965,107.268 -101.128,0 -192.689,-40.9937 -258.963,-107.268 -66.2752,-66.2741 -107.268,-157.834 -107.268,-258.964 0,-101.13 40.9926,-192.689 107.268,-258.964 66.2741,-66.2752 157.834,-107.268 258.963,-107.268z"/>
   <path id="_388556352" class="fil17" d="M1046.94 572.919c19.3217,0 34.9855,15.6638 34.9855,34.9831 0,19.3217 -15.6638,34.9855 -34.9855,34.9855 -19.3193,0 -34.9831,-15.6638 -34.9831,-34.9855 0,-19.3193 15.6638,-34.9831 34.9831,-34.9831z"/>
   <path id="_388556400" class="fil17" d="M1628.07 572.919c19.3217,0 34.9855,15.6638 34.9855,34.9831 0,19.3217 -15.6638,34.9855 -34.9855,34.9855 -19.3193,0 -34.9831,-15.6638 -34.9831,-34.9855 0,-19.3193 15.6638,-34.9831 34.9831,-34.9831z"/>
   <path id="_388555824" class="fil19" d="M1337.52 676.106c181.093,0 327.896,146.804 327.896,327.896 0,181.091 -146.803,327.897 -327.896,327.897 -181.09,0 -327.897,-146.805 -327.897,-327.897 0,-181.091 146.806,-327.896 327.897,-327.896zm0 52.7516c151.958,0 275.145,123.187 275.145,275.144 0,151.957 -123.187,275.144 -275.145,275.144 -151.958,0 -275.143,-123.187 -275.143,-275.144 0,-151.957 123.184,-275.144 275.143,-275.144z"/>
   <path id="_388556472" class="fil20" d="M1011.18 996.875c-3.93544,0 -7.12678,3.19134 -7.12678,7.12796 0,3.93544 3.19134,7.12796 7.12678,7.12796l43.8095 0c3.93662,0 7.12914,-3.19252 7.12914,-7.12796 0,-3.93662 -3.19252,-7.12796 -7.12914,-7.12796l-43.8095 0z"/>
   <path id="_388555920" class="fil20" d="M1344.65 677.665c0,-3.93662 -3.19134,-7.12914 -7.12914,-7.12914 -3.93544,0 -7.12678,3.19252 -7.12678,7.12914l0 43.8071c0,3.93662 3.19134,7.12914 7.12678,7.12914 3.9378,0 7.12914,-3.19252 7.12914,-7.12914l0 -43.8071z"/>
   <path id="_388556112" class="fil20" d="M1620.05 996.875c-3.9378,0 -7.12914,3.19134 -7.12914,7.12796 0,3.93544 3.19134,7.12796 7.12914,7.12796l43.8071 0c3.93662,0 7.12914,-3.19252 7.12914,-7.12796 0,-3.93662 -3.19252,-7.12796 -7.12914,-7.12796l-43.8071 0z"/>
   <path id="_388555776" class="fil20" d="M1344.65 1286.53c0,-3.9378 -3.19134,-7.12914 -7.12914,-7.12914 -3.93544,0 -7.12678,3.19134 -7.12678,7.12914l0 43.8071c0,3.9378 3.19134,7.12914 7.12678,7.12914 3.9378,0 7.12914,-3.19134 7.12914,-7.12914l0 -43.8071z"/>
   <g>
    <path id="_388556160" class="fil20" d="M1111.81 768.206c-2.78386,-2.78386 -7.29804,-2.78386 -10.0819,0 -2.78386,2.78386 -2.78386,7.29804 0,10.0819l30.978 30.9768c2.78268,2.78268 7.29686,2.78268 10.0795,0 2.78386,-2.78386 2.78386,-7.29804 0,-10.0819l-30.9756 -30.9768z"/>
    <path id="_388555392" class="fil20" d="M1111.81 1239.8c-2.78386,2.78386 -7.29804,2.78386 -10.0819,0 -2.78386,-2.78386 -2.78386,-7.29686 0,-10.0807l30.978 -30.9768c2.78268,-2.78386 7.29686,-2.78386 10.0795,0 2.78386,2.78268 2.78386,7.29686 0,10.0807l-30.9756 30.9768z"/>
    <path id="_388555488" class="fil20" d="M1542.34 1198.74c-2.78386,-2.78386 -7.29804,-2.78386 -10.0819,0 -2.78268,2.78268 -2.78268,7.29686 0,10.0807l30.978 30.9768c2.78386,2.78386 7.29686,2.78386 10.0819,0 2.78386,-2.78386 2.78386,-7.29686 0,-10.0807l-30.978 -30.9768z"/>
    <path id="_388555536" class="fil20" d="M1542.34 809.265c-2.78386,2.78268 -7.29804,2.78268 -10.0819,0 -2.78268,-2.78386 -2.78268,-7.29804 0,-10.0819l30.978 -30.9768c2.78386,-2.78386 7.29686,-2.78386 10.0819,0 2.78386,2.78386 2.78386,7.29804 0,10.0819l-30.978 30.9768z"/>
   </g>
   <path id="_388555440" class="fil21" d="M1352.27 998.114l174.012 183.003c44.8961,-47.843 70.0843,-111.138 70.0843,-177.115 0,-137.984 -107.958,-250.747 -244.027,-258.423l-0.0696851 252.535z"/>
   <path id="_388555104" class="fil2" d="M1377.42 1031.13l149.34 171.701 -164.979 -156.731 -19.6205 -20.5016 -0.162992 -0.246851c-7.22127,1.77284 -15.163,-0.253937 -20.674,-6.01182 -5.49567,-5.74252 -7.17638,-13.7374 -5.11536,-20.8595l-4.55079 -4.7563c-4.13386,-4.31811 -3.98386,-11.1697 0.334252,-15.3036 4.31929,-4.13386 11.1721,-3.98268 15.3047,0.335433l4.59922 4.80473c7.17048,-1.6937 15.0248,0.346063 20.4886,6.05552 5.50394,5.75197 7.18111,13.7658 5.10355,20.8961l0.311811 0.11811 19.6205 20.5004z"/>
   <g>
    <path id="_388555272" class="fil22" d="M1326.64 957.77l10.8248 -227.303 10.8236 227.303 0 28.376 -0.0531496 0.290551c6.4441,3.71221 10.7799,10.6677 10.7799,18.6378 0,7.94764 -4.31457,14.8878 -10.7268,18.6059l0 6.58465c0,5.97874 -4.84607,10.8248 -10.8236,10.8248 -5.97756,0 -10.8248,-4.84607 -10.8248,-10.8248l0 -6.64961c-6.35197,-3.73583 -10.6146,-10.6394 -10.6146,-18.541 0,-7.96182 4.32638,-14.9114 10.7599,-18.626l-0.145276 -0.301181 0 -28.3772z"/>
    <path id="_388555656" class="fil23" d="M1337.52 993.007c6.66378,0 12.0673,5.40355 12.0673,12.0673 0,6.6626 -5.40355,12.065 -12.0673,12.065 -6.66378,0 -12.0662,-5.40237 -12.0662,-12.065 0,-6.66378 5.40237,-12.0673 12.0662,-12.0673z"/>
    <path id="_388555224" class="fil24" d="M1337.52 1000.8c2.35866,0 4.26969,1.91221 4.26969,4.26969 0,2.35748 -1.91103,4.26851 -4.26969,4.26851 -2.35748,0 -4.26851,-1.91103 -4.26851,-4.26851 0,-2.35748 1.91103,-4.26969 4.26851,-4.26969z"/>
   </g>
   <g>
    <path id="_388555296" class="fil25" d="M1253.7 554.592c-2.35158,-10.5508 -3.74055,-23.5606 -3.74055,-37.6394 0,-14.0764 1.38898,-27.0851 3.74055,-37.637 2.35276,10.552 3.74292,23.5606 3.74292,37.637 0,14.0788 -1.39016,27.0886 -3.74292,37.6394z"/>
    <path id="_388555080" class="fil25" d="M1267.67 554.592c-2.35276,-10.5508 -3.74292,-23.5606 -3.74292,-37.6394 0,-14.0764 1.39016,-27.0851 3.74292,-37.637 2.3504,10.552 3.74174,23.5606 3.74174,37.637 0,14.0788 -1.39134,27.0886 -3.74174,37.6394z"/>
    <path id="_388591344" class="fil25" d="M1281.64 554.592c-2.35158,-10.5508 -3.74174,-23.5606 -3.74174,-37.6394 0,-14.0764 1.39016,-27.0851 3.74174,-37.637 2.35158,10.552 3.74055,23.5606 3.74055,37.637 0,14.0788 -1.38898,27.0886 -3.74055,37.6394z"/>
    <path id="_388591248" class="fil25" d="M1295.61 554.592c-2.3504,-10.5508 -3.74174,-23.5606 -3.74174,-37.6394 0,-14.0764 1.39134,-27.0851 3.74174,-37.637 2.35276,10.552 3.74292,23.5606 3.74292,37.637 0,14.0788 -1.39016,27.0886 -3.74292,37.6394z"/>
    <path id="_388591368" class="fil25" d="M1309.58 554.592c-2.35276,-10.5508 -3.74174,-23.5606 -3.74174,-37.6394 0,-14.0764 1.38898,-27.0851 3.74174,-37.637 2.35158,10.552 3.74055,23.5606 3.74055,37.637 0,14.0788 -1.38898,27.0886 -3.74055,37.6394z"/>
    <path id="_388591560" class="fil25" d="M1323.55 554.592c-2.3504,-10.5508 -3.74055,-23.5606 -3.74055,-37.6394 0,-14.0764 1.39016,-27.0851 3.74055,-37.637 2.35276,10.552 3.74174,23.5606 3.74174,37.637 0,14.0788 -1.38898,27.0886 -3.74174,37.6394z"/>
    <path id="_388591152" class="fil25" d="M1337.52 554.592c-2.35158,-10.5508 -3.74055,-23.5606 -3.74055,-37.6394 0,-14.0764 1.38898,-27.0851 3.74055,-37.637 2.35276,10.552 3.74174,23.5606 3.74174,37.637 0,14.0788 -1.38898,27.0886 -3.74174,37.6394z"/>
    <path id="_388591440" class="fil25" d="M1351.49 554.592c-2.35276,-10.5508 -3.74174,-23.5606 -3.74174,-37.6394 0,-14.0764 1.38898,-27.0851 3.74174,-37.637 2.3504,10.552 3.74055,23.5606 3.74055,37.637 0,14.0788 -1.39016,27.0886 -3.74055,37.6394z"/>
    <path id="_388591392" class="fil25" d="M1365.46 554.592c-2.35158,-10.5508 -3.74055,-23.5606 -3.74055,-37.6394 0,-14.0764 1.38898,-27.0851 3.74055,-37.637 2.35276,10.552 3.74174,23.5606 3.74174,37.637 0,14.0788 -1.38898,27.0886 -3.74174,37.6394z"/>
    <path id="_388590768" class="fil25" d="M1379.43 554.592c-2.35158,-10.5508 -3.74174,-23.5606 -3.74174,-37.6394 0,-14.0764 1.39016,-27.0851 3.74174,-37.637 2.35276,10.552 3.74292,23.5606 3.74292,37.637 0,14.0788 -1.39016,27.0886 -3.74292,37.6394z"/>
    <path id="_388590960" class="fil25" d="M1393.4 554.592c-2.35158,-10.5508 -3.74055,-23.5606 -3.74055,-37.6394 0,-14.0764 1.38898,-27.0851 3.74055,-37.637 2.35158,10.552 3.74174,23.5606 3.74174,37.637 0,14.0788 -1.39016,27.0886 -3.74174,37.6394z"/>
    <path id="_388590864" class="fil25" d="M1407.37 554.592c-2.35158,-10.5508 -3.74174,-23.5606 -3.74174,-37.6394 0,-14.0764 1.39016,-27.0851 3.74174,-37.637 2.35158,10.552 3.74055,23.5606 3.74055,37.637 0,14.0788 -1.38898,27.0886 -3.74055,37.6394z"/>
    <path id="_388590408" class="fil25" d="M1421.34 554.592c-2.35276,-10.5508 -3.74292,-23.5606 -3.74292,-37.6394 0,-14.0764 1.39016,-27.0851 3.74292,-37.637 2.35158,10.552 3.74055,23.5606 3.74055,37.637 0,14.0788 -1.38898,27.0886 -3.74055,37.6394z"/>
   </g>
  </g>
 </g>
 <rect class="fil26" width="2048" height="2048"/>
</svg>
