<?xml version="1.0" encoding="UTF-8"?>
<!DOCTYPE svg PUBLIC "-//W3C//DTD SVG 1.1//EN" "http://www.w3.org/Graphics/SVG/1.1/DTD/svg11.dtd">
<!-- Creator: CorelDRAW -->
<svg xmlns="http://www.w3.org/2000/svg" xml:space="preserve" width="2048px" height="2048px" style="shape-rendering:geometricPrecision; text-rendering:geometricPrecision; image-rendering:optimizeQuality; fill-rule:evenodd; clip-rule:evenodd"
viewBox="0 0 2048 2048"
 xmlns:xlink="http://www.w3.org/1999/xlink">
 <defs>
  <style type="text/css">
   <![CDATA[
    .fil10 {fill:none}
    .fil4 {fill:#00BFA5}
    .fil7 {fill:#03A9F4}
    .fil2 {fill:#263238}
    .fil0 {fill:#424242}
    .fil8 {fill:#455A64}
    .fil5 {fill:#8BC34A}
    .fil6 {fill:#D50000}
    .fil3 {fill:#FF9800}
    .fil1 {fill:#00ACC1;fill-rule:nonzero}
    .fil9 {fill:#B71C1C;fill-rule:nonzero}
   ]]>
  </style>
 </defs>
 <g id="Layer_x0020_1">
  <metadata id="CorelCorpID_0Corel-Layer"/>
  <g id="_388560456">
   <rect id="_388564920" class="fil0" x="1215.92" y="969.439" width="137.084" height="658.009"/>
   <rect id="_388564704" class="fil0" x="694.997" y="969.439" width="137.084" height="658.009"/>
   <path id="_388564656" class="fil1" d="M618.048 1463.39l811.906 0c21.7902,0 41.5796,8.74253 55.9087,22.826 14.328,14.0858 23.2217,33.5362 23.2217,54.9544l0 173.002c0,21.4169 -8.89371,40.8697 -23.2217,54.9532 -14.3291,14.0835 -34.1185,22.826 -55.9087,22.826l-811.906 0c-21.789,0 -41.5796,-8.74253 -55.9087,-22.826 -14.328,-14.0835 -23.2217,-33.5362 -23.2217,-54.9532l0 -173.002c0,-21.4181 8.89371,-40.8685 23.2217,-54.9544 14.3303,-14.0835 34.1197,-22.826 55.9087,-22.826z"/>
   <rect id="_388564440" class="fil2" x="516.786" y="1515.5" width="1014.43" height="224.333"/>
   <g>
    <rect id="_388564680" class="fil3" x="580.946" y="1613.67" width="67.0773" height="27.9992"/>
    <rect id="_388564152" class="fil4" x="687.599" y="1613.67" width="67.0773" height="27.9992"/>
    <rect id="_388563816" class="fil5" x="794.253" y="1613.67" width="67.0773" height="27.9992"/>
    <rect id="_388563552" class="fil6" x="900.907" y="1613.67" width="67.0773" height="27.9992"/>
    <rect id="_388563528" class="fil7" x="1109.9" y="1613.67" width="67.0773" height="27.9992"/>
    <g>
     <rect id="_388563672" class="fil8" x="1287.07" y="1633.82" width="179.988" height="27.9992"/>
     <rect id="_388563480" class="fil8" x="1287.07" y="1593.52" width="179.988" height="27.9992"/>
    </g>
   </g>
   <path id="_388562856" class="fil1" d="M618.048 695.268l811.906 0c21.7902,0 41.5796,8.74371 55.9087,22.826 14.328,14.0858 23.2217,33.5362 23.2217,54.9544l0 173.002c0,21.4169 -8.89371,40.8697 -23.2217,54.9532 -14.3291,14.0835 -34.1185,22.826 -55.9087,22.826l-811.906 0c-21.789,0 -41.5796,-8.74253 -55.9087,-22.826 -14.328,-14.0835 -23.2217,-33.5362 -23.2217,-54.9532l0 -173.002c0,-21.4181 8.89371,-40.8685 23.2217,-54.9544 14.3303,-14.0823 34.1197,-22.826 55.9087,-22.826z"/>
   <rect id="_388563024" class="fil2" x="516.786" y="747.383" width="1014.43" height="224.333"/>
   <g>
    <rect id="_388563216" class="fil3" x="580.946" y="845.55" width="67.0773" height="27.9992"/>
    <rect id="_388563000" class="fil4" x="687.599" y="845.55" width="67.0773" height="27.9992"/>
    <rect id="_388563192" class="fil5" x="794.253" y="845.55" width="67.0773" height="27.9992"/>
    <rect id="_388563240" class="fil6" x="900.907" y="845.55" width="67.0773" height="27.9992"/>
    <rect id="_388562352" class="fil7" x="1109.9" y="845.55" width="67.0773" height="27.9992"/>
    <g>
     <rect id="_388561968" class="fil8" x="1287.07" y="865.704" width="179.988" height="27.9992"/>
     <rect id="_388562448" class="fil8" x="1287.07" y="825.396" width="179.988" height="27.9992"/>
    </g>
   </g>
   <path id="_388562208" class="fil1" d="M618.048 1078.92l811.906 0c21.7902,0 41.5796,8.74253 55.9087,22.8248 14.328,14.0858 23.2217,33.5374 23.2217,54.9544l0 173.002c0,21.4181 -8.89371,40.8697 -23.2217,54.9532 -14.3291,14.0835 -34.1185,22.826 -55.9087,22.826l-811.906 0c-21.789,0 -41.5796,-8.74253 -55.9087,-22.826 -14.328,-14.0835 -23.2217,-33.5351 -23.2217,-54.9532l0 -173.002c0,-21.4169 8.89371,-40.8685 23.2217,-54.9544 14.3303,-14.0823 34.1197,-22.8248 55.9087,-22.8248z"/>
   <rect id="_388562424" class="fil2" x="516.786" y="1131.04" width="1014.43" height="224.333"/>
   <g>
    <rect id="_388561512" class="fil3" x="580.946" y="1229.21" width="67.0773" height="27.9992"/>
    <rect id="_388561704" class="fil4" x="687.599" y="1229.21" width="67.0773" height="27.9992"/>
    <rect id="_388561872" class="fil5" x="794.253" y="1229.21" width="67.0773" height="27.9992"/>
    <rect id="_388561368" class="fil6" x="900.907" y="1229.21" width="67.0773" height="27.9992"/>
    <rect id="_388561152" class="fil7" x="1109.9" y="1229.21" width="67.0773" height="27.9992"/>
    <g>
     <rect id="_388561632" class="fil8" x="1287.07" y="1249.36" width="179.988" height="27.9992"/>
     <rect id="_388560648" class="fil8" x="1287.07" y="1209.05" width="179.988" height="27.9992"/>
    </g>
   </g>
  </g>
  <path class="fil9" d="M1177.34 587.638l0 248.725c0,15.2622 -13.7303,27.6366 -30.6673,27.6366l-245.338 0c-16.937,0 -30.6673,-12.3744 -30.6673,-27.6366l0 -248.725 -91.9985 0 0 -0.00236221c-6.7252,0.00354331 -13.4976,-1.97362 -19.1563,-6.05434 -13.226,-9.53387 -15.3709,-26.9268 -4.79055,-38.8453l0.119291 0.0874016 243.381 -274.165c1.7504,-2.44606 3.96142,-4.68307 6.62245,-6.60237 13.2248,-9.53387 32.524,-7.60158 43.1044,4.31575l-23.9469 17.2642 23.8382 -17.165 243.425 274.213c5.40591,4.98189 8.73898,11.798 8.73898,19.3158 0,15.2634 -13.7315,27.6378 -30.6673,27.6378l-91.9973 0z"/>
 </g>
 <rect class="fil10" width="2048" height="2048"/>
</svg>
