<?xml version="1.0" encoding="UTF-8"?>
<!DOCTYPE svg PUBLIC "-//W3C//DTD SVG 1.1//EN" "http://www.w3.org/Graphics/SVG/1.1/DTD/svg11.dtd">
<!-- Creator: CorelDRAW -->
<svg xmlns="http://www.w3.org/2000/svg" xml:space="preserve" width="2048px" height="2048px" style="shape-rendering:geometricPrecision; text-rendering:geometricPrecision; image-rendering:optimizeQuality; fill-rule:evenodd; clip-rule:evenodd"
viewBox="0 0 2048 2048"
 xmlns:xlink="http://www.w3.org/1999/xlink">
 <defs>
  <style type="text/css">
   <![CDATA[
    .fil9 {fill:none}
    .fil7 {fill:#00695C;fill-rule:nonzero}
    .fil1 {fill:#1565C0;fill-rule:nonzero}
    .fil6 {fill:#2E7D32;fill-rule:nonzero}
    .fil0 {fill:#546E7A;fill-rule:nonzero}
    .fil8 {fill:#7B1FA2;fill-rule:nonzero}
    .fil4 {fill:#8BC34A;fill-rule:nonzero}
    .fil3 {fill:#C2185B;fill-rule:nonzero}
    .fil5 {fill:#C62828;fill-rule:nonzero}
    .fil2 {fill:#FFA000;fill-rule:nonzero}
   ]]>
  </style>
 </defs>
 <g id="Layer_x0020_1">
  <metadata id="CorelCorpID_0Corel-Layer"/>
  <g id="_388581624">
   <path id="_388582584" class="fil0" d="M780.167 1400.74c0,8.4567 6.8563,15.3142 15.313,15.3142 8.45552,0 15.313,-6.85749 15.313,-15.3142l0 -97.9371c0,-8.4567 -6.85749,-15.313 -15.313,-15.313l-391.75 0c-8.45552,0 -15.313,6.8563 -15.313,15.313l0 97.9371c0,8.4567 6.85749,15.3142 15.313,15.3142 8.4567,0 15.3142,-6.85749 15.3142,-15.3142l0 -82.6241 361.122 0 0 82.6241z"/>
   <path id="_388582632" class="fil0" d="M614.919 1186.74c0,-8.4567 -6.8563,-15.313 -15.313,-15.313 -8.4567,0 -15.313,6.8563 -15.313,15.313l0 116.067c0,8.45552 6.8563,15.313 15.313,15.313 8.4567,0 15.313,-6.85749 15.313,-15.313l0 -116.067z"/>
   <path id="_388582056" class="fil0" d="M1628.96 1400.74c0,8.4567 6.85749,15.3142 15.3142,15.3142 8.45552,0 15.313,-6.85749 15.313,-15.3142l0 -97.9371c0,-8.4567 -6.85749,-15.313 -15.313,-15.313l-391.751 0c-8.45552,0 -15.313,6.8563 -15.313,15.313l0 97.9371c0,8.4567 6.85749,15.3142 15.313,15.3142 8.4567,0 15.313,-6.85749 15.313,-15.3142l0 -82.6241 361.124 0 0 82.6241z"/>
   <path id="_388582536" class="fil0" d="M1463.71 1186.74c0,-8.4567 -6.8563,-15.313 -15.313,-15.313 -8.4567,0 -15.313,6.8563 -15.313,15.313l0 116.067c0,8.45552 6.8563,15.313 15.313,15.313 8.4567,0 15.313,-6.85749 15.313,-15.313l0 -116.067z"/>
   <path id="_388582008" class="fil0" d="M1432.27 987.818c0,8.45552 6.8563,15.313 15.313,15.313 8.45552,0 15.313,-6.85749 15.313,-15.313l0 -124.506c0,-8.45552 -6.85749,-15.313 -15.313,-15.313l-847.171 0c-8.45552,0 -15.313,6.85749 -15.313,15.313l0 124.506c0,8.45552 6.85749,15.313 15.313,15.313 8.4567,0 15.313,-6.85749 15.313,-15.313l0 -109.192 816.545 0 0 109.192z"/>
   <path id="_388582296" class="fil0" d="M1039.31 744.468c0,-8.4567 -6.8563,-15.313 -15.313,-15.313 -8.4567,0 -15.313,6.8563 -15.313,15.313l0 222.187c0,8.4567 6.8563,15.313 15.313,15.313 8.4567,0 15.313,-6.8563 15.313,-15.313l0 -222.187z"/>
   <path id="_388582224" class="fil1" d="M834.575 448.647l378.851 0c16.9134,0 30.626,13.7126 30.626,30.626l0 265.194c0,16.9134 -13.7126,30.626 -30.626,30.626l-378.851 0c-16.9134,0 -30.626,-13.7126 -30.626,-30.626l0 -265.194c0,-16.9134 13.7126,-30.626 30.626,-30.626z"/>
   <path id="_388582200" class="fil2" d="M895.857 957.314l256.286 0c16.9134,0 30.626,13.7126 30.626,30.626l0 179.401c0,16.9134 -13.7126,30.626 -30.626,30.626l-256.286 0c-16.9146,0 -30.6272,-13.7126 -30.6272,-30.626l0 -179.401c0,-16.9134 13.7126,-30.626 30.6272,-30.626z"/>
   <path id="_388582176" class="fil3" d="M471.462 957.314l256.286 0c16.9146,0 30.6272,13.7126 30.6272,30.626l0 179.401c0,16.9134 -13.7126,30.626 -30.6272,30.626l-256.286 0c-16.9134,0 -30.626,-13.7126 -30.626,-30.626l0 -179.401c0,-16.9134 13.7126,-30.626 30.626,-30.626z"/>
   <path id="_388582104" class="fil4" d="M1320.25 957.314l256.286 0c16.9134,0 30.626,13.7126 30.626,30.626l0 179.401c0,16.9134 -13.7126,30.626 -30.626,30.626l-256.286 0c-16.9146,0 -30.6272,-13.7126 -30.6272,-30.626l0 -179.401c0,-16.9134 13.7126,-30.626 30.6272,-30.626z"/>
   <path id="_388581456" class="fil5" d="M678.038 1373.92l234.546 0c16.9146,0 30.6272,13.7126 30.6272,30.626l0 164.182c0,16.9134 -13.7126,30.626 -30.6272,30.626l-234.546 0c-16.9134,0 -30.626,-13.7126 -30.626,-30.626l0 -164.182c0,-16.9134 13.7126,-30.626 30.626,-30.626z"/>
   <path id="_388581384" class="fil6" d="M286.627 1373.92l234.546 0c16.9134,0 30.626,13.7126 30.626,30.626l0 164.182c0,16.9134 -13.7126,30.626 -30.626,30.626l-234.546 0c-16.9146,0 -30.6272,-13.7126 -30.6272,-30.626l0 -164.182c0,-16.9134 13.7126,-30.626 30.6272,-30.626z"/>
   <path id="_388581720" class="fil7" d="M1526.83 1373.92l234.546 0c16.9146,0 30.626,13.7126 30.626,30.626l0 164.182c0,16.9134 -13.7114,30.626 -30.626,30.626l-234.546 0c-16.9146,0 -30.6272,-13.7126 -30.6272,-30.626l0 -164.182c0,-16.9134 13.7126,-30.626 30.6272,-30.626z"/>
   <path id="_388581840" class="fil8" d="M1135.42 1373.92l234.546 0c16.9134,0 30.626,13.7126 30.626,30.626l0 164.182c0,16.9134 -13.7126,30.626 -30.626,30.626l-234.546 0c-16.9146,0 -30.6272,-13.7126 -30.6272,-30.626l0 -164.182c0,-16.9134 13.7126,-30.626 30.6272,-30.626z"/>
  </g>
 </g>
 <rect class="fil9" width="2048" height="2048"/>
</svg>
